G75*
G70*
%OFA0B0*%
%FSLAX25Y25*%
%IPPOS*%
%LPD*%
%AMOC8*
5,1,8,0,0,1.08239X$1,22.5*
%
%ADD10R,0.04724X0.03150*%
%ADD113R,0.01772X0.02953*%
%ADD116R,0.05900X0.05500*%
%ADD12R,0.02000X0.03500*%
%ADD132R,0.14961X0.07087*%
%ADD138R,0.07500X0.05000*%
%ADD14R,0.03500X0.02400*%
%ADD141R,0.04300X0.06300*%
%ADD143R,0.04134X0.02559*%
%ADD149R,0.02000X0.04000*%
%ADD150R,0.10000X0.17500*%
%ADD151R,0.11811X0.03937*%
%ADD155R,0.03500X0.02000*%
%ADD157R,0.00984X0.06102*%
%ADD163R,0.01575X0.05315*%
%ADD19R,0.05000X0.03000*%
%ADD36R,0.03150X0.04724*%
%ADD48R,0.05906X0.05906*%
%ADD60R,0.01969X0.02362*%
%ADD65R,0.10000X0.10500*%
%ADD66R,0.02953X0.01772*%
%ADD69R,0.11811X0.05512*%
%ADD70R,0.06000X0.09000*%
%ADD72R,0.04300X0.03900*%
%ADD78R,0.02400X0.03500*%
%ADD92R,0.10000X0.10000*%
%ADD94R,0.06300X0.06300*%
%ADD96C,0.00500*%
X0000000Y0000000D02*
G75*
%LPD*%
D143*
X0023331Y0003366D03*
X0023331Y0011634D03*
X0039669Y0011634D03*
X0039669Y0003366D03*
X0063331Y0003366D03*
X0063331Y0011634D03*
X0079669Y0011634D03*
X0079669Y0003366D03*
X0103331Y0003366D03*
X0103331Y0011634D03*
X0119669Y0011634D03*
X0119669Y0003366D03*
D60*
X0101815Y0076937D03*
X0099059Y0076937D03*
X0096303Y0076937D03*
X0093547Y0076937D03*
X0090791Y0076937D03*
X0088035Y0076937D03*
X0085280Y0076937D03*
X0082524Y0076937D03*
X0079768Y0076937D03*
X0077012Y0076937D03*
X0074256Y0076937D03*
X0071500Y0076937D03*
X0068744Y0076937D03*
X0065988Y0076937D03*
X0063232Y0076937D03*
X0060476Y0076937D03*
X0057720Y0076937D03*
X0054965Y0076937D03*
X0052209Y0076937D03*
X0049453Y0076937D03*
X0046697Y0076937D03*
X0043941Y0076937D03*
X0041185Y0076937D03*
D36*
X0047957Y0010000D03*
X0055043Y0010000D03*
X0150000Y0000000D02*
G75*
%LPD*%
D143*
X0173331Y0003366D03*
X0173331Y0011634D03*
X0189669Y0011634D03*
X0189669Y0003366D03*
X0213331Y0003366D03*
X0213331Y0011634D03*
X0229669Y0011634D03*
X0229669Y0003366D03*
X0253331Y0003366D03*
X0253331Y0011634D03*
X0269669Y0011634D03*
X0269669Y0003366D03*
D60*
X0251815Y0076937D03*
X0249059Y0076937D03*
X0246303Y0076937D03*
X0243547Y0076937D03*
X0240791Y0076937D03*
X0238035Y0076937D03*
X0235280Y0076937D03*
X0232524Y0076937D03*
X0229768Y0076937D03*
X0227012Y0076937D03*
X0224256Y0076937D03*
X0221500Y0076937D03*
X0218744Y0076937D03*
X0215988Y0076937D03*
X0213232Y0076937D03*
X0210476Y0076937D03*
X0207720Y0076937D03*
X0204965Y0076937D03*
X0202209Y0076937D03*
X0199453Y0076937D03*
X0196697Y0076937D03*
X0193941Y0076937D03*
X0191185Y0076937D03*
D36*
X0197957Y0010000D03*
X0205043Y0010000D03*
X0300000Y0000000D02*
G75*
%LPD*%
X0000000Y0130000D02*
G75*
%LPD*%
D150*
X0071500Y0155000D03*
X0071500Y0225000D03*
X0150000Y0130000D02*
G75*
%LPD*%
D150*
X0221500Y0155000D03*
X0221500Y0225000D03*
X0300000Y0130000D02*
G75*
%LPD*%
D14*
X0386500Y0199500D03*
X0386500Y0205500D03*
X0396500Y0205500D03*
X0396500Y0199500D03*
X0406500Y0199500D03*
X0406500Y0205500D03*
X0416500Y0205500D03*
X0416500Y0199500D03*
X0396500Y0234500D03*
X0396500Y0240500D03*
X0354000Y0210500D03*
X0354000Y0204500D03*
X0346500Y0205750D03*
X0346500Y0211750D03*
X0339000Y0211750D03*
X0339000Y0205750D03*
X0331500Y0205750D03*
X0331500Y0211750D03*
X0322750Y0219500D03*
X0322750Y0225500D03*
X0346500Y0232000D03*
X0346500Y0238000D03*
D10*
X0322750Y0212293D03*
X0322750Y0205207D03*
D78*
X0367250Y0203750D03*
X0373250Y0203750D03*
D155*
X0381500Y0212500D03*
X0381500Y0217500D03*
X0381500Y0222500D03*
X0381500Y0227500D03*
X0381500Y0232500D03*
X0381500Y0237500D03*
X0381500Y0242500D03*
X0359000Y0242500D03*
X0359000Y0237500D03*
X0359000Y0232500D03*
X0359000Y0227500D03*
X0359000Y0222500D03*
X0359000Y0217500D03*
X0359000Y0212500D03*
X0000000Y0260000D02*
G75*
%LPD*%
D138*
X0091500Y0280625D03*
X0114000Y0280625D03*
D96*
X0086500Y0261875D02*
X0081500Y0261875D01*
X0081500Y0269375D01*
X0084625Y0272500D01*
X0091500Y0272500D01*
X0092750Y0271250D01*
X0092750Y0268750D01*
X0087750Y0268750D01*
X0086500Y0267500D01*
X0086500Y0261875D01*
X0086500Y0261994D02*
X0081500Y0261994D01*
X0081500Y0262493D02*
X0086500Y0262493D01*
X0086500Y0262991D02*
X0081500Y0262991D01*
X0081500Y0263490D02*
X0086500Y0263490D01*
X0086500Y0263988D02*
X0081500Y0263988D01*
X0081500Y0264487D02*
X0086500Y0264487D01*
X0086500Y0264985D02*
X0081500Y0264985D01*
X0081500Y0265484D02*
X0086500Y0265484D01*
X0086500Y0265982D02*
X0081500Y0265982D01*
X0081500Y0266481D02*
X0086500Y0266481D01*
X0086500Y0266979D02*
X0081500Y0266979D01*
X0081500Y0267478D02*
X0086500Y0267478D01*
X0086976Y0267976D02*
X0081500Y0267976D01*
X0081500Y0268475D02*
X0087475Y0268475D01*
X0084089Y0271964D02*
X0092036Y0271964D01*
X0092534Y0271466D02*
X0083591Y0271466D01*
X0083092Y0270967D02*
X0092750Y0270967D01*
X0092750Y0270469D02*
X0082594Y0270469D01*
X0082095Y0269970D02*
X0092750Y0269970D01*
X0092750Y0269472D02*
X0081597Y0269472D01*
X0081500Y0268973D02*
X0092750Y0268973D01*
X0091537Y0272463D02*
X0084588Y0272463D01*
X0112750Y0271250D02*
X0112750Y0268750D01*
X0117750Y0268750D01*
X0119000Y0267500D01*
X0119000Y0261875D01*
X0125250Y0261875D01*
X0125250Y0263750D01*
X0122750Y0266250D01*
X0122750Y0269375D01*
X0120250Y0271875D01*
X0113375Y0271875D01*
X0112750Y0271250D01*
X0112750Y0270967D02*
X0121158Y0270967D01*
X0121656Y0270469D02*
X0112750Y0270469D01*
X0112750Y0269970D02*
X0122155Y0269970D01*
X0122653Y0269472D02*
X0112750Y0269472D01*
X0112750Y0268973D02*
X0122750Y0268973D01*
X0122750Y0268475D02*
X0118025Y0268475D01*
X0118524Y0267976D02*
X0122750Y0267976D01*
X0122750Y0267478D02*
X0119000Y0267478D01*
X0119000Y0266979D02*
X0122750Y0266979D01*
X0122750Y0266481D02*
X0119000Y0266481D01*
X0119000Y0265982D02*
X0123018Y0265982D01*
X0123516Y0265484D02*
X0119000Y0265484D01*
X0119000Y0264985D02*
X0124015Y0264985D01*
X0124513Y0264487D02*
X0119000Y0264487D01*
X0119000Y0263988D02*
X0125012Y0263988D01*
X0125250Y0263490D02*
X0119000Y0263490D01*
X0119000Y0262991D02*
X0125250Y0262991D01*
X0125250Y0262493D02*
X0119000Y0262493D01*
X0119000Y0261994D02*
X0125250Y0261994D01*
X0120659Y0271466D02*
X0112966Y0271466D01*
D163*
X0107868Y0276630D03*
X0105309Y0276630D03*
X0102750Y0276630D03*
X0100191Y0276630D03*
X0097632Y0276630D03*
D48*
X0096844Y0266000D03*
X0108656Y0266000D03*
D116*
X0056000Y0342250D03*
X0047000Y0342250D03*
X0047000Y0355000D03*
X0056000Y0355000D03*
D66*
X0081018Y0339774D03*
X0081018Y0336624D03*
X0081018Y0333474D03*
X0081018Y0330325D03*
X0081018Y0327175D03*
X0081018Y0324026D03*
X0081018Y0320876D03*
X0081018Y0317726D03*
X0114482Y0317726D03*
X0114482Y0320876D03*
X0114482Y0324026D03*
X0114482Y0327175D03*
X0114482Y0330325D03*
X0114482Y0333474D03*
X0114482Y0336624D03*
X0114482Y0339774D03*
D113*
X0108774Y0345482D03*
X0105624Y0345482D03*
X0102474Y0345482D03*
X0099325Y0345482D03*
X0096175Y0345482D03*
X0093026Y0345482D03*
X0089876Y0345482D03*
X0086726Y0345482D03*
X0086726Y0312018D03*
X0089876Y0312018D03*
X0093026Y0312018D03*
X0096175Y0312018D03*
X0099325Y0312018D03*
X0102474Y0312018D03*
X0105624Y0312018D03*
X0108774Y0312018D03*
D72*
X0064000Y0336075D03*
X0064000Y0342675D03*
X0064000Y0350450D03*
X0064000Y0357050D03*
X0100250Y0357675D03*
X0100250Y0351075D03*
D70*
X0072750Y0361250D03*
D149*
X0070750Y0339250D03*
X0074750Y0339250D03*
D69*
X0102051Y0296250D03*
X0120949Y0296250D03*
D143*
X0098419Y0363366D03*
X0098419Y0371634D03*
X0082081Y0371634D03*
X0082081Y0363366D03*
D65*
X0089000Y0297500D03*
D19*
X0089000Y0288250D03*
X0150000Y0260000D02*
G75*
%LPD*%
D138*
X0241500Y0280625D03*
X0264000Y0280625D03*
D96*
X0236500Y0261875D02*
X0231500Y0261875D01*
X0231500Y0269375D01*
X0234625Y0272500D01*
X0241500Y0272500D01*
X0242750Y0271250D01*
X0242750Y0268750D01*
X0237750Y0268750D01*
X0236500Y0267500D01*
X0236500Y0261875D01*
X0236500Y0261994D02*
X0231500Y0261994D01*
X0231500Y0262493D02*
X0236500Y0262493D01*
X0236500Y0262991D02*
X0231500Y0262991D01*
X0231500Y0263490D02*
X0236500Y0263490D01*
X0236500Y0263988D02*
X0231500Y0263988D01*
X0231500Y0264487D02*
X0236500Y0264487D01*
X0236500Y0264985D02*
X0231500Y0264985D01*
X0231500Y0265484D02*
X0236500Y0265484D01*
X0236500Y0265982D02*
X0231500Y0265982D01*
X0231500Y0266481D02*
X0236500Y0266481D01*
X0236500Y0266979D02*
X0231500Y0266979D01*
X0231500Y0267478D02*
X0236500Y0267478D01*
X0236976Y0267976D02*
X0231500Y0267976D01*
X0231500Y0268475D02*
X0237475Y0268475D01*
X0234089Y0271964D02*
X0242036Y0271964D01*
X0242534Y0271466D02*
X0233591Y0271466D01*
X0233092Y0270967D02*
X0242750Y0270967D01*
X0242750Y0270469D02*
X0232594Y0270469D01*
X0232095Y0269970D02*
X0242750Y0269970D01*
X0242750Y0269472D02*
X0231597Y0269472D01*
X0231500Y0268973D02*
X0242750Y0268973D01*
X0241537Y0272463D02*
X0234588Y0272463D01*
X0262750Y0271250D02*
X0262750Y0268750D01*
X0267750Y0268750D01*
X0269000Y0267500D01*
X0269000Y0261875D01*
X0275250Y0261875D01*
X0275250Y0263750D01*
X0272750Y0266250D01*
X0272750Y0269375D01*
X0270250Y0271875D01*
X0263375Y0271875D01*
X0262750Y0271250D01*
X0262750Y0270967D02*
X0271158Y0270967D01*
X0271656Y0270469D02*
X0262750Y0270469D01*
X0262750Y0269970D02*
X0272155Y0269970D01*
X0272653Y0269472D02*
X0262750Y0269472D01*
X0262750Y0268973D02*
X0272750Y0268973D01*
X0272750Y0268475D02*
X0268025Y0268475D01*
X0268524Y0267976D02*
X0272750Y0267976D01*
X0272750Y0267478D02*
X0269000Y0267478D01*
X0269000Y0266979D02*
X0272750Y0266979D01*
X0272750Y0266481D02*
X0269000Y0266481D01*
X0269000Y0265982D02*
X0273018Y0265982D01*
X0273516Y0265484D02*
X0269000Y0265484D01*
X0269000Y0264985D02*
X0274015Y0264985D01*
X0274513Y0264487D02*
X0269000Y0264487D01*
X0269000Y0263988D02*
X0275012Y0263988D01*
X0275250Y0263490D02*
X0269000Y0263490D01*
X0269000Y0262991D02*
X0275250Y0262991D01*
X0275250Y0262493D02*
X0269000Y0262493D01*
X0269000Y0261994D02*
X0275250Y0261994D01*
X0270659Y0271466D02*
X0262966Y0271466D01*
D163*
X0257868Y0276630D03*
X0255309Y0276630D03*
X0252750Y0276630D03*
X0250191Y0276630D03*
X0247632Y0276630D03*
D48*
X0246844Y0266000D03*
X0258656Y0266000D03*
D116*
X0206000Y0342250D03*
X0197000Y0342250D03*
X0197000Y0355000D03*
X0206000Y0355000D03*
D66*
X0231018Y0339774D03*
X0231018Y0336624D03*
X0231018Y0333474D03*
X0231018Y0330325D03*
X0231018Y0327175D03*
X0231018Y0324026D03*
X0231018Y0320876D03*
X0231018Y0317726D03*
X0264482Y0317726D03*
X0264482Y0320876D03*
X0264482Y0324026D03*
X0264482Y0327175D03*
X0264482Y0330325D03*
X0264482Y0333474D03*
X0264482Y0336624D03*
X0264482Y0339774D03*
D113*
X0258774Y0345482D03*
X0255624Y0345482D03*
X0252474Y0345482D03*
X0249325Y0345482D03*
X0246175Y0345482D03*
X0243026Y0345482D03*
X0239876Y0345482D03*
X0236726Y0345482D03*
X0236726Y0312018D03*
X0239876Y0312018D03*
X0243026Y0312018D03*
X0246175Y0312018D03*
X0249325Y0312018D03*
X0252474Y0312018D03*
X0255624Y0312018D03*
X0258774Y0312018D03*
D72*
X0214000Y0336075D03*
X0214000Y0342675D03*
X0214000Y0350450D03*
X0214000Y0357050D03*
X0250250Y0357675D03*
X0250250Y0351075D03*
D70*
X0222750Y0361250D03*
D149*
X0220750Y0339250D03*
X0224750Y0339250D03*
D69*
X0252051Y0296250D03*
X0270949Y0296250D03*
D143*
X0248419Y0363366D03*
X0248419Y0371634D03*
X0232081Y0371634D03*
X0232081Y0363366D03*
D65*
X0239000Y0297500D03*
D19*
X0239000Y0288250D03*
X0300000Y0260000D02*
G75*
%LPD*%
D78*
X0328500Y0322500D03*
X0334500Y0322500D03*
X0339750Y0355000D03*
X0345750Y0355000D03*
D36*
X0330043Y0355000D03*
X0322957Y0355000D03*
D14*
X0344000Y0363250D03*
X0344000Y0369250D03*
X0394000Y0363000D03*
X0394000Y0357000D03*
D157*
X0362543Y0312726D03*
X0365102Y0312726D03*
X0367661Y0312726D03*
X0370220Y0312726D03*
X0372780Y0312726D03*
X0375339Y0312726D03*
X0377898Y0312726D03*
X0380457Y0312726D03*
X0380457Y0334774D03*
X0377898Y0334774D03*
X0375339Y0334774D03*
X0372780Y0334774D03*
X0370220Y0334774D03*
X0367661Y0334774D03*
X0365102Y0334774D03*
X0362543Y0334774D03*
D92*
X0371500Y0323750D03*
D69*
X0400801Y0316250D03*
X0419699Y0316250D03*
D141*
X0336046Y0333154D03*
X0326954Y0333154D03*
D94*
X0331500Y0344346D03*
D12*
X0356500Y0347500D03*
X0361500Y0347500D03*
X0366500Y0347500D03*
X0371500Y0347500D03*
X0376500Y0347500D03*
X0381500Y0347500D03*
X0386500Y0347500D03*
X0386500Y0370000D03*
X0381500Y0370000D03*
X0376500Y0370000D03*
X0371500Y0370000D03*
X0366500Y0370000D03*
X0361500Y0370000D03*
X0356500Y0370000D03*
X0450000Y0000000D02*
G75*
%LPD*%
X0600000Y0060000D02*
G75*
%LPD*%
D36*
X0650207Y0077500D03*
X0657293Y0077500D03*
D78*
X0662000Y0077500D03*
X0668000Y0077500D03*
D151*
X0636118Y0074439D03*
X0636118Y0082313D03*
X0636118Y0090187D03*
X0636118Y0098061D03*
D132*
X0617614Y0065187D03*
X0617614Y0107313D03*
X0000000Y0390000D02*
G75*
%LPD*%
X0450000Y0130000D02*
G75*
%LPD*%
X0450000Y0390000D02*
G75*
%LPD*%
M02*
