%
T01C0.015000
T02C0.024300
T03C0.032750
T04C0.039500
T05C0.046100
T06C0.050000
T07C0.060000
T08C0.080000
T09C0.087500
T10C0.169000
T11C0.020000
%
T01
X10500Y52750
X10500Y53500
X11250Y54000
X12000Y54000
X12500Y52750
X16000Y52750
X18000Y53500
X18750Y54000
X21000Y52750
X22500Y53500
X23250Y52750
X24250Y52750
X25000Y52750
X26000Y53000
X27000Y53500
X26000Y54000
X24250Y54000
X24000Y53500
X21500Y54000
X9000Y53500
X52500Y52500
X52000Y53000
X54000Y53750
X55000Y53000
X55750Y52500
X56000Y53000
X56500Y52500
X56000Y53750
X60000Y53000
X62750Y53750
X63500Y52500
X65000Y53750
X66000Y52500
X66500Y52500
X67500Y53000
X68250Y53750
X69250Y53000
X70250Y52500
X71500Y53000
X67500Y57000
X65500Y57000
X9275Y35688
X8525Y35000
X7650Y34625
X6900Y34875
X5150Y33750
X4588Y33688
X3900Y33750
X3400Y33750
X4650Y35000
X7463Y36875
X8650Y36750
X9275Y36750
X9650Y34125
X10900Y32750
X10150Y32500
X8650Y31750
X7525Y31375
X8088Y30688
X9713Y30375
X9775Y30750
X9650Y28938
X12025Y28000
X6150Y31375
X4775Y31375
X2963Y31375
X3588Y31750
X3650Y32188
X4150Y31375
X2400Y35000
X5025Y36000
X10400Y33250
X10931Y31656
X10963Y30125
X11213Y29500
X10400Y29000
X10650Y35250
X24275Y35688
X23525Y35000
X22650Y34625
X21900Y34875
X20150Y33750
X19588Y33688
X18900Y33750
X18400Y33750
X19650Y35000
X22463Y36875
X23650Y36750
X24275Y36750
X24650Y34125
X25900Y32750
X25150Y32500
X23650Y31750
X22525Y31375
X23088Y30688
X24713Y30375
X24775Y30750
X24650Y28938
X27025Y28000
X21150Y31375
X19775Y31375
X17963Y31375
X18588Y31750
X18650Y32188
X19150Y31375
X17400Y35000
X20025Y36000
X25400Y33250
X25931Y31656
X25963Y30125
X26213Y29500
X25400Y29000
X25650Y35250
X33525Y27438
X32963Y29250
X33150Y29750
X34150Y30125
X35150Y30500
X35150Y31000
X35650Y31000
X35650Y30500
X36213Y30000
X36150Y31500
X35650Y31500
X35150Y32000
X34900Y32813
X35150Y33500
X33900Y32750
X33150Y32250
X33775Y31813
X33400Y31500
X34150Y31250
X32400Y32000
X33150Y34125
X32900Y34500
X32650Y35000
X33025Y35500
X33338Y35250
X33650Y35000
X34400Y36188
X35650Y34750
X36650Y34875
X37463Y34250
X37463Y33625
X37025Y33563
X38275Y34375
X39650Y33000
X39650Y32500
X40150Y32500
X40650Y32500
X39650Y31000
X39150Y31000
X39150Y30500
X39150Y30000
X39650Y30000
X39650Y30500
X38650Y31000
X38650Y31500
X38150Y31500
X38150Y32000
X38650Y32000
X38463Y30063
X36150Y32000
X31713Y34438
X31775Y36375
X38088Y36750
X38650Y36750
X39525Y36313
X41400Y35250
X37150Y27688
X2775Y14375
X3400Y14000
X5275Y15500
X5650Y15000
X5275Y16375
X6400Y17750
X5650Y19000
X6650Y20500
X6650Y21125
X7650Y23750
X7900Y17750
X10150Y16000
X9275Y14500
X8025Y14625
X7900Y14000
X17775Y14375
X18400Y14000
X20275Y15500
X20650Y15000
X20275Y16375
X21400Y17750
X20650Y19000
X21650Y20500
X21650Y21125
X22650Y23750
X22900Y17750
X25150Y16000
X24275Y14500
X23025Y14625
X22900Y14000
X32150Y18750
X31775Y21000
X34900Y22625
X36775Y23625
X37275Y24000
X39650Y22750
X40775Y22750
X42275Y21750
X38150Y20750
X36150Y18750
X2775Y1500
X3400Y1750
X4775Y2250
X4900Y2625
X5025Y1750
X5650Y1750
X6400Y2875
X6150Y3250
X5900Y3750
X6650Y3750
X6900Y3375
X7150Y3000
X7525Y3000
X7525Y2625
X8025Y3000
X8275Y3375
X9275Y2875
X9650Y3500
X9775Y3875
X8775Y5000
X8650Y5375
X8400Y5750
X7900Y5875
X7525Y5875
X6650Y5500
X7900Y4500
X7525Y4250
X9150Y5500
X9400Y5125
X9900Y6750
X11150Y7250
X11650Y8000
X9150Y8375
X8650Y8500
X6650Y10500
X4400Y10750
X2275Y9000
X3400Y8500
X4650Y8500
X5150Y8500
X6150Y8500
X4900Y4625
X4900Y4250
X5025Y3875
X2775Y3375
X7275Y750
X8025Y750
X10150Y1875
X11400Y4000
X12525Y4000
X17775Y1500
X18400Y1750
X19775Y2250
X19900Y2625
X20025Y1750
X20650Y1750
X21400Y2875
X21150Y3250
X20900Y3750
X21650Y3750
X21900Y3375
X22150Y3000
X22525Y3000
X22525Y2625
X23025Y3000
X23275Y3375
X24275Y2875
X24650Y3500
X24775Y3875
X23775Y5000
X23650Y5375
X23400Y5750
X22900Y5875
X22525Y5875
X21650Y5500
X22900Y4500
X22525Y4250
X24150Y5500
X24400Y5125
X24900Y6750
X26150Y7250
X26650Y8000
X24150Y8375
X23650Y8500
X21650Y10500
X19400Y10750
X17275Y9000
X18400Y8500
X19650Y8500
X20150Y8500
X21150Y8500
X19900Y4625
X19900Y4250
X20025Y3875
X17775Y3375
X22275Y750
X23025Y750
X25150Y1875
X26400Y4000
X27525Y4000
X33400Y2750
X34650Y500
X37650Y3000
X37400Y3500
X39150Y1500
X39900Y500
X37400Y5750
X37900Y5875
X39025Y6000
X39275Y6500
X41025Y7750
X41900Y7000
X42400Y8500
X39650Y11250
X38150Y8000
X36650Y7750
X34650Y10250
X48150Y4000
X47275Y4125
X48525Y5000
X48900Y7000
X48650Y8000
X48650Y9000
X50150Y8750
X50150Y8000
X51150Y7625
X51650Y8000
X52650Y8750
X53650Y7750
X54650Y5250
X54525Y3000
X53400Y3000
X52275Y2500
X52275Y2000
X51275Y2375
X51275Y2875
X51275Y3375
X51275Y4000
X51150Y4500
X51650Y4500
X57525Y7500
X62500Y6625
X65625Y7000
X67375Y6375
X68125Y6375
X66000Y8000
X65875Y9000
X65250Y9000
X64500Y10375
X66750Y10375
X52500Y26500
X52000Y27000
X54000Y27750
X55000Y27000
X55750Y26500
X56000Y27000
X56500Y26500
X56000Y27750
X60000Y27000
X62750Y27750
X63500Y26500
X65000Y27750
X66000Y26500
X66500Y26500
X67500Y27000
X68250Y27750
X69250Y27000
X70250Y26500
X71500Y27000
X67500Y31000
X65500Y31000
X62500Y625
X65625Y1000
X67375Y375
X68125Y375
X66000Y2000
X65875Y3000
X65250Y3000
X64500Y4375
X66750Y4375
T02
X8650Y21250
X23650Y21250
X33150Y9000
X35525Y2125
X67625Y10000
X67625Y9000
X67625Y4000
X67625Y3000
T03
X9291Y27663
X11259Y27663
X24291Y27663
X26259Y27663
X49150Y1000
X48150Y1000
T04
X9800Y51550
X8800Y51450
X7800Y51550
X7800Y50550
X8800Y50450
X9800Y50550
X10800Y50450
X10800Y51450
X22200Y51550
X23200Y51450
X24200Y51550
X25200Y51450
X25200Y50450
X24200Y50550
X23200Y50450
X22200Y50550
X32950Y50500
X33950Y50500
X33950Y49500
X32950Y49500
X32950Y48500
X33950Y48500
X33950Y47500
X32950Y47500
X32950Y46500
X33950Y46500
X33950Y45500
X32950Y45500
X32950Y44500
X33950Y44500
X33950Y43500
X32950Y43500
X40950Y43500
X41950Y43500
X41950Y44500
X40950Y44500
X40950Y45500
X41950Y45500
X41950Y46500
X40950Y46500
X40950Y47500
X41950Y47500
X41950Y48500
X40950Y48500
X40950Y49500
X41950Y49500
X41950Y50500
X40950Y50500
X40950Y51500
X41950Y51500
X42050Y52500
X41050Y52500
X40950Y53500
X41950Y53500
X42050Y54500
X41050Y54500
X40950Y55500
X41950Y55500
X42050Y56500
X41050Y56500
X40950Y57500
X41950Y57500
X42050Y58500
X41050Y58500
X40950Y59500
X41950Y59500
X42050Y60500
X41050Y60500
X34050Y60500
X33050Y60500
X32950Y59500
X33950Y59500
X34050Y58500
X33050Y58500
X32950Y57500
X33950Y57500
X34050Y56500
X33050Y56500
X32950Y55500
X33950Y55500
X34050Y54500
X33050Y54500
X32950Y53500
X33950Y53500
X34050Y52500
X33050Y52500
X32950Y51500
X33950Y51500
X67200Y51550
X68200Y51450
X69200Y51550
X70200Y51450
X70200Y50450
X69200Y50550
X68200Y50450
X67200Y50550
X55800Y50450
X54800Y50550
X53800Y50450
X52800Y50550
X52800Y51550
X53800Y51450
X54800Y51550
X55800Y51450
X3518Y33000
X4658Y33000
X4650Y29550
X3650Y29450
X2650Y29550
X2650Y28550
X3650Y28450
X4650Y28550
X5650Y28450
X6650Y28550
X7650Y28450
X6650Y27550
X5650Y27450
X4650Y27550
X3650Y27450
X2650Y27550
X5650Y29450
X6650Y29550
X7650Y29450
X7650Y27450
X13150Y33000
X13150Y34000
X13150Y35000
X13150Y36000
X13150Y37000
X1150Y37000
X1150Y36000
X1150Y35000
X1150Y34000
X1150Y33000
X18518Y33000
X19658Y33000
X19650Y29550
X18650Y29450
X17650Y29550
X17650Y28550
X18650Y28450
X19650Y28550
X20650Y28450
X21650Y28550
X22650Y28450
X21650Y27550
X20650Y27450
X19650Y27550
X18650Y27450
X17650Y27550
X20650Y29450
X21650Y29550
X22650Y29450
X22650Y27450
X28150Y33000
X28150Y34000
X28150Y35000
X28150Y36000
X28150Y37000
X16150Y37000
X16150Y36000
X16150Y35000
X16150Y34000
X16150Y33000
X42150Y33675
X41150Y33575
X40150Y33675
X31150Y33000
X31150Y34000
X31150Y35000
X31150Y36000
X31150Y37000
X43150Y37000
X43150Y36000
X43150Y35000
X43150Y34000
X43150Y33000
X13150Y21000
X13150Y20000
X13150Y22000
X13150Y23000
X13150Y24000
X1150Y24000
X1150Y23000
X1150Y22000
X1150Y21000
X1150Y20000
X28150Y21000
X28150Y20000
X28150Y22000
X28150Y23000
X28150Y24000
X16150Y24000
X16150Y23000
X16150Y22000
X16150Y21000
X16150Y20000
X41650Y18000
X40650Y18000
X39650Y18000
X38650Y18000
X37650Y18000
X36650Y18000
X35650Y18000
X34650Y18000
X33650Y18000
X32650Y18000
X32650Y17000
X33650Y17000
X34650Y17000
X35650Y17000
X36650Y17000
X37650Y17000
X38650Y17000
X39650Y17000
X40650Y17000
X41650Y17000
X41650Y16000
X40650Y16000
X39650Y16000
X38650Y16000
X37650Y16000
X36650Y16000
X35650Y16000
X34650Y16000
X33650Y16000
X32650Y16000
X32650Y15000
X33650Y15000
X34650Y15000
X35650Y15000
X36650Y15000
X37650Y15000
X38650Y15000
X39650Y15000
X40650Y15000
X41650Y15000
X41650Y14000
X40650Y14000
X39650Y14000
X38650Y14000
X37650Y14000
X36650Y14000
X35650Y14000
X34650Y14000
X33650Y14000
X32650Y14000
X31150Y20000
X31150Y21000
X31150Y22000
X31150Y23000
X31150Y24000
X43150Y24000
X43150Y23000
X43150Y22000
X43150Y21000
X43150Y20000
X4000Y8875
X10300Y8875
X13150Y7000
X13150Y8000
X13150Y9000
X13150Y10000
X13150Y11000
X1150Y11000
X1150Y10000
X1150Y9000
X1150Y8000
X1150Y7000
X19000Y8875
X25300Y8875
X28150Y7000
X28150Y8000
X28150Y9000
X28150Y10000
X28150Y11000
X16150Y11000
X16150Y10000
X16150Y9000
X16150Y8000
X16150Y7000
X31150Y7000
X31150Y8000
X31150Y9000
X31150Y10000
X31150Y11000
X43150Y11000
X43150Y10000
X43150Y9000
X43150Y8000
X43150Y7000
X56150Y4000
X55150Y4000
X54150Y4000
X54150Y1000
X55150Y1000
X56150Y1000
X46150Y7000
X46150Y8000
X46150Y9000
X46150Y10000
X46150Y11000
X58150Y11000
X58150Y10000
X58150Y9000
X58150Y8000
X58150Y7000
X63625Y8500
X62625Y8500
X61625Y8000
X62625Y7500
X61625Y7000
X63625Y7500
X61625Y9000
X62625Y9500
X61625Y10000
X63625Y9500
X67200Y25550
X68200Y25450
X69200Y25550
X70200Y25450
X70200Y24450
X69200Y24550
X68200Y24450
X67200Y24550
X55800Y24450
X54800Y24550
X53800Y24450
X52800Y24550
X52800Y25550
X53800Y25450
X54800Y25550
X55800Y25450
X63625Y2500
X62625Y2500
X61625Y2000
X62625Y1500
X61625Y1000
X63625Y1500
X61625Y3000
X62625Y3500
X61625Y4000
X63625Y3500
T05
X8897Y26600
X11653Y26600
X23897Y26600
X26653Y26600
X40602Y28500
X39224Y28500
X37846Y28500
X36468Y28500
X35090Y28500
X33713Y28500
X4394Y19787
X4394Y19000
X4394Y18213
X4394Y17425
X4394Y20575
X19394Y19787
X19394Y19000
X19394Y18213
X19394Y17425
X19394Y20575
T06
X10103Y19984
X10103Y19000
X10103Y18016
X25103Y19984
X25103Y19000
X25103Y18016
X68625Y9000
X68625Y10000
X68625Y3000
X68625Y4000
T07
X41150Y6500
X41150Y5500
X41150Y4500
X38150Y1500
X37150Y1500
X36150Y1500
X34150Y4250
X32150Y4250
X32150Y6750
X34150Y6750
X60625Y7000
X60625Y8000
X60625Y9000
X60625Y10000
X60625Y1000
X60625Y2000
X60625Y3000
X60625Y4000
T08
X34525Y8500
X39775Y8500
X39775Y2500
X34525Y2500
T09
X1000Y40000
X3000Y40000
X30000Y40000
X32000Y40000
X43000Y40000
X43000Y62000
X32000Y62000
X30000Y62000
X3000Y62000
X1000Y62000
X46000Y40000
X48000Y40000
X75000Y40000
X77000Y40000
X77000Y62000
X75000Y62000
X48000Y62000
X46000Y62000
X1150Y27000
X13150Y27000
X16150Y27000
X28150Y27000
X31150Y27000
X43150Y27000
X1150Y14000
X13150Y14000
X16150Y14000
X28150Y14000
X31150Y14000
X43150Y14000
X1150Y1000
X13150Y1000
X16150Y1000
X28150Y1000
X31150Y1000
X43150Y1000
X46150Y1000
X58150Y1000
X46000Y14000
X48000Y14000
X75000Y14000
X77000Y14000
X77000Y36000
X75000Y36000
X48000Y36000
X46000Y36000
T10
X2100Y55970
X16500Y55970
X30900Y55970
X30900Y46030
X16500Y46030
X2100Y46030
X47100Y55970
X47100Y46030
X61500Y46030
X61500Y55970
X75900Y55970
X75900Y46030
X47100Y29970
X47100Y20030
X61500Y20030
X61500Y29970
X75900Y29970
X75900Y20030
T11
X5820Y39100
X5500Y39100
X5180Y39100
X20820Y39100
X20500Y39100
X20179Y39100
X35820Y39100
X35500Y39100
X35180Y39100
X20180Y62900
X20500Y62900
X20820Y62900
X5180Y62900
X5500Y62900
X5820Y62900
X51819Y39100
X51499Y39100
X51179Y39100
X70820Y39100
X70500Y39100
X70180Y39100
X70180Y62900
X70500Y62900
X70819Y62900
X51180Y62900
X51499Y62900
X51819Y62900
X5820Y26100
X5500Y26100
X5180Y26100
X5180Y37650
X5500Y37650
X5820Y37650
X20820Y26100
X20500Y26100
X20179Y26100
X20180Y37650
X20500Y37650
X20820Y37650
X35820Y26100
X35500Y26100
X35180Y26100
X35180Y37650
X35500Y37650
X35820Y37650
X5820Y13100
X5500Y13100
X5180Y13100
X5180Y24650
X5500Y24650
X5820Y24650
X20820Y13100
X20500Y13100
X20179Y13100
X20180Y24650
X20500Y24650
X20820Y24650
X35820Y13100
X35500Y13100
X35180Y13100
X35180Y24650
X35500Y24650
X35820Y24650
X5820Y100
X5500Y100
X5180Y100
X5180Y11650
X5500Y11650
X5820Y11650
X20820Y100
X20500Y100
X20179Y100
X20180Y11650
X20500Y11650
X20820Y11650
X35820Y100
X35500Y100
X35180Y100
X35180Y11650
X35500Y11650
X35820Y11650
X51819Y100
X51499Y100
X51179Y100
X51180Y11650
X51499Y11650
X51819Y11650
X63820Y6100
X63500Y6100
X63179Y6100
X63180Y10900
X63500Y10900
X63820Y10900
X51819Y13100
X51499Y13100
X51179Y13100
X63820Y13100
X63500Y13100
X63179Y13100
X70180Y36900
X70500Y36900
X70819Y36900
X51180Y36900
X51499Y36900
X51819Y36900
X63820Y100
X63500Y100
X63179Y100
X63180Y4900
X63500Y4900
X63820Y4900
X5820Y64100
X5500Y64100
X5180Y64100
X20820Y64100
X20500Y64100
X20179Y64100
X51819Y64100
X51499Y64100
X51179Y64100
X70820Y64100
X70500Y64100
X70180Y64100
X63180Y-1100
X63500Y-1100
X63820Y-1100
X51180Y-1100
X51499Y-1100
X51819Y-1100
X35180Y-1100
X35500Y-1100
X35820Y-1100
X20180Y-1100
X20500Y-1100
X20820Y-1100
X5180Y-1100
X5500Y-1100
X5820Y-1100
M30
