G75*
G70*
%OFA0B0*%
%FSLAX25Y25*%
%IPPOS*%
%LPD*%
%AMOC8*
5,1,8,0,0,1.08239X$1,22.5*
%
%ADD10C,0.07350*%
%ADD11C,0.09600*%
%ADD110R,0.10600X0.11100*%
%ADD119C,0.08200*%
%ADD12C,0.05600*%
%ADD122R,0.09261X0.04600*%
%ADD124R,0.11100X0.10600*%
%ADD126R,0.03553X0.02372*%
%ADD130R,0.05324X0.02765*%
%ADD14R,0.08200X0.08200*%
%ADD140R,0.06600X0.10600*%
%ADD17R,0.04900X0.04500*%
%ADD21C,0.15600*%
%ADD23R,0.05600X0.03600*%
%ADD26C,0.12600*%
%ADD28R,0.12411X0.06112*%
%ADD29R,0.04500X0.04900*%
%ADD31R,0.04100X0.02600*%
%ADD33C,0.04537*%
%ADD35R,0.07687X0.11230*%
%ADD38C,0.06600*%
%ADD39R,0.02765X0.05324*%
%ADD41R,0.03868X0.03080*%
%ADD45C,0.07391*%
%ADD52R,0.02372X0.03553*%
%ADD55C,0.08000*%
%ADD60C,0.08600*%
%ADD67R,0.05600X0.03100*%
%ADD69R,0.08600X0.08600*%
%ADD72OC8,0.07600*%
%ADD73C,0.05620*%
%ADD74R,0.08000X0.08000*%
%ADD75OC8,0.08000*%
%ADD76R,0.03600X0.05600*%
%ADD78C,0.06450*%
%ADD82C,0.00500*%
%ADD84R,0.07687X0.26584*%
%ADD91R,0.07600X0.06600*%
%ADD92R,0.04537X0.12411*%
%ADD94R,0.03100X0.05600*%
%ADD98C,0.17500*%
%ADD99C,0.08100*%
X0000000Y0390000D02*
G75*
%LPD*%
D74*
X0108000Y0504500D03*
X0078000Y0515500D03*
X0222000Y0515500D03*
X0252000Y0504500D03*
D55*
X0242000Y0505500D03*
X0232000Y0504500D03*
X0222000Y0505500D03*
X0232000Y0514500D03*
X0242000Y0515500D03*
X0252000Y0514500D03*
X0108000Y0514500D03*
X0098000Y0515500D03*
X0088000Y0514500D03*
X0088000Y0504500D03*
X0098000Y0505500D03*
X0078000Y0505500D03*
D21*
X0010000Y0400000D03*
X0030000Y0400000D03*
X0300000Y0400000D03*
X0320000Y0400000D03*
X0430000Y0400000D03*
X0430000Y0620000D03*
X0320000Y0620000D03*
X0300000Y0620000D03*
X0030000Y0620000D03*
X0010000Y0620000D03*
D82*
X0051123Y0615684D02*
X0051063Y0615000D01*
X0051123Y0614316D01*
X0051300Y0613653D01*
X0051590Y0613031D01*
X0051984Y0612469D01*
X0052469Y0611984D01*
X0053031Y0611590D01*
X0053653Y0611300D01*
X0054316Y0611123D01*
X0055000Y0611063D01*
X0055684Y0611123D01*
X0056347Y0611300D01*
X0056969Y0611590D01*
X0057531Y0611984D01*
X0058016Y0612469D01*
X0058410Y0613031D01*
X0058700Y0613653D01*
X0058877Y0614316D01*
X0058937Y0615000D01*
X0058877Y0615684D01*
X0058700Y0616347D01*
X0058410Y0616969D01*
X0058016Y0617531D01*
X0057531Y0618016D01*
X0056969Y0618410D01*
X0056347Y0618700D01*
X0055684Y0618877D01*
X0055000Y0618937D01*
X0054316Y0618877D01*
X0053653Y0618700D01*
X0053031Y0618410D01*
X0052469Y0618016D01*
X0051984Y0617531D01*
X0051590Y0616969D01*
X0051300Y0616347D01*
X0051123Y0615684D01*
X0051161Y0615826D02*
X0058839Y0615826D01*
X0058908Y0615327D02*
X0051092Y0615327D01*
X0051078Y0614829D02*
X0058922Y0614829D01*
X0058878Y0614330D02*
X0051122Y0614330D01*
X0051253Y0613832D02*
X0058747Y0613832D01*
X0058550Y0613333D02*
X0051450Y0613333D01*
X0051728Y0612835D02*
X0058272Y0612835D01*
X0057883Y0612336D02*
X0052117Y0612336D01*
X0052679Y0611838D02*
X0057321Y0611838D01*
X0056429Y0611339D02*
X0053571Y0611339D01*
X0051294Y0616324D02*
X0058706Y0616324D01*
X0058478Y0616823D02*
X0051522Y0616823D01*
X0051837Y0617321D02*
X0058163Y0617321D01*
X0057727Y0617820D02*
X0052273Y0617820D01*
X0052901Y0618318D02*
X0057099Y0618318D01*
X0055909Y0618817D02*
X0054091Y0618817D01*
X0388563Y0615000D02*
X0388623Y0615684D01*
X0388800Y0616347D01*
X0389090Y0616969D01*
X0389484Y0617531D01*
X0389969Y0618016D01*
X0390531Y0618410D01*
X0391153Y0618700D01*
X0391816Y0618877D01*
X0392500Y0618937D01*
X0393184Y0618877D01*
X0393847Y0618700D01*
X0394469Y0618410D01*
X0395031Y0618016D01*
X0395516Y0617531D01*
X0395910Y0616969D01*
X0396200Y0616347D01*
X0396377Y0615684D01*
X0396437Y0615000D01*
X0396377Y0614316D01*
X0396200Y0613653D01*
X0395910Y0613031D01*
X0395516Y0612469D01*
X0395031Y0611984D01*
X0394469Y0611590D01*
X0393847Y0611300D01*
X0393184Y0611123D01*
X0392500Y0611063D01*
X0391816Y0611123D01*
X0391153Y0611300D01*
X0390531Y0611590D01*
X0389969Y0611984D01*
X0389484Y0612469D01*
X0389090Y0613031D01*
X0388800Y0613653D01*
X0388623Y0614316D01*
X0388563Y0615000D01*
X0388578Y0614829D02*
X0396422Y0614829D01*
X0396408Y0615327D02*
X0388592Y0615327D01*
X0388661Y0615826D02*
X0396339Y0615826D01*
X0396206Y0616324D02*
X0388794Y0616324D01*
X0389022Y0616823D02*
X0395978Y0616823D01*
X0395663Y0617321D02*
X0389337Y0617321D01*
X0389773Y0617820D02*
X0395227Y0617820D01*
X0394599Y0618318D02*
X0390401Y0618318D01*
X0391591Y0618817D02*
X0393409Y0618817D01*
X0396378Y0614330D02*
X0388622Y0614330D01*
X0388753Y0613832D02*
X0396247Y0613832D01*
X0396050Y0613333D02*
X0388950Y0613333D01*
X0389228Y0612835D02*
X0395772Y0612835D01*
X0395383Y0612336D02*
X0389617Y0612336D01*
X0390179Y0611838D02*
X0394821Y0611838D01*
X0393929Y0611339D02*
X0391071Y0611339D01*
X0407500Y0408937D02*
X0408184Y0408877D01*
X0408847Y0408700D01*
X0409469Y0408410D01*
X0410031Y0408016D01*
X0410516Y0407531D01*
X0410910Y0406969D01*
X0411200Y0406347D01*
X0411377Y0405684D01*
X0411437Y0405000D01*
X0411377Y0404316D01*
X0411200Y0403653D01*
X0410910Y0403031D01*
X0410516Y0402469D01*
X0410031Y0401984D01*
X0409469Y0401590D01*
X0408847Y0401300D01*
X0408184Y0401123D01*
X0407500Y0401063D01*
X0406816Y0401123D01*
X0406153Y0401300D01*
X0405531Y0401590D01*
X0404969Y0401984D01*
X0404484Y0402469D01*
X0404090Y0403031D01*
X0403800Y0403653D01*
X0403623Y0404316D01*
X0403563Y0405000D01*
X0403623Y0405684D01*
X0403800Y0406347D01*
X0404090Y0406969D01*
X0404484Y0407531D01*
X0404969Y0408016D01*
X0405531Y0408410D01*
X0406153Y0408700D01*
X0406816Y0408877D01*
X0407500Y0408937D01*
X0405607Y0408445D02*
X0409393Y0408445D01*
X0410100Y0407946D02*
X0404900Y0407946D01*
X0404426Y0407448D02*
X0410574Y0407448D01*
X0410918Y0406949D02*
X0404082Y0406949D01*
X0403849Y0406451D02*
X0411151Y0406451D01*
X0411305Y0405952D02*
X0403695Y0405952D01*
X0403603Y0405454D02*
X0411397Y0405454D01*
X0411433Y0404955D02*
X0403567Y0404955D01*
X0403611Y0404457D02*
X0411389Y0404457D01*
X0411281Y0403958D02*
X0403719Y0403958D01*
X0403891Y0403460D02*
X0411109Y0403460D01*
X0410860Y0402961D02*
X0404140Y0402961D01*
X0404491Y0402463D02*
X0410509Y0402463D01*
X0410002Y0401964D02*
X0404998Y0401964D01*
X0405799Y0401466D02*
X0409201Y0401466D01*
X0058937Y0405000D02*
X0058877Y0405684D01*
X0058700Y0406347D01*
X0058410Y0406969D01*
X0058016Y0407531D01*
X0057531Y0408016D01*
X0056969Y0408410D01*
X0056347Y0408700D01*
X0055684Y0408877D01*
X0055000Y0408937D01*
X0054316Y0408877D01*
X0053653Y0408700D01*
X0053031Y0408410D01*
X0052469Y0408016D01*
X0051984Y0407531D01*
X0051590Y0406969D01*
X0051300Y0406347D01*
X0051123Y0405684D01*
X0051063Y0405000D01*
X0051123Y0404316D01*
X0051300Y0403653D01*
X0051590Y0403031D01*
X0051984Y0402469D01*
X0052469Y0401984D01*
X0053031Y0401590D01*
X0053653Y0401300D01*
X0054316Y0401123D01*
X0055000Y0401063D01*
X0055684Y0401123D01*
X0056347Y0401300D01*
X0056969Y0401590D01*
X0057531Y0401984D01*
X0058016Y0402469D01*
X0058410Y0403031D01*
X0058700Y0403653D01*
X0058877Y0404316D01*
X0058937Y0405000D01*
X0058933Y0404955D02*
X0051067Y0404955D01*
X0051111Y0404457D02*
X0058889Y0404457D01*
X0058781Y0403958D02*
X0051219Y0403958D01*
X0051391Y0403460D02*
X0058609Y0403460D01*
X0058360Y0402961D02*
X0051640Y0402961D01*
X0051991Y0402463D02*
X0058009Y0402463D01*
X0057502Y0401964D02*
X0052498Y0401964D01*
X0053299Y0401466D02*
X0056701Y0401466D01*
X0058897Y0405454D02*
X0051103Y0405454D01*
X0051195Y0405952D02*
X0058805Y0405952D01*
X0058651Y0406451D02*
X0051349Y0406451D01*
X0051582Y0406949D02*
X0058418Y0406949D01*
X0058074Y0407448D02*
X0051926Y0407448D01*
X0052400Y0407946D02*
X0057600Y0407946D01*
X0056893Y0408445D02*
X0053107Y0408445D01*
D98*
X0021000Y0460300D03*
X0165000Y0460300D03*
X0309000Y0460300D03*
X0309000Y0559700D03*
X0165000Y0559700D03*
X0021000Y0559700D03*
D17*
X0370000Y0566700D03*
X0370000Y0573300D03*
X0380000Y0573300D03*
X0380000Y0566700D03*
D28*
X0284449Y0560000D03*
X0265551Y0560000D03*
D75*
X0329500Y0555000D03*
X0339500Y0555000D03*
X0340500Y0545000D03*
X0330500Y0545000D03*
X0329500Y0535000D03*
X0339500Y0535000D03*
X0340500Y0525000D03*
X0330500Y0525000D03*
X0329500Y0515000D03*
X0339500Y0515000D03*
X0339500Y0505000D03*
X0329500Y0505000D03*
X0329500Y0495000D03*
X0339500Y0495000D03*
X0339500Y0485000D03*
X0329500Y0485000D03*
X0329500Y0475000D03*
X0339500Y0475000D03*
X0339500Y0465000D03*
X0329500Y0465000D03*
X0329500Y0455000D03*
X0339500Y0455000D03*
X0339500Y0445000D03*
X0329500Y0445000D03*
X0329500Y0435000D03*
X0339500Y0435000D03*
X0409500Y0435000D03*
X0419500Y0435000D03*
X0419500Y0445000D03*
X0409500Y0445000D03*
X0409500Y0455000D03*
X0419500Y0455000D03*
X0419500Y0465000D03*
X0409500Y0465000D03*
X0409500Y0475000D03*
X0419500Y0475000D03*
X0419500Y0485000D03*
X0409500Y0485000D03*
X0409500Y0495000D03*
X0419500Y0495000D03*
X0419500Y0505000D03*
X0409500Y0505000D03*
X0409500Y0515000D03*
X0419500Y0515000D03*
X0420500Y0525000D03*
X0410500Y0525000D03*
X0409500Y0535000D03*
X0419500Y0535000D03*
X0420500Y0545000D03*
X0410500Y0545000D03*
X0409500Y0555000D03*
X0419500Y0555000D03*
X0420500Y0565000D03*
X0410500Y0565000D03*
X0409500Y0575000D03*
X0419500Y0575000D03*
X0420500Y0585000D03*
X0410500Y0585000D03*
X0409500Y0595000D03*
X0419500Y0595000D03*
X0420500Y0605000D03*
X0410500Y0605000D03*
X0340500Y0605000D03*
X0330500Y0605000D03*
X0329500Y0595000D03*
X0339500Y0595000D03*
X0340500Y0585000D03*
X0330500Y0585000D03*
X0329500Y0575000D03*
X0339500Y0575000D03*
X0340500Y0565000D03*
X0330500Y0565000D03*
D92*
X0241811Y0585709D03*
X0233937Y0585709D03*
X0226063Y0585709D03*
X0218189Y0585709D03*
X0176811Y0585709D03*
X0168937Y0585709D03*
X0161063Y0585709D03*
X0153189Y0585709D03*
X0111811Y0585709D03*
X0103937Y0585709D03*
X0096063Y0585709D03*
X0088189Y0585709D03*
D84*
X0078937Y0609724D03*
X0121063Y0609724D03*
X0143937Y0609724D03*
X0186063Y0609724D03*
X0208937Y0609724D03*
X0251063Y0609724D03*
D41*
X0355000Y0574528D03*
X0355000Y0565472D03*
X0395000Y0565472D03*
X0395000Y0574528D03*
X0450000Y0390000D02*
G75*
%LPD*%
D74*
X0558000Y0504500D03*
X0528000Y0515500D03*
X0672000Y0515500D03*
X0702000Y0504500D03*
D55*
X0692000Y0505500D03*
X0682000Y0504500D03*
X0672000Y0505500D03*
X0682000Y0514500D03*
X0692000Y0515500D03*
X0702000Y0514500D03*
X0558000Y0514500D03*
X0548000Y0515500D03*
X0538000Y0514500D03*
X0538000Y0504500D03*
X0528000Y0505500D03*
X0548000Y0505500D03*
D21*
X0460000Y0400000D03*
X0480000Y0400000D03*
X0750000Y0400000D03*
X0770000Y0400000D03*
X0770000Y0620000D03*
X0750000Y0620000D03*
X0480000Y0620000D03*
X0460000Y0620000D03*
D82*
X0470000Y0423937D02*
X0470684Y0423877D01*
X0471347Y0423700D01*
X0471969Y0423410D01*
X0472531Y0423016D01*
X0473016Y0422531D01*
X0473410Y0421969D01*
X0473700Y0421347D01*
X0473877Y0420684D01*
X0473937Y0420000D01*
X0473877Y0419316D01*
X0473700Y0418653D01*
X0473410Y0418031D01*
X0473016Y0417469D01*
X0472531Y0416984D01*
X0471969Y0416590D01*
X0471347Y0416300D01*
X0470684Y0416123D01*
X0470000Y0416063D01*
X0469316Y0416123D01*
X0468653Y0416300D01*
X0468031Y0416590D01*
X0467469Y0416984D01*
X0466984Y0417469D01*
X0466590Y0418031D01*
X0466300Y0418653D01*
X0466123Y0419316D01*
X0466063Y0420000D01*
X0466123Y0420684D01*
X0466300Y0421347D01*
X0466590Y0421969D01*
X0466984Y0422531D01*
X0467469Y0423016D01*
X0468031Y0423410D01*
X0468653Y0423700D01*
X0469316Y0423877D01*
X0470000Y0423937D01*
X0469563Y0423899D02*
X0470437Y0423899D01*
X0471982Y0423400D02*
X0468018Y0423400D01*
X0467355Y0422902D02*
X0472645Y0422902D01*
X0473105Y0422403D02*
X0466895Y0422403D01*
X0466561Y0421905D02*
X0473439Y0421905D01*
X0473672Y0421406D02*
X0466328Y0421406D01*
X0466183Y0420908D02*
X0473817Y0420908D01*
X0473901Y0420409D02*
X0466099Y0420409D01*
X0466071Y0419911D02*
X0473929Y0419911D01*
X0473886Y0419412D02*
X0466114Y0419412D01*
X0466231Y0418914D02*
X0473769Y0418914D01*
X0473588Y0418415D02*
X0466412Y0418415D01*
X0466671Y0417917D02*
X0473329Y0417917D01*
X0472965Y0417418D02*
X0467035Y0417418D01*
X0467561Y0416920D02*
X0472439Y0416920D01*
X0471605Y0416421D02*
X0468395Y0416421D01*
X0756590Y0598031D02*
X0756984Y0597469D01*
X0757469Y0596984D01*
X0758031Y0596590D01*
X0758653Y0596300D01*
X0759316Y0596123D01*
X0760000Y0596063D01*
X0760684Y0596123D01*
X0761347Y0596300D01*
X0761969Y0596590D01*
X0762531Y0596984D01*
X0763016Y0597469D01*
X0763410Y0598031D01*
X0763700Y0598653D01*
X0763877Y0599316D01*
X0763937Y0600000D01*
X0763877Y0600684D01*
X0763700Y0601347D01*
X0763410Y0601969D01*
X0763016Y0602531D01*
X0762531Y0603016D01*
X0761969Y0603410D01*
X0761347Y0603700D01*
X0760684Y0603877D01*
X0760000Y0603937D01*
X0759316Y0603877D01*
X0758653Y0603700D01*
X0758031Y0603410D01*
X0757469Y0603016D01*
X0756984Y0602531D01*
X0756590Y0601969D01*
X0756300Y0601347D01*
X0756123Y0600684D01*
X0756063Y0600000D01*
X0756123Y0599316D01*
X0756300Y0598653D01*
X0756590Y0598031D01*
X0756697Y0597879D02*
X0763303Y0597879D01*
X0763571Y0598378D02*
X0756429Y0598378D01*
X0756241Y0598876D02*
X0763759Y0598876D01*
X0763882Y0599375D02*
X0756118Y0599375D01*
X0756074Y0599873D02*
X0763926Y0599873D01*
X0763904Y0600372D02*
X0756096Y0600372D01*
X0756173Y0600870D02*
X0763827Y0600870D01*
X0763689Y0601369D02*
X0756311Y0601369D01*
X0756543Y0601867D02*
X0763457Y0601867D01*
X0763131Y0602366D02*
X0756869Y0602366D01*
X0757318Y0602864D02*
X0762682Y0602864D01*
X0762035Y0603363D02*
X0757965Y0603363D01*
X0759257Y0603861D02*
X0760743Y0603861D01*
X0762927Y0597381D02*
X0757073Y0597381D01*
X0757615Y0596882D02*
X0762385Y0596882D01*
X0761525Y0596384D02*
X0758475Y0596384D01*
D98*
X0759000Y0559700D03*
X0759000Y0460300D03*
X0615000Y0460300D03*
X0615000Y0559700D03*
X0471000Y0559700D03*
X0471000Y0460300D03*
D92*
X0543189Y0585709D03*
X0551063Y0585709D03*
X0558937Y0585709D03*
X0566811Y0585709D03*
X0603189Y0585709D03*
X0611063Y0585709D03*
X0618937Y0585709D03*
X0626811Y0585709D03*
X0663189Y0585709D03*
X0671063Y0585709D03*
X0678937Y0585709D03*
X0686811Y0585709D03*
D84*
X0696063Y0609724D03*
X0653937Y0609724D03*
X0636063Y0609724D03*
X0593937Y0609724D03*
X0576063Y0609724D03*
X0533937Y0609724D03*
D41*
X0650000Y0554528D03*
X0660000Y0554528D03*
X0660000Y0545472D03*
X0650000Y0545472D03*
D39*
X0648740Y0564881D03*
X0641260Y0564881D03*
X0641260Y0575119D03*
X0645000Y0575119D03*
X0648740Y0575119D03*
D17*
X0640000Y0553300D03*
X0640000Y0546700D03*
X0000000Y0260000D02*
G75*
%LPD*%
D21*
X0011500Y0270000D03*
X0131500Y0270000D03*
D78*
X0131500Y0330000D03*
X0131500Y0340000D03*
X0131500Y0350000D03*
X0131500Y0360000D03*
X0131500Y0370000D03*
X0011500Y0370000D03*
X0011500Y0360000D03*
X0011500Y0350000D03*
X0011500Y0340000D03*
X0011500Y0330000D03*
D45*
X0088970Y0266000D03*
X0116530Y0266000D03*
D73*
X0112593Y0276630D03*
X0092907Y0276630D03*
D29*
X0115075Y0288750D03*
X0121675Y0288750D03*
X0120425Y0320000D03*
X0113825Y0320000D03*
X0113825Y0327500D03*
X0120425Y0327500D03*
X0120425Y0335000D03*
X0113825Y0335000D03*
X0113825Y0342500D03*
X0120425Y0342500D03*
X0120425Y0350000D03*
X0113825Y0350000D03*
X0046050Y0355000D03*
X0039450Y0355000D03*
X0029800Y0355000D03*
X0023200Y0355000D03*
X0023200Y0342500D03*
X0029800Y0342500D03*
X0039450Y0342500D03*
X0046050Y0342500D03*
D130*
X0104631Y0311990D03*
X0104631Y0304510D03*
X0114869Y0304510D03*
X0114869Y0308250D03*
X0114869Y0311990D03*
D72*
X0076500Y0294500D03*
X0066500Y0295500D03*
X0056500Y0294500D03*
X0046500Y0295500D03*
X0036500Y0294500D03*
X0026500Y0295500D03*
X0026500Y0285500D03*
X0036500Y0284500D03*
X0046500Y0285500D03*
X0056500Y0284500D03*
X0066500Y0285500D03*
X0076500Y0284500D03*
X0066500Y0275500D03*
X0056500Y0274500D03*
X0046500Y0275500D03*
X0036500Y0274500D03*
X0026500Y0275500D03*
X0076500Y0274500D03*
D17*
X0074000Y0302950D03*
X0074000Y0309550D03*
X0061250Y0309550D03*
X0061250Y0302950D03*
X0047750Y0302950D03*
X0041500Y0302950D03*
X0041500Y0309550D03*
X0047750Y0309550D03*
X0027125Y0309550D03*
X0027125Y0302950D03*
X0026625Y0320450D03*
X0026625Y0327050D03*
D140*
X0056500Y0327500D03*
X0066500Y0327500D03*
X0076500Y0327500D03*
X0086500Y0327500D03*
X0086500Y0357500D03*
X0076500Y0357500D03*
X0066500Y0357500D03*
X0056500Y0357500D03*
D41*
X0020125Y0327653D03*
X0020125Y0318597D03*
X0020875Y0311403D03*
X0020875Y0302347D03*
X0034000Y0301722D03*
X0034000Y0310778D03*
X0054000Y0310778D03*
X0054000Y0301722D03*
X0067500Y0301972D03*
X0067500Y0311028D03*
X0080250Y0311278D03*
X0080250Y0302222D03*
D82*
X0102653Y0273700D02*
X0103316Y0273877D01*
X0104000Y0273937D01*
X0104684Y0273877D01*
X0105347Y0273700D01*
X0105969Y0273410D01*
X0106531Y0273016D01*
X0107016Y0272531D01*
X0107410Y0271969D01*
X0107700Y0271347D01*
X0107877Y0270684D01*
X0107937Y0270000D01*
X0107877Y0269316D01*
X0107700Y0268653D01*
X0107410Y0268031D01*
X0107016Y0267469D01*
X0106531Y0266984D01*
X0105969Y0266590D01*
X0105347Y0266300D01*
X0104684Y0266123D01*
X0104000Y0266063D01*
X0103316Y0266123D01*
X0102653Y0266300D01*
X0102031Y0266590D01*
X0101469Y0266984D01*
X0100984Y0267469D01*
X0100590Y0268031D01*
X0100300Y0268653D01*
X0100123Y0269316D01*
X0100063Y0270000D01*
X0100123Y0270684D01*
X0100300Y0271347D01*
X0100590Y0271969D01*
X0100984Y0272531D01*
X0101469Y0273016D01*
X0102031Y0273410D01*
X0102653Y0273700D01*
X0102139Y0273460D02*
X0105861Y0273460D01*
X0106585Y0272961D02*
X0101415Y0272961D01*
X0100937Y0272463D02*
X0107063Y0272463D01*
X0107412Y0271964D02*
X0100588Y0271964D01*
X0100356Y0271466D02*
X0107644Y0271466D01*
X0107801Y0270967D02*
X0100199Y0270967D01*
X0100104Y0270469D02*
X0107896Y0270469D01*
X0107934Y0269970D02*
X0100066Y0269970D01*
X0100109Y0269472D02*
X0107891Y0269472D01*
X0107785Y0268973D02*
X0100215Y0268973D01*
X0100384Y0268475D02*
X0107616Y0268475D01*
X0107371Y0267976D02*
X0100629Y0267976D01*
X0100978Y0267478D02*
X0107022Y0267478D01*
X0106524Y0266979D02*
X0101476Y0266979D01*
X0102267Y0266481D02*
X0105733Y0266481D01*
X0045969Y0366590D02*
X0045347Y0366300D01*
X0044684Y0366123D01*
X0044000Y0366063D01*
X0043316Y0366123D01*
X0042653Y0366300D01*
X0042031Y0366590D01*
X0041469Y0366984D01*
X0040984Y0367469D01*
X0040590Y0368031D01*
X0040300Y0368653D01*
X0040123Y0369316D01*
X0040063Y0370000D01*
X0040123Y0370684D01*
X0040300Y0371347D01*
X0040590Y0371969D01*
X0040984Y0372531D01*
X0041469Y0373016D01*
X0042031Y0373410D01*
X0042653Y0373700D01*
X0043316Y0373877D01*
X0044000Y0373937D01*
X0044684Y0373877D01*
X0045347Y0373700D01*
X0045969Y0373410D01*
X0046531Y0373016D01*
X0047016Y0372531D01*
X0047410Y0371969D01*
X0047700Y0371347D01*
X0047877Y0370684D01*
X0047937Y0370000D01*
X0047877Y0369316D01*
X0047700Y0368653D01*
X0047410Y0368031D01*
X0047016Y0367469D01*
X0046531Y0366984D01*
X0045969Y0366590D01*
X0046098Y0366681D02*
X0041902Y0366681D01*
X0041273Y0367180D02*
X0046727Y0367180D01*
X0047162Y0367678D02*
X0040838Y0367678D01*
X0040523Y0368177D02*
X0047477Y0368177D01*
X0047705Y0368675D02*
X0040295Y0368675D01*
X0040161Y0369174D02*
X0047839Y0369174D01*
X0047908Y0369672D02*
X0040092Y0369672D01*
X0040078Y0370171D02*
X0047922Y0370171D01*
X0047878Y0370670D02*
X0040122Y0370670D01*
X0040253Y0371168D02*
X0047747Y0371168D01*
X0047550Y0371667D02*
X0040450Y0371667D01*
X0040728Y0372165D02*
X0047272Y0372165D01*
X0046883Y0372664D02*
X0041117Y0372664D01*
X0041678Y0373162D02*
X0046322Y0373162D01*
X0045430Y0373661D02*
X0042570Y0373661D01*
X0043092Y0366183D02*
X0044908Y0366183D01*
D55*
X0046575Y0330000D03*
X0035175Y0330000D03*
X0150000Y0260000D02*
G75*
%LPD*%
D21*
X0161500Y0270000D03*
X0281500Y0270000D03*
D78*
X0281500Y0330000D03*
X0281500Y0340000D03*
X0281500Y0350000D03*
X0281500Y0360000D03*
X0281500Y0370000D03*
X0161500Y0370000D03*
X0161500Y0360000D03*
X0161500Y0350000D03*
X0161500Y0340000D03*
X0161500Y0330000D03*
D45*
X0238970Y0266000D03*
X0266530Y0266000D03*
D73*
X0262593Y0276630D03*
X0242907Y0276630D03*
D29*
X0265075Y0288750D03*
X0271675Y0288750D03*
X0270425Y0320000D03*
X0263825Y0320000D03*
X0263825Y0327500D03*
X0270425Y0327500D03*
X0270425Y0335000D03*
X0263825Y0335000D03*
X0263825Y0342500D03*
X0270425Y0342500D03*
X0270425Y0350000D03*
X0263825Y0350000D03*
X0196050Y0355000D03*
X0189450Y0355000D03*
X0179800Y0355000D03*
X0173200Y0355000D03*
X0173200Y0342500D03*
X0179800Y0342500D03*
X0189450Y0342500D03*
X0196050Y0342500D03*
D130*
X0254631Y0311990D03*
X0254631Y0304510D03*
X0264869Y0304510D03*
X0264869Y0308250D03*
X0264869Y0311990D03*
D72*
X0226500Y0294500D03*
X0216500Y0295500D03*
X0206500Y0294500D03*
X0196500Y0295500D03*
X0186500Y0294500D03*
X0176500Y0295500D03*
X0176500Y0285500D03*
X0186500Y0284500D03*
X0196500Y0285500D03*
X0206500Y0284500D03*
X0216500Y0285500D03*
X0226500Y0284500D03*
X0216500Y0275500D03*
X0206500Y0274500D03*
X0196500Y0275500D03*
X0186500Y0274500D03*
X0176500Y0275500D03*
X0226500Y0274500D03*
D17*
X0224000Y0302950D03*
X0224000Y0309550D03*
X0211250Y0309550D03*
X0211250Y0302950D03*
X0197750Y0302950D03*
X0191500Y0302950D03*
X0191500Y0309550D03*
X0197750Y0309550D03*
X0177125Y0309550D03*
X0177125Y0302950D03*
X0176625Y0320450D03*
X0176625Y0327050D03*
D140*
X0206500Y0327500D03*
X0216500Y0327500D03*
X0226500Y0327500D03*
X0236500Y0327500D03*
X0236500Y0357500D03*
X0226500Y0357500D03*
X0216500Y0357500D03*
X0206500Y0357500D03*
D41*
X0170125Y0327653D03*
X0170125Y0318597D03*
X0170875Y0311403D03*
X0170875Y0302347D03*
X0184000Y0301722D03*
X0184000Y0310778D03*
X0204000Y0310778D03*
X0204000Y0301722D03*
X0217500Y0301972D03*
X0217500Y0311028D03*
X0230250Y0311278D03*
X0230250Y0302222D03*
D82*
X0252653Y0273700D02*
X0253316Y0273877D01*
X0254000Y0273937D01*
X0254684Y0273877D01*
X0255347Y0273700D01*
X0255969Y0273410D01*
X0256531Y0273016D01*
X0257016Y0272531D01*
X0257410Y0271969D01*
X0257700Y0271347D01*
X0257877Y0270684D01*
X0257937Y0270000D01*
X0257877Y0269316D01*
X0257700Y0268653D01*
X0257410Y0268031D01*
X0257016Y0267469D01*
X0256531Y0266984D01*
X0255969Y0266590D01*
X0255347Y0266300D01*
X0254684Y0266123D01*
X0254000Y0266063D01*
X0253316Y0266123D01*
X0252653Y0266300D01*
X0252031Y0266590D01*
X0251469Y0266984D01*
X0250984Y0267469D01*
X0250590Y0268031D01*
X0250300Y0268653D01*
X0250123Y0269316D01*
X0250063Y0270000D01*
X0250123Y0270684D01*
X0250300Y0271347D01*
X0250590Y0271969D01*
X0250984Y0272531D01*
X0251469Y0273016D01*
X0252031Y0273410D01*
X0252653Y0273700D01*
X0252139Y0273460D02*
X0255861Y0273460D01*
X0256585Y0272961D02*
X0251415Y0272961D01*
X0250937Y0272463D02*
X0257063Y0272463D01*
X0257412Y0271964D02*
X0250588Y0271964D01*
X0250356Y0271466D02*
X0257644Y0271466D01*
X0257801Y0270967D02*
X0250199Y0270967D01*
X0250104Y0270469D02*
X0257896Y0270469D01*
X0257934Y0269970D02*
X0250066Y0269970D01*
X0250109Y0269472D02*
X0257891Y0269472D01*
X0257785Y0268973D02*
X0250215Y0268973D01*
X0250384Y0268475D02*
X0257616Y0268475D01*
X0257371Y0267976D02*
X0250629Y0267976D01*
X0250978Y0267478D02*
X0257022Y0267478D01*
X0256524Y0266979D02*
X0251476Y0266979D01*
X0252267Y0266481D02*
X0255733Y0266481D01*
X0195969Y0366590D02*
X0195347Y0366300D01*
X0194684Y0366123D01*
X0194000Y0366063D01*
X0193316Y0366123D01*
X0192653Y0366300D01*
X0192031Y0366590D01*
X0191469Y0366984D01*
X0190984Y0367469D01*
X0190590Y0368031D01*
X0190300Y0368653D01*
X0190123Y0369316D01*
X0190063Y0370000D01*
X0190123Y0370684D01*
X0190300Y0371347D01*
X0190590Y0371969D01*
X0190984Y0372531D01*
X0191469Y0373016D01*
X0192031Y0373410D01*
X0192653Y0373700D01*
X0193316Y0373877D01*
X0194000Y0373937D01*
X0194684Y0373877D01*
X0195347Y0373700D01*
X0195969Y0373410D01*
X0196531Y0373016D01*
X0197016Y0372531D01*
X0197410Y0371969D01*
X0197700Y0371347D01*
X0197877Y0370684D01*
X0197937Y0370000D01*
X0197877Y0369316D01*
X0197700Y0368653D01*
X0197410Y0368031D01*
X0197016Y0367469D01*
X0196531Y0366984D01*
X0195969Y0366590D01*
X0196098Y0366681D02*
X0191902Y0366681D01*
X0191273Y0367180D02*
X0196727Y0367180D01*
X0197162Y0367678D02*
X0190838Y0367678D01*
X0190523Y0368177D02*
X0197477Y0368177D01*
X0197705Y0368675D02*
X0190295Y0368675D01*
X0190161Y0369174D02*
X0197839Y0369174D01*
X0197908Y0369672D02*
X0190092Y0369672D01*
X0190078Y0370171D02*
X0197922Y0370171D01*
X0197878Y0370670D02*
X0190122Y0370670D01*
X0190253Y0371168D02*
X0197747Y0371168D01*
X0197550Y0371667D02*
X0190450Y0371667D01*
X0190728Y0372165D02*
X0197272Y0372165D01*
X0196883Y0372664D02*
X0191117Y0372664D01*
X0191678Y0373162D02*
X0196322Y0373162D01*
X0195430Y0373661D02*
X0192570Y0373661D01*
X0193092Y0366183D02*
X0194908Y0366183D01*
D55*
X0196575Y0330000D03*
X0185175Y0330000D03*
X0300000Y0260000D02*
G75*
%LPD*%
D21*
X0311500Y0270000D03*
X0431500Y0270000D03*
D78*
X0431500Y0330000D03*
X0431500Y0340000D03*
X0431500Y0350000D03*
X0431500Y0360000D03*
X0431500Y0370000D03*
X0311500Y0370000D03*
X0311500Y0360000D03*
X0311500Y0350000D03*
X0311500Y0340000D03*
X0311500Y0330000D03*
D29*
X0348825Y0367500D03*
X0355425Y0367500D03*
X0366950Y0366875D03*
X0373550Y0366875D03*
X0416325Y0322500D03*
X0422925Y0322500D03*
D140*
X0386500Y0327500D03*
X0376500Y0327500D03*
X0366500Y0327500D03*
X0356500Y0327500D03*
X0356500Y0357500D03*
X0366500Y0357500D03*
X0376500Y0357500D03*
X0386500Y0357500D03*
D69*
X0337125Y0285000D03*
D60*
X0350905Y0285000D03*
X0364684Y0285000D03*
X0378464Y0285000D03*
X0392243Y0285000D03*
X0406023Y0285000D03*
D35*
X0402661Y0268750D03*
X0385339Y0268750D03*
X0360161Y0268750D03*
X0342839Y0268750D03*
D82*
X0324516Y0286844D02*
X0324031Y0286359D01*
X0323469Y0285965D01*
X0322847Y0285675D01*
X0322184Y0285498D01*
X0321500Y0285438D01*
X0320816Y0285498D01*
X0320153Y0285675D01*
X0319531Y0285965D01*
X0318969Y0286359D01*
X0318484Y0286844D01*
X0318090Y0287406D01*
X0317800Y0288028D01*
X0317623Y0288691D01*
X0317563Y0289375D01*
X0317623Y0290059D01*
X0317800Y0290722D01*
X0318090Y0291344D01*
X0318484Y0291906D01*
X0318969Y0292391D01*
X0319531Y0292785D01*
X0320153Y0293075D01*
X0320816Y0293252D01*
X0321500Y0293312D01*
X0322184Y0293252D01*
X0322847Y0293075D01*
X0323469Y0292785D01*
X0324031Y0292391D01*
X0324516Y0291906D01*
X0324910Y0291344D01*
X0325200Y0290722D01*
X0325377Y0290059D01*
X0325437Y0289375D01*
X0325377Y0288691D01*
X0325200Y0288028D01*
X0324910Y0287406D01*
X0324516Y0286844D01*
X0324569Y0286920D02*
X0318431Y0286920D01*
X0318085Y0287418D02*
X0324915Y0287418D01*
X0325147Y0287917D02*
X0317853Y0287917D01*
X0317697Y0288415D02*
X0325303Y0288415D01*
X0325397Y0288914D02*
X0317603Y0288914D01*
X0317566Y0289412D02*
X0325434Y0289412D01*
X0325390Y0289911D02*
X0317610Y0289911D01*
X0317717Y0290409D02*
X0325283Y0290409D01*
X0325113Y0290908D02*
X0317887Y0290908D01*
X0318134Y0291406D02*
X0324866Y0291406D01*
X0324517Y0291905D02*
X0318483Y0291905D01*
X0318987Y0292403D02*
X0324013Y0292403D01*
X0323217Y0292902D02*
X0319783Y0292902D01*
X0318907Y0286421D02*
X0324093Y0286421D01*
X0323377Y0285923D02*
X0319623Y0285923D01*
X0393969Y0366984D02*
X0393484Y0367469D01*
X0393090Y0368031D01*
X0392800Y0368653D01*
X0392623Y0369316D01*
X0392563Y0370000D01*
X0392623Y0370684D01*
X0392800Y0371347D01*
X0393090Y0371969D01*
X0393484Y0372531D01*
X0393969Y0373016D01*
X0394531Y0373410D01*
X0395153Y0373700D01*
X0395816Y0373877D01*
X0396500Y0373937D01*
X0397184Y0373877D01*
X0397847Y0373700D01*
X0398469Y0373410D01*
X0399031Y0373016D01*
X0399516Y0372531D01*
X0399910Y0371969D01*
X0400200Y0371347D01*
X0400377Y0370684D01*
X0400437Y0370000D01*
X0400377Y0369316D01*
X0400200Y0368653D01*
X0399910Y0368031D01*
X0399516Y0367469D01*
X0399031Y0366984D01*
X0398469Y0366590D01*
X0397847Y0366300D01*
X0397184Y0366123D01*
X0396500Y0366063D01*
X0395816Y0366123D01*
X0395153Y0366300D01*
X0394531Y0366590D01*
X0393969Y0366984D01*
X0393773Y0367180D02*
X0399227Y0367180D01*
X0399662Y0367678D02*
X0393338Y0367678D01*
X0393023Y0368177D02*
X0399977Y0368177D01*
X0400205Y0368675D02*
X0392795Y0368675D01*
X0392661Y0369174D02*
X0400339Y0369174D01*
X0400408Y0369672D02*
X0392592Y0369672D01*
X0392578Y0370171D02*
X0400422Y0370171D01*
X0400378Y0370670D02*
X0392622Y0370670D01*
X0392753Y0371168D02*
X0400247Y0371168D01*
X0400050Y0371667D02*
X0392950Y0371667D01*
X0393228Y0372165D02*
X0399772Y0372165D01*
X0399383Y0372664D02*
X0393617Y0372664D01*
X0394178Y0373162D02*
X0398822Y0373162D01*
X0397930Y0373661D02*
X0395070Y0373661D01*
X0394402Y0366681D02*
X0398598Y0366681D01*
X0397408Y0366183D02*
X0395592Y0366183D01*
D55*
X0401500Y0336750D03*
X0411500Y0335750D03*
X0421500Y0336750D03*
D124*
X0399000Y0352500D03*
D76*
X0408250Y0352500D03*
D17*
X0319000Y0318300D03*
X0319000Y0311700D03*
D94*
X0329728Y0267500D03*
X0333272Y0267500D03*
X0374728Y0268750D03*
X0378272Y0268750D03*
X0000000Y0130000D02*
G75*
%LPD*%
D17*
X0034000Y0154200D03*
X0034000Y0160800D03*
X0034000Y0169200D03*
X0026500Y0169200D03*
X0026500Y0175800D03*
X0034000Y0175800D03*
X0034000Y0184200D03*
X0026500Y0184200D03*
X0026500Y0190800D03*
X0034000Y0190800D03*
X0021500Y0199200D03*
X0021500Y0205800D03*
X0044000Y0160800D03*
X0044000Y0154200D03*
X0097750Y0144550D03*
X0097750Y0137950D03*
D21*
X0011500Y0140000D03*
X0131500Y0140000D03*
D78*
X0131500Y0200000D03*
X0131500Y0210000D03*
X0131500Y0220000D03*
X0131500Y0230000D03*
X0131500Y0240000D03*
X0011500Y0240000D03*
X0011500Y0230000D03*
X0011500Y0220000D03*
X0011500Y0210000D03*
X0011500Y0200000D03*
D91*
X0022000Y0217500D03*
X0036000Y0217500D03*
D99*
X0101028Y0199843D03*
X0101028Y0190000D03*
X0101028Y0180157D03*
D10*
X0043941Y0182126D03*
X0043941Y0190000D03*
X0043941Y0197874D03*
X0043941Y0205748D03*
X0043941Y0174252D03*
D29*
X0053200Y0182500D03*
X0059800Y0182500D03*
X0068200Y0181250D03*
X0074800Y0181250D03*
X0057300Y0142500D03*
X0050700Y0142500D03*
D140*
X0056500Y0197500D03*
X0066500Y0197500D03*
X0076500Y0197500D03*
X0086500Y0197500D03*
X0086500Y0227500D03*
X0076500Y0227500D03*
X0066500Y0227500D03*
X0056500Y0227500D03*
D82*
X0046727Y0237180D02*
X0041273Y0237180D01*
X0041469Y0236984D02*
X0040984Y0237469D01*
X0040590Y0238031D01*
X0040300Y0238653D01*
X0040123Y0239316D01*
X0040063Y0240000D01*
X0040123Y0240684D01*
X0040300Y0241347D01*
X0040590Y0241969D01*
X0040984Y0242531D01*
X0041469Y0243016D01*
X0042031Y0243410D01*
X0042653Y0243700D01*
X0043316Y0243877D01*
X0044000Y0243937D01*
X0044684Y0243877D01*
X0045347Y0243700D01*
X0045969Y0243410D01*
X0046531Y0243016D01*
X0047016Y0242531D01*
X0047410Y0241969D01*
X0047700Y0241347D01*
X0047877Y0240684D01*
X0047937Y0240000D01*
X0047877Y0239316D01*
X0047700Y0238653D01*
X0047410Y0238031D01*
X0047016Y0237469D01*
X0046531Y0236984D01*
X0045969Y0236590D01*
X0045347Y0236300D01*
X0044684Y0236123D01*
X0044000Y0236063D01*
X0043316Y0236123D01*
X0042653Y0236300D01*
X0042031Y0236590D01*
X0041469Y0236984D01*
X0041902Y0236681D02*
X0046098Y0236681D01*
X0044908Y0236183D02*
X0043092Y0236183D01*
X0040838Y0237678D02*
X0047162Y0237678D01*
X0047477Y0238177D02*
X0040523Y0238177D01*
X0040295Y0238675D02*
X0047705Y0238675D01*
X0047839Y0239174D02*
X0040161Y0239174D01*
X0040092Y0239672D02*
X0047908Y0239672D01*
X0047922Y0240171D02*
X0040078Y0240171D01*
X0040122Y0240670D02*
X0047878Y0240670D01*
X0047747Y0241168D02*
X0040253Y0241168D01*
X0040450Y0241667D02*
X0047550Y0241667D01*
X0047272Y0242165D02*
X0040728Y0242165D01*
X0041117Y0242664D02*
X0046883Y0242664D01*
X0046322Y0243162D02*
X0041678Y0243162D01*
X0042570Y0243661D02*
X0045430Y0243661D01*
X0120219Y0170516D02*
X0120781Y0170910D01*
X0121403Y0171200D01*
X0122066Y0171377D01*
X0122750Y0171437D01*
X0123434Y0171377D01*
X0124097Y0171200D01*
X0124719Y0170910D01*
X0125281Y0170516D01*
X0125766Y0170031D01*
X0126160Y0169469D01*
X0126450Y0168847D01*
X0126627Y0168184D01*
X0126687Y0167500D01*
X0126627Y0166816D01*
X0126450Y0166153D01*
X0126160Y0165531D01*
X0125766Y0164969D01*
X0125281Y0164484D01*
X0124719Y0164090D01*
X0124097Y0163800D01*
X0123434Y0163623D01*
X0122750Y0163563D01*
X0122066Y0163623D01*
X0121403Y0163800D01*
X0120781Y0164090D01*
X0120219Y0164484D01*
X0119734Y0164969D01*
X0119340Y0165531D01*
X0119050Y0166153D01*
X0118873Y0166816D01*
X0118813Y0167500D01*
X0118873Y0168184D01*
X0119050Y0168847D01*
X0119340Y0169469D01*
X0119734Y0170031D01*
X0120219Y0170516D01*
X0120083Y0170379D02*
X0125417Y0170379D01*
X0125871Y0169881D02*
X0119629Y0169881D01*
X0119300Y0169382D02*
X0126200Y0169382D01*
X0126432Y0168884D02*
X0119068Y0168884D01*
X0118927Y0168385D02*
X0126573Y0168385D01*
X0126653Y0167887D02*
X0118847Y0167887D01*
X0118823Y0167388D02*
X0126677Y0167388D01*
X0126634Y0166890D02*
X0118866Y0166890D01*
X0118987Y0166391D02*
X0126513Y0166391D01*
X0126328Y0165893D02*
X0119172Y0165893D01*
X0119437Y0165394D02*
X0126063Y0165394D01*
X0125692Y0164896D02*
X0119808Y0164896D01*
X0120343Y0164397D02*
X0125157Y0164397D01*
X0124307Y0163899D02*
X0121193Y0163899D01*
X0120736Y0170878D02*
X0124764Y0170878D01*
X0123436Y0171376D02*
X0122064Y0171376D01*
D31*
X0086500Y0167500D03*
X0086500Y0162500D03*
X0086500Y0157500D03*
X0086500Y0152500D03*
X0086500Y0147500D03*
X0086500Y0142500D03*
X0086500Y0137500D03*
X0064000Y0137500D03*
X0064000Y0142500D03*
X0064000Y0147500D03*
X0064000Y0152500D03*
X0064000Y0157500D03*
X0064000Y0162500D03*
X0064000Y0167500D03*
X0150000Y0130000D02*
G75*
%LPD*%
D17*
X0184000Y0154200D03*
X0184000Y0160800D03*
X0184000Y0169200D03*
X0176500Y0169200D03*
X0176500Y0175800D03*
X0184000Y0175800D03*
X0184000Y0184200D03*
X0176500Y0184200D03*
X0176500Y0190800D03*
X0184000Y0190800D03*
X0171500Y0199200D03*
X0171500Y0205800D03*
X0194000Y0160800D03*
X0194000Y0154200D03*
X0247750Y0144550D03*
X0247750Y0137950D03*
D21*
X0161500Y0140000D03*
X0281500Y0140000D03*
D78*
X0281500Y0200000D03*
X0281500Y0210000D03*
X0281500Y0220000D03*
X0281500Y0230000D03*
X0281500Y0240000D03*
X0161500Y0240000D03*
X0161500Y0230000D03*
X0161500Y0220000D03*
X0161500Y0210000D03*
X0161500Y0200000D03*
D91*
X0172000Y0217500D03*
X0186000Y0217500D03*
D99*
X0251028Y0199843D03*
X0251028Y0190000D03*
X0251028Y0180157D03*
D10*
X0193941Y0182126D03*
X0193941Y0190000D03*
X0193941Y0197874D03*
X0193941Y0205748D03*
X0193941Y0174252D03*
D29*
X0203200Y0182500D03*
X0209800Y0182500D03*
X0218200Y0181250D03*
X0224800Y0181250D03*
X0207300Y0142500D03*
X0200700Y0142500D03*
D140*
X0206500Y0197500D03*
X0216500Y0197500D03*
X0226500Y0197500D03*
X0236500Y0197500D03*
X0236500Y0227500D03*
X0226500Y0227500D03*
X0216500Y0227500D03*
X0206500Y0227500D03*
D82*
X0196727Y0237180D02*
X0191273Y0237180D01*
X0191469Y0236984D02*
X0190984Y0237469D01*
X0190590Y0238031D01*
X0190300Y0238653D01*
X0190123Y0239316D01*
X0190063Y0240000D01*
X0190123Y0240684D01*
X0190300Y0241347D01*
X0190590Y0241969D01*
X0190984Y0242531D01*
X0191469Y0243016D01*
X0192031Y0243410D01*
X0192653Y0243700D01*
X0193316Y0243877D01*
X0194000Y0243937D01*
X0194684Y0243877D01*
X0195347Y0243700D01*
X0195969Y0243410D01*
X0196531Y0243016D01*
X0197016Y0242531D01*
X0197410Y0241969D01*
X0197700Y0241347D01*
X0197877Y0240684D01*
X0197937Y0240000D01*
X0197877Y0239316D01*
X0197700Y0238653D01*
X0197410Y0238031D01*
X0197016Y0237469D01*
X0196531Y0236984D01*
X0195969Y0236590D01*
X0195347Y0236300D01*
X0194684Y0236123D01*
X0194000Y0236063D01*
X0193316Y0236123D01*
X0192653Y0236300D01*
X0192031Y0236590D01*
X0191469Y0236984D01*
X0191902Y0236681D02*
X0196098Y0236681D01*
X0194908Y0236183D02*
X0193092Y0236183D01*
X0190838Y0237678D02*
X0197162Y0237678D01*
X0197477Y0238177D02*
X0190523Y0238177D01*
X0190295Y0238675D02*
X0197705Y0238675D01*
X0197839Y0239174D02*
X0190161Y0239174D01*
X0190092Y0239672D02*
X0197908Y0239672D01*
X0197922Y0240171D02*
X0190078Y0240171D01*
X0190122Y0240670D02*
X0197878Y0240670D01*
X0197747Y0241168D02*
X0190253Y0241168D01*
X0190450Y0241667D02*
X0197550Y0241667D01*
X0197272Y0242165D02*
X0190728Y0242165D01*
X0191117Y0242664D02*
X0196883Y0242664D01*
X0196322Y0243162D02*
X0191678Y0243162D01*
X0192570Y0243661D02*
X0195430Y0243661D01*
X0270219Y0170516D02*
X0270781Y0170910D01*
X0271403Y0171200D01*
X0272066Y0171377D01*
X0272750Y0171437D01*
X0273434Y0171377D01*
X0274097Y0171200D01*
X0274719Y0170910D01*
X0275281Y0170516D01*
X0275766Y0170031D01*
X0276160Y0169469D01*
X0276450Y0168847D01*
X0276627Y0168184D01*
X0276687Y0167500D01*
X0276627Y0166816D01*
X0276450Y0166153D01*
X0276160Y0165531D01*
X0275766Y0164969D01*
X0275281Y0164484D01*
X0274719Y0164090D01*
X0274097Y0163800D01*
X0273434Y0163623D01*
X0272750Y0163563D01*
X0272066Y0163623D01*
X0271403Y0163800D01*
X0270781Y0164090D01*
X0270219Y0164484D01*
X0269734Y0164969D01*
X0269340Y0165531D01*
X0269050Y0166153D01*
X0268873Y0166816D01*
X0268813Y0167500D01*
X0268873Y0168184D01*
X0269050Y0168847D01*
X0269340Y0169469D01*
X0269734Y0170031D01*
X0270219Y0170516D01*
X0270083Y0170379D02*
X0275417Y0170379D01*
X0275871Y0169881D02*
X0269629Y0169881D01*
X0269300Y0169382D02*
X0276200Y0169382D01*
X0276432Y0168884D02*
X0269068Y0168884D01*
X0268927Y0168385D02*
X0276573Y0168385D01*
X0276653Y0167887D02*
X0268847Y0167887D01*
X0268823Y0167388D02*
X0276677Y0167388D01*
X0276634Y0166890D02*
X0268866Y0166890D01*
X0268987Y0166391D02*
X0276513Y0166391D01*
X0276328Y0165893D02*
X0269172Y0165893D01*
X0269437Y0165394D02*
X0276063Y0165394D01*
X0275692Y0164896D02*
X0269808Y0164896D01*
X0270343Y0164397D02*
X0275157Y0164397D01*
X0274307Y0163899D02*
X0271193Y0163899D01*
X0270736Y0170878D02*
X0274764Y0170878D01*
X0273436Y0171376D02*
X0272064Y0171376D01*
D31*
X0236500Y0167500D03*
X0236500Y0162500D03*
X0236500Y0157500D03*
X0236500Y0152500D03*
X0236500Y0147500D03*
X0236500Y0142500D03*
X0236500Y0137500D03*
X0214000Y0137500D03*
X0214000Y0142500D03*
X0214000Y0147500D03*
X0214000Y0152500D03*
X0214000Y0157500D03*
X0214000Y0162500D03*
X0214000Y0167500D03*
X0300000Y0130000D02*
G75*
%LPD*%
D21*
X0311500Y0140000D03*
X0431500Y0140000D03*
D78*
X0431500Y0200000D03*
X0431500Y0210000D03*
X0431500Y0220000D03*
X0431500Y0230000D03*
X0431500Y0240000D03*
X0311500Y0240000D03*
X0311500Y0230000D03*
X0311500Y0220000D03*
X0311500Y0210000D03*
X0311500Y0200000D03*
D55*
X0326500Y0180000D03*
X0336500Y0180000D03*
X0346500Y0180000D03*
X0356500Y0180000D03*
X0366500Y0180000D03*
X0376500Y0180000D03*
X0386500Y0180000D03*
X0396500Y0180000D03*
X0406500Y0180000D03*
X0416500Y0180000D03*
X0416500Y0170000D03*
X0406500Y0170000D03*
X0396500Y0170000D03*
X0386500Y0170000D03*
X0376500Y0170000D03*
X0366500Y0170000D03*
X0356500Y0170000D03*
X0346500Y0170000D03*
X0336500Y0170000D03*
X0326500Y0170000D03*
X0326500Y0160000D03*
X0336500Y0160000D03*
X0346500Y0160000D03*
X0356500Y0160000D03*
X0366500Y0160000D03*
X0376500Y0160000D03*
X0386500Y0160000D03*
X0396500Y0160000D03*
X0406500Y0160000D03*
X0416500Y0160000D03*
X0416500Y0150000D03*
X0406500Y0150000D03*
X0396500Y0150000D03*
X0386500Y0150000D03*
X0376500Y0150000D03*
X0366500Y0150000D03*
X0356500Y0150000D03*
X0346500Y0150000D03*
X0336500Y0150000D03*
X0326500Y0150000D03*
X0326500Y0140000D03*
X0336500Y0140000D03*
X0346500Y0140000D03*
X0356500Y0140000D03*
X0366500Y0140000D03*
X0376500Y0140000D03*
X0386500Y0140000D03*
X0396500Y0140000D03*
X0406500Y0140000D03*
X0416500Y0140000D03*
D140*
X0386500Y0197500D03*
X0376500Y0197500D03*
X0366500Y0197500D03*
X0356500Y0197500D03*
X0356500Y0227500D03*
X0366500Y0227500D03*
X0376500Y0227500D03*
X0386500Y0227500D03*
D82*
X0393969Y0234484D02*
X0393484Y0234969D01*
X0393090Y0235531D01*
X0392800Y0236153D01*
X0392623Y0236816D01*
X0392563Y0237500D01*
X0392623Y0238184D01*
X0392800Y0238847D01*
X0393090Y0239469D01*
X0393484Y0240031D01*
X0393969Y0240516D01*
X0394531Y0240910D01*
X0395153Y0241200D01*
X0395816Y0241377D01*
X0396500Y0241437D01*
X0397184Y0241377D01*
X0397847Y0241200D01*
X0398469Y0240910D01*
X0399031Y0240516D01*
X0399516Y0240031D01*
X0399910Y0239469D01*
X0400200Y0238847D01*
X0400377Y0238184D01*
X0400437Y0237500D01*
X0400377Y0236816D01*
X0400200Y0236153D01*
X0399910Y0235531D01*
X0399516Y0234969D01*
X0399031Y0234484D01*
X0398469Y0234090D01*
X0397847Y0233800D01*
X0397184Y0233623D01*
X0396500Y0233563D01*
X0395816Y0233623D01*
X0395153Y0233800D01*
X0394531Y0234090D01*
X0393969Y0234484D01*
X0393766Y0234687D02*
X0399234Y0234687D01*
X0399668Y0235186D02*
X0393332Y0235186D01*
X0393019Y0235684D02*
X0399981Y0235684D01*
X0400207Y0236183D02*
X0392793Y0236183D01*
X0392659Y0236681D02*
X0400341Y0236681D01*
X0400409Y0237180D02*
X0392591Y0237180D01*
X0392579Y0237678D02*
X0400421Y0237678D01*
X0400378Y0238177D02*
X0392622Y0238177D01*
X0392755Y0238675D02*
X0400245Y0238675D01*
X0400047Y0239174D02*
X0392953Y0239174D01*
X0393233Y0239672D02*
X0399767Y0239672D01*
X0399376Y0240171D02*
X0393624Y0240171D01*
X0394189Y0240670D02*
X0398811Y0240670D01*
X0397914Y0241168D02*
X0395086Y0241168D01*
X0394391Y0234189D02*
X0398609Y0234189D01*
X0397436Y0233690D02*
X0395564Y0233690D01*
X0322016Y0177531D02*
X0322410Y0176969D01*
X0322700Y0176347D01*
X0322877Y0175684D01*
X0322937Y0175000D01*
X0322877Y0174316D01*
X0322700Y0173653D01*
X0322410Y0173031D01*
X0322016Y0172469D01*
X0321531Y0171984D01*
X0320969Y0171590D01*
X0320347Y0171300D01*
X0319684Y0171123D01*
X0319000Y0171063D01*
X0318316Y0171123D01*
X0317653Y0171300D01*
X0317031Y0171590D01*
X0316469Y0171984D01*
X0315984Y0172469D01*
X0315590Y0173031D01*
X0315300Y0173653D01*
X0315123Y0174316D01*
X0315063Y0175000D01*
X0315123Y0175684D01*
X0315300Y0176347D01*
X0315590Y0176969D01*
X0315984Y0177531D01*
X0316469Y0178016D01*
X0317031Y0178410D01*
X0317653Y0178700D01*
X0318316Y0178877D01*
X0319000Y0178937D01*
X0319684Y0178877D01*
X0320347Y0178700D01*
X0320969Y0178410D01*
X0321531Y0178016D01*
X0322016Y0177531D01*
X0322136Y0177359D02*
X0315864Y0177359D01*
X0315540Y0176860D02*
X0322460Y0176860D01*
X0322693Y0176362D02*
X0315307Y0176362D01*
X0315171Y0175863D02*
X0322829Y0175863D01*
X0322905Y0175365D02*
X0315095Y0175365D01*
X0315075Y0174866D02*
X0322925Y0174866D01*
X0322882Y0174368D02*
X0315118Y0174368D01*
X0315243Y0173869D02*
X0322757Y0173869D01*
X0322568Y0173370D02*
X0315432Y0173370D01*
X0315702Y0172872D02*
X0322298Y0172872D01*
X0321920Y0172373D02*
X0316080Y0172373D01*
X0316625Y0171875D02*
X0321375Y0171875D01*
X0320510Y0171376D02*
X0317490Y0171376D01*
X0316311Y0177857D02*
X0321689Y0177857D01*
X0321046Y0178356D02*
X0316954Y0178356D01*
X0318230Y0178854D02*
X0319770Y0178854D01*
D130*
X0408881Y0203760D03*
X0408881Y0211240D03*
X0419119Y0211240D03*
X0419119Y0207500D03*
X0419119Y0203760D03*
D67*
X0399000Y0205878D03*
X0399000Y0209122D03*
X0000000Y0000000D02*
G75*
%LPD*%
D39*
X0035260Y0039881D03*
X0042740Y0039881D03*
X0042740Y0050119D03*
X0039000Y0050119D03*
X0035260Y0050119D03*
X0105260Y0048631D03*
X0109000Y0048631D03*
X0112740Y0048631D03*
X0112740Y0058869D03*
X0105260Y0058869D03*
D21*
X0011500Y0010000D03*
X0131500Y0010000D03*
D78*
X0131500Y0070000D03*
X0131500Y0080000D03*
X0131500Y0090000D03*
X0131500Y0100000D03*
X0131500Y0110000D03*
X0011500Y0110000D03*
X0011500Y0100000D03*
X0011500Y0090000D03*
X0011500Y0080000D03*
X0011500Y0070000D03*
D126*
X0054768Y0044774D03*
X0054768Y0041624D03*
X0054768Y0038474D03*
X0054768Y0035325D03*
X0054768Y0032175D03*
X0054768Y0029026D03*
X0054768Y0025876D03*
X0054768Y0022726D03*
X0088232Y0022726D03*
X0088232Y0025876D03*
X0088232Y0029026D03*
X0088232Y0032175D03*
X0088232Y0035325D03*
X0088232Y0038474D03*
X0088232Y0041624D03*
X0088232Y0044774D03*
D52*
X0082524Y0050482D03*
X0079374Y0050482D03*
X0076224Y0050482D03*
X0073075Y0050482D03*
X0069925Y0050482D03*
X0066776Y0050482D03*
X0063626Y0050482D03*
X0060476Y0050482D03*
X0060476Y0017018D03*
X0063626Y0017018D03*
X0066776Y0017018D03*
X0069925Y0017018D03*
X0073075Y0017018D03*
X0076224Y0017018D03*
X0079374Y0017018D03*
X0082524Y0017018D03*
D33*
X0103000Y0088748D03*
X0040004Y0088748D03*
D17*
X0046500Y0091700D03*
X0046500Y0098300D03*
X0044000Y0065800D03*
X0044000Y0059200D03*
X0034000Y0059200D03*
X0034000Y0065800D03*
X0096500Y0079200D03*
X0096500Y0085800D03*
X0109000Y0038300D03*
X0109000Y0031700D03*
X0109000Y0023300D03*
X0109000Y0016700D03*
D122*
X0024000Y0040563D03*
X0024000Y0049437D03*
D110*
X0024000Y0067500D03*
D23*
X0024000Y0058250D03*
D140*
X0056500Y0067500D03*
X0066500Y0067500D03*
X0076500Y0067500D03*
X0086500Y0067500D03*
X0086500Y0097500D03*
X0076500Y0097500D03*
X0066500Y0097500D03*
X0056500Y0097500D03*
D29*
X0042300Y0080000D03*
X0035700Y0080000D03*
X0035700Y0072500D03*
X0042300Y0072500D03*
X0042300Y0032500D03*
X0035700Y0032500D03*
X0035700Y0025000D03*
X0042300Y0025000D03*
X0039450Y0017500D03*
X0046050Y0017500D03*
X0094450Y0023750D03*
X0101050Y0023750D03*
X0105700Y0067500D03*
X0112300Y0067500D03*
D67*
X0024000Y0028500D03*
X0024000Y0025000D03*
X0024000Y0021500D03*
D82*
X0030153Y0011200D02*
X0030816Y0011377D01*
X0031500Y0011437D01*
X0032184Y0011377D01*
X0032847Y0011200D01*
X0033469Y0010910D01*
X0034031Y0010516D01*
X0034516Y0010031D01*
X0034910Y0009469D01*
X0035200Y0008847D01*
X0035377Y0008184D01*
X0035437Y0007500D01*
X0035377Y0006816D01*
X0035200Y0006153D01*
X0034910Y0005531D01*
X0034516Y0004969D01*
X0034031Y0004484D01*
X0033469Y0004090D01*
X0032847Y0003800D01*
X0032184Y0003623D01*
X0031500Y0003563D01*
X0030816Y0003623D01*
X0030153Y0003800D01*
X0029531Y0004090D01*
X0028969Y0004484D01*
X0028484Y0004969D01*
X0028090Y0005531D01*
X0027800Y0006153D01*
X0027623Y0006816D01*
X0027563Y0007500D01*
X0027623Y0008184D01*
X0027800Y0008847D01*
X0028090Y0009469D01*
X0028484Y0010031D01*
X0028969Y0010516D01*
X0029531Y0010910D01*
X0030153Y0011200D01*
X0029655Y0010967D02*
X0033345Y0010967D01*
X0034078Y0010469D02*
X0028922Y0010469D01*
X0028442Y0009970D02*
X0034558Y0009970D01*
X0034907Y0009472D02*
X0028093Y0009472D01*
X0027859Y0008973D02*
X0035141Y0008973D01*
X0035299Y0008475D02*
X0027701Y0008475D01*
X0027605Y0007976D02*
X0035395Y0007976D01*
X0035435Y0007478D02*
X0027565Y0007478D01*
X0027609Y0006979D02*
X0035391Y0006979D01*
X0035287Y0006481D02*
X0027713Y0006481D01*
X0027880Y0005982D02*
X0035120Y0005982D01*
X0034876Y0005484D02*
X0028124Y0005484D01*
X0028473Y0004985D02*
X0034527Y0004985D01*
X0034033Y0004487D02*
X0028967Y0004487D01*
X0029751Y0003988D02*
X0033249Y0003988D01*
X0094531Y0101590D02*
X0095153Y0101300D01*
X0095816Y0101123D01*
X0096500Y0101063D01*
X0097184Y0101123D01*
X0097847Y0101300D01*
X0098469Y0101590D01*
X0099031Y0101984D01*
X0099516Y0102469D01*
X0099910Y0103031D01*
X0100200Y0103653D01*
X0100377Y0104316D01*
X0100437Y0105000D01*
X0100377Y0105684D01*
X0092623Y0105684D01*
X0092800Y0106347D01*
X0093090Y0106969D01*
X0093484Y0107531D01*
X0093969Y0108016D01*
X0094531Y0108410D01*
X0095153Y0108700D01*
X0095816Y0108877D01*
X0096500Y0108937D01*
X0097184Y0108877D01*
X0097847Y0108700D01*
X0098469Y0108410D01*
X0099031Y0108016D01*
X0099516Y0107531D01*
X0099910Y0106969D01*
X0100200Y0106347D01*
X0100377Y0105684D01*
X0100421Y0105186D02*
X0092579Y0105186D01*
X0092563Y0105000D02*
X0092623Y0105684D01*
X0092757Y0106183D02*
X0100243Y0106183D01*
X0100043Y0106681D02*
X0092957Y0106681D01*
X0093238Y0107180D02*
X0099761Y0107180D01*
X0099368Y0107678D02*
X0093632Y0107678D01*
X0094199Y0108177D02*
X0098801Y0108177D01*
X0097898Y0108675D02*
X0095102Y0108675D01*
X0092563Y0105000D02*
X0092623Y0104316D01*
X0092800Y0103653D01*
X0093090Y0103031D01*
X0093484Y0102469D01*
X0093969Y0101984D01*
X0094531Y0101590D01*
X0094380Y0101696D02*
X0098620Y0101696D01*
X0099241Y0102195D02*
X0093759Y0102195D01*
X0093327Y0102693D02*
X0099673Y0102693D01*
X0099984Y0103192D02*
X0093016Y0103192D01*
X0092791Y0103690D02*
X0100209Y0103690D01*
X0100343Y0104189D02*
X0092657Y0104189D01*
X0092590Y0104687D02*
X0100410Y0104687D01*
X0097464Y0101198D02*
X0095536Y0101198D01*
X0150000Y0000000D02*
G75*
%LPD*%
D39*
X0185260Y0039881D03*
X0192740Y0039881D03*
X0192740Y0050119D03*
X0189000Y0050119D03*
X0185260Y0050119D03*
X0255260Y0048631D03*
X0259000Y0048631D03*
X0262740Y0048631D03*
X0262740Y0058869D03*
X0255260Y0058869D03*
D21*
X0161500Y0010000D03*
X0281500Y0010000D03*
D78*
X0281500Y0070000D03*
X0281500Y0080000D03*
X0281500Y0090000D03*
X0281500Y0100000D03*
X0281500Y0110000D03*
X0161500Y0110000D03*
X0161500Y0100000D03*
X0161500Y0090000D03*
X0161500Y0080000D03*
X0161500Y0070000D03*
D126*
X0204768Y0044774D03*
X0204768Y0041624D03*
X0204768Y0038474D03*
X0204768Y0035325D03*
X0204768Y0032175D03*
X0204768Y0029026D03*
X0204768Y0025876D03*
X0204768Y0022726D03*
X0238232Y0022726D03*
X0238232Y0025876D03*
X0238232Y0029026D03*
X0238232Y0032175D03*
X0238232Y0035325D03*
X0238232Y0038474D03*
X0238232Y0041624D03*
X0238232Y0044774D03*
D52*
X0232524Y0050482D03*
X0229374Y0050482D03*
X0226224Y0050482D03*
X0223075Y0050482D03*
X0219925Y0050482D03*
X0216776Y0050482D03*
X0213626Y0050482D03*
X0210476Y0050482D03*
X0210476Y0017018D03*
X0213626Y0017018D03*
X0216776Y0017018D03*
X0219925Y0017018D03*
X0223075Y0017018D03*
X0226224Y0017018D03*
X0229374Y0017018D03*
X0232524Y0017018D03*
D33*
X0253000Y0088748D03*
X0190004Y0088748D03*
D17*
X0196500Y0091700D03*
X0196500Y0098300D03*
X0194000Y0065800D03*
X0194000Y0059200D03*
X0184000Y0059200D03*
X0184000Y0065800D03*
X0246500Y0079200D03*
X0246500Y0085800D03*
X0259000Y0038300D03*
X0259000Y0031700D03*
X0259000Y0023300D03*
X0259000Y0016700D03*
D122*
X0174000Y0040563D03*
X0174000Y0049437D03*
D110*
X0174000Y0067500D03*
D23*
X0174000Y0058250D03*
D140*
X0206500Y0067500D03*
X0216500Y0067500D03*
X0226500Y0067500D03*
X0236500Y0067500D03*
X0236500Y0097500D03*
X0226500Y0097500D03*
X0216500Y0097500D03*
X0206500Y0097500D03*
D29*
X0192300Y0080000D03*
X0185700Y0080000D03*
X0185700Y0072500D03*
X0192300Y0072500D03*
X0192300Y0032500D03*
X0185700Y0032500D03*
X0185700Y0025000D03*
X0192300Y0025000D03*
X0189450Y0017500D03*
X0196050Y0017500D03*
X0244450Y0023750D03*
X0251050Y0023750D03*
X0255700Y0067500D03*
X0262300Y0067500D03*
D67*
X0174000Y0028500D03*
X0174000Y0025000D03*
X0174000Y0021500D03*
D82*
X0180153Y0011200D02*
X0180816Y0011377D01*
X0181500Y0011437D01*
X0182184Y0011377D01*
X0182847Y0011200D01*
X0183469Y0010910D01*
X0184031Y0010516D01*
X0184516Y0010031D01*
X0184910Y0009469D01*
X0185200Y0008847D01*
X0185377Y0008184D01*
X0185437Y0007500D01*
X0185377Y0006816D01*
X0185200Y0006153D01*
X0184910Y0005531D01*
X0184516Y0004969D01*
X0184031Y0004484D01*
X0183469Y0004090D01*
X0182847Y0003800D01*
X0182184Y0003623D01*
X0181500Y0003563D01*
X0180816Y0003623D01*
X0180153Y0003800D01*
X0179531Y0004090D01*
X0178969Y0004484D01*
X0178484Y0004969D01*
X0178090Y0005531D01*
X0177800Y0006153D01*
X0177623Y0006816D01*
X0177563Y0007500D01*
X0177623Y0008184D01*
X0177800Y0008847D01*
X0178090Y0009469D01*
X0178484Y0010031D01*
X0178969Y0010516D01*
X0179531Y0010910D01*
X0180153Y0011200D01*
X0179655Y0010967D02*
X0183345Y0010967D01*
X0184078Y0010469D02*
X0178922Y0010469D01*
X0178442Y0009970D02*
X0184558Y0009970D01*
X0184907Y0009472D02*
X0178093Y0009472D01*
X0177859Y0008973D02*
X0185141Y0008973D01*
X0185299Y0008475D02*
X0177701Y0008475D01*
X0177605Y0007976D02*
X0185395Y0007976D01*
X0185435Y0007478D02*
X0177565Y0007478D01*
X0177609Y0006979D02*
X0185391Y0006979D01*
X0185287Y0006481D02*
X0177713Y0006481D01*
X0177880Y0005982D02*
X0185120Y0005982D01*
X0184876Y0005484D02*
X0178124Y0005484D01*
X0178473Y0004985D02*
X0184527Y0004985D01*
X0184033Y0004487D02*
X0178967Y0004487D01*
X0179751Y0003988D02*
X0183249Y0003988D01*
X0244531Y0101590D02*
X0245153Y0101300D01*
X0245816Y0101123D01*
X0246500Y0101063D01*
X0247184Y0101123D01*
X0247847Y0101300D01*
X0248469Y0101590D01*
X0249031Y0101984D01*
X0249516Y0102469D01*
X0249910Y0103031D01*
X0250200Y0103653D01*
X0250377Y0104316D01*
X0250437Y0105000D01*
X0250377Y0105684D01*
X0242623Y0105684D01*
X0242800Y0106347D01*
X0243090Y0106969D01*
X0243484Y0107531D01*
X0243969Y0108016D01*
X0244531Y0108410D01*
X0245153Y0108700D01*
X0245816Y0108877D01*
X0246500Y0108937D01*
X0247184Y0108877D01*
X0247847Y0108700D01*
X0248469Y0108410D01*
X0249031Y0108016D01*
X0249516Y0107531D01*
X0249910Y0106969D01*
X0250200Y0106347D01*
X0250377Y0105684D01*
X0250421Y0105186D02*
X0242579Y0105186D01*
X0242563Y0105000D02*
X0242623Y0105684D01*
X0242757Y0106183D02*
X0250243Y0106183D01*
X0250043Y0106681D02*
X0242957Y0106681D01*
X0243238Y0107180D02*
X0249761Y0107180D01*
X0249368Y0107678D02*
X0243632Y0107678D01*
X0244199Y0108177D02*
X0248801Y0108177D01*
X0247898Y0108675D02*
X0245102Y0108675D01*
X0242563Y0105000D02*
X0242623Y0104316D01*
X0242800Y0103653D01*
X0243090Y0103031D01*
X0243484Y0102469D01*
X0243969Y0101984D01*
X0244531Y0101590D01*
X0244380Y0101696D02*
X0248620Y0101696D01*
X0249241Y0102195D02*
X0243759Y0102195D01*
X0243327Y0102693D02*
X0249673Y0102693D01*
X0249984Y0103192D02*
X0243016Y0103192D01*
X0242791Y0103690D02*
X0250209Y0103690D01*
X0250343Y0104189D02*
X0242657Y0104189D01*
X0242590Y0104687D02*
X0250410Y0104687D01*
X0247464Y0101198D02*
X0245536Y0101198D01*
X0300000Y0000000D02*
G75*
%LPD*%
D26*
X0345250Y0025000D03*
X0397750Y0025000D03*
X0397750Y0085000D03*
X0345250Y0085000D03*
D11*
X0341500Y0067500D03*
X0321500Y0067500D03*
X0321500Y0042500D03*
X0341500Y0042500D03*
X0361500Y0015000D03*
X0371500Y0015000D03*
X0381500Y0015000D03*
X0411500Y0045000D03*
X0411500Y0055000D03*
X0411500Y0065000D03*
D29*
X0411950Y0082500D03*
X0418550Y0082500D03*
X0399800Y0042500D03*
X0393200Y0042500D03*
D21*
X0311500Y0010000D03*
X0431500Y0010000D03*
D78*
X0431500Y0070000D03*
X0431500Y0080000D03*
X0431500Y0090000D03*
X0431500Y0100000D03*
X0431500Y0110000D03*
X0311500Y0110000D03*
X0311500Y0100000D03*
X0311500Y0090000D03*
X0311500Y0080000D03*
X0311500Y0070000D03*
D91*
X0408250Y0093750D03*
X0422250Y0093750D03*
D17*
X0397750Y0070800D03*
X0397750Y0064200D03*
X0351500Y0058300D03*
X0351500Y0051700D03*
D140*
X0356500Y0067500D03*
X0366500Y0067500D03*
X0376500Y0067500D03*
X0386500Y0067500D03*
X0386500Y0097500D03*
X0376500Y0097500D03*
X0366500Y0097500D03*
X0356500Y0097500D03*
D82*
X0392623Y0104316D02*
X0392800Y0103653D01*
X0393090Y0103031D01*
X0393484Y0102469D01*
X0393969Y0101984D01*
X0394531Y0101590D01*
X0395153Y0101300D01*
X0395816Y0101123D01*
X0396500Y0101063D01*
X0397184Y0101123D01*
X0397847Y0101300D01*
X0398469Y0101590D01*
X0399031Y0101984D01*
X0399516Y0102469D01*
X0399910Y0103031D01*
X0400200Y0103653D01*
X0400377Y0104316D01*
X0400437Y0105000D01*
X0400377Y0105684D01*
X0392623Y0105684D01*
X0392800Y0106347D01*
X0393090Y0106969D01*
X0393484Y0107531D01*
X0393969Y0108016D01*
X0394531Y0108410D01*
X0395153Y0108700D01*
X0395816Y0108877D01*
X0396500Y0108937D01*
X0397184Y0108877D01*
X0397847Y0108700D01*
X0398469Y0108410D01*
X0399031Y0108016D01*
X0399516Y0107531D01*
X0399910Y0106969D01*
X0400200Y0106347D01*
X0400377Y0105684D01*
X0400421Y0105186D02*
X0392579Y0105186D01*
X0392563Y0105000D02*
X0392623Y0105684D01*
X0392757Y0106183D02*
X0400243Y0106183D01*
X0400043Y0106681D02*
X0392957Y0106681D01*
X0393238Y0107180D02*
X0399761Y0107180D01*
X0399368Y0107678D02*
X0393632Y0107678D01*
X0394199Y0108177D02*
X0398801Y0108177D01*
X0397898Y0108675D02*
X0395102Y0108675D01*
X0392563Y0105000D02*
X0392623Y0104316D01*
X0392657Y0104189D02*
X0400343Y0104189D01*
X0400410Y0104687D02*
X0392590Y0104687D01*
X0392791Y0103690D02*
X0400209Y0103690D01*
X0399984Y0103192D02*
X0393016Y0103192D01*
X0393327Y0102693D02*
X0399673Y0102693D01*
X0399241Y0102195D02*
X0393759Y0102195D01*
X0394380Y0101696D02*
X0398620Y0101696D01*
X0397464Y0101198D02*
X0395536Y0101198D01*
X0324031Y0023016D02*
X0324516Y0022531D01*
X0324910Y0021969D01*
X0325200Y0021347D01*
X0325377Y0020684D01*
X0325437Y0020000D01*
X0325377Y0019316D01*
X0325200Y0018653D01*
X0324910Y0018031D01*
X0324516Y0017469D01*
X0324031Y0016984D01*
X0323469Y0016590D01*
X0322847Y0016300D01*
X0322184Y0016123D01*
X0321500Y0016063D01*
X0320816Y0016123D01*
X0320153Y0016300D01*
X0319531Y0016590D01*
X0318969Y0016984D01*
X0318484Y0017469D01*
X0318090Y0018031D01*
X0317800Y0018653D01*
X0317623Y0019316D01*
X0317563Y0020000D01*
X0317623Y0020684D01*
X0317800Y0021347D01*
X0318090Y0021969D01*
X0318484Y0022531D01*
X0318969Y0023016D01*
X0319531Y0023410D01*
X0320153Y0023700D01*
X0320816Y0023877D01*
X0321500Y0023937D01*
X0322184Y0023877D01*
X0322847Y0023700D01*
X0323469Y0023410D01*
X0324031Y0023016D01*
X0324115Y0022932D02*
X0318885Y0022932D01*
X0318416Y0022433D02*
X0324584Y0022433D01*
X0324925Y0021934D02*
X0318075Y0021934D01*
X0317842Y0021436D02*
X0325158Y0021436D01*
X0325309Y0020937D02*
X0317691Y0020937D01*
X0317601Y0020439D02*
X0325399Y0020439D01*
X0325432Y0019940D02*
X0317568Y0019940D01*
X0317612Y0019442D02*
X0325388Y0019442D01*
X0325277Y0018943D02*
X0317723Y0018943D01*
X0317898Y0018445D02*
X0325102Y0018445D01*
X0324850Y0017946D02*
X0318150Y0017946D01*
X0318506Y0017448D02*
X0324494Y0017448D01*
X0323981Y0016949D02*
X0319019Y0016949D01*
X0319831Y0016451D02*
X0323169Y0016451D01*
X0323425Y0023430D02*
X0319575Y0023430D01*
X0321403Y0023929D02*
X0321597Y0023929D01*
D31*
X0362750Y0027500D03*
X0362750Y0032500D03*
X0362750Y0037500D03*
X0362750Y0042500D03*
X0362750Y0047500D03*
X0362750Y0052500D03*
X0362750Y0057500D03*
X0385250Y0057500D03*
X0385250Y0052500D03*
X0385250Y0047500D03*
X0385250Y0042500D03*
X0385250Y0037500D03*
X0385250Y0032500D03*
X0385250Y0027500D03*
X0450000Y0000000D02*
G75*
%LPD*%
D14*
X0541500Y0010000D03*
D119*
X0551500Y0010000D03*
X0561500Y0010000D03*
D55*
X0561500Y0040000D03*
X0551500Y0040000D03*
X0541500Y0040000D03*
X0491500Y0010000D03*
X0481500Y0010000D03*
D29*
X0479800Y0050000D03*
X0473200Y0050000D03*
X0473200Y0060000D03*
X0479800Y0060000D03*
X0479800Y0070000D03*
X0473200Y0070000D03*
X0473200Y0080000D03*
X0479800Y0080000D03*
X0479800Y0090000D03*
X0473200Y0090000D03*
X0513200Y0053750D03*
X0519800Y0053750D03*
X0558200Y0057500D03*
X0564800Y0057500D03*
D21*
X0461500Y0010000D03*
X0581500Y0010000D03*
D78*
X0581500Y0070000D03*
X0581500Y0080000D03*
X0581500Y0090000D03*
X0581500Y0100000D03*
X0581500Y0110000D03*
X0461500Y0110000D03*
X0461500Y0100000D03*
X0461500Y0090000D03*
X0461500Y0080000D03*
X0461500Y0070000D03*
D91*
X0554500Y0075000D03*
X0568500Y0075000D03*
D140*
X0536500Y0067500D03*
X0526500Y0067500D03*
X0516500Y0067500D03*
X0506500Y0067500D03*
X0506500Y0097500D03*
X0516500Y0097500D03*
X0526500Y0097500D03*
X0536500Y0097500D03*
D82*
X0543484Y0092531D02*
X0543090Y0091969D01*
X0542800Y0091347D01*
X0542623Y0090684D01*
X0542563Y0090000D01*
X0542623Y0089316D01*
X0542800Y0088653D01*
X0543090Y0088031D01*
X0543484Y0087469D01*
X0543969Y0086984D01*
X0544531Y0086590D01*
X0545153Y0086300D01*
X0545816Y0086123D01*
X0546500Y0086063D01*
X0547184Y0086123D01*
X0547847Y0086300D01*
X0548469Y0086590D01*
X0549031Y0086984D01*
X0549516Y0087469D01*
X0549910Y0088031D01*
X0550200Y0088653D01*
X0550377Y0089316D01*
X0550437Y0090000D01*
X0550377Y0090684D01*
X0550200Y0091347D01*
X0549910Y0091969D01*
X0549516Y0092531D01*
X0549031Y0093016D01*
X0548469Y0093410D01*
X0547847Y0093700D01*
X0547184Y0093877D01*
X0546500Y0093937D01*
X0545816Y0093877D01*
X0545153Y0093700D01*
X0544531Y0093410D01*
X0543969Y0093016D01*
X0543484Y0092531D01*
X0543677Y0092723D02*
X0549323Y0092723D01*
X0549730Y0092225D02*
X0543270Y0092225D01*
X0542977Y0091726D02*
X0550023Y0091726D01*
X0550231Y0091228D02*
X0542769Y0091228D01*
X0542635Y0090729D02*
X0550365Y0090729D01*
X0550417Y0090231D02*
X0542583Y0090231D01*
X0542586Y0089732D02*
X0550414Y0089732D01*
X0550355Y0089234D02*
X0542645Y0089234D01*
X0542779Y0088735D02*
X0550221Y0088735D01*
X0550005Y0088237D02*
X0542995Y0088237D01*
X0543296Y0087738D02*
X0549704Y0087738D01*
X0549286Y0087239D02*
X0543714Y0087239D01*
X0544317Y0086741D02*
X0548683Y0086741D01*
X0547630Y0086242D02*
X0545370Y0086242D01*
X0544263Y0093222D02*
X0548737Y0093222D01*
X0547770Y0093720D02*
X0545230Y0093720D01*
X0477016Y0027531D02*
X0476531Y0028016D01*
X0475969Y0028410D01*
X0475347Y0028700D01*
X0474684Y0028877D01*
X0474000Y0028937D01*
X0473316Y0028877D01*
X0472653Y0028700D01*
X0472031Y0028410D01*
X0471469Y0028016D01*
X0470984Y0027531D01*
X0470590Y0026969D01*
X0470300Y0026347D01*
X0470123Y0025684D01*
X0470063Y0025000D01*
X0470123Y0024316D01*
X0470300Y0023653D01*
X0470590Y0023031D01*
X0470984Y0022469D01*
X0471469Y0021984D01*
X0472031Y0021590D01*
X0472653Y0021300D01*
X0473316Y0021123D01*
X0474000Y0021063D01*
X0474684Y0021123D01*
X0475347Y0021300D01*
X0475969Y0021590D01*
X0476531Y0021984D01*
X0477016Y0022469D01*
X0477410Y0023031D01*
X0477700Y0023653D01*
X0477877Y0024316D01*
X0477937Y0025000D01*
X0477877Y0025684D01*
X0477700Y0026347D01*
X0477410Y0026969D01*
X0477016Y0027531D01*
X0477095Y0027418D02*
X0470905Y0027418D01*
X0470568Y0026920D02*
X0477432Y0026920D01*
X0477665Y0026421D02*
X0470335Y0026421D01*
X0470187Y0025923D02*
X0477813Y0025923D01*
X0477900Y0025424D02*
X0470100Y0025424D01*
X0470070Y0024926D02*
X0477930Y0024926D01*
X0477887Y0024427D02*
X0470113Y0024427D01*
X0470227Y0023929D02*
X0477773Y0023929D01*
X0477595Y0023430D02*
X0470405Y0023430D01*
X0470660Y0022932D02*
X0477340Y0022932D01*
X0476980Y0022433D02*
X0471020Y0022433D01*
X0471540Y0021934D02*
X0476460Y0021934D01*
X0475637Y0021436D02*
X0472363Y0021436D01*
X0471370Y0027917D02*
X0476630Y0027917D01*
X0475956Y0028415D02*
X0472043Y0028415D01*
X0473733Y0028914D02*
X0474267Y0028914D01*
D31*
X0506500Y0030000D03*
X0506500Y0025000D03*
X0506500Y0020000D03*
X0506500Y0015000D03*
X0529000Y0015000D03*
X0529000Y0020000D03*
X0529000Y0025000D03*
X0529000Y0030000D03*
X0529000Y0035000D03*
X0529000Y0040000D03*
X0529000Y0045000D03*
X0506500Y0045000D03*
X0506500Y0040000D03*
X0506500Y0035000D03*
D17*
X0496500Y0051700D03*
X0496500Y0058300D03*
X0535250Y0055800D03*
X0535250Y0049200D03*
X0600000Y0065000D02*
G75*
%LPD*%
D38*
X0606250Y0075000D03*
X0606250Y0085000D03*
X0606250Y0095000D03*
X0606250Y0105000D03*
X0676250Y0105000D03*
X0676250Y0095000D03*
D29*
X0659550Y0090000D03*
X0652950Y0090000D03*
X0652950Y0080000D03*
X0659550Y0080000D03*
X0676700Y0075000D03*
X0683300Y0075000D03*
X0657050Y0070000D03*
X0650450Y0070000D03*
X0652950Y0100000D03*
X0659550Y0100000D03*
X0659550Y0108750D03*
X0652950Y0108750D03*
D82*
X0630187Y0110000D02*
X0630127Y0109316D01*
X0629950Y0108653D01*
X0629660Y0108031D01*
X0629266Y0107469D01*
X0628781Y0106984D01*
X0628219Y0106590D01*
X0627597Y0106300D01*
X0626934Y0106123D01*
X0626250Y0106063D01*
X0625566Y0106123D01*
X0624903Y0106300D01*
X0624281Y0106590D01*
X0623719Y0106984D01*
X0623234Y0107469D01*
X0622840Y0108031D01*
X0622550Y0108653D01*
X0622373Y0109316D01*
X0622313Y0110000D01*
X0622373Y0110684D01*
X0622550Y0111347D01*
X0629950Y0111347D01*
X0630127Y0110684D01*
X0630187Y0110000D01*
X0630174Y0109851D02*
X0622326Y0109851D01*
X0622344Y0110350D02*
X0630156Y0110350D01*
X0630083Y0110848D02*
X0622417Y0110848D01*
X0622550Y0111347D02*
X0622840Y0111969D01*
X0623234Y0112531D01*
X0623719Y0113016D01*
X0624281Y0113410D01*
X0624903Y0113700D01*
X0625566Y0113877D01*
X0626250Y0113937D01*
X0626934Y0113877D01*
X0627597Y0113700D01*
X0628219Y0113410D01*
X0628781Y0113016D01*
X0629266Y0112531D01*
X0629660Y0111969D01*
X0629950Y0111347D01*
X0629717Y0111845D02*
X0622783Y0111845D01*
X0623103Y0112344D02*
X0629397Y0112344D01*
X0628954Y0112842D02*
X0623546Y0112842D01*
X0624183Y0113341D02*
X0628317Y0113341D01*
X0627075Y0113839D02*
X0625425Y0113839D01*
X0622370Y0109353D02*
X0630130Y0109353D01*
X0630003Y0108854D02*
X0622497Y0108854D01*
X0622689Y0108356D02*
X0629811Y0108356D01*
X0629537Y0107857D02*
X0622963Y0107857D01*
X0623345Y0107359D02*
X0629155Y0107359D01*
X0628604Y0106860D02*
X0623896Y0106860D01*
X0624772Y0106362D02*
X0627728Y0106362D01*
X0682550Y0086347D02*
X0682373Y0085684D01*
X0682313Y0085000D01*
X0682373Y0084316D01*
X0682550Y0083653D01*
X0682840Y0083031D01*
X0683234Y0082469D01*
X0683719Y0081984D01*
X0684281Y0081590D01*
X0684903Y0081300D01*
X0685566Y0081123D01*
X0686250Y0081063D01*
X0686934Y0081123D01*
X0687597Y0081300D01*
X0688219Y0081590D01*
X0688781Y0081984D01*
X0689266Y0082469D01*
X0689660Y0083031D01*
X0689950Y0083653D01*
X0690127Y0084316D01*
X0690187Y0085000D01*
X0690127Y0085684D01*
X0689950Y0086347D01*
X0689660Y0086969D01*
X0689266Y0087531D01*
X0688781Y0088016D01*
X0688219Y0088410D01*
X0687597Y0088700D01*
X0686934Y0088877D01*
X0686250Y0088937D01*
X0685566Y0088877D01*
X0684903Y0088700D01*
X0684281Y0088410D01*
X0683719Y0088016D01*
X0683234Y0087531D01*
X0682840Y0086969D01*
X0682550Y0086347D01*
X0682585Y0086421D02*
X0689915Y0086421D01*
X0690063Y0085923D02*
X0682437Y0085923D01*
X0682350Y0085424D02*
X0690150Y0085424D01*
X0690180Y0084926D02*
X0682320Y0084926D01*
X0682363Y0084427D02*
X0690137Y0084427D01*
X0690023Y0083929D02*
X0682477Y0083929D01*
X0682655Y0083430D02*
X0689845Y0083430D01*
X0689590Y0082932D02*
X0682910Y0082932D01*
X0683270Y0082433D02*
X0689230Y0082433D01*
X0688710Y0081934D02*
X0683790Y0081934D01*
X0684613Y0081436D02*
X0687887Y0081436D01*
X0689682Y0086920D02*
X0682818Y0086920D01*
X0683155Y0087418D02*
X0689345Y0087418D01*
X0688880Y0087917D02*
X0683620Y0087917D01*
X0684293Y0088415D02*
X0688206Y0088415D01*
X0686517Y0088914D02*
X0685983Y0088914D01*
D12*
X0686250Y0095000D03*
X0686250Y0105000D03*
D75*
X0636250Y0100000D03*
X0626250Y0100000D03*
X0626250Y0090000D03*
X0636250Y0090000D03*
X0636250Y0080000D03*
X0626250Y0080000D03*
D74*
X0616250Y0105000D03*
D55*
X0616250Y0095000D03*
X0616250Y0085000D03*
X0616250Y0075000D03*
X0450000Y0130000D02*
G75*
%LPD*%
D74*
X0558000Y0244500D03*
X0528000Y0255500D03*
X0672000Y0255500D03*
X0702000Y0244500D03*
D55*
X0692000Y0245500D03*
X0682000Y0244500D03*
X0672000Y0245500D03*
X0682000Y0254500D03*
X0692000Y0255500D03*
X0702000Y0254500D03*
X0558000Y0254500D03*
X0548000Y0255500D03*
X0538000Y0254500D03*
X0538000Y0244500D03*
X0528000Y0245500D03*
X0548000Y0245500D03*
D21*
X0460000Y0140000D03*
X0480000Y0140000D03*
X0750000Y0140000D03*
X0770000Y0140000D03*
X0770000Y0360000D03*
X0750000Y0360000D03*
X0480000Y0360000D03*
X0460000Y0360000D03*
D82*
X0470000Y0163937D02*
X0470684Y0163877D01*
X0471347Y0163700D01*
X0471969Y0163410D01*
X0472531Y0163016D01*
X0473016Y0162531D01*
X0473410Y0161969D01*
X0473700Y0161347D01*
X0473877Y0160684D01*
X0473937Y0160000D01*
X0473877Y0159316D01*
X0473700Y0158653D01*
X0473410Y0158031D01*
X0473016Y0157469D01*
X0472531Y0156984D01*
X0471969Y0156590D01*
X0471347Y0156300D01*
X0470684Y0156123D01*
X0470000Y0156063D01*
X0469316Y0156123D01*
X0468653Y0156300D01*
X0468031Y0156590D01*
X0467469Y0156984D01*
X0466984Y0157469D01*
X0466590Y0158031D01*
X0466300Y0158653D01*
X0466123Y0159316D01*
X0466063Y0160000D01*
X0466123Y0160684D01*
X0466300Y0161347D01*
X0466590Y0161969D01*
X0466984Y0162531D01*
X0467469Y0163016D01*
X0468031Y0163410D01*
X0468653Y0163700D01*
X0469316Y0163877D01*
X0470000Y0163937D01*
X0469563Y0163899D02*
X0470437Y0163899D01*
X0471982Y0163400D02*
X0468018Y0163400D01*
X0467355Y0162902D02*
X0472645Y0162902D01*
X0473105Y0162403D02*
X0466895Y0162403D01*
X0466561Y0161905D02*
X0473439Y0161905D01*
X0473672Y0161406D02*
X0466328Y0161406D01*
X0466183Y0160908D02*
X0473817Y0160908D01*
X0473901Y0160409D02*
X0466099Y0160409D01*
X0466071Y0159911D02*
X0473929Y0159911D01*
X0473886Y0159412D02*
X0466114Y0159412D01*
X0466231Y0158914D02*
X0473769Y0158914D01*
X0473588Y0158415D02*
X0466412Y0158415D01*
X0466671Y0157917D02*
X0473329Y0157917D01*
X0472965Y0157418D02*
X0467035Y0157418D01*
X0467561Y0156920D02*
X0472439Y0156920D01*
X0471605Y0156421D02*
X0468395Y0156421D01*
X0756590Y0338031D02*
X0756984Y0337469D01*
X0757469Y0336984D01*
X0758031Y0336590D01*
X0758653Y0336300D01*
X0759316Y0336123D01*
X0760000Y0336063D01*
X0760684Y0336123D01*
X0761347Y0336300D01*
X0761969Y0336590D01*
X0762531Y0336984D01*
X0763016Y0337469D01*
X0763410Y0338031D01*
X0763700Y0338653D01*
X0763877Y0339316D01*
X0763937Y0340000D01*
X0763877Y0340684D01*
X0763700Y0341347D01*
X0763410Y0341969D01*
X0763016Y0342531D01*
X0762531Y0343016D01*
X0761969Y0343410D01*
X0761347Y0343700D01*
X0760684Y0343877D01*
X0760000Y0343937D01*
X0759316Y0343877D01*
X0758653Y0343700D01*
X0758031Y0343410D01*
X0757469Y0343016D01*
X0756984Y0342531D01*
X0756590Y0341969D01*
X0756300Y0341347D01*
X0756123Y0340684D01*
X0756063Y0340000D01*
X0756123Y0339316D01*
X0756300Y0338653D01*
X0756590Y0338031D01*
X0756697Y0337879D02*
X0763303Y0337879D01*
X0763571Y0338378D02*
X0756429Y0338378D01*
X0756241Y0338876D02*
X0763759Y0338876D01*
X0763882Y0339375D02*
X0756118Y0339375D01*
X0756074Y0339873D02*
X0763926Y0339873D01*
X0763904Y0340372D02*
X0756096Y0340372D01*
X0756173Y0340870D02*
X0763827Y0340870D01*
X0763689Y0341369D02*
X0756311Y0341369D01*
X0756543Y0341867D02*
X0763457Y0341867D01*
X0763131Y0342366D02*
X0756869Y0342366D01*
X0757318Y0342864D02*
X0762682Y0342864D01*
X0762035Y0343363D02*
X0757965Y0343363D01*
X0759257Y0343861D02*
X0760743Y0343861D01*
X0762927Y0337381D02*
X0757073Y0337381D01*
X0757615Y0336882D02*
X0762385Y0336882D01*
X0761525Y0336384D02*
X0758475Y0336384D01*
D98*
X0759000Y0299700D03*
X0759000Y0200300D03*
X0615000Y0200300D03*
X0615000Y0299700D03*
X0471000Y0299700D03*
X0471000Y0200300D03*
D92*
X0543189Y0325709D03*
X0551063Y0325709D03*
X0558937Y0325709D03*
X0566811Y0325709D03*
X0603189Y0325709D03*
X0611063Y0325709D03*
X0618937Y0325709D03*
X0626811Y0325709D03*
X0663189Y0325709D03*
X0671063Y0325709D03*
X0678937Y0325709D03*
X0686811Y0325709D03*
D84*
X0696063Y0349724D03*
X0653937Y0349724D03*
X0636063Y0349724D03*
X0593937Y0349724D03*
X0576063Y0349724D03*
X0533937Y0349724D03*
D41*
X0650000Y0294528D03*
X0660000Y0294528D03*
X0660000Y0285472D03*
X0650000Y0285472D03*
D39*
X0648740Y0304881D03*
X0641260Y0304881D03*
X0641260Y0315119D03*
X0645000Y0315119D03*
X0648740Y0315119D03*
D17*
X0640000Y0293300D03*
X0640000Y0286700D03*
M02*
