G75*
G70*
%OFA0B0*%
%FSLAX25Y25*%
%IPPOS*%
%LPD*%
%AMOC8*
5,1,8,0,0,1.08239X$1,22.5*
%
%ADD10C,0.07350*%
%ADD11C,0.09600*%
%ADD110R,0.10600X0.11100*%
%ADD119C,0.08200*%
%ADD12C,0.05600*%
%ADD126R,0.03553X0.02372*%
%ADD129R,0.01584X0.06702*%
%ADD132R,0.06500X0.06100*%
%ADD135R,0.02175X0.08474*%
%ADD136R,0.10600X0.18100*%
%ADD138R,0.02600X0.04600*%
%ADD14R,0.08200X0.08200*%
%ADD17R,0.04900X0.04500*%
%ADD19R,0.04773X0.03159*%
%ADD21C,0.15600*%
%ADD23R,0.05600X0.03600*%
%ADD26C,0.12600*%
%ADD28R,0.12411X0.06112*%
%ADD29R,0.04500X0.04900*%
%ADD31R,0.04100X0.02600*%
%ADD32R,0.06506X0.06506*%
%ADD33C,0.04537*%
%ADD38C,0.06600*%
%ADD44R,0.06600X0.09600*%
%ADD45C,0.07391*%
%ADD52R,0.02372X0.03553*%
%ADD53R,0.04734X0.03159*%
%ADD55C,0.08000*%
%ADD59R,0.06100X0.06500*%
%ADD60C,0.08600*%
%ADD67R,0.05600X0.03100*%
%ADD69R,0.08600X0.08600*%
%ADD72OC8,0.07600*%
%ADD73C,0.05620*%
%ADD74R,0.08000X0.08000*%
%ADD75OC8,0.08000*%
%ADD78C,0.06450*%
%ADD82C,0.00500*%
%ADD86R,0.02175X0.05915*%
%ADD97R,0.10600X0.10600*%
%ADD98C,0.17500*%
%ADD99C,0.08100*%
X0040000Y0040000D02*
G75*
%LPD*%
D26*
X0085250Y0065000D03*
X0137750Y0065000D03*
X0137750Y0125000D03*
X0085250Y0125000D03*
D11*
X0081500Y0107500D03*
X0061500Y0107500D03*
X0061500Y0082500D03*
X0081500Y0082500D03*
X0101500Y0055000D03*
X0111500Y0055000D03*
X0121500Y0055000D03*
X0151500Y0085000D03*
X0151500Y0095000D03*
X0151500Y0105000D03*
D21*
X0051500Y0050000D03*
X0171500Y0050000D03*
D78*
X0171500Y0110000D03*
X0171500Y0120000D03*
X0171500Y0130000D03*
X0171500Y0140000D03*
X0171500Y0150000D03*
X0051500Y0150000D03*
X0051500Y0140000D03*
X0051500Y0130000D03*
X0051500Y0120000D03*
X0051500Y0110000D03*
X0190000Y0040000D02*
G75*
%LPD*%
D26*
X0235250Y0065000D03*
X0287750Y0065000D03*
X0287750Y0125000D03*
X0235250Y0125000D03*
D11*
X0231500Y0107500D03*
X0211500Y0107500D03*
X0211500Y0082500D03*
X0231500Y0082500D03*
X0251500Y0055000D03*
X0261500Y0055000D03*
X0271500Y0055000D03*
X0301500Y0085000D03*
X0301500Y0095000D03*
X0301500Y0105000D03*
D21*
X0201500Y0050000D03*
X0321500Y0050000D03*
D78*
X0321500Y0110000D03*
X0321500Y0120000D03*
X0321500Y0130000D03*
X0321500Y0140000D03*
X0321500Y0150000D03*
X0201500Y0150000D03*
X0201500Y0140000D03*
X0201500Y0130000D03*
X0201500Y0120000D03*
X0201500Y0110000D03*
X0340000Y0040000D02*
G75*
%LPD*%
D26*
X0385250Y0065000D03*
X0437750Y0065000D03*
X0437750Y0125000D03*
X0385250Y0125000D03*
D11*
X0381500Y0107500D03*
X0361500Y0107500D03*
X0361500Y0082500D03*
X0381500Y0082500D03*
X0401500Y0055000D03*
X0411500Y0055000D03*
X0421500Y0055000D03*
X0451500Y0085000D03*
X0451500Y0095000D03*
X0451500Y0105000D03*
D21*
X0351500Y0050000D03*
X0471500Y0050000D03*
D78*
X0471500Y0110000D03*
X0471500Y0120000D03*
X0471500Y0130000D03*
X0471500Y0140000D03*
X0471500Y0150000D03*
X0351500Y0150000D03*
X0351500Y0140000D03*
X0351500Y0130000D03*
X0351500Y0120000D03*
X0351500Y0110000D03*
X0490000Y0040000D02*
G75*
%LPD*%
D26*
X0535250Y0065000D03*
X0587750Y0065000D03*
X0587750Y0125000D03*
X0535250Y0125000D03*
D11*
X0531500Y0107500D03*
X0511500Y0107500D03*
X0511500Y0082500D03*
X0531500Y0082500D03*
X0551500Y0055000D03*
X0561500Y0055000D03*
X0571500Y0055000D03*
X0601500Y0085000D03*
X0601500Y0095000D03*
X0601500Y0105000D03*
D21*
X0501500Y0050000D03*
X0621500Y0050000D03*
D78*
X0621500Y0110000D03*
X0621500Y0120000D03*
X0621500Y0130000D03*
X0621500Y0140000D03*
X0621500Y0150000D03*
X0501500Y0150000D03*
X0501500Y0140000D03*
X0501500Y0130000D03*
X0501500Y0120000D03*
X0501500Y0110000D03*
X0640000Y0040000D02*
G75*
%LPD*%
D26*
X0685250Y0065000D03*
X0737750Y0065000D03*
X0737750Y0125000D03*
X0685250Y0125000D03*
D11*
X0681500Y0107500D03*
X0661500Y0107500D03*
X0661500Y0082500D03*
X0681500Y0082500D03*
X0701500Y0055000D03*
X0711500Y0055000D03*
X0721500Y0055000D03*
X0751500Y0085000D03*
X0751500Y0095000D03*
X0751500Y0105000D03*
D21*
X0651500Y0050000D03*
X0771500Y0050000D03*
D78*
X0771500Y0110000D03*
X0771500Y0120000D03*
X0771500Y0130000D03*
X0771500Y0140000D03*
X0771500Y0150000D03*
X0651500Y0150000D03*
X0651500Y0140000D03*
X0651500Y0130000D03*
X0651500Y0120000D03*
X0651500Y0110000D03*
X0790000Y0040000D02*
G75*
%LPD*%
D21*
X0801500Y0050000D03*
X0921500Y0050000D03*
D78*
X0921500Y0110000D03*
X0921500Y0120000D03*
X0921500Y0130000D03*
X0921500Y0140000D03*
X0921500Y0150000D03*
X0801500Y0150000D03*
X0801500Y0140000D03*
X0801500Y0130000D03*
X0801500Y0120000D03*
X0801500Y0110000D03*
D99*
X0891028Y0109843D03*
X0891028Y0100000D03*
X0891028Y0090157D03*
D10*
X0833941Y0092126D03*
X0833941Y0100000D03*
X0833941Y0107874D03*
X0833941Y0115748D03*
X0833941Y0084252D03*
D136*
X0861500Y0065000D03*
X0861500Y0135000D03*
X0940000Y0040000D02*
G75*
%LPD*%
D14*
X1031500Y0050000D03*
D119*
X1041500Y0050000D03*
X1051500Y0050000D03*
D55*
X1051500Y0080000D03*
X1041500Y0080000D03*
X1031500Y0080000D03*
X0981500Y0050000D03*
X0971500Y0050000D03*
D21*
X0951500Y0050000D03*
X1071500Y0050000D03*
D78*
X1071500Y0110000D03*
X1071500Y0120000D03*
X1071500Y0130000D03*
X1071500Y0140000D03*
X1071500Y0150000D03*
X0951500Y0150000D03*
X0951500Y0140000D03*
X0951500Y0130000D03*
X0951500Y0120000D03*
X0951500Y0110000D03*
X1090000Y0040000D02*
G75*
%LPD*%
D14*
X1181500Y0050000D03*
D119*
X1191500Y0050000D03*
X1201500Y0050000D03*
D55*
X1201500Y0080000D03*
X1191500Y0080000D03*
X1181500Y0080000D03*
X1131500Y0050000D03*
X1121500Y0050000D03*
D21*
X1101500Y0050000D03*
X1221500Y0050000D03*
D78*
X1221500Y0110000D03*
X1221500Y0120000D03*
X1221500Y0130000D03*
X1221500Y0140000D03*
X1221500Y0150000D03*
X1101500Y0150000D03*
X1101500Y0140000D03*
X1101500Y0130000D03*
X1101500Y0120000D03*
X1101500Y0110000D03*
X1240000Y0040000D02*
G75*
%LPD*%
D21*
X1251500Y0050000D03*
X1371500Y0050000D03*
D78*
X1371500Y0110000D03*
X1371500Y0120000D03*
X1371500Y0130000D03*
X1371500Y0140000D03*
X1371500Y0150000D03*
X1251500Y0150000D03*
X1251500Y0140000D03*
X1251500Y0130000D03*
X1251500Y0120000D03*
X1251500Y0110000D03*
D17*
X1262750Y0109200D03*
X1270250Y0109200D03*
X1277750Y0109200D03*
X1285250Y0109200D03*
X1285250Y0115800D03*
X1277750Y0115800D03*
X1270250Y0115800D03*
X1262750Y0115800D03*
X1286500Y0141700D03*
X1286500Y0148300D03*
X1292750Y0115800D03*
X1292750Y0109200D03*
X1329000Y0109200D03*
X1329000Y0115800D03*
X1339000Y0115800D03*
X1339000Y0109200D03*
X1349000Y0109200D03*
X1356500Y0109200D03*
X1356500Y0115800D03*
X1349000Y0115800D03*
X1336500Y0145450D03*
X1336500Y0152050D03*
D59*
X1262750Y0134500D03*
X1262750Y0125500D03*
D55*
X1266500Y0090000D03*
X1276500Y0090000D03*
X1286500Y0090000D03*
X1296500Y0090000D03*
X1306500Y0090000D03*
X1316500Y0090000D03*
X1326500Y0090000D03*
X1336500Y0090000D03*
X1346500Y0090000D03*
X1356500Y0090000D03*
X1356500Y0080000D03*
X1346500Y0080000D03*
X1336500Y0080000D03*
X1326500Y0080000D03*
X1316500Y0080000D03*
X1306500Y0080000D03*
X1296500Y0080000D03*
X1286500Y0080000D03*
X1276500Y0080000D03*
X1266500Y0080000D03*
X1266500Y0070000D03*
X1276500Y0070000D03*
X1286500Y0070000D03*
X1296500Y0070000D03*
X1306500Y0070000D03*
X1316500Y0070000D03*
X1326500Y0070000D03*
X1336500Y0070000D03*
X1346500Y0070000D03*
X1356500Y0070000D03*
X1356500Y0060000D03*
X1346500Y0060000D03*
X1336500Y0060000D03*
X1326500Y0060000D03*
X1316500Y0060000D03*
X1306500Y0060000D03*
X1296500Y0060000D03*
X1286500Y0060000D03*
X1276500Y0060000D03*
X1266500Y0060000D03*
X1266500Y0050000D03*
X1276500Y0050000D03*
X1286500Y0050000D03*
X1296500Y0050000D03*
X1306500Y0050000D03*
X1316500Y0050000D03*
X1326500Y0050000D03*
X1336500Y0050000D03*
X1346500Y0050000D03*
X1356500Y0050000D03*
D29*
X1313550Y0113750D03*
X1306950Y0113750D03*
D82*
X1262410Y0086969D02*
X1262700Y0086347D01*
X1262877Y0085684D01*
X1262937Y0085000D01*
X1262877Y0084316D01*
X1262700Y0083653D01*
X1262410Y0083031D01*
X1262016Y0082469D01*
X1261531Y0081984D01*
X1260969Y0081590D01*
X1260347Y0081300D01*
X1259684Y0081123D01*
X1259000Y0081063D01*
X1258316Y0081123D01*
X1257653Y0081300D01*
X1257031Y0081590D01*
X1256469Y0081984D01*
X1255984Y0082469D01*
X1255590Y0083031D01*
X1255300Y0083653D01*
X1255123Y0084316D01*
X1255063Y0085000D01*
X1255123Y0085684D01*
X1255300Y0086347D01*
X1255590Y0086969D01*
X1255984Y0087531D01*
X1256469Y0088016D01*
X1257031Y0088410D01*
X1257653Y0088700D01*
X1258316Y0088877D01*
X1259000Y0088937D01*
X1259684Y0088877D01*
X1260347Y0088700D01*
X1260969Y0088410D01*
X1261531Y0088016D01*
X1262016Y0087531D01*
X1262410Y0086969D01*
X1262460Y0086860D02*
X1255540Y0086860D01*
X1255307Y0086362D02*
X1262693Y0086362D01*
X1262829Y0085863D02*
X1255171Y0085863D01*
X1255095Y0085365D02*
X1262905Y0085365D01*
X1262925Y0084866D02*
X1255075Y0084866D01*
X1255118Y0084368D02*
X1262882Y0084368D01*
X1262757Y0083869D02*
X1255243Y0083869D01*
X1255432Y0083370D02*
X1262568Y0083370D01*
X1262298Y0082872D02*
X1255702Y0082872D01*
X1256080Y0082373D02*
X1261920Y0082373D01*
X1261375Y0081875D02*
X1256625Y0081875D01*
X1257490Y0081376D02*
X1260510Y0081376D01*
X1262136Y0087359D02*
X1255864Y0087359D01*
X1256311Y0087857D02*
X1261689Y0087857D01*
X1261046Y0088356D02*
X1256954Y0088356D01*
X1258230Y0088854D02*
X1259770Y0088854D01*
X1361373Y0064434D02*
X1361313Y0063750D01*
X1361373Y0063066D01*
X1361550Y0062403D01*
X1361840Y0061781D01*
X1362234Y0061219D01*
X1362719Y0060734D01*
X1363281Y0060340D01*
X1363903Y0060050D01*
X1364566Y0059873D01*
X1365250Y0059813D01*
X1365934Y0059873D01*
X1366597Y0060050D01*
X1367219Y0060340D01*
X1367781Y0060734D01*
X1368266Y0061219D01*
X1368660Y0061781D01*
X1368950Y0062403D01*
X1369127Y0063066D01*
X1369187Y0063750D01*
X1369127Y0064434D01*
X1368950Y0065097D01*
X1368660Y0065719D01*
X1368266Y0066281D01*
X1367781Y0066766D01*
X1367219Y0067160D01*
X1366597Y0067450D01*
X1365934Y0067627D01*
X1365250Y0067687D01*
X1364566Y0067627D01*
X1363903Y0067450D01*
X1363281Y0067160D01*
X1362719Y0066766D01*
X1362234Y0066281D01*
X1361840Y0065719D01*
X1361550Y0065097D01*
X1361373Y0064434D01*
X1361372Y0064427D02*
X1369128Y0064427D01*
X1369171Y0063929D02*
X1361329Y0063929D01*
X1361341Y0063430D02*
X1369159Y0063430D01*
X1369091Y0062932D02*
X1361409Y0062932D01*
X1361542Y0062433D02*
X1368957Y0062433D01*
X1368731Y0061934D02*
X1361769Y0061934D01*
X1362082Y0061436D02*
X1368418Y0061436D01*
X1367984Y0060937D02*
X1362516Y0060937D01*
X1363141Y0060439D02*
X1367359Y0060439D01*
X1366186Y0059940D02*
X1364314Y0059940D01*
X1361505Y0064926D02*
X1368995Y0064926D01*
X1368797Y0065424D02*
X1361703Y0065424D01*
X1361983Y0065923D02*
X1368517Y0065923D01*
X1368125Y0066421D02*
X1362375Y0066421D01*
X1362939Y0066920D02*
X1367561Y0066920D01*
X1366664Y0067418D02*
X1363836Y0067418D01*
D31*
X1321500Y0122500D03*
X1321500Y0127500D03*
X1321500Y0132500D03*
X1321500Y0137500D03*
X1321500Y0142500D03*
X1321500Y0147500D03*
X1321500Y0152500D03*
X1299000Y0152500D03*
X1299000Y0147500D03*
X1299000Y0142500D03*
X1299000Y0137500D03*
X1299000Y0132500D03*
X1299000Y0127500D03*
X1299000Y0122500D03*
X0040000Y0170000D02*
G75*
%LPD*%
D74*
X0148000Y0284500D03*
X0118000Y0295500D03*
X0262000Y0295500D03*
X0292000Y0284500D03*
D55*
X0282000Y0285500D03*
X0272000Y0284500D03*
X0262000Y0285500D03*
X0272000Y0294500D03*
X0282000Y0295500D03*
X0292000Y0294500D03*
X0148000Y0294500D03*
X0138000Y0295500D03*
X0128000Y0294500D03*
X0128000Y0284500D03*
X0138000Y0285500D03*
X0118000Y0285500D03*
D21*
X0050000Y0180000D03*
X0070000Y0180000D03*
X0340000Y0180000D03*
X0360000Y0180000D03*
X0470000Y0180000D03*
X0470000Y0400000D03*
X0360000Y0400000D03*
X0340000Y0400000D03*
X0070000Y0400000D03*
X0050000Y0400000D03*
D98*
X0061000Y0339700D03*
X0205000Y0339700D03*
X0349000Y0339700D03*
X0349000Y0240300D03*
X0205000Y0240300D03*
X0061000Y0240300D03*
D75*
X0369500Y0245000D03*
X0379500Y0245000D03*
X0379500Y0235000D03*
X0369500Y0235000D03*
X0369500Y0225000D03*
X0379500Y0225000D03*
X0379500Y0215000D03*
X0369500Y0215000D03*
X0369500Y0255000D03*
X0379500Y0255000D03*
X0379500Y0265000D03*
X0369500Y0265000D03*
X0369500Y0275000D03*
X0379500Y0275000D03*
X0379500Y0285000D03*
X0369500Y0285000D03*
X0369500Y0295000D03*
X0379500Y0295000D03*
X0380500Y0305000D03*
X0370500Y0305000D03*
X0369500Y0315000D03*
X0379500Y0315000D03*
X0380500Y0325000D03*
X0370500Y0325000D03*
X0369500Y0335000D03*
X0379500Y0335000D03*
X0380500Y0345000D03*
X0370500Y0345000D03*
X0369500Y0355000D03*
X0379500Y0355000D03*
X0380500Y0365000D03*
X0370500Y0365000D03*
X0369500Y0375000D03*
X0379500Y0375000D03*
X0380500Y0385000D03*
X0370500Y0385000D03*
X0449500Y0375000D03*
X0459500Y0375000D03*
X0460500Y0365000D03*
X0450500Y0365000D03*
X0449500Y0355000D03*
X0459500Y0355000D03*
X0460500Y0345000D03*
X0450500Y0345000D03*
X0449500Y0335000D03*
X0459500Y0335000D03*
X0460500Y0325000D03*
X0450500Y0325000D03*
X0449500Y0315000D03*
X0459500Y0315000D03*
X0460500Y0305000D03*
X0450500Y0305000D03*
X0449500Y0295000D03*
X0459500Y0295000D03*
X0459500Y0285000D03*
X0449500Y0285000D03*
X0449500Y0275000D03*
X0459500Y0275000D03*
X0459500Y0265000D03*
X0449500Y0265000D03*
X0449500Y0255000D03*
X0459500Y0255000D03*
X0459500Y0245000D03*
X0449500Y0245000D03*
X0449500Y0235000D03*
X0459500Y0235000D03*
X0459500Y0225000D03*
X0449500Y0225000D03*
X0449500Y0215000D03*
X0459500Y0215000D03*
X0460500Y0385000D03*
X0450500Y0385000D03*
X0490000Y0170000D02*
G75*
%LPD*%
D74*
X0598000Y0284500D03*
X0568000Y0295500D03*
X0712000Y0295500D03*
X0742000Y0284500D03*
D55*
X0732000Y0285500D03*
X0722000Y0284500D03*
X0712000Y0285500D03*
X0722000Y0294500D03*
X0732000Y0295500D03*
X0742000Y0294500D03*
X0598000Y0294500D03*
X0588000Y0295500D03*
X0578000Y0294500D03*
X0578000Y0284500D03*
X0588000Y0285500D03*
X0568000Y0285500D03*
D21*
X0500000Y0180000D03*
X0520000Y0180000D03*
X0790000Y0180000D03*
X0810000Y0180000D03*
X0920000Y0180000D03*
X0920000Y0400000D03*
X0810000Y0400000D03*
X0790000Y0400000D03*
X0520000Y0400000D03*
X0500000Y0400000D03*
D98*
X0511000Y0339700D03*
X0655000Y0339700D03*
X0799000Y0339700D03*
X0799000Y0240300D03*
X0655000Y0240300D03*
X0511000Y0240300D03*
D75*
X0819500Y0245000D03*
X0829500Y0245000D03*
X0829500Y0235000D03*
X0819500Y0235000D03*
X0819500Y0225000D03*
X0829500Y0225000D03*
X0829500Y0215000D03*
X0819500Y0215000D03*
X0819500Y0255000D03*
X0829500Y0255000D03*
X0829500Y0265000D03*
X0819500Y0265000D03*
X0819500Y0275000D03*
X0829500Y0275000D03*
X0829500Y0285000D03*
X0819500Y0285000D03*
X0819500Y0295000D03*
X0829500Y0295000D03*
X0830500Y0305000D03*
X0820500Y0305000D03*
X0819500Y0315000D03*
X0829500Y0315000D03*
X0830500Y0325000D03*
X0820500Y0325000D03*
X0819500Y0335000D03*
X0829500Y0335000D03*
X0830500Y0345000D03*
X0820500Y0345000D03*
X0819500Y0355000D03*
X0829500Y0355000D03*
X0830500Y0365000D03*
X0820500Y0365000D03*
X0819500Y0375000D03*
X0829500Y0375000D03*
X0830500Y0385000D03*
X0820500Y0385000D03*
X0899500Y0375000D03*
X0909500Y0375000D03*
X0910500Y0365000D03*
X0900500Y0365000D03*
X0899500Y0355000D03*
X0909500Y0355000D03*
X0910500Y0345000D03*
X0900500Y0345000D03*
X0899500Y0335000D03*
X0909500Y0335000D03*
X0910500Y0325000D03*
X0900500Y0325000D03*
X0899500Y0315000D03*
X0909500Y0315000D03*
X0910500Y0305000D03*
X0900500Y0305000D03*
X0899500Y0295000D03*
X0909500Y0295000D03*
X0909500Y0285000D03*
X0899500Y0285000D03*
X0899500Y0275000D03*
X0909500Y0275000D03*
X0909500Y0265000D03*
X0899500Y0265000D03*
X0899500Y0255000D03*
X0909500Y0255000D03*
X0909500Y0245000D03*
X0899500Y0245000D03*
X0899500Y0235000D03*
X0909500Y0235000D03*
X0909500Y0225000D03*
X0899500Y0225000D03*
X0899500Y0215000D03*
X0909500Y0215000D03*
X0910500Y0385000D03*
X0900500Y0385000D03*
X0940000Y0170000D02*
G75*
%LPD*%
D74*
X1048000Y0284500D03*
X1018000Y0295500D03*
X1162000Y0295500D03*
X1192000Y0284500D03*
D55*
X1182000Y0285500D03*
X1172000Y0284500D03*
X1162000Y0285500D03*
X1172000Y0294500D03*
X1182000Y0295500D03*
X1192000Y0294500D03*
X1048000Y0294500D03*
X1038000Y0295500D03*
X1028000Y0294500D03*
X1028000Y0284500D03*
X1018000Y0285500D03*
X1038000Y0285500D03*
D21*
X0950000Y0180000D03*
X0970000Y0180000D03*
X1240000Y0180000D03*
X1260000Y0180000D03*
X1260000Y0400000D03*
X1240000Y0400000D03*
X0970000Y0400000D03*
X0950000Y0400000D03*
D98*
X0961000Y0339700D03*
X0961000Y0240300D03*
X1105000Y0240300D03*
X1105000Y0339700D03*
X1249000Y0339700D03*
X1249000Y0240300D03*
X0040000Y0420000D02*
G75*
%LPD*%
D21*
X0051500Y0430000D03*
X0171500Y0430000D03*
D78*
X0171500Y0490000D03*
X0171500Y0500000D03*
X0171500Y0510000D03*
X0171500Y0520000D03*
X0171500Y0530000D03*
X0051500Y0530000D03*
X0051500Y0520000D03*
X0051500Y0510000D03*
X0051500Y0500000D03*
X0051500Y0490000D03*
D45*
X0128970Y0426000D03*
X0156530Y0426000D03*
D73*
X0152593Y0436630D03*
X0132907Y0436630D03*
D86*
X0137632Y0436630D03*
X0140191Y0436630D03*
X0142750Y0436630D03*
X0145309Y0436630D03*
X0147868Y0436630D03*
D32*
X0148656Y0426000D03*
X0136844Y0426000D03*
D132*
X0096000Y0502250D03*
X0087000Y0502250D03*
X0087000Y0515000D03*
X0096000Y0515000D03*
D72*
X0086500Y0455500D03*
X0076500Y0454500D03*
X0066500Y0455500D03*
X0066500Y0445500D03*
X0076500Y0444500D03*
X0086500Y0445500D03*
X0096500Y0444500D03*
X0106500Y0445500D03*
X0116500Y0444500D03*
X0106500Y0435500D03*
X0096500Y0434500D03*
X0086500Y0435500D03*
X0076500Y0434500D03*
X0066500Y0435500D03*
X0096500Y0454500D03*
X0106500Y0455500D03*
X0116500Y0454500D03*
X0116500Y0434500D03*
D126*
X0121018Y0477726D03*
X0121018Y0480876D03*
X0121018Y0484026D03*
X0121018Y0487175D03*
X0121018Y0490325D03*
X0121018Y0493474D03*
X0121018Y0496624D03*
X0121018Y0499774D03*
X0154482Y0499774D03*
X0154482Y0496624D03*
X0154482Y0493474D03*
X0154482Y0490325D03*
X0154482Y0487175D03*
X0154482Y0484026D03*
X0154482Y0480876D03*
X0154482Y0477726D03*
D52*
X0148774Y0472018D03*
X0145624Y0472018D03*
X0142474Y0472018D03*
X0139325Y0472018D03*
X0136175Y0472018D03*
X0133026Y0472018D03*
X0129876Y0472018D03*
X0126726Y0472018D03*
X0126726Y0505482D03*
X0129876Y0505482D03*
X0133026Y0505482D03*
X0136175Y0505482D03*
X0139325Y0505482D03*
X0142474Y0505482D03*
X0145624Y0505482D03*
X0148774Y0505482D03*
D17*
X0140250Y0511075D03*
X0140250Y0517675D03*
X0104000Y0517050D03*
X0104000Y0510450D03*
X0104000Y0502675D03*
X0104000Y0496075D03*
D44*
X0112750Y0521250D03*
D138*
X0110750Y0499250D03*
X0114750Y0499250D03*
D28*
X0142051Y0456250D03*
X0160949Y0456250D03*
D53*
X0138419Y0523366D03*
X0138419Y0531634D03*
X0122081Y0531634D03*
X0122081Y0523366D03*
D82*
X0087877Y0526816D02*
X0087700Y0526153D01*
X0087410Y0525531D01*
X0087016Y0524969D01*
X0086531Y0524484D01*
X0085969Y0524090D01*
X0085347Y0523800D01*
X0084684Y0523623D01*
X0084000Y0523563D01*
X0083316Y0523623D01*
X0082653Y0523800D01*
X0082031Y0524090D01*
X0081469Y0524484D01*
X0080984Y0524969D01*
X0080590Y0525531D01*
X0080300Y0526153D01*
X0080123Y0526816D01*
X0080063Y0527500D01*
X0080123Y0528184D01*
X0080300Y0528847D01*
X0080590Y0529469D01*
X0080984Y0530031D01*
X0081469Y0530516D01*
X0082031Y0530910D01*
X0082653Y0531200D01*
X0083316Y0531377D01*
X0084000Y0531437D01*
X0084684Y0531377D01*
X0085347Y0531200D01*
X0085969Y0530910D01*
X0086531Y0530516D01*
X0087016Y0530031D01*
X0087410Y0529469D01*
X0087700Y0528847D01*
X0087877Y0528184D01*
X0087937Y0527500D01*
X0087877Y0526816D01*
X0087841Y0526681D02*
X0080159Y0526681D01*
X0080091Y0527180D02*
X0087909Y0527180D01*
X0087921Y0527678D02*
X0080079Y0527678D01*
X0080122Y0528177D02*
X0087878Y0528177D01*
X0087745Y0528675D02*
X0080255Y0528675D01*
X0080453Y0529174D02*
X0087547Y0529174D01*
X0087267Y0529672D02*
X0080733Y0529672D01*
X0081124Y0530171D02*
X0086876Y0530171D01*
X0086311Y0530670D02*
X0081689Y0530670D01*
X0082586Y0531168D02*
X0085414Y0531168D01*
X0087707Y0526183D02*
X0080293Y0526183D01*
X0080519Y0525684D02*
X0087481Y0525684D01*
X0087168Y0525186D02*
X0080832Y0525186D01*
X0081266Y0524687D02*
X0086734Y0524687D01*
X0086109Y0524189D02*
X0081891Y0524189D01*
X0083064Y0523690D02*
X0084936Y0523690D01*
X0159965Y0473219D02*
X0159675Y0472597D01*
X0159498Y0471934D01*
X0159438Y0471250D01*
X0159498Y0470566D01*
X0159675Y0469903D01*
X0159965Y0469281D01*
X0160359Y0468719D01*
X0160844Y0468234D01*
X0161406Y0467840D01*
X0162028Y0467550D01*
X0162691Y0467373D01*
X0163375Y0467313D01*
X0164059Y0467373D01*
X0164722Y0467550D01*
X0165344Y0467840D01*
X0165906Y0468234D01*
X0166391Y0468719D01*
X0166785Y0469281D01*
X0167075Y0469903D01*
X0167252Y0470566D01*
X0167312Y0471250D01*
X0167252Y0471934D01*
X0167075Y0472597D01*
X0166785Y0473219D01*
X0166391Y0473781D01*
X0165906Y0474266D01*
X0165344Y0474660D01*
X0164722Y0474950D01*
X0164059Y0475127D01*
X0163375Y0475187D01*
X0162691Y0475127D01*
X0162028Y0474950D01*
X0161406Y0474660D01*
X0160844Y0474266D01*
X0160359Y0473781D01*
X0159965Y0473219D01*
X0160051Y0473341D02*
X0166699Y0473341D01*
X0166960Y0472842D02*
X0159790Y0472842D01*
X0159608Y0472344D02*
X0167142Y0472344D01*
X0167260Y0471845D02*
X0159490Y0471845D01*
X0159446Y0471347D02*
X0167304Y0471347D01*
X0167277Y0470848D02*
X0159473Y0470848D01*
X0159556Y0470350D02*
X0167194Y0470350D01*
X0167050Y0469851D02*
X0159700Y0469851D01*
X0159932Y0469353D02*
X0166818Y0469353D01*
X0166485Y0468854D02*
X0160265Y0468854D01*
X0160723Y0468356D02*
X0166027Y0468356D01*
X0165367Y0467857D02*
X0161383Y0467857D01*
X0162854Y0467359D02*
X0163896Y0467359D01*
X0166332Y0473839D02*
X0160418Y0473839D01*
X0160947Y0474338D02*
X0165803Y0474338D01*
X0164965Y0474836D02*
X0161785Y0474836D01*
D55*
X0086575Y0490000D03*
X0075175Y0490000D03*
D110*
X0129000Y0457500D03*
D23*
X0129000Y0448250D03*
X0190000Y0420000D02*
G75*
%LPD*%
D21*
X0201500Y0430000D03*
X0321500Y0430000D03*
D78*
X0321500Y0490000D03*
X0321500Y0500000D03*
X0321500Y0510000D03*
X0321500Y0520000D03*
X0321500Y0530000D03*
X0201500Y0530000D03*
X0201500Y0520000D03*
X0201500Y0510000D03*
X0201500Y0500000D03*
X0201500Y0490000D03*
D45*
X0278970Y0426000D03*
X0306530Y0426000D03*
D73*
X0302593Y0436630D03*
X0282907Y0436630D03*
D86*
X0287632Y0436630D03*
X0290191Y0436630D03*
X0292750Y0436630D03*
X0295309Y0436630D03*
X0297868Y0436630D03*
D32*
X0298656Y0426000D03*
X0286844Y0426000D03*
D132*
X0246000Y0502250D03*
X0237000Y0502250D03*
X0237000Y0515000D03*
X0246000Y0515000D03*
D72*
X0236500Y0455500D03*
X0226500Y0454500D03*
X0216500Y0455500D03*
X0216500Y0445500D03*
X0226500Y0444500D03*
X0236500Y0445500D03*
X0246500Y0444500D03*
X0256500Y0445500D03*
X0266500Y0444500D03*
X0256500Y0435500D03*
X0246500Y0434500D03*
X0236500Y0435500D03*
X0226500Y0434500D03*
X0216500Y0435500D03*
X0246500Y0454500D03*
X0256500Y0455500D03*
X0266500Y0454500D03*
X0266500Y0434500D03*
D126*
X0271018Y0477726D03*
X0271018Y0480876D03*
X0271018Y0484026D03*
X0271018Y0487175D03*
X0271018Y0490325D03*
X0271018Y0493474D03*
X0271018Y0496624D03*
X0271018Y0499774D03*
X0304482Y0499774D03*
X0304482Y0496624D03*
X0304482Y0493474D03*
X0304482Y0490325D03*
X0304482Y0487175D03*
X0304482Y0484026D03*
X0304482Y0480876D03*
X0304482Y0477726D03*
D52*
X0298774Y0472018D03*
X0295624Y0472018D03*
X0292474Y0472018D03*
X0289325Y0472018D03*
X0286175Y0472018D03*
X0283026Y0472018D03*
X0279876Y0472018D03*
X0276726Y0472018D03*
X0276726Y0505482D03*
X0279876Y0505482D03*
X0283026Y0505482D03*
X0286175Y0505482D03*
X0289325Y0505482D03*
X0292474Y0505482D03*
X0295624Y0505482D03*
X0298774Y0505482D03*
D17*
X0290250Y0511075D03*
X0290250Y0517675D03*
X0254000Y0517050D03*
X0254000Y0510450D03*
X0254000Y0502675D03*
X0254000Y0496075D03*
D44*
X0262750Y0521250D03*
D138*
X0260750Y0499250D03*
X0264750Y0499250D03*
D28*
X0292051Y0456250D03*
X0310949Y0456250D03*
D53*
X0288419Y0523366D03*
X0288419Y0531634D03*
X0272081Y0531634D03*
X0272081Y0523366D03*
D82*
X0237877Y0526816D02*
X0237700Y0526153D01*
X0237410Y0525531D01*
X0237016Y0524969D01*
X0236531Y0524484D01*
X0235969Y0524090D01*
X0235347Y0523800D01*
X0234684Y0523623D01*
X0234000Y0523563D01*
X0233316Y0523623D01*
X0232653Y0523800D01*
X0232031Y0524090D01*
X0231469Y0524484D01*
X0230984Y0524969D01*
X0230590Y0525531D01*
X0230300Y0526153D01*
X0230123Y0526816D01*
X0230063Y0527500D01*
X0230123Y0528184D01*
X0230300Y0528847D01*
X0230590Y0529469D01*
X0230984Y0530031D01*
X0231469Y0530516D01*
X0232031Y0530910D01*
X0232653Y0531200D01*
X0233316Y0531377D01*
X0234000Y0531437D01*
X0234684Y0531377D01*
X0235347Y0531200D01*
X0235969Y0530910D01*
X0236531Y0530516D01*
X0237016Y0530031D01*
X0237410Y0529469D01*
X0237700Y0528847D01*
X0237877Y0528184D01*
X0237937Y0527500D01*
X0237877Y0526816D01*
X0237841Y0526681D02*
X0230159Y0526681D01*
X0230091Y0527180D02*
X0237909Y0527180D01*
X0237921Y0527678D02*
X0230079Y0527678D01*
X0230122Y0528177D02*
X0237878Y0528177D01*
X0237745Y0528675D02*
X0230255Y0528675D01*
X0230453Y0529174D02*
X0237547Y0529174D01*
X0237267Y0529672D02*
X0230733Y0529672D01*
X0231124Y0530171D02*
X0236876Y0530171D01*
X0236311Y0530670D02*
X0231689Y0530670D01*
X0232586Y0531168D02*
X0235414Y0531168D01*
X0237707Y0526183D02*
X0230293Y0526183D01*
X0230519Y0525684D02*
X0237481Y0525684D01*
X0237168Y0525186D02*
X0230832Y0525186D01*
X0231266Y0524687D02*
X0236734Y0524687D01*
X0236109Y0524189D02*
X0231891Y0524189D01*
X0233064Y0523690D02*
X0234936Y0523690D01*
X0309965Y0473219D02*
X0309675Y0472597D01*
X0309498Y0471934D01*
X0309438Y0471250D01*
X0309498Y0470566D01*
X0309675Y0469903D01*
X0309965Y0469281D01*
X0310359Y0468719D01*
X0310844Y0468234D01*
X0311406Y0467840D01*
X0312028Y0467550D01*
X0312691Y0467373D01*
X0313375Y0467313D01*
X0314059Y0467373D01*
X0314722Y0467550D01*
X0315344Y0467840D01*
X0315906Y0468234D01*
X0316391Y0468719D01*
X0316785Y0469281D01*
X0317075Y0469903D01*
X0317252Y0470566D01*
X0317312Y0471250D01*
X0317252Y0471934D01*
X0317075Y0472597D01*
X0316785Y0473219D01*
X0316391Y0473781D01*
X0315906Y0474266D01*
X0315344Y0474660D01*
X0314722Y0474950D01*
X0314059Y0475127D01*
X0313375Y0475187D01*
X0312691Y0475127D01*
X0312028Y0474950D01*
X0311406Y0474660D01*
X0310844Y0474266D01*
X0310359Y0473781D01*
X0309965Y0473219D01*
X0310051Y0473341D02*
X0316699Y0473341D01*
X0316960Y0472842D02*
X0309790Y0472842D01*
X0309608Y0472344D02*
X0317142Y0472344D01*
X0317260Y0471845D02*
X0309490Y0471845D01*
X0309446Y0471347D02*
X0317304Y0471347D01*
X0317277Y0470848D02*
X0309473Y0470848D01*
X0309556Y0470350D02*
X0317194Y0470350D01*
X0317050Y0469851D02*
X0309700Y0469851D01*
X0309932Y0469353D02*
X0316818Y0469353D01*
X0316485Y0468854D02*
X0310265Y0468854D01*
X0310723Y0468356D02*
X0316027Y0468356D01*
X0315367Y0467857D02*
X0311383Y0467857D01*
X0312854Y0467359D02*
X0313896Y0467359D01*
X0316332Y0473839D02*
X0310418Y0473839D01*
X0310947Y0474338D02*
X0315803Y0474338D01*
X0314965Y0474836D02*
X0311785Y0474836D01*
D55*
X0236575Y0490000D03*
X0225175Y0490000D03*
D110*
X0279000Y0457500D03*
D23*
X0279000Y0448250D03*
X0340000Y0420000D02*
G75*
%LPD*%
D21*
X0351500Y0430000D03*
X0471500Y0430000D03*
D78*
X0471500Y0490000D03*
X0471500Y0500000D03*
X0471500Y0510000D03*
X0471500Y0520000D03*
X0471500Y0530000D03*
X0351500Y0530000D03*
X0351500Y0520000D03*
X0351500Y0510000D03*
X0351500Y0500000D03*
X0351500Y0490000D03*
D45*
X0428970Y0426000D03*
X0456530Y0426000D03*
D73*
X0452593Y0436630D03*
X0432907Y0436630D03*
D86*
X0437632Y0436630D03*
X0440191Y0436630D03*
X0442750Y0436630D03*
X0445309Y0436630D03*
X0447868Y0436630D03*
D32*
X0448656Y0426000D03*
X0436844Y0426000D03*
D132*
X0396000Y0502250D03*
X0387000Y0502250D03*
X0387000Y0515000D03*
X0396000Y0515000D03*
D72*
X0386500Y0455500D03*
X0376500Y0454500D03*
X0366500Y0455500D03*
X0366500Y0445500D03*
X0376500Y0444500D03*
X0386500Y0445500D03*
X0396500Y0444500D03*
X0406500Y0445500D03*
X0416500Y0444500D03*
X0406500Y0435500D03*
X0396500Y0434500D03*
X0386500Y0435500D03*
X0376500Y0434500D03*
X0366500Y0435500D03*
X0396500Y0454500D03*
X0406500Y0455500D03*
X0416500Y0454500D03*
X0416500Y0434500D03*
D126*
X0421018Y0477726D03*
X0421018Y0480876D03*
X0421018Y0484026D03*
X0421018Y0487175D03*
X0421018Y0490325D03*
X0421018Y0493474D03*
X0421018Y0496624D03*
X0421018Y0499774D03*
X0454482Y0499774D03*
X0454482Y0496624D03*
X0454482Y0493474D03*
X0454482Y0490325D03*
X0454482Y0487175D03*
X0454482Y0484026D03*
X0454482Y0480876D03*
X0454482Y0477726D03*
D52*
X0448774Y0472018D03*
X0445624Y0472018D03*
X0442474Y0472018D03*
X0439325Y0472018D03*
X0436175Y0472018D03*
X0433026Y0472018D03*
X0429876Y0472018D03*
X0426726Y0472018D03*
X0426726Y0505482D03*
X0429876Y0505482D03*
X0433026Y0505482D03*
X0436175Y0505482D03*
X0439325Y0505482D03*
X0442474Y0505482D03*
X0445624Y0505482D03*
X0448774Y0505482D03*
D17*
X0440250Y0511075D03*
X0440250Y0517675D03*
X0404000Y0517050D03*
X0404000Y0510450D03*
X0404000Y0502675D03*
X0404000Y0496075D03*
D44*
X0412750Y0521250D03*
D138*
X0410750Y0499250D03*
X0414750Y0499250D03*
D28*
X0442051Y0456250D03*
X0460949Y0456250D03*
D53*
X0438419Y0523366D03*
X0438419Y0531634D03*
X0422081Y0531634D03*
X0422081Y0523366D03*
D82*
X0387877Y0526816D02*
X0387700Y0526153D01*
X0387410Y0525531D01*
X0387016Y0524969D01*
X0386531Y0524484D01*
X0385969Y0524090D01*
X0385347Y0523800D01*
X0384684Y0523623D01*
X0384000Y0523563D01*
X0383316Y0523623D01*
X0382653Y0523800D01*
X0382031Y0524090D01*
X0381469Y0524484D01*
X0380984Y0524969D01*
X0380590Y0525531D01*
X0380300Y0526153D01*
X0380123Y0526816D01*
X0380063Y0527500D01*
X0380123Y0528184D01*
X0380300Y0528847D01*
X0380590Y0529469D01*
X0380984Y0530031D01*
X0381469Y0530516D01*
X0382031Y0530910D01*
X0382653Y0531200D01*
X0383316Y0531377D01*
X0384000Y0531437D01*
X0384684Y0531377D01*
X0385347Y0531200D01*
X0385969Y0530910D01*
X0386531Y0530516D01*
X0387016Y0530031D01*
X0387410Y0529469D01*
X0387700Y0528847D01*
X0387877Y0528184D01*
X0387937Y0527500D01*
X0387877Y0526816D01*
X0387841Y0526681D02*
X0380159Y0526681D01*
X0380091Y0527180D02*
X0387909Y0527180D01*
X0387921Y0527678D02*
X0380079Y0527678D01*
X0380122Y0528177D02*
X0387878Y0528177D01*
X0387745Y0528675D02*
X0380255Y0528675D01*
X0380453Y0529174D02*
X0387547Y0529174D01*
X0387267Y0529672D02*
X0380733Y0529672D01*
X0381124Y0530171D02*
X0386876Y0530171D01*
X0386311Y0530670D02*
X0381689Y0530670D01*
X0382586Y0531168D02*
X0385414Y0531168D01*
X0387707Y0526183D02*
X0380293Y0526183D01*
X0380519Y0525684D02*
X0387481Y0525684D01*
X0387168Y0525186D02*
X0380832Y0525186D01*
X0381266Y0524687D02*
X0386734Y0524687D01*
X0386109Y0524189D02*
X0381891Y0524189D01*
X0383064Y0523690D02*
X0384936Y0523690D01*
X0459965Y0473219D02*
X0459675Y0472597D01*
X0459498Y0471934D01*
X0459438Y0471250D01*
X0459498Y0470566D01*
X0459675Y0469903D01*
X0459965Y0469281D01*
X0460359Y0468719D01*
X0460844Y0468234D01*
X0461406Y0467840D01*
X0462028Y0467550D01*
X0462691Y0467373D01*
X0463375Y0467313D01*
X0464059Y0467373D01*
X0464722Y0467550D01*
X0465344Y0467840D01*
X0465906Y0468234D01*
X0466391Y0468719D01*
X0466785Y0469281D01*
X0467075Y0469903D01*
X0467252Y0470566D01*
X0467312Y0471250D01*
X0467252Y0471934D01*
X0467075Y0472597D01*
X0466785Y0473219D01*
X0466391Y0473781D01*
X0465906Y0474266D01*
X0465344Y0474660D01*
X0464722Y0474950D01*
X0464059Y0475127D01*
X0463375Y0475187D01*
X0462691Y0475127D01*
X0462028Y0474950D01*
X0461406Y0474660D01*
X0460844Y0474266D01*
X0460359Y0473781D01*
X0459965Y0473219D01*
X0460051Y0473341D02*
X0466699Y0473341D01*
X0466960Y0472842D02*
X0459790Y0472842D01*
X0459608Y0472344D02*
X0467142Y0472344D01*
X0467260Y0471845D02*
X0459490Y0471845D01*
X0459446Y0471347D02*
X0467304Y0471347D01*
X0467277Y0470848D02*
X0459473Y0470848D01*
X0459556Y0470350D02*
X0467194Y0470350D01*
X0467050Y0469851D02*
X0459700Y0469851D01*
X0459932Y0469353D02*
X0466818Y0469353D01*
X0466485Y0468854D02*
X0460265Y0468854D01*
X0460723Y0468356D02*
X0466027Y0468356D01*
X0465367Y0467857D02*
X0461383Y0467857D01*
X0462854Y0467359D02*
X0463896Y0467359D01*
X0466332Y0473839D02*
X0460418Y0473839D01*
X0460947Y0474338D02*
X0465803Y0474338D01*
X0464965Y0474836D02*
X0461785Y0474836D01*
D55*
X0386575Y0490000D03*
X0375175Y0490000D03*
D110*
X0429000Y0457500D03*
D23*
X0429000Y0448250D03*
X0490000Y0420000D02*
G75*
%LPD*%
D21*
X0501500Y0430000D03*
X0621500Y0430000D03*
D78*
X0621500Y0490000D03*
X0621500Y0500000D03*
X0621500Y0510000D03*
X0621500Y0520000D03*
X0621500Y0530000D03*
X0501500Y0530000D03*
X0501500Y0520000D03*
X0501500Y0510000D03*
X0501500Y0500000D03*
X0501500Y0490000D03*
D45*
X0578970Y0426000D03*
X0606530Y0426000D03*
D73*
X0602593Y0436630D03*
X0582907Y0436630D03*
D86*
X0587632Y0436630D03*
X0590191Y0436630D03*
X0592750Y0436630D03*
X0595309Y0436630D03*
X0597868Y0436630D03*
D32*
X0598656Y0426000D03*
X0586844Y0426000D03*
D132*
X0546000Y0502250D03*
X0537000Y0502250D03*
X0537000Y0515000D03*
X0546000Y0515000D03*
D72*
X0536500Y0455500D03*
X0526500Y0454500D03*
X0516500Y0455500D03*
X0516500Y0445500D03*
X0526500Y0444500D03*
X0536500Y0445500D03*
X0546500Y0444500D03*
X0556500Y0445500D03*
X0566500Y0444500D03*
X0556500Y0435500D03*
X0546500Y0434500D03*
X0536500Y0435500D03*
X0526500Y0434500D03*
X0516500Y0435500D03*
X0546500Y0454500D03*
X0556500Y0455500D03*
X0566500Y0454500D03*
X0566500Y0434500D03*
D126*
X0571018Y0477726D03*
X0571018Y0480876D03*
X0571018Y0484026D03*
X0571018Y0487175D03*
X0571018Y0490325D03*
X0571018Y0493474D03*
X0571018Y0496624D03*
X0571018Y0499774D03*
X0604482Y0499774D03*
X0604482Y0496624D03*
X0604482Y0493474D03*
X0604482Y0490325D03*
X0604482Y0487175D03*
X0604482Y0484026D03*
X0604482Y0480876D03*
X0604482Y0477726D03*
D52*
X0598774Y0472018D03*
X0595624Y0472018D03*
X0592474Y0472018D03*
X0589325Y0472018D03*
X0586175Y0472018D03*
X0583026Y0472018D03*
X0579876Y0472018D03*
X0576726Y0472018D03*
X0576726Y0505482D03*
X0579876Y0505482D03*
X0583026Y0505482D03*
X0586175Y0505482D03*
X0589325Y0505482D03*
X0592474Y0505482D03*
X0595624Y0505482D03*
X0598774Y0505482D03*
D17*
X0590250Y0511075D03*
X0590250Y0517675D03*
X0554000Y0517050D03*
X0554000Y0510450D03*
X0554000Y0502675D03*
X0554000Y0496075D03*
D44*
X0562750Y0521250D03*
D138*
X0560750Y0499250D03*
X0564750Y0499250D03*
D28*
X0592051Y0456250D03*
X0610949Y0456250D03*
D53*
X0588419Y0523366D03*
X0588419Y0531634D03*
X0572081Y0531634D03*
X0572081Y0523366D03*
D82*
X0537877Y0526816D02*
X0537700Y0526153D01*
X0537410Y0525531D01*
X0537016Y0524969D01*
X0536531Y0524484D01*
X0535969Y0524090D01*
X0535347Y0523800D01*
X0534684Y0523623D01*
X0534000Y0523563D01*
X0533316Y0523623D01*
X0532653Y0523800D01*
X0532031Y0524090D01*
X0531469Y0524484D01*
X0530984Y0524969D01*
X0530590Y0525531D01*
X0530300Y0526153D01*
X0530123Y0526816D01*
X0530063Y0527500D01*
X0530123Y0528184D01*
X0530300Y0528847D01*
X0530590Y0529469D01*
X0530984Y0530031D01*
X0531469Y0530516D01*
X0532031Y0530910D01*
X0532653Y0531200D01*
X0533316Y0531377D01*
X0534000Y0531437D01*
X0534684Y0531377D01*
X0535347Y0531200D01*
X0535969Y0530910D01*
X0536531Y0530516D01*
X0537016Y0530031D01*
X0537410Y0529469D01*
X0537700Y0528847D01*
X0537877Y0528184D01*
X0537937Y0527500D01*
X0537877Y0526816D01*
X0537841Y0526681D02*
X0530159Y0526681D01*
X0530091Y0527180D02*
X0537909Y0527180D01*
X0537921Y0527678D02*
X0530079Y0527678D01*
X0530122Y0528177D02*
X0537878Y0528177D01*
X0537745Y0528675D02*
X0530255Y0528675D01*
X0530453Y0529174D02*
X0537547Y0529174D01*
X0537267Y0529672D02*
X0530733Y0529672D01*
X0531124Y0530171D02*
X0536876Y0530171D01*
X0536311Y0530670D02*
X0531689Y0530670D01*
X0532586Y0531168D02*
X0535414Y0531168D01*
X0537707Y0526183D02*
X0530293Y0526183D01*
X0530519Y0525684D02*
X0537481Y0525684D01*
X0537168Y0525186D02*
X0530832Y0525186D01*
X0531266Y0524687D02*
X0536734Y0524687D01*
X0536109Y0524189D02*
X0531891Y0524189D01*
X0533064Y0523690D02*
X0534936Y0523690D01*
X0609965Y0473219D02*
X0609675Y0472597D01*
X0609498Y0471934D01*
X0609438Y0471250D01*
X0609498Y0470566D01*
X0609675Y0469903D01*
X0609965Y0469281D01*
X0610359Y0468719D01*
X0610844Y0468234D01*
X0611406Y0467840D01*
X0612028Y0467550D01*
X0612691Y0467373D01*
X0613375Y0467313D01*
X0614059Y0467373D01*
X0614722Y0467550D01*
X0615344Y0467840D01*
X0615906Y0468234D01*
X0616391Y0468719D01*
X0616785Y0469281D01*
X0617075Y0469903D01*
X0617252Y0470566D01*
X0617312Y0471250D01*
X0617252Y0471934D01*
X0617075Y0472597D01*
X0616785Y0473219D01*
X0616391Y0473781D01*
X0615906Y0474266D01*
X0615344Y0474660D01*
X0614722Y0474950D01*
X0614059Y0475127D01*
X0613375Y0475187D01*
X0612691Y0475127D01*
X0612028Y0474950D01*
X0611406Y0474660D01*
X0610844Y0474266D01*
X0610359Y0473781D01*
X0609965Y0473219D01*
X0610051Y0473341D02*
X0616699Y0473341D01*
X0616960Y0472842D02*
X0609790Y0472842D01*
X0609608Y0472344D02*
X0617142Y0472344D01*
X0617260Y0471845D02*
X0609490Y0471845D01*
X0609446Y0471347D02*
X0617304Y0471347D01*
X0617277Y0470848D02*
X0609473Y0470848D01*
X0609556Y0470350D02*
X0617194Y0470350D01*
X0617050Y0469851D02*
X0609700Y0469851D01*
X0609932Y0469353D02*
X0616818Y0469353D01*
X0616485Y0468854D02*
X0610265Y0468854D01*
X0610723Y0468356D02*
X0616027Y0468356D01*
X0615367Y0467857D02*
X0611383Y0467857D01*
X0612854Y0467359D02*
X0613896Y0467359D01*
X0616332Y0473839D02*
X0610418Y0473839D01*
X0610947Y0474338D02*
X0615803Y0474338D01*
X0614965Y0474836D02*
X0611785Y0474836D01*
D55*
X0536575Y0490000D03*
X0525175Y0490000D03*
D110*
X0579000Y0457500D03*
D23*
X0579000Y0448250D03*
X0640000Y0420000D02*
G75*
%LPD*%
D21*
X0651500Y0430000D03*
X0771500Y0430000D03*
D78*
X0771500Y0490000D03*
X0771500Y0500000D03*
X0771500Y0510000D03*
X0771500Y0520000D03*
X0771500Y0530000D03*
X0651500Y0530000D03*
X0651500Y0520000D03*
X0651500Y0510000D03*
X0651500Y0500000D03*
X0651500Y0490000D03*
D45*
X0728970Y0426000D03*
X0756530Y0426000D03*
D73*
X0752593Y0436630D03*
X0732907Y0436630D03*
D86*
X0737632Y0436630D03*
X0740191Y0436630D03*
X0742750Y0436630D03*
X0745309Y0436630D03*
X0747868Y0436630D03*
D32*
X0748656Y0426000D03*
X0736844Y0426000D03*
D132*
X0696000Y0502250D03*
X0687000Y0502250D03*
X0687000Y0515000D03*
X0696000Y0515000D03*
D72*
X0686500Y0455500D03*
X0676500Y0454500D03*
X0666500Y0455500D03*
X0666500Y0445500D03*
X0676500Y0444500D03*
X0686500Y0445500D03*
X0696500Y0444500D03*
X0706500Y0445500D03*
X0716500Y0444500D03*
X0706500Y0435500D03*
X0696500Y0434500D03*
X0686500Y0435500D03*
X0676500Y0434500D03*
X0666500Y0435500D03*
X0696500Y0454500D03*
X0706500Y0455500D03*
X0716500Y0454500D03*
X0716500Y0434500D03*
D126*
X0721018Y0477726D03*
X0721018Y0480876D03*
X0721018Y0484026D03*
X0721018Y0487175D03*
X0721018Y0490325D03*
X0721018Y0493474D03*
X0721018Y0496624D03*
X0721018Y0499774D03*
X0754482Y0499774D03*
X0754482Y0496624D03*
X0754482Y0493474D03*
X0754482Y0490325D03*
X0754482Y0487175D03*
X0754482Y0484026D03*
X0754482Y0480876D03*
X0754482Y0477726D03*
D52*
X0748774Y0472018D03*
X0745624Y0472018D03*
X0742474Y0472018D03*
X0739325Y0472018D03*
X0736175Y0472018D03*
X0733026Y0472018D03*
X0729876Y0472018D03*
X0726726Y0472018D03*
X0726726Y0505482D03*
X0729876Y0505482D03*
X0733026Y0505482D03*
X0736175Y0505482D03*
X0739325Y0505482D03*
X0742474Y0505482D03*
X0745624Y0505482D03*
X0748774Y0505482D03*
D17*
X0740250Y0511075D03*
X0740250Y0517675D03*
X0704000Y0517050D03*
X0704000Y0510450D03*
X0704000Y0502675D03*
X0704000Y0496075D03*
D44*
X0712750Y0521250D03*
D138*
X0710750Y0499250D03*
X0714750Y0499250D03*
D28*
X0742051Y0456250D03*
X0760949Y0456250D03*
D53*
X0738419Y0523366D03*
X0738419Y0531634D03*
X0722081Y0531634D03*
X0722081Y0523366D03*
D82*
X0687877Y0526816D02*
X0687700Y0526153D01*
X0687410Y0525531D01*
X0687016Y0524969D01*
X0686531Y0524484D01*
X0685969Y0524090D01*
X0685347Y0523800D01*
X0684684Y0523623D01*
X0684000Y0523563D01*
X0683316Y0523623D01*
X0682653Y0523800D01*
X0682031Y0524090D01*
X0681469Y0524484D01*
X0680984Y0524969D01*
X0680590Y0525531D01*
X0680300Y0526153D01*
X0680123Y0526816D01*
X0680063Y0527500D01*
X0680123Y0528184D01*
X0680300Y0528847D01*
X0680590Y0529469D01*
X0680984Y0530031D01*
X0681469Y0530516D01*
X0682031Y0530910D01*
X0682653Y0531200D01*
X0683316Y0531377D01*
X0684000Y0531437D01*
X0684684Y0531377D01*
X0685347Y0531200D01*
X0685969Y0530910D01*
X0686531Y0530516D01*
X0687016Y0530031D01*
X0687410Y0529469D01*
X0687700Y0528847D01*
X0687877Y0528184D01*
X0687937Y0527500D01*
X0687877Y0526816D01*
X0687841Y0526681D02*
X0680159Y0526681D01*
X0680091Y0527180D02*
X0687909Y0527180D01*
X0687921Y0527678D02*
X0680079Y0527678D01*
X0680122Y0528177D02*
X0687878Y0528177D01*
X0687745Y0528675D02*
X0680255Y0528675D01*
X0680453Y0529174D02*
X0687547Y0529174D01*
X0687267Y0529672D02*
X0680733Y0529672D01*
X0681124Y0530171D02*
X0686876Y0530171D01*
X0686311Y0530670D02*
X0681689Y0530670D01*
X0682586Y0531168D02*
X0685414Y0531168D01*
X0687707Y0526183D02*
X0680293Y0526183D01*
X0680519Y0525684D02*
X0687481Y0525684D01*
X0687168Y0525186D02*
X0680832Y0525186D01*
X0681266Y0524687D02*
X0686734Y0524687D01*
X0686109Y0524189D02*
X0681891Y0524189D01*
X0683064Y0523690D02*
X0684936Y0523690D01*
X0759965Y0473219D02*
X0759675Y0472597D01*
X0759498Y0471934D01*
X0759438Y0471250D01*
X0759498Y0470566D01*
X0759675Y0469903D01*
X0759965Y0469281D01*
X0760359Y0468719D01*
X0760844Y0468234D01*
X0761406Y0467840D01*
X0762028Y0467550D01*
X0762691Y0467373D01*
X0763375Y0467313D01*
X0764059Y0467373D01*
X0764722Y0467550D01*
X0765344Y0467840D01*
X0765906Y0468234D01*
X0766391Y0468719D01*
X0766785Y0469281D01*
X0767075Y0469903D01*
X0767252Y0470566D01*
X0767312Y0471250D01*
X0767252Y0471934D01*
X0767075Y0472597D01*
X0766785Y0473219D01*
X0766391Y0473781D01*
X0765906Y0474266D01*
X0765344Y0474660D01*
X0764722Y0474950D01*
X0764059Y0475127D01*
X0763375Y0475187D01*
X0762691Y0475127D01*
X0762028Y0474950D01*
X0761406Y0474660D01*
X0760844Y0474266D01*
X0760359Y0473781D01*
X0759965Y0473219D01*
X0760051Y0473341D02*
X0766699Y0473341D01*
X0766960Y0472842D02*
X0759790Y0472842D01*
X0759608Y0472344D02*
X0767142Y0472344D01*
X0767260Y0471845D02*
X0759490Y0471845D01*
X0759446Y0471347D02*
X0767304Y0471347D01*
X0767277Y0470848D02*
X0759473Y0470848D01*
X0759556Y0470350D02*
X0767194Y0470350D01*
X0767050Y0469851D02*
X0759700Y0469851D01*
X0759932Y0469353D02*
X0766818Y0469353D01*
X0766485Y0468854D02*
X0760265Y0468854D01*
X0760723Y0468356D02*
X0766027Y0468356D01*
X0765367Y0467857D02*
X0761383Y0467857D01*
X0762854Y0467359D02*
X0763896Y0467359D01*
X0766332Y0473839D02*
X0760418Y0473839D01*
X0760947Y0474338D02*
X0765803Y0474338D01*
X0764965Y0474836D02*
X0761785Y0474836D01*
D55*
X0686575Y0490000D03*
X0675175Y0490000D03*
D110*
X0729000Y0457500D03*
D23*
X0729000Y0448250D03*
X0790000Y0420000D02*
G75*
%LPD*%
D21*
X0801500Y0430000D03*
X0921500Y0430000D03*
D78*
X0921500Y0490000D03*
X0921500Y0500000D03*
X0921500Y0510000D03*
X0921500Y0520000D03*
X0921500Y0530000D03*
X0801500Y0530000D03*
X0801500Y0520000D03*
X0801500Y0510000D03*
X0801500Y0500000D03*
X0801500Y0490000D03*
D99*
X0891028Y0489843D03*
X0891028Y0480000D03*
X0891028Y0470157D03*
D10*
X0833941Y0472126D03*
X0833941Y0480000D03*
X0833941Y0487874D03*
X0833941Y0495748D03*
X0833941Y0464252D03*
D136*
X0861500Y0445000D03*
X0861500Y0515000D03*
X0940000Y0420000D02*
G75*
%LPD*%
D21*
X0951500Y0430000D03*
X1071500Y0430000D03*
D78*
X1071500Y0490000D03*
X1071500Y0500000D03*
X1071500Y0510000D03*
X1071500Y0520000D03*
X1071500Y0530000D03*
X0951500Y0530000D03*
X0951500Y0520000D03*
X0951500Y0510000D03*
X0951500Y0500000D03*
X0951500Y0490000D03*
D99*
X1041028Y0489843D03*
X1041028Y0480000D03*
X1041028Y0470157D03*
D10*
X0983941Y0472126D03*
X0983941Y0480000D03*
X0983941Y0487874D03*
X0983941Y0495748D03*
X0983941Y0464252D03*
D136*
X1011500Y0445000D03*
X1011500Y0515000D03*
X1090000Y0420000D02*
G75*
%LPD*%
D21*
X1101500Y0430000D03*
X1221500Y0430000D03*
D78*
X1221500Y0490000D03*
X1221500Y0500000D03*
X1221500Y0510000D03*
X1221500Y0520000D03*
X1221500Y0530000D03*
X1101500Y0530000D03*
X1101500Y0520000D03*
X1101500Y0510000D03*
X1101500Y0500000D03*
X1101500Y0490000D03*
D99*
X1191028Y0489843D03*
X1191028Y0480000D03*
X1191028Y0470157D03*
D10*
X1133941Y0472126D03*
X1133941Y0480000D03*
X1133941Y0487874D03*
X1133941Y0495748D03*
X1133941Y0464252D03*
D136*
X1161500Y0445000D03*
X1161500Y0515000D03*
X1240000Y0420000D02*
G75*
%LPD*%
D21*
X1251500Y0430000D03*
X1371500Y0430000D03*
D78*
X1371500Y0490000D03*
X1371500Y0500000D03*
X1371500Y0510000D03*
X1371500Y0520000D03*
X1371500Y0530000D03*
X1251500Y0530000D03*
X1251500Y0520000D03*
X1251500Y0510000D03*
X1251500Y0500000D03*
X1251500Y0490000D03*
D99*
X1341028Y0489843D03*
X1341028Y0480000D03*
X1341028Y0470157D03*
D10*
X1283941Y0472126D03*
X1283941Y0480000D03*
X1283941Y0487874D03*
X1283941Y0495748D03*
X1283941Y0464252D03*
D136*
X1311500Y0445000D03*
X1311500Y0515000D03*
X0040000Y0550000D02*
G75*
%LPD*%
D74*
X0148000Y0664500D03*
X0118000Y0675500D03*
X0262000Y0675500D03*
X0292000Y0664500D03*
D55*
X0282000Y0665500D03*
X0272000Y0664500D03*
X0262000Y0665500D03*
X0272000Y0674500D03*
X0282000Y0675500D03*
X0292000Y0674500D03*
X0148000Y0674500D03*
X0138000Y0675500D03*
X0128000Y0674500D03*
X0128000Y0664500D03*
X0118000Y0665500D03*
X0138000Y0665500D03*
D21*
X0050000Y0560000D03*
X0070000Y0560000D03*
X0340000Y0560000D03*
X0360000Y0560000D03*
X0360000Y0780000D03*
X0340000Y0780000D03*
X0070000Y0780000D03*
X0050000Y0780000D03*
D98*
X0061000Y0719700D03*
X0061000Y0620300D03*
X0205000Y0620300D03*
X0205000Y0719700D03*
X0349000Y0719700D03*
X0349000Y0620300D03*
X0380000Y0550000D02*
G75*
%LPD*%
D74*
X0488000Y0664500D03*
X0458000Y0675500D03*
X0602000Y0675500D03*
X0632000Y0664500D03*
D55*
X0622000Y0665500D03*
X0612000Y0664500D03*
X0602000Y0665500D03*
X0612000Y0674500D03*
X0622000Y0675500D03*
X0632000Y0674500D03*
X0488000Y0674500D03*
X0478000Y0675500D03*
X0468000Y0674500D03*
X0468000Y0664500D03*
X0458000Y0665500D03*
X0478000Y0665500D03*
D21*
X0390000Y0560000D03*
X0410000Y0560000D03*
X0680000Y0560000D03*
X0700000Y0560000D03*
X0700000Y0780000D03*
X0680000Y0780000D03*
X0410000Y0780000D03*
X0390000Y0780000D03*
D98*
X0401000Y0719700D03*
X0401000Y0620300D03*
X0545000Y0620300D03*
X0545000Y0719700D03*
X0689000Y0719700D03*
X0689000Y0620300D03*
X0720000Y0550000D02*
G75*
%LPD*%
D74*
X0828000Y0664500D03*
X0798000Y0675500D03*
X0942000Y0675500D03*
X0972000Y0664500D03*
D55*
X0962000Y0665500D03*
X0952000Y0664500D03*
X0942000Y0665500D03*
X0952000Y0674500D03*
X0962000Y0675500D03*
X0972000Y0674500D03*
X0828000Y0674500D03*
X0818000Y0675500D03*
X0808000Y0674500D03*
X0808000Y0664500D03*
X0798000Y0665500D03*
X0818000Y0665500D03*
D21*
X0730000Y0560000D03*
X0750000Y0560000D03*
X1020000Y0560000D03*
X1040000Y0560000D03*
X1040000Y0780000D03*
X1020000Y0780000D03*
X0750000Y0780000D03*
X0730000Y0780000D03*
D98*
X0741000Y0719700D03*
X0741000Y0620300D03*
X0885000Y0620300D03*
X0885000Y0719700D03*
X1029000Y0719700D03*
X1029000Y0620300D03*
X1060000Y0550000D02*
G75*
%LPD*%
D74*
X1168000Y0664500D03*
X1138000Y0675500D03*
X1282000Y0675500D03*
X1312000Y0664500D03*
D55*
X1302000Y0665500D03*
X1292000Y0664500D03*
X1282000Y0665500D03*
X1292000Y0674500D03*
X1302000Y0675500D03*
X1312000Y0674500D03*
X1168000Y0674500D03*
X1158000Y0675500D03*
X1148000Y0674500D03*
X1148000Y0664500D03*
X1138000Y0665500D03*
X1158000Y0665500D03*
D21*
X1070000Y0560000D03*
X1090000Y0560000D03*
X1360000Y0560000D03*
X1380000Y0560000D03*
X1380000Y0780000D03*
X1360000Y0780000D03*
X1090000Y0780000D03*
X1070000Y0780000D03*
D98*
X1081000Y0719700D03*
X1081000Y0620300D03*
X1225000Y0620300D03*
X1225000Y0719700D03*
X1369000Y0719700D03*
X1369000Y0620300D03*
X0040000Y0800000D02*
G75*
%LPD*%
D21*
X0051500Y0810000D03*
X0171500Y0810000D03*
D78*
X0171500Y0870000D03*
X0171500Y0880000D03*
X0171500Y0890000D03*
X0171500Y0900000D03*
X0171500Y0910000D03*
X0051500Y0910000D03*
X0051500Y0900000D03*
X0051500Y0890000D03*
X0051500Y0880000D03*
X0051500Y0870000D03*
D53*
X0063331Y0811634D03*
X0063331Y0803366D03*
X0079669Y0803366D03*
X0079669Y0811634D03*
X0103331Y0811634D03*
X0103331Y0803366D03*
X0119669Y0803366D03*
X0119669Y0811634D03*
X0143331Y0811634D03*
X0143331Y0803366D03*
X0159669Y0803366D03*
X0159669Y0811634D03*
D135*
X0141815Y0876937D03*
X0139059Y0876937D03*
X0136303Y0876937D03*
X0133547Y0876937D03*
X0130791Y0876937D03*
X0128035Y0876937D03*
X0125280Y0876937D03*
X0122524Y0876937D03*
X0119768Y0876937D03*
X0117012Y0876937D03*
X0114256Y0876937D03*
X0111500Y0876937D03*
X0108744Y0876937D03*
X0105988Y0876937D03*
X0103232Y0876937D03*
X0100476Y0876937D03*
X0097720Y0876937D03*
X0094965Y0876937D03*
X0092209Y0876937D03*
X0089453Y0876937D03*
X0086697Y0876937D03*
X0083941Y0876937D03*
X0081185Y0876937D03*
D33*
X0080004Y0888748D03*
X0143000Y0888748D03*
D82*
X0137847Y0901300D02*
X0138469Y0901590D01*
X0139031Y0901984D01*
X0139516Y0902469D01*
X0139910Y0903031D01*
X0140200Y0903653D01*
X0140377Y0904316D01*
X0140437Y0905000D01*
X0140377Y0905684D01*
X0132623Y0905684D01*
X0132563Y0905000D01*
X0132623Y0904316D01*
X0132800Y0903653D01*
X0133090Y0903031D01*
X0133484Y0902469D01*
X0133969Y0901984D01*
X0134531Y0901590D01*
X0135153Y0901300D01*
X0135816Y0901123D01*
X0136500Y0901063D01*
X0137184Y0901123D01*
X0137847Y0901300D01*
X0137464Y0901198D02*
X0135536Y0901198D01*
X0134380Y0901696D02*
X0138620Y0901696D01*
X0139241Y0902195D02*
X0133759Y0902195D01*
X0133327Y0902693D02*
X0139673Y0902693D01*
X0139984Y0903192D02*
X0133016Y0903192D01*
X0132791Y0903690D02*
X0140209Y0903690D01*
X0140343Y0904189D02*
X0132657Y0904189D01*
X0132590Y0904687D02*
X0140410Y0904687D01*
X0140421Y0905186D02*
X0132579Y0905186D01*
X0132623Y0905684D02*
X0132800Y0906347D01*
X0133090Y0906969D01*
X0133484Y0907531D01*
X0133969Y0908016D01*
X0134531Y0908410D01*
X0135153Y0908700D01*
X0135816Y0908877D01*
X0136500Y0908937D01*
X0137184Y0908877D01*
X0137847Y0908700D01*
X0138469Y0908410D01*
X0139031Y0908016D01*
X0139516Y0907531D01*
X0139910Y0906969D01*
X0140200Y0906347D01*
X0140377Y0905684D01*
X0140243Y0906183D02*
X0132757Y0906183D01*
X0132957Y0906681D02*
X0140043Y0906681D01*
X0139762Y0907180D02*
X0133239Y0907180D01*
X0133632Y0907678D02*
X0139368Y0907678D01*
X0138801Y0908177D02*
X0134199Y0908177D01*
X0135102Y0908675D02*
X0137898Y0908675D01*
X0080347Y0831200D02*
X0079684Y0831377D01*
X0079000Y0831437D01*
X0078316Y0831377D01*
X0077653Y0831200D01*
X0077031Y0830910D01*
X0076469Y0830516D01*
X0075984Y0830031D01*
X0075590Y0829469D01*
X0075300Y0828847D01*
X0075123Y0828184D01*
X0075063Y0827500D01*
X0075123Y0826816D01*
X0075300Y0826153D01*
X0075590Y0825531D01*
X0075984Y0824969D01*
X0076469Y0824484D01*
X0077031Y0824090D01*
X0077653Y0823800D01*
X0078316Y0823623D01*
X0079000Y0823563D01*
X0079684Y0823623D01*
X0080347Y0823800D01*
X0080969Y0824090D01*
X0081531Y0824484D01*
X0082016Y0824969D01*
X0082410Y0825531D01*
X0082700Y0826153D01*
X0082877Y0826816D01*
X0082937Y0827500D01*
X0082877Y0828184D01*
X0082700Y0828847D01*
X0082410Y0829469D01*
X0082016Y0830031D01*
X0081531Y0830516D01*
X0080969Y0830910D01*
X0080347Y0831200D01*
X0080971Y0830908D02*
X0077029Y0830908D01*
X0076363Y0830409D02*
X0081637Y0830409D01*
X0082100Y0829911D02*
X0075900Y0829911D01*
X0075564Y0829412D02*
X0082436Y0829412D01*
X0082668Y0828914D02*
X0075332Y0828914D01*
X0075185Y0828415D02*
X0082815Y0828415D01*
X0082901Y0827917D02*
X0075099Y0827917D01*
X0075070Y0827418D02*
X0082930Y0827418D01*
X0082886Y0826920D02*
X0075114Y0826920D01*
X0075229Y0826421D02*
X0082771Y0826421D01*
X0082592Y0825923D02*
X0075408Y0825923D01*
X0075666Y0825424D02*
X0082334Y0825424D01*
X0081972Y0824926D02*
X0076028Y0824926D01*
X0076551Y0824427D02*
X0081449Y0824427D01*
X0080621Y0823929D02*
X0077379Y0823929D01*
X0078648Y0831406D02*
X0079352Y0831406D01*
D132*
X0087000Y0810000D03*
X0096000Y0810000D03*
X0190000Y0800000D02*
G75*
%LPD*%
D21*
X0201500Y0810000D03*
X0321500Y0810000D03*
D78*
X0321500Y0870000D03*
X0321500Y0880000D03*
X0321500Y0890000D03*
X0321500Y0900000D03*
X0321500Y0910000D03*
X0201500Y0910000D03*
X0201500Y0900000D03*
X0201500Y0890000D03*
X0201500Y0880000D03*
X0201500Y0870000D03*
D53*
X0213331Y0811634D03*
X0213331Y0803366D03*
X0229669Y0803366D03*
X0229669Y0811634D03*
X0253331Y0811634D03*
X0253331Y0803366D03*
X0269669Y0803366D03*
X0269669Y0811634D03*
X0293331Y0811634D03*
X0293331Y0803366D03*
X0309669Y0803366D03*
X0309669Y0811634D03*
D135*
X0291815Y0876937D03*
X0289059Y0876937D03*
X0286303Y0876937D03*
X0283547Y0876937D03*
X0280791Y0876937D03*
X0278035Y0876937D03*
X0275280Y0876937D03*
X0272524Y0876937D03*
X0269768Y0876937D03*
X0267012Y0876937D03*
X0264256Y0876937D03*
X0261500Y0876937D03*
X0258744Y0876937D03*
X0255988Y0876937D03*
X0253232Y0876937D03*
X0250476Y0876937D03*
X0247720Y0876937D03*
X0244965Y0876937D03*
X0242209Y0876937D03*
X0239453Y0876937D03*
X0236697Y0876937D03*
X0233941Y0876937D03*
X0231185Y0876937D03*
D33*
X0230004Y0888748D03*
X0293000Y0888748D03*
D82*
X0287847Y0901300D02*
X0288469Y0901590D01*
X0289031Y0901984D01*
X0289516Y0902469D01*
X0289910Y0903031D01*
X0290200Y0903653D01*
X0290377Y0904316D01*
X0290437Y0905000D01*
X0290377Y0905684D01*
X0282623Y0905684D01*
X0282563Y0905000D01*
X0282623Y0904316D01*
X0282800Y0903653D01*
X0283090Y0903031D01*
X0283484Y0902469D01*
X0283969Y0901984D01*
X0284531Y0901590D01*
X0285153Y0901300D01*
X0285816Y0901123D01*
X0286500Y0901063D01*
X0287184Y0901123D01*
X0287847Y0901300D01*
X0287464Y0901198D02*
X0285536Y0901198D01*
X0284380Y0901696D02*
X0288620Y0901696D01*
X0289241Y0902195D02*
X0283759Y0902195D01*
X0283327Y0902693D02*
X0289673Y0902693D01*
X0289984Y0903192D02*
X0283016Y0903192D01*
X0282791Y0903690D02*
X0290209Y0903690D01*
X0290343Y0904189D02*
X0282657Y0904189D01*
X0282590Y0904687D02*
X0290410Y0904687D01*
X0290421Y0905186D02*
X0282579Y0905186D01*
X0282623Y0905684D02*
X0282800Y0906347D01*
X0283090Y0906969D01*
X0283484Y0907531D01*
X0283969Y0908016D01*
X0284531Y0908410D01*
X0285153Y0908700D01*
X0285816Y0908877D01*
X0286500Y0908937D01*
X0287184Y0908877D01*
X0287847Y0908700D01*
X0288469Y0908410D01*
X0289031Y0908016D01*
X0289516Y0907531D01*
X0289910Y0906969D01*
X0290200Y0906347D01*
X0290377Y0905684D01*
X0290243Y0906183D02*
X0282757Y0906183D01*
X0282957Y0906681D02*
X0290043Y0906681D01*
X0289762Y0907180D02*
X0283239Y0907180D01*
X0283632Y0907678D02*
X0289368Y0907678D01*
X0288801Y0908177D02*
X0284199Y0908177D01*
X0285102Y0908675D02*
X0287898Y0908675D01*
X0230347Y0831200D02*
X0229684Y0831377D01*
X0229000Y0831437D01*
X0228316Y0831377D01*
X0227653Y0831200D01*
X0227031Y0830910D01*
X0226469Y0830516D01*
X0225984Y0830031D01*
X0225590Y0829469D01*
X0225300Y0828847D01*
X0225123Y0828184D01*
X0225063Y0827500D01*
X0225123Y0826816D01*
X0225300Y0826153D01*
X0225590Y0825531D01*
X0225984Y0824969D01*
X0226469Y0824484D01*
X0227031Y0824090D01*
X0227653Y0823800D01*
X0228316Y0823623D01*
X0229000Y0823563D01*
X0229684Y0823623D01*
X0230347Y0823800D01*
X0230969Y0824090D01*
X0231531Y0824484D01*
X0232016Y0824969D01*
X0232410Y0825531D01*
X0232700Y0826153D01*
X0232877Y0826816D01*
X0232937Y0827500D01*
X0232877Y0828184D01*
X0232700Y0828847D01*
X0232410Y0829469D01*
X0232016Y0830031D01*
X0231531Y0830516D01*
X0230969Y0830910D01*
X0230347Y0831200D01*
X0230971Y0830908D02*
X0227029Y0830908D01*
X0226363Y0830409D02*
X0231637Y0830409D01*
X0232100Y0829911D02*
X0225900Y0829911D01*
X0225564Y0829412D02*
X0232436Y0829412D01*
X0232668Y0828914D02*
X0225332Y0828914D01*
X0225185Y0828415D02*
X0232815Y0828415D01*
X0232901Y0827917D02*
X0225099Y0827917D01*
X0225070Y0827418D02*
X0232930Y0827418D01*
X0232886Y0826920D02*
X0225114Y0826920D01*
X0225229Y0826421D02*
X0232771Y0826421D01*
X0232592Y0825923D02*
X0225408Y0825923D01*
X0225666Y0825424D02*
X0232334Y0825424D01*
X0231972Y0824926D02*
X0226028Y0824926D01*
X0226551Y0824427D02*
X0231449Y0824427D01*
X0230621Y0823929D02*
X0227379Y0823929D01*
X0228648Y0831406D02*
X0229352Y0831406D01*
D132*
X0237000Y0810000D03*
X0246000Y0810000D03*
X0340000Y0800000D02*
G75*
%LPD*%
D21*
X0351500Y0810000D03*
X0471500Y0810000D03*
D78*
X0471500Y0870000D03*
X0471500Y0880000D03*
X0471500Y0890000D03*
X0471500Y0900000D03*
X0471500Y0910000D03*
X0351500Y0910000D03*
X0351500Y0900000D03*
X0351500Y0890000D03*
X0351500Y0880000D03*
X0351500Y0870000D03*
D53*
X0363331Y0811634D03*
X0363331Y0803366D03*
X0379669Y0803366D03*
X0379669Y0811634D03*
X0403331Y0811634D03*
X0403331Y0803366D03*
X0419669Y0803366D03*
X0419669Y0811634D03*
X0443331Y0811634D03*
X0443331Y0803366D03*
X0459669Y0803366D03*
X0459669Y0811634D03*
D135*
X0441815Y0876937D03*
X0439059Y0876937D03*
X0436303Y0876937D03*
X0433547Y0876937D03*
X0430791Y0876937D03*
X0428035Y0876937D03*
X0425280Y0876937D03*
X0422524Y0876937D03*
X0419768Y0876937D03*
X0417012Y0876937D03*
X0414256Y0876937D03*
X0411500Y0876937D03*
X0408744Y0876937D03*
X0405988Y0876937D03*
X0403232Y0876937D03*
X0400476Y0876937D03*
X0397720Y0876937D03*
X0394965Y0876937D03*
X0392209Y0876937D03*
X0389453Y0876937D03*
X0386697Y0876937D03*
X0383941Y0876937D03*
X0381185Y0876937D03*
D33*
X0380004Y0888748D03*
X0443000Y0888748D03*
D82*
X0437847Y0901300D02*
X0438469Y0901590D01*
X0439031Y0901984D01*
X0439516Y0902469D01*
X0439910Y0903031D01*
X0440200Y0903653D01*
X0440377Y0904316D01*
X0440437Y0905000D01*
X0440377Y0905684D01*
X0432623Y0905684D01*
X0432563Y0905000D01*
X0432623Y0904316D01*
X0432800Y0903653D01*
X0433090Y0903031D01*
X0433484Y0902469D01*
X0433969Y0901984D01*
X0434531Y0901590D01*
X0435153Y0901300D01*
X0435816Y0901123D01*
X0436500Y0901063D01*
X0437184Y0901123D01*
X0437847Y0901300D01*
X0437464Y0901198D02*
X0435536Y0901198D01*
X0434380Y0901696D02*
X0438620Y0901696D01*
X0439241Y0902195D02*
X0433759Y0902195D01*
X0433327Y0902693D02*
X0439673Y0902693D01*
X0439984Y0903192D02*
X0433016Y0903192D01*
X0432791Y0903690D02*
X0440209Y0903690D01*
X0440343Y0904189D02*
X0432657Y0904189D01*
X0432590Y0904687D02*
X0440410Y0904687D01*
X0440421Y0905186D02*
X0432579Y0905186D01*
X0432623Y0905684D02*
X0432800Y0906347D01*
X0433090Y0906969D01*
X0433484Y0907531D01*
X0433969Y0908016D01*
X0434531Y0908410D01*
X0435153Y0908700D01*
X0435816Y0908877D01*
X0436500Y0908937D01*
X0437184Y0908877D01*
X0437847Y0908700D01*
X0438469Y0908410D01*
X0439031Y0908016D01*
X0439516Y0907531D01*
X0439910Y0906969D01*
X0440200Y0906347D01*
X0440377Y0905684D01*
X0440243Y0906183D02*
X0432757Y0906183D01*
X0432957Y0906681D02*
X0440043Y0906681D01*
X0439762Y0907180D02*
X0433239Y0907180D01*
X0433632Y0907678D02*
X0439368Y0907678D01*
X0438801Y0908177D02*
X0434199Y0908177D01*
X0435102Y0908675D02*
X0437898Y0908675D01*
X0380347Y0831200D02*
X0379684Y0831377D01*
X0379000Y0831437D01*
X0378316Y0831377D01*
X0377653Y0831200D01*
X0377031Y0830910D01*
X0376469Y0830516D01*
X0375984Y0830031D01*
X0375590Y0829469D01*
X0375300Y0828847D01*
X0375123Y0828184D01*
X0375063Y0827500D01*
X0375123Y0826816D01*
X0375300Y0826153D01*
X0375590Y0825531D01*
X0375984Y0824969D01*
X0376469Y0824484D01*
X0377031Y0824090D01*
X0377653Y0823800D01*
X0378316Y0823623D01*
X0379000Y0823563D01*
X0379684Y0823623D01*
X0380347Y0823800D01*
X0380969Y0824090D01*
X0381531Y0824484D01*
X0382016Y0824969D01*
X0382410Y0825531D01*
X0382700Y0826153D01*
X0382877Y0826816D01*
X0382937Y0827500D01*
X0382877Y0828184D01*
X0382700Y0828847D01*
X0382410Y0829469D01*
X0382016Y0830031D01*
X0381531Y0830516D01*
X0380969Y0830910D01*
X0380347Y0831200D01*
X0380971Y0830908D02*
X0377029Y0830908D01*
X0376363Y0830409D02*
X0381637Y0830409D01*
X0382100Y0829911D02*
X0375900Y0829911D01*
X0375564Y0829412D02*
X0382436Y0829412D01*
X0382668Y0828914D02*
X0375332Y0828914D01*
X0375185Y0828415D02*
X0382815Y0828415D01*
X0382901Y0827917D02*
X0375099Y0827917D01*
X0375070Y0827418D02*
X0382930Y0827418D01*
X0382886Y0826920D02*
X0375114Y0826920D01*
X0375229Y0826421D02*
X0382771Y0826421D01*
X0382592Y0825923D02*
X0375408Y0825923D01*
X0375666Y0825424D02*
X0382334Y0825424D01*
X0381972Y0824926D02*
X0376028Y0824926D01*
X0376551Y0824427D02*
X0381449Y0824427D01*
X0380621Y0823929D02*
X0377379Y0823929D01*
X0378648Y0831406D02*
X0379352Y0831406D01*
D132*
X0387000Y0810000D03*
X0396000Y0810000D03*
X0490000Y0800000D02*
G75*
%LPD*%
D21*
X0501500Y0810000D03*
X0621500Y0810000D03*
D78*
X0621500Y0870000D03*
X0621500Y0880000D03*
X0621500Y0890000D03*
X0621500Y0900000D03*
X0621500Y0910000D03*
X0501500Y0910000D03*
X0501500Y0900000D03*
X0501500Y0890000D03*
X0501500Y0880000D03*
X0501500Y0870000D03*
D53*
X0513331Y0811634D03*
X0513331Y0803366D03*
X0529669Y0803366D03*
X0529669Y0811634D03*
X0553331Y0811634D03*
X0553331Y0803366D03*
X0569669Y0803366D03*
X0569669Y0811634D03*
X0593331Y0811634D03*
X0593331Y0803366D03*
X0609669Y0803366D03*
X0609669Y0811634D03*
D135*
X0591815Y0876937D03*
X0589059Y0876937D03*
X0586303Y0876937D03*
X0583547Y0876937D03*
X0580791Y0876937D03*
X0578035Y0876937D03*
X0575280Y0876937D03*
X0572524Y0876937D03*
X0569768Y0876937D03*
X0567012Y0876937D03*
X0564256Y0876937D03*
X0561500Y0876937D03*
X0558744Y0876937D03*
X0555988Y0876937D03*
X0553232Y0876937D03*
X0550476Y0876937D03*
X0547720Y0876937D03*
X0544965Y0876937D03*
X0542209Y0876937D03*
X0539453Y0876937D03*
X0536697Y0876937D03*
X0533941Y0876937D03*
X0531185Y0876937D03*
D33*
X0530004Y0888748D03*
X0593000Y0888748D03*
D82*
X0587847Y0901300D02*
X0588469Y0901590D01*
X0589031Y0901984D01*
X0589516Y0902469D01*
X0589910Y0903031D01*
X0590200Y0903653D01*
X0590377Y0904316D01*
X0590437Y0905000D01*
X0590377Y0905684D01*
X0582623Y0905684D01*
X0582563Y0905000D01*
X0582623Y0904316D01*
X0582800Y0903653D01*
X0583090Y0903031D01*
X0583484Y0902469D01*
X0583969Y0901984D01*
X0584531Y0901590D01*
X0585153Y0901300D01*
X0585816Y0901123D01*
X0586500Y0901063D01*
X0587184Y0901123D01*
X0587847Y0901300D01*
X0587464Y0901198D02*
X0585536Y0901198D01*
X0584380Y0901696D02*
X0588620Y0901696D01*
X0589241Y0902195D02*
X0583759Y0902195D01*
X0583327Y0902693D02*
X0589673Y0902693D01*
X0589984Y0903192D02*
X0583016Y0903192D01*
X0582791Y0903690D02*
X0590209Y0903690D01*
X0590343Y0904189D02*
X0582657Y0904189D01*
X0582590Y0904687D02*
X0590410Y0904687D01*
X0590421Y0905186D02*
X0582579Y0905186D01*
X0582623Y0905684D02*
X0582800Y0906347D01*
X0583090Y0906969D01*
X0583484Y0907531D01*
X0583969Y0908016D01*
X0584531Y0908410D01*
X0585153Y0908700D01*
X0585816Y0908877D01*
X0586500Y0908937D01*
X0587184Y0908877D01*
X0587847Y0908700D01*
X0588469Y0908410D01*
X0589031Y0908016D01*
X0589516Y0907531D01*
X0589910Y0906969D01*
X0590200Y0906347D01*
X0590377Y0905684D01*
X0590243Y0906183D02*
X0582757Y0906183D01*
X0582957Y0906681D02*
X0590043Y0906681D01*
X0589762Y0907180D02*
X0583239Y0907180D01*
X0583632Y0907678D02*
X0589368Y0907678D01*
X0588801Y0908177D02*
X0584199Y0908177D01*
X0585102Y0908675D02*
X0587898Y0908675D01*
X0530347Y0831200D02*
X0529684Y0831377D01*
X0529000Y0831437D01*
X0528316Y0831377D01*
X0527653Y0831200D01*
X0527031Y0830910D01*
X0526469Y0830516D01*
X0525984Y0830031D01*
X0525590Y0829469D01*
X0525300Y0828847D01*
X0525123Y0828184D01*
X0525063Y0827500D01*
X0525123Y0826816D01*
X0525300Y0826153D01*
X0525590Y0825531D01*
X0525984Y0824969D01*
X0526469Y0824484D01*
X0527031Y0824090D01*
X0527653Y0823800D01*
X0528316Y0823623D01*
X0529000Y0823563D01*
X0529684Y0823623D01*
X0530347Y0823800D01*
X0530969Y0824090D01*
X0531531Y0824484D01*
X0532016Y0824969D01*
X0532410Y0825531D01*
X0532700Y0826153D01*
X0532877Y0826816D01*
X0532937Y0827500D01*
X0532877Y0828184D01*
X0532700Y0828847D01*
X0532410Y0829469D01*
X0532016Y0830031D01*
X0531531Y0830516D01*
X0530969Y0830910D01*
X0530347Y0831200D01*
X0530971Y0830908D02*
X0527029Y0830908D01*
X0526363Y0830409D02*
X0531637Y0830409D01*
X0532100Y0829911D02*
X0525900Y0829911D01*
X0525564Y0829412D02*
X0532436Y0829412D01*
X0532668Y0828914D02*
X0525332Y0828914D01*
X0525185Y0828415D02*
X0532815Y0828415D01*
X0532901Y0827917D02*
X0525099Y0827917D01*
X0525070Y0827418D02*
X0532930Y0827418D01*
X0532886Y0826920D02*
X0525114Y0826920D01*
X0525229Y0826421D02*
X0532771Y0826421D01*
X0532592Y0825923D02*
X0525408Y0825923D01*
X0525666Y0825424D02*
X0532334Y0825424D01*
X0531972Y0824926D02*
X0526028Y0824926D01*
X0526551Y0824427D02*
X0531449Y0824427D01*
X0530621Y0823929D02*
X0527379Y0823929D01*
X0528648Y0831406D02*
X0529352Y0831406D01*
D132*
X0537000Y0810000D03*
X0546000Y0810000D03*
X0640000Y0800000D02*
G75*
%LPD*%
D21*
X0651500Y0810000D03*
X0771500Y0810000D03*
D78*
X0771500Y0870000D03*
X0771500Y0880000D03*
X0771500Y0890000D03*
X0771500Y0900000D03*
X0771500Y0910000D03*
X0651500Y0910000D03*
X0651500Y0900000D03*
X0651500Y0890000D03*
X0651500Y0880000D03*
X0651500Y0870000D03*
D53*
X0663331Y0811634D03*
X0663331Y0803366D03*
X0679669Y0803366D03*
X0679669Y0811634D03*
X0703331Y0811634D03*
X0703331Y0803366D03*
X0719669Y0803366D03*
X0719669Y0811634D03*
X0743331Y0811634D03*
X0743331Y0803366D03*
X0759669Y0803366D03*
X0759669Y0811634D03*
D135*
X0741815Y0876937D03*
X0739059Y0876937D03*
X0736303Y0876937D03*
X0733547Y0876937D03*
X0730791Y0876937D03*
X0728035Y0876937D03*
X0725280Y0876937D03*
X0722524Y0876937D03*
X0719768Y0876937D03*
X0717012Y0876937D03*
X0714256Y0876937D03*
X0711500Y0876937D03*
X0708744Y0876937D03*
X0705988Y0876937D03*
X0703232Y0876937D03*
X0700476Y0876937D03*
X0697720Y0876937D03*
X0694965Y0876937D03*
X0692209Y0876937D03*
X0689453Y0876937D03*
X0686697Y0876937D03*
X0683941Y0876937D03*
X0681185Y0876937D03*
D33*
X0680004Y0888748D03*
X0743000Y0888748D03*
D82*
X0737847Y0901300D02*
X0738469Y0901590D01*
X0739031Y0901984D01*
X0739516Y0902469D01*
X0739910Y0903031D01*
X0740200Y0903653D01*
X0740377Y0904316D01*
X0740437Y0905000D01*
X0740377Y0905684D01*
X0732623Y0905684D01*
X0732563Y0905000D01*
X0732623Y0904316D01*
X0732800Y0903653D01*
X0733090Y0903031D01*
X0733484Y0902469D01*
X0733969Y0901984D01*
X0734531Y0901590D01*
X0735153Y0901300D01*
X0735816Y0901123D01*
X0736500Y0901063D01*
X0737184Y0901123D01*
X0737847Y0901300D01*
X0737464Y0901198D02*
X0735536Y0901198D01*
X0734380Y0901696D02*
X0738620Y0901696D01*
X0739241Y0902195D02*
X0733759Y0902195D01*
X0733327Y0902693D02*
X0739673Y0902693D01*
X0739984Y0903192D02*
X0733016Y0903192D01*
X0732791Y0903690D02*
X0740209Y0903690D01*
X0740343Y0904189D02*
X0732657Y0904189D01*
X0732590Y0904687D02*
X0740410Y0904687D01*
X0740421Y0905186D02*
X0732579Y0905186D01*
X0732623Y0905684D02*
X0732800Y0906347D01*
X0733090Y0906969D01*
X0733484Y0907531D01*
X0733969Y0908016D01*
X0734531Y0908410D01*
X0735153Y0908700D01*
X0735816Y0908877D01*
X0736500Y0908937D01*
X0737184Y0908877D01*
X0737847Y0908700D01*
X0738469Y0908410D01*
X0739031Y0908016D01*
X0739516Y0907531D01*
X0739910Y0906969D01*
X0740200Y0906347D01*
X0740377Y0905684D01*
X0740243Y0906183D02*
X0732757Y0906183D01*
X0732957Y0906681D02*
X0740043Y0906681D01*
X0739762Y0907180D02*
X0733239Y0907180D01*
X0733632Y0907678D02*
X0739368Y0907678D01*
X0738801Y0908177D02*
X0734199Y0908177D01*
X0735102Y0908675D02*
X0737898Y0908675D01*
X0680347Y0831200D02*
X0679684Y0831377D01*
X0679000Y0831437D01*
X0678316Y0831377D01*
X0677653Y0831200D01*
X0677031Y0830910D01*
X0676469Y0830516D01*
X0675984Y0830031D01*
X0675590Y0829469D01*
X0675300Y0828847D01*
X0675123Y0828184D01*
X0675063Y0827500D01*
X0675123Y0826816D01*
X0675300Y0826153D01*
X0675590Y0825531D01*
X0675984Y0824969D01*
X0676469Y0824484D01*
X0677031Y0824090D01*
X0677653Y0823800D01*
X0678316Y0823623D01*
X0679000Y0823563D01*
X0679684Y0823623D01*
X0680347Y0823800D01*
X0680969Y0824090D01*
X0681531Y0824484D01*
X0682016Y0824969D01*
X0682410Y0825531D01*
X0682700Y0826153D01*
X0682877Y0826816D01*
X0682937Y0827500D01*
X0682877Y0828184D01*
X0682700Y0828847D01*
X0682410Y0829469D01*
X0682016Y0830031D01*
X0681531Y0830516D01*
X0680969Y0830910D01*
X0680347Y0831200D01*
X0680971Y0830908D02*
X0677029Y0830908D01*
X0676363Y0830409D02*
X0681637Y0830409D01*
X0682100Y0829911D02*
X0675900Y0829911D01*
X0675564Y0829412D02*
X0682436Y0829412D01*
X0682668Y0828914D02*
X0675332Y0828914D01*
X0675185Y0828415D02*
X0682815Y0828415D01*
X0682901Y0827917D02*
X0675099Y0827917D01*
X0675070Y0827418D02*
X0682930Y0827418D01*
X0682886Y0826920D02*
X0675114Y0826920D01*
X0675229Y0826421D02*
X0682771Y0826421D01*
X0682592Y0825923D02*
X0675408Y0825923D01*
X0675666Y0825424D02*
X0682334Y0825424D01*
X0681972Y0824926D02*
X0676028Y0824926D01*
X0676551Y0824427D02*
X0681449Y0824427D01*
X0680621Y0823929D02*
X0677379Y0823929D01*
X0678648Y0831406D02*
X0679352Y0831406D01*
D132*
X0687000Y0810000D03*
X0696000Y0810000D03*
X0790000Y0800000D02*
G75*
%LPD*%
D29*
X0841950Y0907500D03*
X0848550Y0907500D03*
D21*
X0801500Y0810000D03*
X0921500Y0810000D03*
D78*
X0921500Y0870000D03*
X0921500Y0880000D03*
X0921500Y0890000D03*
X0921500Y0900000D03*
X0921500Y0910000D03*
X0801500Y0910000D03*
X0801500Y0900000D03*
X0801500Y0890000D03*
X0801500Y0880000D03*
X0801500Y0870000D03*
D132*
X0855750Y0907500D03*
X0864750Y0907500D03*
D129*
X0865339Y0868524D03*
X0867898Y0868524D03*
X0870457Y0868524D03*
X0862780Y0868524D03*
X0860220Y0868524D03*
X0857661Y0868524D03*
X0855102Y0868524D03*
X0852543Y0868524D03*
X0852543Y0846476D03*
X0855102Y0846476D03*
X0857661Y0846476D03*
X0860220Y0846476D03*
X0862780Y0846476D03*
X0865339Y0846476D03*
X0867898Y0846476D03*
X0870457Y0846476D03*
D97*
X0861500Y0857500D03*
D69*
X0827125Y0825000D03*
D60*
X0840905Y0825000D03*
X0854684Y0825000D03*
X0868464Y0825000D03*
X0882243Y0825000D03*
X0896023Y0825000D03*
D28*
X0905324Y0856250D03*
X0886426Y0856250D03*
D17*
X0836500Y0853300D03*
X0836500Y0846700D03*
D82*
X0814866Y0831406D02*
X0808134Y0831406D01*
X0808090Y0831344D02*
X0807800Y0830722D01*
X0807623Y0830059D01*
X0807563Y0829375D01*
X0807623Y0828691D01*
X0807800Y0828028D01*
X0808090Y0827406D01*
X0808484Y0826844D01*
X0808969Y0826359D01*
X0809531Y0825965D01*
X0810153Y0825675D01*
X0810816Y0825498D01*
X0811500Y0825438D01*
X0812184Y0825498D01*
X0812847Y0825675D01*
X0813469Y0825965D01*
X0814031Y0826359D01*
X0814516Y0826844D01*
X0814910Y0827406D01*
X0815200Y0828028D01*
X0815377Y0828691D01*
X0815437Y0829375D01*
X0815377Y0830059D01*
X0815200Y0830722D01*
X0814910Y0831344D01*
X0814516Y0831906D01*
X0814031Y0832391D01*
X0813469Y0832785D01*
X0812847Y0833075D01*
X0812184Y0833252D01*
X0811500Y0833312D01*
X0810816Y0833252D01*
X0810153Y0833075D01*
X0809531Y0832785D01*
X0808969Y0832391D01*
X0808484Y0831906D01*
X0808090Y0831344D01*
X0807887Y0830908D02*
X0815113Y0830908D01*
X0815283Y0830409D02*
X0807717Y0830409D01*
X0807610Y0829911D02*
X0815390Y0829911D01*
X0815434Y0829412D02*
X0807566Y0829412D01*
X0807603Y0828914D02*
X0815397Y0828914D01*
X0815303Y0828415D02*
X0807697Y0828415D01*
X0807853Y0827917D02*
X0815147Y0827917D01*
X0814915Y0827418D02*
X0808085Y0827418D01*
X0808431Y0826920D02*
X0814569Y0826920D01*
X0814093Y0826421D02*
X0808907Y0826421D01*
X0809623Y0825923D02*
X0813377Y0825923D01*
X0814517Y0831905D02*
X0808483Y0831905D01*
X0808987Y0832403D02*
X0814013Y0832403D01*
X0813217Y0832902D02*
X0809783Y0832902D01*
X0872465Y0874281D02*
X0872175Y0874903D01*
X0871998Y0875566D01*
X0871938Y0876250D01*
X0871998Y0876934D01*
X0872175Y0877597D01*
X0872465Y0878219D01*
X0872859Y0878781D01*
X0873344Y0879266D01*
X0873906Y0879660D01*
X0874528Y0879950D01*
X0875191Y0880127D01*
X0875875Y0880187D01*
X0876559Y0880127D01*
X0877222Y0879950D01*
X0877844Y0879660D01*
X0878406Y0879266D01*
X0878891Y0878781D01*
X0879285Y0878219D01*
X0879575Y0877597D01*
X0879752Y0876934D01*
X0879812Y0876250D01*
X0879752Y0875566D01*
X0879575Y0874903D01*
X0879285Y0874281D01*
X0878891Y0873719D01*
X0878406Y0873234D01*
X0877844Y0872840D01*
X0877222Y0872550D01*
X0876559Y0872373D01*
X0875875Y0872313D01*
X0875191Y0872373D01*
X0874528Y0872550D01*
X0873906Y0872840D01*
X0873344Y0873234D01*
X0872859Y0873719D01*
X0872465Y0874281D01*
X0872468Y0874278D02*
X0879282Y0874278D01*
X0879515Y0874777D02*
X0872235Y0874777D01*
X0872076Y0875275D02*
X0879674Y0875275D01*
X0879770Y0875774D02*
X0871980Y0875774D01*
X0871940Y0876272D02*
X0879810Y0876272D01*
X0879766Y0876771D02*
X0871984Y0876771D01*
X0872088Y0877269D02*
X0879662Y0877269D01*
X0879495Y0877768D02*
X0872255Y0877768D01*
X0872499Y0878266D02*
X0879251Y0878266D01*
X0878902Y0878765D02*
X0872848Y0878765D01*
X0873342Y0879263D02*
X0878408Y0879263D01*
X0877624Y0879762D02*
X0874126Y0879762D01*
X0872817Y0873780D02*
X0878933Y0873780D01*
X0878453Y0873281D02*
X0873297Y0873281D01*
X0874030Y0872783D02*
X0877720Y0872783D01*
D55*
X0891500Y0876750D03*
X0901500Y0875750D03*
X0911500Y0876750D03*
D31*
X0834000Y0875000D03*
X0834000Y0870000D03*
X0834000Y0865000D03*
X0834000Y0880000D03*
X0834000Y0885000D03*
X0834000Y0890000D03*
X0834000Y0895000D03*
X0811500Y0895000D03*
X0811500Y0890000D03*
X0811500Y0885000D03*
X0811500Y0880000D03*
X0811500Y0875000D03*
X0811500Y0870000D03*
X0811500Y0865000D03*
D19*
X0817169Y0849990D03*
X0817169Y0846250D03*
X0817169Y0842510D03*
X0825831Y0842510D03*
X0825831Y0846250D03*
X0825831Y0849990D03*
D67*
X0810250Y0839897D03*
X0810250Y0836353D03*
X0940000Y0800000D02*
G75*
%LPD*%
D29*
X0991950Y0907500D03*
X0998550Y0907500D03*
D21*
X0951500Y0810000D03*
X1071500Y0810000D03*
D78*
X1071500Y0870000D03*
X1071500Y0880000D03*
X1071500Y0890000D03*
X1071500Y0900000D03*
X1071500Y0910000D03*
X0951500Y0910000D03*
X0951500Y0900000D03*
X0951500Y0890000D03*
X0951500Y0880000D03*
X0951500Y0870000D03*
D132*
X1005750Y0907500D03*
X1014750Y0907500D03*
D129*
X1015339Y0868524D03*
X1017898Y0868524D03*
X1020457Y0868524D03*
X1012780Y0868524D03*
X1010220Y0868524D03*
X1007661Y0868524D03*
X1005102Y0868524D03*
X1002543Y0868524D03*
X1002543Y0846476D03*
X1005102Y0846476D03*
X1007661Y0846476D03*
X1010220Y0846476D03*
X1012780Y0846476D03*
X1015339Y0846476D03*
X1017898Y0846476D03*
X1020457Y0846476D03*
D97*
X1011500Y0857500D03*
D69*
X0977125Y0825000D03*
D60*
X0990905Y0825000D03*
X1004684Y0825000D03*
X1018464Y0825000D03*
X1032243Y0825000D03*
X1046023Y0825000D03*
D28*
X1055324Y0856250D03*
X1036426Y0856250D03*
D17*
X0986500Y0853300D03*
X0986500Y0846700D03*
D82*
X0964866Y0831406D02*
X0958134Y0831406D01*
X0958090Y0831344D02*
X0957800Y0830722D01*
X0957623Y0830059D01*
X0957563Y0829375D01*
X0957623Y0828691D01*
X0957800Y0828028D01*
X0958090Y0827406D01*
X0958484Y0826844D01*
X0958969Y0826359D01*
X0959531Y0825965D01*
X0960153Y0825675D01*
X0960816Y0825498D01*
X0961500Y0825438D01*
X0962184Y0825498D01*
X0962847Y0825675D01*
X0963469Y0825965D01*
X0964031Y0826359D01*
X0964516Y0826844D01*
X0964910Y0827406D01*
X0965200Y0828028D01*
X0965377Y0828691D01*
X0965437Y0829375D01*
X0965377Y0830059D01*
X0965200Y0830722D01*
X0964910Y0831344D01*
X0964516Y0831906D01*
X0964031Y0832391D01*
X0963469Y0832785D01*
X0962847Y0833075D01*
X0962184Y0833252D01*
X0961500Y0833312D01*
X0960816Y0833252D01*
X0960153Y0833075D01*
X0959531Y0832785D01*
X0958969Y0832391D01*
X0958484Y0831906D01*
X0958090Y0831344D01*
X0957887Y0830908D02*
X0965113Y0830908D01*
X0965283Y0830409D02*
X0957717Y0830409D01*
X0957610Y0829911D02*
X0965390Y0829911D01*
X0965434Y0829412D02*
X0957566Y0829412D01*
X0957603Y0828914D02*
X0965397Y0828914D01*
X0965303Y0828415D02*
X0957697Y0828415D01*
X0957853Y0827917D02*
X0965147Y0827917D01*
X0964915Y0827418D02*
X0958085Y0827418D01*
X0958431Y0826920D02*
X0964569Y0826920D01*
X0964093Y0826421D02*
X0958907Y0826421D01*
X0959623Y0825923D02*
X0963377Y0825923D01*
X0964517Y0831905D02*
X0958483Y0831905D01*
X0958987Y0832403D02*
X0964013Y0832403D01*
X0963217Y0832902D02*
X0959783Y0832902D01*
X1022465Y0874281D02*
X1022175Y0874903D01*
X1021998Y0875566D01*
X1021938Y0876250D01*
X1021998Y0876934D01*
X1022175Y0877597D01*
X1022465Y0878219D01*
X1022859Y0878781D01*
X1023344Y0879266D01*
X1023906Y0879660D01*
X1024528Y0879950D01*
X1025191Y0880127D01*
X1025875Y0880187D01*
X1026559Y0880127D01*
X1027222Y0879950D01*
X1027844Y0879660D01*
X1028406Y0879266D01*
X1028891Y0878781D01*
X1029285Y0878219D01*
X1029575Y0877597D01*
X1029752Y0876934D01*
X1029812Y0876250D01*
X1029752Y0875566D01*
X1029575Y0874903D01*
X1029285Y0874281D01*
X1028891Y0873719D01*
X1028406Y0873234D01*
X1027844Y0872840D01*
X1027222Y0872550D01*
X1026559Y0872373D01*
X1025875Y0872313D01*
X1025191Y0872373D01*
X1024528Y0872550D01*
X1023906Y0872840D01*
X1023344Y0873234D01*
X1022859Y0873719D01*
X1022465Y0874281D01*
X1022468Y0874278D02*
X1029282Y0874278D01*
X1029515Y0874777D02*
X1022235Y0874777D01*
X1022076Y0875275D02*
X1029674Y0875275D01*
X1029770Y0875774D02*
X1021980Y0875774D01*
X1021940Y0876272D02*
X1029810Y0876272D01*
X1029766Y0876771D02*
X1021984Y0876771D01*
X1022088Y0877269D02*
X1029662Y0877269D01*
X1029495Y0877768D02*
X1022255Y0877768D01*
X1022499Y0878266D02*
X1029251Y0878266D01*
X1028902Y0878765D02*
X1022848Y0878765D01*
X1023342Y0879263D02*
X1028408Y0879263D01*
X1027624Y0879762D02*
X1024126Y0879762D01*
X1022817Y0873780D02*
X1028933Y0873780D01*
X1028453Y0873281D02*
X1023297Y0873281D01*
X1024030Y0872783D02*
X1027720Y0872783D01*
D55*
X1041500Y0876750D03*
X1051500Y0875750D03*
X1061500Y0876750D03*
D31*
X0984000Y0875000D03*
X0984000Y0870000D03*
X0984000Y0865000D03*
X0984000Y0880000D03*
X0984000Y0885000D03*
X0984000Y0890000D03*
X0984000Y0895000D03*
X0961500Y0895000D03*
X0961500Y0890000D03*
X0961500Y0885000D03*
X0961500Y0880000D03*
X0961500Y0875000D03*
X0961500Y0870000D03*
X0961500Y0865000D03*
D19*
X0967169Y0849990D03*
X0967169Y0846250D03*
X0967169Y0842510D03*
X0975831Y0842510D03*
X0975831Y0846250D03*
X0975831Y0849990D03*
D67*
X0960250Y0839897D03*
X0960250Y0836353D03*
X1090000Y0800000D02*
G75*
%LPD*%
D29*
X1141950Y0907500D03*
X1148550Y0907500D03*
D21*
X1101500Y0810000D03*
X1221500Y0810000D03*
D78*
X1221500Y0870000D03*
X1221500Y0880000D03*
X1221500Y0890000D03*
X1221500Y0900000D03*
X1221500Y0910000D03*
X1101500Y0910000D03*
X1101500Y0900000D03*
X1101500Y0890000D03*
X1101500Y0880000D03*
X1101500Y0870000D03*
D132*
X1155750Y0907500D03*
X1164750Y0907500D03*
D129*
X1165339Y0868524D03*
X1167898Y0868524D03*
X1170457Y0868524D03*
X1162780Y0868524D03*
X1160220Y0868524D03*
X1157661Y0868524D03*
X1155102Y0868524D03*
X1152543Y0868524D03*
X1152543Y0846476D03*
X1155102Y0846476D03*
X1157661Y0846476D03*
X1160220Y0846476D03*
X1162780Y0846476D03*
X1165339Y0846476D03*
X1167898Y0846476D03*
X1170457Y0846476D03*
D97*
X1161500Y0857500D03*
D69*
X1127125Y0825000D03*
D60*
X1140905Y0825000D03*
X1154684Y0825000D03*
X1168464Y0825000D03*
X1182243Y0825000D03*
X1196023Y0825000D03*
D28*
X1205324Y0856250D03*
X1186426Y0856250D03*
D17*
X1136500Y0853300D03*
X1136500Y0846700D03*
D82*
X1114866Y0831406D02*
X1108134Y0831406D01*
X1108090Y0831344D02*
X1107800Y0830722D01*
X1107623Y0830059D01*
X1107563Y0829375D01*
X1107623Y0828691D01*
X1107800Y0828028D01*
X1108090Y0827406D01*
X1108484Y0826844D01*
X1108969Y0826359D01*
X1109531Y0825965D01*
X1110153Y0825675D01*
X1110816Y0825498D01*
X1111500Y0825438D01*
X1112184Y0825498D01*
X1112847Y0825675D01*
X1113469Y0825965D01*
X1114031Y0826359D01*
X1114516Y0826844D01*
X1114910Y0827406D01*
X1115200Y0828028D01*
X1115377Y0828691D01*
X1115437Y0829375D01*
X1115377Y0830059D01*
X1115200Y0830722D01*
X1114910Y0831344D01*
X1114516Y0831906D01*
X1114031Y0832391D01*
X1113469Y0832785D01*
X1112847Y0833075D01*
X1112184Y0833252D01*
X1111500Y0833312D01*
X1110816Y0833252D01*
X1110153Y0833075D01*
X1109531Y0832785D01*
X1108969Y0832391D01*
X1108484Y0831906D01*
X1108090Y0831344D01*
X1107887Y0830908D02*
X1115113Y0830908D01*
X1115283Y0830409D02*
X1107717Y0830409D01*
X1107610Y0829911D02*
X1115390Y0829911D01*
X1115434Y0829412D02*
X1107566Y0829412D01*
X1107603Y0828914D02*
X1115397Y0828914D01*
X1115303Y0828415D02*
X1107697Y0828415D01*
X1107853Y0827917D02*
X1115147Y0827917D01*
X1114915Y0827418D02*
X1108085Y0827418D01*
X1108431Y0826920D02*
X1114569Y0826920D01*
X1114093Y0826421D02*
X1108907Y0826421D01*
X1109623Y0825923D02*
X1113377Y0825923D01*
X1114517Y0831905D02*
X1108483Y0831905D01*
X1108987Y0832403D02*
X1114013Y0832403D01*
X1113217Y0832902D02*
X1109783Y0832902D01*
X1172465Y0874281D02*
X1172175Y0874903D01*
X1171998Y0875566D01*
X1171938Y0876250D01*
X1171998Y0876934D01*
X1172175Y0877597D01*
X1172465Y0878219D01*
X1172859Y0878781D01*
X1173344Y0879266D01*
X1173906Y0879660D01*
X1174528Y0879950D01*
X1175191Y0880127D01*
X1175875Y0880187D01*
X1176559Y0880127D01*
X1177222Y0879950D01*
X1177844Y0879660D01*
X1178406Y0879266D01*
X1178891Y0878781D01*
X1179285Y0878219D01*
X1179575Y0877597D01*
X1179752Y0876934D01*
X1179812Y0876250D01*
X1179752Y0875566D01*
X1179575Y0874903D01*
X1179285Y0874281D01*
X1178891Y0873719D01*
X1178406Y0873234D01*
X1177844Y0872840D01*
X1177222Y0872550D01*
X1176559Y0872373D01*
X1175875Y0872313D01*
X1175191Y0872373D01*
X1174528Y0872550D01*
X1173906Y0872840D01*
X1173344Y0873234D01*
X1172859Y0873719D01*
X1172465Y0874281D01*
X1172468Y0874278D02*
X1179282Y0874278D01*
X1179515Y0874777D02*
X1172235Y0874777D01*
X1172076Y0875275D02*
X1179674Y0875275D01*
X1179770Y0875774D02*
X1171980Y0875774D01*
X1171940Y0876272D02*
X1179810Y0876272D01*
X1179766Y0876771D02*
X1171984Y0876771D01*
X1172088Y0877269D02*
X1179662Y0877269D01*
X1179495Y0877768D02*
X1172255Y0877768D01*
X1172499Y0878266D02*
X1179251Y0878266D01*
X1178902Y0878765D02*
X1172848Y0878765D01*
X1173342Y0879263D02*
X1178408Y0879263D01*
X1177624Y0879762D02*
X1174126Y0879762D01*
X1172817Y0873780D02*
X1178933Y0873780D01*
X1178453Y0873281D02*
X1173297Y0873281D01*
X1174030Y0872783D02*
X1177720Y0872783D01*
D55*
X1191500Y0876750D03*
X1201500Y0875750D03*
X1211500Y0876750D03*
D31*
X1134000Y0875000D03*
X1134000Y0870000D03*
X1134000Y0865000D03*
X1134000Y0880000D03*
X1134000Y0885000D03*
X1134000Y0890000D03*
X1134000Y0895000D03*
X1111500Y0895000D03*
X1111500Y0890000D03*
X1111500Y0885000D03*
X1111500Y0880000D03*
X1111500Y0875000D03*
X1111500Y0870000D03*
X1111500Y0865000D03*
D19*
X1117169Y0849990D03*
X1117169Y0846250D03*
X1117169Y0842510D03*
X1125831Y0842510D03*
X1125831Y0846250D03*
X1125831Y0849990D03*
D67*
X1110250Y0839897D03*
X1110250Y0836353D03*
X1240000Y0800000D02*
G75*
%LPD*%
D29*
X1291950Y0907500D03*
X1298550Y0907500D03*
D21*
X1251500Y0810000D03*
X1371500Y0810000D03*
D78*
X1371500Y0870000D03*
X1371500Y0880000D03*
X1371500Y0890000D03*
X1371500Y0900000D03*
X1371500Y0910000D03*
X1251500Y0910000D03*
X1251500Y0900000D03*
X1251500Y0890000D03*
X1251500Y0880000D03*
X1251500Y0870000D03*
D132*
X1305750Y0907500D03*
X1314750Y0907500D03*
D129*
X1315339Y0868524D03*
X1317898Y0868524D03*
X1320457Y0868524D03*
X1312780Y0868524D03*
X1310220Y0868524D03*
X1307661Y0868524D03*
X1305102Y0868524D03*
X1302543Y0868524D03*
X1302543Y0846476D03*
X1305102Y0846476D03*
X1307661Y0846476D03*
X1310220Y0846476D03*
X1312780Y0846476D03*
X1315339Y0846476D03*
X1317898Y0846476D03*
X1320457Y0846476D03*
D97*
X1311500Y0857500D03*
D69*
X1277125Y0825000D03*
D60*
X1290905Y0825000D03*
X1304684Y0825000D03*
X1318464Y0825000D03*
X1332243Y0825000D03*
X1346023Y0825000D03*
D28*
X1355324Y0856250D03*
X1336426Y0856250D03*
D17*
X1286500Y0853300D03*
X1286500Y0846700D03*
D82*
X1264866Y0831406D02*
X1258134Y0831406D01*
X1258090Y0831344D02*
X1257800Y0830722D01*
X1257623Y0830059D01*
X1257563Y0829375D01*
X1257623Y0828691D01*
X1257800Y0828028D01*
X1258090Y0827406D01*
X1258484Y0826844D01*
X1258969Y0826359D01*
X1259531Y0825965D01*
X1260153Y0825675D01*
X1260816Y0825498D01*
X1261500Y0825438D01*
X1262184Y0825498D01*
X1262847Y0825675D01*
X1263469Y0825965D01*
X1264031Y0826359D01*
X1264516Y0826844D01*
X1264910Y0827406D01*
X1265200Y0828028D01*
X1265377Y0828691D01*
X1265437Y0829375D01*
X1265377Y0830059D01*
X1265200Y0830722D01*
X1264910Y0831344D01*
X1264516Y0831906D01*
X1264031Y0832391D01*
X1263469Y0832785D01*
X1262847Y0833075D01*
X1262184Y0833252D01*
X1261500Y0833312D01*
X1260816Y0833252D01*
X1260153Y0833075D01*
X1259531Y0832785D01*
X1258969Y0832391D01*
X1258484Y0831906D01*
X1258090Y0831344D01*
X1257887Y0830908D02*
X1265113Y0830908D01*
X1265283Y0830409D02*
X1257717Y0830409D01*
X1257610Y0829911D02*
X1265390Y0829911D01*
X1265434Y0829412D02*
X1257566Y0829412D01*
X1257603Y0828914D02*
X1265397Y0828914D01*
X1265303Y0828415D02*
X1257697Y0828415D01*
X1257853Y0827917D02*
X1265147Y0827917D01*
X1264915Y0827418D02*
X1258085Y0827418D01*
X1258431Y0826920D02*
X1264569Y0826920D01*
X1264093Y0826421D02*
X1258907Y0826421D01*
X1259623Y0825923D02*
X1263377Y0825923D01*
X1264517Y0831905D02*
X1258483Y0831905D01*
X1258987Y0832403D02*
X1264013Y0832403D01*
X1263217Y0832902D02*
X1259783Y0832902D01*
X1322465Y0874281D02*
X1322175Y0874903D01*
X1321998Y0875566D01*
X1321938Y0876250D01*
X1321998Y0876934D01*
X1322175Y0877597D01*
X1322465Y0878219D01*
X1322859Y0878781D01*
X1323344Y0879266D01*
X1323906Y0879660D01*
X1324528Y0879950D01*
X1325191Y0880127D01*
X1325875Y0880187D01*
X1326559Y0880127D01*
X1327222Y0879950D01*
X1327844Y0879660D01*
X1328406Y0879266D01*
X1328891Y0878781D01*
X1329285Y0878219D01*
X1329575Y0877597D01*
X1329752Y0876934D01*
X1329812Y0876250D01*
X1329752Y0875566D01*
X1329575Y0874903D01*
X1329285Y0874281D01*
X1328891Y0873719D01*
X1328406Y0873234D01*
X1327844Y0872840D01*
X1327222Y0872550D01*
X1326559Y0872373D01*
X1325875Y0872313D01*
X1325191Y0872373D01*
X1324528Y0872550D01*
X1323906Y0872840D01*
X1323344Y0873234D01*
X1322859Y0873719D01*
X1322465Y0874281D01*
X1322468Y0874278D02*
X1329282Y0874278D01*
X1329515Y0874777D02*
X1322235Y0874777D01*
X1322076Y0875275D02*
X1329674Y0875275D01*
X1329770Y0875774D02*
X1321980Y0875774D01*
X1321940Y0876272D02*
X1329810Y0876272D01*
X1329766Y0876771D02*
X1321984Y0876771D01*
X1322088Y0877269D02*
X1329662Y0877269D01*
X1329495Y0877768D02*
X1322255Y0877768D01*
X1322499Y0878266D02*
X1329251Y0878266D01*
X1328902Y0878765D02*
X1322848Y0878765D01*
X1323342Y0879263D02*
X1328408Y0879263D01*
X1327624Y0879762D02*
X1324126Y0879762D01*
X1322817Y0873780D02*
X1328933Y0873780D01*
X1328453Y0873281D02*
X1323297Y0873281D01*
X1324030Y0872783D02*
X1327720Y0872783D01*
D55*
X1341500Y0876750D03*
X1351500Y0875750D03*
X1361500Y0876750D03*
D31*
X1284000Y0875000D03*
X1284000Y0870000D03*
X1284000Y0865000D03*
X1284000Y0880000D03*
X1284000Y0885000D03*
X1284000Y0890000D03*
X1284000Y0895000D03*
X1261500Y0895000D03*
X1261500Y0890000D03*
X1261500Y0885000D03*
X1261500Y0880000D03*
X1261500Y0875000D03*
X1261500Y0870000D03*
X1261500Y0865000D03*
D19*
X1267169Y0849990D03*
X1267169Y0846250D03*
X1267169Y0842510D03*
X1275831Y0842510D03*
X1275831Y0846250D03*
X1275831Y0849990D03*
D67*
X1260250Y0839897D03*
X1260250Y0836353D03*
X1280000Y0170000D02*
G75*
%LPD*%
D38*
X1286250Y0180000D03*
X1286250Y0190000D03*
X1286250Y0200000D03*
X1286250Y0210000D03*
X1356250Y0210000D03*
X1356250Y0200000D03*
D132*
X1355500Y0180000D03*
X1364500Y0180000D03*
D82*
X1337627Y0185566D02*
X1337687Y0186250D01*
X1337627Y0186934D01*
X1337450Y0187597D01*
X1337160Y0188219D01*
X1336766Y0188781D01*
X1336281Y0189266D01*
X1335719Y0189660D01*
X1335097Y0189950D01*
X1334434Y0190127D01*
X1333750Y0190187D01*
X1333066Y0190127D01*
X1332403Y0189950D01*
X1331781Y0189660D01*
X1331219Y0189266D01*
X1330734Y0188781D01*
X1330340Y0188219D01*
X1330050Y0187597D01*
X1329873Y0186934D01*
X1329813Y0186250D01*
X1329873Y0185566D01*
X1330050Y0184903D01*
X1330340Y0184281D01*
X1330734Y0183719D01*
X1331219Y0183234D01*
X1331781Y0182840D01*
X1332403Y0182550D01*
X1333066Y0182373D01*
X1333750Y0182313D01*
X1334434Y0182373D01*
X1335097Y0182550D01*
X1335719Y0182840D01*
X1336281Y0183234D01*
X1336766Y0183719D01*
X1337160Y0184281D01*
X1337450Y0184903D01*
X1337627Y0185566D01*
X1337593Y0185439D02*
X1329907Y0185439D01*
X1329840Y0185937D02*
X1337660Y0185937D01*
X1337671Y0186436D02*
X1329829Y0186436D01*
X1329873Y0186934D02*
X1337627Y0186934D01*
X1337493Y0187433D02*
X1330007Y0187433D01*
X1330207Y0187932D02*
X1337293Y0187932D01*
X1337011Y0188430D02*
X1330489Y0188430D01*
X1330882Y0188929D02*
X1336618Y0188929D01*
X1336051Y0189427D02*
X1331449Y0189427D01*
X1332352Y0189926D02*
X1335148Y0189926D01*
X1337459Y0184940D02*
X1330041Y0184940D01*
X1330266Y0184442D02*
X1337234Y0184442D01*
X1336923Y0183943D02*
X1330577Y0183943D01*
X1331009Y0183445D02*
X1336491Y0183445D01*
X1335870Y0182946D02*
X1331630Y0182946D01*
X1332786Y0182448D02*
X1334714Y0182448D01*
X1307597Y0211300D02*
X1306934Y0211123D01*
X1306250Y0211063D01*
X1305566Y0211123D01*
X1304903Y0211300D01*
X1304281Y0211590D01*
X1303719Y0211984D01*
X1303234Y0212469D01*
X1302840Y0213031D01*
X1302550Y0213653D01*
X1302373Y0214316D01*
X1302313Y0215000D01*
X1302373Y0215684D01*
X1302550Y0216347D01*
X1309950Y0216347D01*
X1309660Y0216969D01*
X1309266Y0217531D01*
X1308781Y0218016D01*
X1308219Y0218410D01*
X1307597Y0218700D01*
X1306934Y0218877D01*
X1306250Y0218937D01*
X1305566Y0218877D01*
X1304903Y0218700D01*
X1304281Y0218410D01*
X1303719Y0218016D01*
X1303234Y0217531D01*
X1302840Y0216969D01*
X1302550Y0216347D01*
X1302417Y0215848D02*
X1310083Y0215848D01*
X1310127Y0215684D02*
X1309950Y0216347D01*
X1309717Y0216845D02*
X1302783Y0216845D01*
X1303103Y0217344D02*
X1309397Y0217344D01*
X1308954Y0217842D02*
X1303546Y0217842D01*
X1304183Y0218341D02*
X1308317Y0218341D01*
X1307075Y0218839D02*
X1305425Y0218839D01*
X1310127Y0215684D02*
X1310187Y0215000D01*
X1310127Y0214316D01*
X1309950Y0213653D01*
X1309660Y0213031D01*
X1309266Y0212469D01*
X1308781Y0211984D01*
X1308219Y0211590D01*
X1307597Y0211300D01*
X1307728Y0211362D02*
X1304772Y0211362D01*
X1303896Y0211860D02*
X1308604Y0211860D01*
X1309155Y0212359D02*
X1303345Y0212359D01*
X1302963Y0212857D02*
X1309537Y0212857D01*
X1309811Y0213356D02*
X1302689Y0213356D01*
X1302497Y0213854D02*
X1310003Y0213854D01*
X1310130Y0214353D02*
X1302370Y0214353D01*
X1302326Y0214851D02*
X1310174Y0214851D01*
X1310156Y0215350D02*
X1302344Y0215350D01*
D31*
X1325000Y0208750D03*
X1325000Y0203750D03*
X1325000Y0198750D03*
X1325000Y0193750D03*
X1325000Y0188750D03*
X1325000Y0183750D03*
X1325000Y0178750D03*
X1347500Y0178750D03*
X1347500Y0183750D03*
X1347500Y0188750D03*
X1347500Y0193750D03*
X1347500Y0198750D03*
X1347500Y0203750D03*
X1347500Y0208750D03*
D12*
X1366250Y0210000D03*
X1366250Y0200000D03*
D75*
X1316250Y0195000D03*
X1306250Y0195000D03*
X1306250Y0185000D03*
X1316250Y0185000D03*
X1316250Y0205000D03*
X1306250Y0205000D03*
D74*
X1296250Y0210000D03*
D55*
X1296250Y0200000D03*
X1296250Y0190000D03*
X1296250Y0180000D03*
X1280000Y0360000D02*
G75*
%LPD*%
D38*
X1286250Y0370000D03*
X1286250Y0380000D03*
X1286250Y0390000D03*
X1286250Y0400000D03*
X1356250Y0400000D03*
X1356250Y0390000D03*
D132*
X1355500Y0370000D03*
X1364500Y0370000D03*
D82*
X1337627Y0375566D02*
X1337687Y0376250D01*
X1337627Y0376934D01*
X1337450Y0377597D01*
X1337160Y0378219D01*
X1336766Y0378781D01*
X1336281Y0379266D01*
X1335719Y0379660D01*
X1335097Y0379950D01*
X1334434Y0380127D01*
X1333750Y0380187D01*
X1333066Y0380127D01*
X1332403Y0379950D01*
X1331781Y0379660D01*
X1331219Y0379266D01*
X1330734Y0378781D01*
X1330340Y0378219D01*
X1330050Y0377597D01*
X1329873Y0376934D01*
X1329813Y0376250D01*
X1329873Y0375566D01*
X1330050Y0374903D01*
X1330340Y0374281D01*
X1330734Y0373719D01*
X1331219Y0373234D01*
X1331781Y0372840D01*
X1332403Y0372550D01*
X1333066Y0372373D01*
X1333750Y0372313D01*
X1334434Y0372373D01*
X1335097Y0372550D01*
X1335719Y0372840D01*
X1336281Y0373234D01*
X1336766Y0373719D01*
X1337160Y0374281D01*
X1337450Y0374903D01*
X1337627Y0375566D01*
X1337593Y0375439D02*
X1329907Y0375439D01*
X1329840Y0375937D02*
X1337660Y0375937D01*
X1337671Y0376436D02*
X1329829Y0376436D01*
X1329873Y0376934D02*
X1337627Y0376934D01*
X1337493Y0377433D02*
X1330007Y0377433D01*
X1330207Y0377932D02*
X1337293Y0377932D01*
X1337011Y0378430D02*
X1330489Y0378430D01*
X1330882Y0378929D02*
X1336618Y0378929D01*
X1336051Y0379427D02*
X1331449Y0379427D01*
X1332352Y0379926D02*
X1335148Y0379926D01*
X1337459Y0374940D02*
X1330041Y0374940D01*
X1330266Y0374442D02*
X1337234Y0374442D01*
X1336923Y0373943D02*
X1330577Y0373943D01*
X1331009Y0373445D02*
X1336491Y0373445D01*
X1335870Y0372946D02*
X1331630Y0372946D01*
X1332786Y0372448D02*
X1334714Y0372448D01*
X1307597Y0401300D02*
X1306934Y0401123D01*
X1306250Y0401063D01*
X1305566Y0401123D01*
X1304903Y0401300D01*
X1304281Y0401590D01*
X1303719Y0401984D01*
X1303234Y0402469D01*
X1302840Y0403031D01*
X1302550Y0403653D01*
X1302373Y0404316D01*
X1302313Y0405000D01*
X1302373Y0405684D01*
X1302550Y0406347D01*
X1309950Y0406347D01*
X1309660Y0406969D01*
X1309266Y0407531D01*
X1308781Y0408016D01*
X1308219Y0408410D01*
X1307597Y0408700D01*
X1306934Y0408877D01*
X1306250Y0408937D01*
X1305566Y0408877D01*
X1304903Y0408700D01*
X1304281Y0408410D01*
X1303719Y0408016D01*
X1303234Y0407531D01*
X1302840Y0406969D01*
X1302550Y0406347D01*
X1302417Y0405848D02*
X1310083Y0405848D01*
X1310127Y0405684D02*
X1309950Y0406347D01*
X1309717Y0406845D02*
X1302783Y0406845D01*
X1303103Y0407344D02*
X1309397Y0407344D01*
X1308954Y0407842D02*
X1303546Y0407842D01*
X1304183Y0408341D02*
X1308317Y0408341D01*
X1307075Y0408839D02*
X1305425Y0408839D01*
X1310127Y0405684D02*
X1310187Y0405000D01*
X1310127Y0404316D01*
X1309950Y0403653D01*
X1309660Y0403031D01*
X1309266Y0402469D01*
X1308781Y0401984D01*
X1308219Y0401590D01*
X1307597Y0401300D01*
X1307728Y0401362D02*
X1304772Y0401362D01*
X1303896Y0401860D02*
X1308604Y0401860D01*
X1309155Y0402359D02*
X1303345Y0402359D01*
X1302963Y0402857D02*
X1309537Y0402857D01*
X1309811Y0403356D02*
X1302689Y0403356D01*
X1302497Y0403854D02*
X1310003Y0403854D01*
X1310130Y0404353D02*
X1302370Y0404353D01*
X1302326Y0404851D02*
X1310174Y0404851D01*
X1310156Y0405350D02*
X1302344Y0405350D01*
D31*
X1325000Y0398750D03*
X1325000Y0393750D03*
X1325000Y0388750D03*
X1325000Y0383750D03*
X1325000Y0378750D03*
X1325000Y0373750D03*
X1325000Y0368750D03*
X1347500Y0368750D03*
X1347500Y0373750D03*
X1347500Y0378750D03*
X1347500Y0383750D03*
X1347500Y0388750D03*
X1347500Y0393750D03*
X1347500Y0398750D03*
D12*
X1366250Y0400000D03*
X1366250Y0390000D03*
D75*
X1316250Y0385000D03*
X1306250Y0385000D03*
X1306250Y0375000D03*
X1316250Y0375000D03*
X1316250Y0395000D03*
X1306250Y0395000D03*
D74*
X1296250Y0400000D03*
D55*
X1296250Y0390000D03*
X1296250Y0380000D03*
X1296250Y0370000D03*
M02*
