G75*
G70*
%OFA0B0*%
%FSLAX25Y25*%
%IPPOS*%
%LPD*%
%AMOC8*
5,1,8,0,0,1.08239X$1,22.5*
%
%ADD101R,0.05900X0.05500*%
%ADD105R,0.03900X0.04300*%
%ADD108R,0.01772X0.02953*%
%ADD116R,0.07500X0.05000*%
%ADD117R,0.10000X0.10000*%
%ADD121R,0.04134X0.02559*%
%ADD127R,0.02000X0.04000*%
%ADD128R,0.10000X0.17500*%
%ADD13R,0.04173X0.02559*%
%ADD134R,0.00984X0.06102*%
%ADD139R,0.01575X0.05315*%
%ADD15R,0.01969X0.02362*%
%ADD42R,0.05906X0.05906*%
%ADD49R,0.05000X0.03000*%
%ADD56R,0.10000X0.10500*%
%ADD57R,0.02953X0.01772*%
%ADD61R,0.11811X0.05512*%
%ADD62R,0.06000X0.09000*%
%ADD63R,0.04300X0.03900*%
%ADD64R,0.03500X0.02000*%
%ADD79R,0.05500X0.05900*%
%ADD82C,0.00500*%
X0040000Y0040000D02*
G75*
%LPD*%
X0190000Y0040000D02*
G75*
%LPD*%
X0340000Y0040000D02*
G75*
%LPD*%
X0490000Y0040000D02*
G75*
%LPD*%
X0640000Y0040000D02*
G75*
%LPD*%
X0790000Y0040000D02*
G75*
%LPD*%
D128*
X0861500Y0065000D03*
X0861500Y0135000D03*
X0940000Y0040000D02*
G75*
%LPD*%
X1090000Y0040000D02*
G75*
%LPD*%
X1240000Y0040000D02*
G75*
%LPD*%
D63*
X1262750Y0109200D03*
X1270250Y0109200D03*
X1277750Y0109200D03*
X1285250Y0109200D03*
X1285250Y0115800D03*
X1277750Y0115800D03*
X1270250Y0115800D03*
X1262750Y0115800D03*
X1286500Y0141700D03*
X1286500Y0148300D03*
X1292750Y0115800D03*
X1292750Y0109200D03*
X1329000Y0109200D03*
X1329000Y0115800D03*
X1339000Y0115800D03*
X1339000Y0109200D03*
X1349000Y0109200D03*
X1356500Y0109200D03*
X1356500Y0115800D03*
X1349000Y0115800D03*
X1336500Y0145450D03*
X1336500Y0152050D03*
D79*
X1262750Y0134500D03*
X1262750Y0125500D03*
D105*
X1306950Y0113750D03*
X1313550Y0113750D03*
D64*
X1321500Y0122500D03*
X1321500Y0127500D03*
X1321500Y0132500D03*
X1321500Y0137500D03*
X1321500Y0142500D03*
X1321500Y0147500D03*
X1321500Y0152500D03*
X1299000Y0152500D03*
X1299000Y0147500D03*
X1299000Y0142500D03*
X1299000Y0137500D03*
X1299000Y0132500D03*
X1299000Y0127500D03*
X1299000Y0122500D03*
X0040000Y0170000D02*
G75*
%LPD*%
X0490000Y0170000D02*
G75*
%LPD*%
X0940000Y0170000D02*
G75*
%LPD*%
X0040000Y0420000D02*
G75*
%LPD*%
D116*
X0131500Y0440625D03*
X0154000Y0440625D03*
D82*
X0126500Y0421875D02*
X0121500Y0421875D01*
X0121500Y0429375D01*
X0124625Y0432500D01*
X0131500Y0432500D01*
X0132750Y0431250D01*
X0132750Y0428750D01*
X0127750Y0428750D01*
X0126500Y0427500D01*
X0126500Y0421875D01*
X0126500Y0421994D02*
X0121500Y0421994D01*
X0121500Y0422493D02*
X0126500Y0422493D01*
X0126500Y0422991D02*
X0121500Y0422991D01*
X0121500Y0423490D02*
X0126500Y0423490D01*
X0126500Y0423988D02*
X0121500Y0423988D01*
X0121500Y0424487D02*
X0126500Y0424487D01*
X0126500Y0424985D02*
X0121500Y0424985D01*
X0121500Y0425484D02*
X0126500Y0425484D01*
X0126500Y0425982D02*
X0121500Y0425982D01*
X0121500Y0426481D02*
X0126500Y0426481D01*
X0126500Y0426979D02*
X0121500Y0426979D01*
X0121500Y0427478D02*
X0126500Y0427478D01*
X0126976Y0427976D02*
X0121500Y0427976D01*
X0121500Y0428475D02*
X0127475Y0428475D01*
X0124089Y0431964D02*
X0132036Y0431964D01*
X0132534Y0431466D02*
X0123591Y0431466D01*
X0123092Y0430967D02*
X0132750Y0430967D01*
X0132750Y0430469D02*
X0122594Y0430469D01*
X0122095Y0429970D02*
X0132750Y0429970D01*
X0132750Y0429472D02*
X0121597Y0429472D01*
X0121500Y0428973D02*
X0132750Y0428973D01*
X0131537Y0432463D02*
X0124588Y0432463D01*
X0152750Y0431250D02*
X0152750Y0428750D01*
X0157750Y0428750D01*
X0159000Y0427500D01*
X0159000Y0421875D01*
X0165250Y0421875D01*
X0165250Y0423750D01*
X0162750Y0426250D01*
X0162750Y0429375D01*
X0160250Y0431875D01*
X0153375Y0431875D01*
X0152750Y0431250D01*
X0152750Y0430967D02*
X0161158Y0430967D01*
X0161656Y0430469D02*
X0152750Y0430469D01*
X0152750Y0429970D02*
X0162155Y0429970D01*
X0162653Y0429472D02*
X0152750Y0429472D01*
X0152750Y0428973D02*
X0162750Y0428973D01*
X0162750Y0428475D02*
X0158025Y0428475D01*
X0158524Y0427976D02*
X0162750Y0427976D01*
X0162750Y0427478D02*
X0159000Y0427478D01*
X0159000Y0426979D02*
X0162750Y0426979D01*
X0162750Y0426481D02*
X0159000Y0426481D01*
X0159000Y0425982D02*
X0163018Y0425982D01*
X0163516Y0425484D02*
X0159000Y0425484D01*
X0159000Y0424985D02*
X0164015Y0424985D01*
X0164513Y0424487D02*
X0159000Y0424487D01*
X0159000Y0423988D02*
X0165012Y0423988D01*
X0165250Y0423490D02*
X0159000Y0423490D01*
X0159000Y0422991D02*
X0165250Y0422991D01*
X0165250Y0422493D02*
X0159000Y0422493D01*
X0159000Y0421994D02*
X0165250Y0421994D01*
X0160659Y0431466D02*
X0152966Y0431466D01*
D139*
X0147868Y0436630D03*
X0145309Y0436630D03*
X0142750Y0436630D03*
X0140191Y0436630D03*
X0137632Y0436630D03*
D42*
X0136844Y0426000D03*
X0148656Y0426000D03*
D101*
X0096000Y0502250D03*
X0087000Y0502250D03*
X0087000Y0515000D03*
X0096000Y0515000D03*
D57*
X0121018Y0499774D03*
X0121018Y0496624D03*
X0121018Y0493474D03*
X0121018Y0490325D03*
X0121018Y0487175D03*
X0121018Y0484026D03*
X0121018Y0480876D03*
X0121018Y0477726D03*
X0154482Y0477726D03*
X0154482Y0480876D03*
X0154482Y0484026D03*
X0154482Y0487175D03*
X0154482Y0490325D03*
X0154482Y0493474D03*
X0154482Y0496624D03*
X0154482Y0499774D03*
D108*
X0148774Y0505482D03*
X0145624Y0505482D03*
X0142474Y0505482D03*
X0139325Y0505482D03*
X0136175Y0505482D03*
X0133026Y0505482D03*
X0129876Y0505482D03*
X0126726Y0505482D03*
X0126726Y0472018D03*
X0129876Y0472018D03*
X0133026Y0472018D03*
X0136175Y0472018D03*
X0139325Y0472018D03*
X0142474Y0472018D03*
X0145624Y0472018D03*
X0148774Y0472018D03*
D63*
X0104000Y0496075D03*
X0104000Y0502675D03*
X0104000Y0510450D03*
X0104000Y0517050D03*
X0140250Y0517675D03*
X0140250Y0511075D03*
D62*
X0112750Y0521250D03*
D127*
X0110750Y0499250D03*
X0114750Y0499250D03*
D61*
X0142051Y0456250D03*
X0160949Y0456250D03*
D121*
X0138419Y0523366D03*
X0138419Y0531634D03*
X0122081Y0531634D03*
X0122081Y0523366D03*
D56*
X0129000Y0457500D03*
D49*
X0129000Y0448250D03*
X0190000Y0420000D02*
G75*
%LPD*%
D116*
X0281500Y0440625D03*
X0304000Y0440625D03*
D82*
X0276500Y0421875D02*
X0271500Y0421875D01*
X0271500Y0429375D01*
X0274625Y0432500D01*
X0281500Y0432500D01*
X0282750Y0431250D01*
X0282750Y0428750D01*
X0277750Y0428750D01*
X0276500Y0427500D01*
X0276500Y0421875D01*
X0276500Y0421994D02*
X0271500Y0421994D01*
X0271500Y0422493D02*
X0276500Y0422493D01*
X0276500Y0422991D02*
X0271500Y0422991D01*
X0271500Y0423490D02*
X0276500Y0423490D01*
X0276500Y0423988D02*
X0271500Y0423988D01*
X0271500Y0424487D02*
X0276500Y0424487D01*
X0276500Y0424985D02*
X0271500Y0424985D01*
X0271500Y0425484D02*
X0276500Y0425484D01*
X0276500Y0425982D02*
X0271500Y0425982D01*
X0271500Y0426481D02*
X0276500Y0426481D01*
X0276500Y0426979D02*
X0271500Y0426979D01*
X0271500Y0427478D02*
X0276500Y0427478D01*
X0276976Y0427976D02*
X0271500Y0427976D01*
X0271500Y0428475D02*
X0277475Y0428475D01*
X0274089Y0431964D02*
X0282036Y0431964D01*
X0282534Y0431466D02*
X0273591Y0431466D01*
X0273092Y0430967D02*
X0282750Y0430967D01*
X0282750Y0430469D02*
X0272594Y0430469D01*
X0272095Y0429970D02*
X0282750Y0429970D01*
X0282750Y0429472D02*
X0271597Y0429472D01*
X0271500Y0428973D02*
X0282750Y0428973D01*
X0281537Y0432463D02*
X0274588Y0432463D01*
X0302750Y0431250D02*
X0302750Y0428750D01*
X0307750Y0428750D01*
X0309000Y0427500D01*
X0309000Y0421875D01*
X0315250Y0421875D01*
X0315250Y0423750D01*
X0312750Y0426250D01*
X0312750Y0429375D01*
X0310250Y0431875D01*
X0303375Y0431875D01*
X0302750Y0431250D01*
X0302750Y0430967D02*
X0311158Y0430967D01*
X0311656Y0430469D02*
X0302750Y0430469D01*
X0302750Y0429970D02*
X0312155Y0429970D01*
X0312653Y0429472D02*
X0302750Y0429472D01*
X0302750Y0428973D02*
X0312750Y0428973D01*
X0312750Y0428475D02*
X0308025Y0428475D01*
X0308524Y0427976D02*
X0312750Y0427976D01*
X0312750Y0427478D02*
X0309000Y0427478D01*
X0309000Y0426979D02*
X0312750Y0426979D01*
X0312750Y0426481D02*
X0309000Y0426481D01*
X0309000Y0425982D02*
X0313018Y0425982D01*
X0313516Y0425484D02*
X0309000Y0425484D01*
X0309000Y0424985D02*
X0314015Y0424985D01*
X0314513Y0424487D02*
X0309000Y0424487D01*
X0309000Y0423988D02*
X0315012Y0423988D01*
X0315250Y0423490D02*
X0309000Y0423490D01*
X0309000Y0422991D02*
X0315250Y0422991D01*
X0315250Y0422493D02*
X0309000Y0422493D01*
X0309000Y0421994D02*
X0315250Y0421994D01*
X0310659Y0431466D02*
X0302966Y0431466D01*
D139*
X0297868Y0436630D03*
X0295309Y0436630D03*
X0292750Y0436630D03*
X0290191Y0436630D03*
X0287632Y0436630D03*
D42*
X0286844Y0426000D03*
X0298656Y0426000D03*
D101*
X0246000Y0502250D03*
X0237000Y0502250D03*
X0237000Y0515000D03*
X0246000Y0515000D03*
D57*
X0271018Y0499774D03*
X0271018Y0496624D03*
X0271018Y0493474D03*
X0271018Y0490325D03*
X0271018Y0487175D03*
X0271018Y0484026D03*
X0271018Y0480876D03*
X0271018Y0477726D03*
X0304482Y0477726D03*
X0304482Y0480876D03*
X0304482Y0484026D03*
X0304482Y0487175D03*
X0304482Y0490325D03*
X0304482Y0493474D03*
X0304482Y0496624D03*
X0304482Y0499774D03*
D108*
X0298774Y0505482D03*
X0295624Y0505482D03*
X0292474Y0505482D03*
X0289325Y0505482D03*
X0286175Y0505482D03*
X0283026Y0505482D03*
X0279876Y0505482D03*
X0276726Y0505482D03*
X0276726Y0472018D03*
X0279876Y0472018D03*
X0283026Y0472018D03*
X0286175Y0472018D03*
X0289325Y0472018D03*
X0292474Y0472018D03*
X0295624Y0472018D03*
X0298774Y0472018D03*
D63*
X0254000Y0496075D03*
X0254000Y0502675D03*
X0254000Y0510450D03*
X0254000Y0517050D03*
X0290250Y0517675D03*
X0290250Y0511075D03*
D62*
X0262750Y0521250D03*
D127*
X0260750Y0499250D03*
X0264750Y0499250D03*
D61*
X0292051Y0456250D03*
X0310949Y0456250D03*
D121*
X0288419Y0523366D03*
X0288419Y0531634D03*
X0272081Y0531634D03*
X0272081Y0523366D03*
D56*
X0279000Y0457500D03*
D49*
X0279000Y0448250D03*
X0340000Y0420000D02*
G75*
%LPD*%
D116*
X0431500Y0440625D03*
X0454000Y0440625D03*
D82*
X0426500Y0421875D02*
X0421500Y0421875D01*
X0421500Y0429375D01*
X0424625Y0432500D01*
X0431500Y0432500D01*
X0432750Y0431250D01*
X0432750Y0428750D01*
X0427750Y0428750D01*
X0426500Y0427500D01*
X0426500Y0421875D01*
X0426500Y0421994D02*
X0421500Y0421994D01*
X0421500Y0422493D02*
X0426500Y0422493D01*
X0426500Y0422991D02*
X0421500Y0422991D01*
X0421500Y0423490D02*
X0426500Y0423490D01*
X0426500Y0423988D02*
X0421500Y0423988D01*
X0421500Y0424487D02*
X0426500Y0424487D01*
X0426500Y0424985D02*
X0421500Y0424985D01*
X0421500Y0425484D02*
X0426500Y0425484D01*
X0426500Y0425982D02*
X0421500Y0425982D01*
X0421500Y0426481D02*
X0426500Y0426481D01*
X0426500Y0426979D02*
X0421500Y0426979D01*
X0421500Y0427478D02*
X0426500Y0427478D01*
X0426976Y0427976D02*
X0421500Y0427976D01*
X0421500Y0428475D02*
X0427475Y0428475D01*
X0424089Y0431964D02*
X0432036Y0431964D01*
X0432534Y0431466D02*
X0423591Y0431466D01*
X0423092Y0430967D02*
X0432750Y0430967D01*
X0432750Y0430469D02*
X0422594Y0430469D01*
X0422095Y0429970D02*
X0432750Y0429970D01*
X0432750Y0429472D02*
X0421597Y0429472D01*
X0421500Y0428973D02*
X0432750Y0428973D01*
X0431537Y0432463D02*
X0424588Y0432463D01*
X0452750Y0431250D02*
X0452750Y0428750D01*
X0457750Y0428750D01*
X0459000Y0427500D01*
X0459000Y0421875D01*
X0465250Y0421875D01*
X0465250Y0423750D01*
X0462750Y0426250D01*
X0462750Y0429375D01*
X0460250Y0431875D01*
X0453375Y0431875D01*
X0452750Y0431250D01*
X0452750Y0430967D02*
X0461158Y0430967D01*
X0461656Y0430469D02*
X0452750Y0430469D01*
X0452750Y0429970D02*
X0462155Y0429970D01*
X0462653Y0429472D02*
X0452750Y0429472D01*
X0452750Y0428973D02*
X0462750Y0428973D01*
X0462750Y0428475D02*
X0458025Y0428475D01*
X0458524Y0427976D02*
X0462750Y0427976D01*
X0462750Y0427478D02*
X0459000Y0427478D01*
X0459000Y0426979D02*
X0462750Y0426979D01*
X0462750Y0426481D02*
X0459000Y0426481D01*
X0459000Y0425982D02*
X0463018Y0425982D01*
X0463516Y0425484D02*
X0459000Y0425484D01*
X0459000Y0424985D02*
X0464015Y0424985D01*
X0464513Y0424487D02*
X0459000Y0424487D01*
X0459000Y0423988D02*
X0465012Y0423988D01*
X0465250Y0423490D02*
X0459000Y0423490D01*
X0459000Y0422991D02*
X0465250Y0422991D01*
X0465250Y0422493D02*
X0459000Y0422493D01*
X0459000Y0421994D02*
X0465250Y0421994D01*
X0460659Y0431466D02*
X0452966Y0431466D01*
D139*
X0447868Y0436630D03*
X0445309Y0436630D03*
X0442750Y0436630D03*
X0440191Y0436630D03*
X0437632Y0436630D03*
D42*
X0436844Y0426000D03*
X0448656Y0426000D03*
D101*
X0396000Y0502250D03*
X0387000Y0502250D03*
X0387000Y0515000D03*
X0396000Y0515000D03*
D57*
X0421018Y0499774D03*
X0421018Y0496624D03*
X0421018Y0493474D03*
X0421018Y0490325D03*
X0421018Y0487175D03*
X0421018Y0484026D03*
X0421018Y0480876D03*
X0421018Y0477726D03*
X0454482Y0477726D03*
X0454482Y0480876D03*
X0454482Y0484026D03*
X0454482Y0487175D03*
X0454482Y0490325D03*
X0454482Y0493474D03*
X0454482Y0496624D03*
X0454482Y0499774D03*
D108*
X0448774Y0505482D03*
X0445624Y0505482D03*
X0442474Y0505482D03*
X0439325Y0505482D03*
X0436175Y0505482D03*
X0433026Y0505482D03*
X0429876Y0505482D03*
X0426726Y0505482D03*
X0426726Y0472018D03*
X0429876Y0472018D03*
X0433026Y0472018D03*
X0436175Y0472018D03*
X0439325Y0472018D03*
X0442474Y0472018D03*
X0445624Y0472018D03*
X0448774Y0472018D03*
D63*
X0404000Y0496075D03*
X0404000Y0502675D03*
X0404000Y0510450D03*
X0404000Y0517050D03*
X0440250Y0517675D03*
X0440250Y0511075D03*
D62*
X0412750Y0521250D03*
D127*
X0410750Y0499250D03*
X0414750Y0499250D03*
D61*
X0442051Y0456250D03*
X0460949Y0456250D03*
D121*
X0438419Y0523366D03*
X0438419Y0531634D03*
X0422081Y0531634D03*
X0422081Y0523366D03*
D56*
X0429000Y0457500D03*
D49*
X0429000Y0448250D03*
X0490000Y0420000D02*
G75*
%LPD*%
D116*
X0581500Y0440625D03*
X0604000Y0440625D03*
D82*
X0576500Y0421875D02*
X0571500Y0421875D01*
X0571500Y0429375D01*
X0574625Y0432500D01*
X0581500Y0432500D01*
X0582750Y0431250D01*
X0582750Y0428750D01*
X0577750Y0428750D01*
X0576500Y0427500D01*
X0576500Y0421875D01*
X0576500Y0421994D02*
X0571500Y0421994D01*
X0571500Y0422493D02*
X0576500Y0422493D01*
X0576500Y0422991D02*
X0571500Y0422991D01*
X0571500Y0423490D02*
X0576500Y0423490D01*
X0576500Y0423988D02*
X0571500Y0423988D01*
X0571500Y0424487D02*
X0576500Y0424487D01*
X0576500Y0424985D02*
X0571500Y0424985D01*
X0571500Y0425484D02*
X0576500Y0425484D01*
X0576500Y0425982D02*
X0571500Y0425982D01*
X0571500Y0426481D02*
X0576500Y0426481D01*
X0576500Y0426979D02*
X0571500Y0426979D01*
X0571500Y0427478D02*
X0576500Y0427478D01*
X0576976Y0427976D02*
X0571500Y0427976D01*
X0571500Y0428475D02*
X0577475Y0428475D01*
X0574089Y0431964D02*
X0582036Y0431964D01*
X0582534Y0431466D02*
X0573591Y0431466D01*
X0573092Y0430967D02*
X0582750Y0430967D01*
X0582750Y0430469D02*
X0572594Y0430469D01*
X0572095Y0429970D02*
X0582750Y0429970D01*
X0582750Y0429472D02*
X0571597Y0429472D01*
X0571500Y0428973D02*
X0582750Y0428973D01*
X0581537Y0432463D02*
X0574588Y0432463D01*
X0602750Y0431250D02*
X0602750Y0428750D01*
X0607750Y0428750D01*
X0609000Y0427500D01*
X0609000Y0421875D01*
X0615250Y0421875D01*
X0615250Y0423750D01*
X0612750Y0426250D01*
X0612750Y0429375D01*
X0610250Y0431875D01*
X0603375Y0431875D01*
X0602750Y0431250D01*
X0602750Y0430967D02*
X0611158Y0430967D01*
X0611656Y0430469D02*
X0602750Y0430469D01*
X0602750Y0429970D02*
X0612155Y0429970D01*
X0612653Y0429472D02*
X0602750Y0429472D01*
X0602750Y0428973D02*
X0612750Y0428973D01*
X0612750Y0428475D02*
X0608025Y0428475D01*
X0608524Y0427976D02*
X0612750Y0427976D01*
X0612750Y0427478D02*
X0609000Y0427478D01*
X0609000Y0426979D02*
X0612750Y0426979D01*
X0612750Y0426481D02*
X0609000Y0426481D01*
X0609000Y0425982D02*
X0613018Y0425982D01*
X0613516Y0425484D02*
X0609000Y0425484D01*
X0609000Y0424985D02*
X0614015Y0424985D01*
X0614513Y0424487D02*
X0609000Y0424487D01*
X0609000Y0423988D02*
X0615012Y0423988D01*
X0615250Y0423490D02*
X0609000Y0423490D01*
X0609000Y0422991D02*
X0615250Y0422991D01*
X0615250Y0422493D02*
X0609000Y0422493D01*
X0609000Y0421994D02*
X0615250Y0421994D01*
X0610659Y0431466D02*
X0602966Y0431466D01*
D139*
X0597868Y0436630D03*
X0595309Y0436630D03*
X0592750Y0436630D03*
X0590191Y0436630D03*
X0587632Y0436630D03*
D42*
X0586844Y0426000D03*
X0598656Y0426000D03*
D101*
X0546000Y0502250D03*
X0537000Y0502250D03*
X0537000Y0515000D03*
X0546000Y0515000D03*
D57*
X0571018Y0499774D03*
X0571018Y0496624D03*
X0571018Y0493474D03*
X0571018Y0490325D03*
X0571018Y0487175D03*
X0571018Y0484026D03*
X0571018Y0480876D03*
X0571018Y0477726D03*
X0604482Y0477726D03*
X0604482Y0480876D03*
X0604482Y0484026D03*
X0604482Y0487175D03*
X0604482Y0490325D03*
X0604482Y0493474D03*
X0604482Y0496624D03*
X0604482Y0499774D03*
D108*
X0598774Y0505482D03*
X0595624Y0505482D03*
X0592474Y0505482D03*
X0589325Y0505482D03*
X0586175Y0505482D03*
X0583026Y0505482D03*
X0579876Y0505482D03*
X0576726Y0505482D03*
X0576726Y0472018D03*
X0579876Y0472018D03*
X0583026Y0472018D03*
X0586175Y0472018D03*
X0589325Y0472018D03*
X0592474Y0472018D03*
X0595624Y0472018D03*
X0598774Y0472018D03*
D63*
X0554000Y0496075D03*
X0554000Y0502675D03*
X0554000Y0510450D03*
X0554000Y0517050D03*
X0590250Y0517675D03*
X0590250Y0511075D03*
D62*
X0562750Y0521250D03*
D127*
X0560750Y0499250D03*
X0564750Y0499250D03*
D61*
X0592051Y0456250D03*
X0610949Y0456250D03*
D121*
X0588419Y0523366D03*
X0588419Y0531634D03*
X0572081Y0531634D03*
X0572081Y0523366D03*
D56*
X0579000Y0457500D03*
D49*
X0579000Y0448250D03*
X0640000Y0420000D02*
G75*
%LPD*%
D116*
X0731500Y0440625D03*
X0754000Y0440625D03*
D82*
X0726500Y0421875D02*
X0721500Y0421875D01*
X0721500Y0429375D01*
X0724625Y0432500D01*
X0731500Y0432500D01*
X0732750Y0431250D01*
X0732750Y0428750D01*
X0727750Y0428750D01*
X0726500Y0427500D01*
X0726500Y0421875D01*
X0726500Y0421994D02*
X0721500Y0421994D01*
X0721500Y0422493D02*
X0726500Y0422493D01*
X0726500Y0422991D02*
X0721500Y0422991D01*
X0721500Y0423490D02*
X0726500Y0423490D01*
X0726500Y0423988D02*
X0721500Y0423988D01*
X0721500Y0424487D02*
X0726500Y0424487D01*
X0726500Y0424985D02*
X0721500Y0424985D01*
X0721500Y0425484D02*
X0726500Y0425484D01*
X0726500Y0425982D02*
X0721500Y0425982D01*
X0721500Y0426481D02*
X0726500Y0426481D01*
X0726500Y0426979D02*
X0721500Y0426979D01*
X0721500Y0427478D02*
X0726500Y0427478D01*
X0726976Y0427976D02*
X0721500Y0427976D01*
X0721500Y0428475D02*
X0727475Y0428475D01*
X0724089Y0431964D02*
X0732036Y0431964D01*
X0732534Y0431466D02*
X0723591Y0431466D01*
X0723092Y0430967D02*
X0732750Y0430967D01*
X0732750Y0430469D02*
X0722594Y0430469D01*
X0722095Y0429970D02*
X0732750Y0429970D01*
X0732750Y0429472D02*
X0721597Y0429472D01*
X0721500Y0428973D02*
X0732750Y0428973D01*
X0731537Y0432463D02*
X0724588Y0432463D01*
X0752750Y0431250D02*
X0752750Y0428750D01*
X0757750Y0428750D01*
X0759000Y0427500D01*
X0759000Y0421875D01*
X0765250Y0421875D01*
X0765250Y0423750D01*
X0762750Y0426250D01*
X0762750Y0429375D01*
X0760250Y0431875D01*
X0753375Y0431875D01*
X0752750Y0431250D01*
X0752750Y0430967D02*
X0761158Y0430967D01*
X0761656Y0430469D02*
X0752750Y0430469D01*
X0752750Y0429970D02*
X0762155Y0429970D01*
X0762653Y0429472D02*
X0752750Y0429472D01*
X0752750Y0428973D02*
X0762750Y0428973D01*
X0762750Y0428475D02*
X0758025Y0428475D01*
X0758524Y0427976D02*
X0762750Y0427976D01*
X0762750Y0427478D02*
X0759000Y0427478D01*
X0759000Y0426979D02*
X0762750Y0426979D01*
X0762750Y0426481D02*
X0759000Y0426481D01*
X0759000Y0425982D02*
X0763018Y0425982D01*
X0763516Y0425484D02*
X0759000Y0425484D01*
X0759000Y0424985D02*
X0764015Y0424985D01*
X0764513Y0424487D02*
X0759000Y0424487D01*
X0759000Y0423988D02*
X0765012Y0423988D01*
X0765250Y0423490D02*
X0759000Y0423490D01*
X0759000Y0422991D02*
X0765250Y0422991D01*
X0765250Y0422493D02*
X0759000Y0422493D01*
X0759000Y0421994D02*
X0765250Y0421994D01*
X0760659Y0431466D02*
X0752966Y0431466D01*
D139*
X0747868Y0436630D03*
X0745309Y0436630D03*
X0742750Y0436630D03*
X0740191Y0436630D03*
X0737632Y0436630D03*
D42*
X0736844Y0426000D03*
X0748656Y0426000D03*
D101*
X0696000Y0502250D03*
X0687000Y0502250D03*
X0687000Y0515000D03*
X0696000Y0515000D03*
D57*
X0721018Y0499774D03*
X0721018Y0496624D03*
X0721018Y0493474D03*
X0721018Y0490325D03*
X0721018Y0487175D03*
X0721018Y0484026D03*
X0721018Y0480876D03*
X0721018Y0477726D03*
X0754482Y0477726D03*
X0754482Y0480876D03*
X0754482Y0484026D03*
X0754482Y0487175D03*
X0754482Y0490325D03*
X0754482Y0493474D03*
X0754482Y0496624D03*
X0754482Y0499774D03*
D108*
X0748774Y0505482D03*
X0745624Y0505482D03*
X0742474Y0505482D03*
X0739325Y0505482D03*
X0736175Y0505482D03*
X0733026Y0505482D03*
X0729876Y0505482D03*
X0726726Y0505482D03*
X0726726Y0472018D03*
X0729876Y0472018D03*
X0733026Y0472018D03*
X0736175Y0472018D03*
X0739325Y0472018D03*
X0742474Y0472018D03*
X0745624Y0472018D03*
X0748774Y0472018D03*
D63*
X0704000Y0496075D03*
X0704000Y0502675D03*
X0704000Y0510450D03*
X0704000Y0517050D03*
X0740250Y0517675D03*
X0740250Y0511075D03*
D62*
X0712750Y0521250D03*
D127*
X0710750Y0499250D03*
X0714750Y0499250D03*
D61*
X0742051Y0456250D03*
X0760949Y0456250D03*
D121*
X0738419Y0523366D03*
X0738419Y0531634D03*
X0722081Y0531634D03*
X0722081Y0523366D03*
D56*
X0729000Y0457500D03*
D49*
X0729000Y0448250D03*
X0790000Y0420000D02*
G75*
%LPD*%
D128*
X0861500Y0445000D03*
X0861500Y0515000D03*
X0940000Y0420000D02*
G75*
%LPD*%
D128*
X1011500Y0445000D03*
X1011500Y0515000D03*
X1090000Y0420000D02*
G75*
%LPD*%
D128*
X1161500Y0445000D03*
X1161500Y0515000D03*
X1240000Y0420000D02*
G75*
%LPD*%
D128*
X1311500Y0445000D03*
X1311500Y0515000D03*
X0040000Y0550000D02*
G75*
%LPD*%
X0380000Y0550000D02*
G75*
%LPD*%
X0720000Y0550000D02*
G75*
%LPD*%
X1060000Y0550000D02*
G75*
%LPD*%
X0040000Y0800000D02*
G75*
%LPD*%
D121*
X0063331Y0803366D03*
X0063331Y0811634D03*
X0079669Y0811634D03*
X0079669Y0803366D03*
X0103331Y0803366D03*
X0103331Y0811634D03*
X0119669Y0811634D03*
X0119669Y0803366D03*
X0143331Y0803366D03*
X0143331Y0811634D03*
X0159669Y0811634D03*
X0159669Y0803366D03*
D15*
X0141815Y0876937D03*
X0139059Y0876937D03*
X0136303Y0876937D03*
X0133547Y0876937D03*
X0130791Y0876937D03*
X0128035Y0876937D03*
X0125280Y0876937D03*
X0122524Y0876937D03*
X0119768Y0876937D03*
X0117012Y0876937D03*
X0114256Y0876937D03*
X0111500Y0876937D03*
X0108744Y0876937D03*
X0105988Y0876937D03*
X0103232Y0876937D03*
X0100476Y0876937D03*
X0097720Y0876937D03*
X0094965Y0876937D03*
X0092209Y0876937D03*
X0089453Y0876937D03*
X0086697Y0876937D03*
X0083941Y0876937D03*
X0081185Y0876937D03*
D101*
X0087000Y0810000D03*
X0096000Y0810000D03*
X0190000Y0800000D02*
G75*
%LPD*%
D121*
X0213331Y0803366D03*
X0213331Y0811634D03*
X0229669Y0811634D03*
X0229669Y0803366D03*
X0253331Y0803366D03*
X0253331Y0811634D03*
X0269669Y0811634D03*
X0269669Y0803366D03*
X0293331Y0803366D03*
X0293331Y0811634D03*
X0309669Y0811634D03*
X0309669Y0803366D03*
D15*
X0291815Y0876937D03*
X0289059Y0876937D03*
X0286303Y0876937D03*
X0283547Y0876937D03*
X0280791Y0876937D03*
X0278035Y0876937D03*
X0275280Y0876937D03*
X0272524Y0876937D03*
X0269768Y0876937D03*
X0267012Y0876937D03*
X0264256Y0876937D03*
X0261500Y0876937D03*
X0258744Y0876937D03*
X0255988Y0876937D03*
X0253232Y0876937D03*
X0250476Y0876937D03*
X0247720Y0876937D03*
X0244965Y0876937D03*
X0242209Y0876937D03*
X0239453Y0876937D03*
X0236697Y0876937D03*
X0233941Y0876937D03*
X0231185Y0876937D03*
D101*
X0237000Y0810000D03*
X0246000Y0810000D03*
X0340000Y0800000D02*
G75*
%LPD*%
D121*
X0363331Y0803366D03*
X0363331Y0811634D03*
X0379669Y0811634D03*
X0379669Y0803366D03*
X0403331Y0803366D03*
X0403331Y0811634D03*
X0419669Y0811634D03*
X0419669Y0803366D03*
X0443331Y0803366D03*
X0443331Y0811634D03*
X0459669Y0811634D03*
X0459669Y0803366D03*
D15*
X0441815Y0876937D03*
X0439059Y0876937D03*
X0436303Y0876937D03*
X0433547Y0876937D03*
X0430791Y0876937D03*
X0428035Y0876937D03*
X0425280Y0876937D03*
X0422524Y0876937D03*
X0419768Y0876937D03*
X0417012Y0876937D03*
X0414256Y0876937D03*
X0411500Y0876937D03*
X0408744Y0876937D03*
X0405988Y0876937D03*
X0403232Y0876937D03*
X0400476Y0876937D03*
X0397720Y0876937D03*
X0394965Y0876937D03*
X0392209Y0876937D03*
X0389453Y0876937D03*
X0386697Y0876937D03*
X0383941Y0876937D03*
X0381185Y0876937D03*
D101*
X0387000Y0810000D03*
X0396000Y0810000D03*
X0490000Y0800000D02*
G75*
%LPD*%
D121*
X0513331Y0803366D03*
X0513331Y0811634D03*
X0529669Y0811634D03*
X0529669Y0803366D03*
X0553331Y0803366D03*
X0553331Y0811634D03*
X0569669Y0811634D03*
X0569669Y0803366D03*
X0593331Y0803366D03*
X0593331Y0811634D03*
X0609669Y0811634D03*
X0609669Y0803366D03*
D15*
X0591815Y0876937D03*
X0589059Y0876937D03*
X0586303Y0876937D03*
X0583547Y0876937D03*
X0580791Y0876937D03*
X0578035Y0876937D03*
X0575280Y0876937D03*
X0572524Y0876937D03*
X0569768Y0876937D03*
X0567012Y0876937D03*
X0564256Y0876937D03*
X0561500Y0876937D03*
X0558744Y0876937D03*
X0555988Y0876937D03*
X0553232Y0876937D03*
X0550476Y0876937D03*
X0547720Y0876937D03*
X0544965Y0876937D03*
X0542209Y0876937D03*
X0539453Y0876937D03*
X0536697Y0876937D03*
X0533941Y0876937D03*
X0531185Y0876937D03*
D101*
X0537000Y0810000D03*
X0546000Y0810000D03*
X0640000Y0800000D02*
G75*
%LPD*%
D121*
X0663331Y0803366D03*
X0663331Y0811634D03*
X0679669Y0811634D03*
X0679669Y0803366D03*
X0703331Y0803366D03*
X0703331Y0811634D03*
X0719669Y0811634D03*
X0719669Y0803366D03*
X0743331Y0803366D03*
X0743331Y0811634D03*
X0759669Y0811634D03*
X0759669Y0803366D03*
D15*
X0741815Y0876937D03*
X0739059Y0876937D03*
X0736303Y0876937D03*
X0733547Y0876937D03*
X0730791Y0876937D03*
X0728035Y0876937D03*
X0725280Y0876937D03*
X0722524Y0876937D03*
X0719768Y0876937D03*
X0717012Y0876937D03*
X0714256Y0876937D03*
X0711500Y0876937D03*
X0708744Y0876937D03*
X0705988Y0876937D03*
X0703232Y0876937D03*
X0700476Y0876937D03*
X0697720Y0876937D03*
X0694965Y0876937D03*
X0692209Y0876937D03*
X0689453Y0876937D03*
X0686697Y0876937D03*
X0683941Y0876937D03*
X0681185Y0876937D03*
D101*
X0687000Y0810000D03*
X0696000Y0810000D03*
X0790000Y0800000D02*
G75*
%LPD*%
D105*
X0841950Y0907500D03*
X0848550Y0907500D03*
D101*
X0855750Y0907500D03*
X0864750Y0907500D03*
D134*
X0865339Y0868524D03*
X0867898Y0868524D03*
X0870457Y0868524D03*
X0862780Y0868524D03*
X0860220Y0868524D03*
X0857661Y0868524D03*
X0855102Y0868524D03*
X0852543Y0868524D03*
X0852543Y0846476D03*
X0855102Y0846476D03*
X0857661Y0846476D03*
X0860220Y0846476D03*
X0862780Y0846476D03*
X0865339Y0846476D03*
X0867898Y0846476D03*
X0870457Y0846476D03*
D117*
X0861500Y0857500D03*
D61*
X0886426Y0856250D03*
X0905324Y0856250D03*
D63*
X0836500Y0853300D03*
X0836500Y0846700D03*
D64*
X0834000Y0865000D03*
X0834000Y0870000D03*
X0834000Y0875000D03*
X0834000Y0880000D03*
X0834000Y0885000D03*
X0834000Y0890000D03*
X0834000Y0895000D03*
X0811500Y0895000D03*
X0811500Y0890000D03*
X0811500Y0885000D03*
X0811500Y0880000D03*
X0811500Y0875000D03*
X0811500Y0870000D03*
X0811500Y0865000D03*
D13*
X0817169Y0842510D03*
X0817169Y0846250D03*
X0817169Y0849990D03*
X0825831Y0849990D03*
X0825831Y0846250D03*
X0825831Y0842510D03*
X0940000Y0800000D02*
G75*
%LPD*%
D105*
X0991950Y0907500D03*
X0998550Y0907500D03*
D101*
X1005750Y0907500D03*
X1014750Y0907500D03*
D134*
X1015339Y0868524D03*
X1017898Y0868524D03*
X1020457Y0868524D03*
X1012780Y0868524D03*
X1010220Y0868524D03*
X1007661Y0868524D03*
X1005102Y0868524D03*
X1002543Y0868524D03*
X1002543Y0846476D03*
X1005102Y0846476D03*
X1007661Y0846476D03*
X1010220Y0846476D03*
X1012780Y0846476D03*
X1015339Y0846476D03*
X1017898Y0846476D03*
X1020457Y0846476D03*
D117*
X1011500Y0857500D03*
D61*
X1036426Y0856250D03*
X1055324Y0856250D03*
D63*
X0986500Y0853300D03*
X0986500Y0846700D03*
D64*
X0984000Y0865000D03*
X0984000Y0870000D03*
X0984000Y0875000D03*
X0984000Y0880000D03*
X0984000Y0885000D03*
X0984000Y0890000D03*
X0984000Y0895000D03*
X0961500Y0895000D03*
X0961500Y0890000D03*
X0961500Y0885000D03*
X0961500Y0880000D03*
X0961500Y0875000D03*
X0961500Y0870000D03*
X0961500Y0865000D03*
D13*
X0967169Y0842510D03*
X0967169Y0846250D03*
X0967169Y0849990D03*
X0975831Y0849990D03*
X0975831Y0846250D03*
X0975831Y0842510D03*
X1090000Y0800000D02*
G75*
%LPD*%
D105*
X1141950Y0907500D03*
X1148550Y0907500D03*
D101*
X1155750Y0907500D03*
X1164750Y0907500D03*
D134*
X1165339Y0868524D03*
X1167898Y0868524D03*
X1170457Y0868524D03*
X1162780Y0868524D03*
X1160220Y0868524D03*
X1157661Y0868524D03*
X1155102Y0868524D03*
X1152543Y0868524D03*
X1152543Y0846476D03*
X1155102Y0846476D03*
X1157661Y0846476D03*
X1160220Y0846476D03*
X1162780Y0846476D03*
X1165339Y0846476D03*
X1167898Y0846476D03*
X1170457Y0846476D03*
D117*
X1161500Y0857500D03*
D61*
X1186426Y0856250D03*
X1205324Y0856250D03*
D63*
X1136500Y0853300D03*
X1136500Y0846700D03*
D64*
X1134000Y0865000D03*
X1134000Y0870000D03*
X1134000Y0875000D03*
X1134000Y0880000D03*
X1134000Y0885000D03*
X1134000Y0890000D03*
X1134000Y0895000D03*
X1111500Y0895000D03*
X1111500Y0890000D03*
X1111500Y0885000D03*
X1111500Y0880000D03*
X1111500Y0875000D03*
X1111500Y0870000D03*
X1111500Y0865000D03*
D13*
X1117169Y0842510D03*
X1117169Y0846250D03*
X1117169Y0849990D03*
X1125831Y0849990D03*
X1125831Y0846250D03*
X1125831Y0842510D03*
X1240000Y0800000D02*
G75*
%LPD*%
D105*
X1291950Y0907500D03*
X1298550Y0907500D03*
D101*
X1305750Y0907500D03*
X1314750Y0907500D03*
D134*
X1315339Y0868524D03*
X1317898Y0868524D03*
X1320457Y0868524D03*
X1312780Y0868524D03*
X1310220Y0868524D03*
X1307661Y0868524D03*
X1305102Y0868524D03*
X1302543Y0868524D03*
X1302543Y0846476D03*
X1305102Y0846476D03*
X1307661Y0846476D03*
X1310220Y0846476D03*
X1312780Y0846476D03*
X1315339Y0846476D03*
X1317898Y0846476D03*
X1320457Y0846476D03*
D117*
X1311500Y0857500D03*
D61*
X1336426Y0856250D03*
X1355324Y0856250D03*
D63*
X1286500Y0853300D03*
X1286500Y0846700D03*
D64*
X1284000Y0865000D03*
X1284000Y0870000D03*
X1284000Y0875000D03*
X1284000Y0880000D03*
X1284000Y0885000D03*
X1284000Y0890000D03*
X1284000Y0895000D03*
X1261500Y0895000D03*
X1261500Y0890000D03*
X1261500Y0885000D03*
X1261500Y0880000D03*
X1261500Y0875000D03*
X1261500Y0870000D03*
X1261500Y0865000D03*
D13*
X1267169Y0842510D03*
X1267169Y0846250D03*
X1267169Y0849990D03*
X1275831Y0849990D03*
X1275831Y0846250D03*
X1275831Y0842510D03*
X1280000Y0170000D02*
G75*
%LPD*%
D101*
X1355500Y0180000D03*
X1364500Y0180000D03*
D64*
X1325000Y0178750D03*
X1325000Y0183750D03*
X1325000Y0188750D03*
X1325000Y0193750D03*
X1325000Y0198750D03*
X1325000Y0203750D03*
X1325000Y0208750D03*
X1347500Y0208750D03*
X1347500Y0203750D03*
X1347500Y0198750D03*
X1347500Y0193750D03*
X1347500Y0188750D03*
X1347500Y0183750D03*
X1347500Y0178750D03*
X1280000Y0360000D02*
G75*
%LPD*%
D101*
X1355500Y0370000D03*
X1364500Y0370000D03*
D64*
X1325000Y0368750D03*
X1325000Y0373750D03*
X1325000Y0378750D03*
X1325000Y0383750D03*
X1325000Y0388750D03*
X1325000Y0393750D03*
X1325000Y0398750D03*
X1347500Y0398750D03*
X1347500Y0393750D03*
X1347500Y0388750D03*
X1347500Y0383750D03*
X1347500Y0378750D03*
X1347500Y0373750D03*
X1347500Y0368750D03*
M02*
