G75*
G70*
%OFA0B0*%
%FSLAX25Y25*%
%IPPOS*%
%LPD*%
%AMOC8*
5,1,8,0,0,1.08239X$1,22.5*
%
%ADD105R,0.03900X0.04300*%
%ADD108R,0.01772X0.02953*%
%ADD113R,0.07087X0.25984*%
%ADD125R,0.04724X0.02165*%
%ADD18R,0.09000X0.09600*%
%ADD20R,0.10500X0.10000*%
%ADD22R,0.07087X0.10630*%
%ADD24R,0.08661X0.04000*%
%ADD36R,0.07000X0.06000*%
%ADD43R,0.05000X0.02500*%
%ADD46R,0.03937X0.11811*%
%ADD47R,0.03268X0.02480*%
%ADD49R,0.05000X0.03000*%
%ADD56R,0.10000X0.10500*%
%ADD57R,0.02953X0.01772*%
%ADD61R,0.11811X0.05512*%
%ADD63R,0.04300X0.03900*%
%ADD64R,0.03500X0.02000*%
%ADD77R,0.06000X0.10000*%
%ADD81R,0.03000X0.05000*%
%ADD89R,0.02165X0.04724*%
X0040000Y0040000D02*
G75*
%LPD*%
D105*
X0133200Y0082500D03*
X0139800Y0082500D03*
X0151950Y0122500D03*
X0158550Y0122500D03*
D36*
X0162250Y0133750D03*
X0148250Y0133750D03*
D63*
X0137750Y0110800D03*
X0137750Y0104200D03*
X0091500Y0098300D03*
X0091500Y0091700D03*
D77*
X0096500Y0107500D03*
X0106500Y0107500D03*
X0116500Y0107500D03*
X0126500Y0107500D03*
X0126500Y0137500D03*
X0116500Y0137500D03*
X0106500Y0137500D03*
X0096500Y0137500D03*
D64*
X0102750Y0067500D03*
X0102750Y0072500D03*
X0102750Y0077500D03*
X0102750Y0082500D03*
X0102750Y0087500D03*
X0102750Y0092500D03*
X0102750Y0097500D03*
X0125250Y0097500D03*
X0125250Y0092500D03*
X0125250Y0087500D03*
X0125250Y0082500D03*
X0125250Y0077500D03*
X0125250Y0072500D03*
X0125250Y0067500D03*
X0190000Y0040000D02*
G75*
%LPD*%
D105*
X0283200Y0082500D03*
X0289800Y0082500D03*
X0301950Y0122500D03*
X0308550Y0122500D03*
D36*
X0312250Y0133750D03*
X0298250Y0133750D03*
D63*
X0287750Y0110800D03*
X0287750Y0104200D03*
X0241500Y0098300D03*
X0241500Y0091700D03*
D77*
X0246500Y0107500D03*
X0256500Y0107500D03*
X0266500Y0107500D03*
X0276500Y0107500D03*
X0276500Y0137500D03*
X0266500Y0137500D03*
X0256500Y0137500D03*
X0246500Y0137500D03*
D64*
X0252750Y0067500D03*
X0252750Y0072500D03*
X0252750Y0077500D03*
X0252750Y0082500D03*
X0252750Y0087500D03*
X0252750Y0092500D03*
X0252750Y0097500D03*
X0275250Y0097500D03*
X0275250Y0092500D03*
X0275250Y0087500D03*
X0275250Y0082500D03*
X0275250Y0077500D03*
X0275250Y0072500D03*
X0275250Y0067500D03*
X0340000Y0040000D02*
G75*
%LPD*%
D105*
X0433200Y0082500D03*
X0439800Y0082500D03*
X0451950Y0122500D03*
X0458550Y0122500D03*
D36*
X0462250Y0133750D03*
X0448250Y0133750D03*
D63*
X0437750Y0110800D03*
X0437750Y0104200D03*
X0391500Y0098300D03*
X0391500Y0091700D03*
D77*
X0396500Y0107500D03*
X0406500Y0107500D03*
X0416500Y0107500D03*
X0426500Y0107500D03*
X0426500Y0137500D03*
X0416500Y0137500D03*
X0406500Y0137500D03*
X0396500Y0137500D03*
D64*
X0402750Y0067500D03*
X0402750Y0072500D03*
X0402750Y0077500D03*
X0402750Y0082500D03*
X0402750Y0087500D03*
X0402750Y0092500D03*
X0402750Y0097500D03*
X0425250Y0097500D03*
X0425250Y0092500D03*
X0425250Y0087500D03*
X0425250Y0082500D03*
X0425250Y0077500D03*
X0425250Y0072500D03*
X0425250Y0067500D03*
X0490000Y0040000D02*
G75*
%LPD*%
D105*
X0583200Y0082500D03*
X0589800Y0082500D03*
X0601950Y0122500D03*
X0608550Y0122500D03*
D36*
X0612250Y0133750D03*
X0598250Y0133750D03*
D63*
X0587750Y0110800D03*
X0587750Y0104200D03*
X0541500Y0098300D03*
X0541500Y0091700D03*
D77*
X0546500Y0107500D03*
X0556500Y0107500D03*
X0566500Y0107500D03*
X0576500Y0107500D03*
X0576500Y0137500D03*
X0566500Y0137500D03*
X0556500Y0137500D03*
X0546500Y0137500D03*
D64*
X0552750Y0067500D03*
X0552750Y0072500D03*
X0552750Y0077500D03*
X0552750Y0082500D03*
X0552750Y0087500D03*
X0552750Y0092500D03*
X0552750Y0097500D03*
X0575250Y0097500D03*
X0575250Y0092500D03*
X0575250Y0087500D03*
X0575250Y0082500D03*
X0575250Y0077500D03*
X0575250Y0072500D03*
X0575250Y0067500D03*
X0640000Y0040000D02*
G75*
%LPD*%
D105*
X0733200Y0082500D03*
X0739800Y0082500D03*
X0751950Y0122500D03*
X0758550Y0122500D03*
D36*
X0762250Y0133750D03*
X0748250Y0133750D03*
D63*
X0737750Y0110800D03*
X0737750Y0104200D03*
X0691500Y0098300D03*
X0691500Y0091700D03*
D77*
X0696500Y0107500D03*
X0706500Y0107500D03*
X0716500Y0107500D03*
X0726500Y0107500D03*
X0726500Y0137500D03*
X0716500Y0137500D03*
X0706500Y0137500D03*
X0696500Y0137500D03*
D64*
X0702750Y0067500D03*
X0702750Y0072500D03*
X0702750Y0077500D03*
X0702750Y0082500D03*
X0702750Y0087500D03*
X0702750Y0092500D03*
X0702750Y0097500D03*
X0725250Y0097500D03*
X0725250Y0092500D03*
X0725250Y0087500D03*
X0725250Y0082500D03*
X0725250Y0077500D03*
X0725250Y0072500D03*
X0725250Y0067500D03*
X0790000Y0040000D02*
G75*
%LPD*%
D63*
X0824000Y0064200D03*
X0824000Y0070800D03*
X0824000Y0079200D03*
X0816500Y0079200D03*
X0816500Y0085800D03*
X0824000Y0085800D03*
X0824000Y0094200D03*
X0816500Y0094200D03*
X0816500Y0100800D03*
X0824000Y0100800D03*
X0811500Y0109200D03*
X0811500Y0115800D03*
X0834000Y0070800D03*
X0834000Y0064200D03*
X0887750Y0054550D03*
X0887750Y0047950D03*
D36*
X0826000Y0127500D03*
X0812000Y0127500D03*
D105*
X0843200Y0092500D03*
X0849800Y0092500D03*
X0858200Y0091250D03*
X0864800Y0091250D03*
X0847300Y0052500D03*
X0840700Y0052500D03*
D77*
X0846500Y0107500D03*
X0856500Y0107500D03*
X0866500Y0107500D03*
X0876500Y0107500D03*
X0876500Y0137500D03*
X0866500Y0137500D03*
X0856500Y0137500D03*
X0846500Y0137500D03*
D64*
X0854000Y0077500D03*
X0854000Y0072500D03*
X0854000Y0067500D03*
X0854000Y0062500D03*
X0854000Y0057500D03*
X0854000Y0052500D03*
X0854000Y0047500D03*
X0876500Y0047500D03*
X0876500Y0052500D03*
X0876500Y0057500D03*
X0876500Y0062500D03*
X0876500Y0067500D03*
X0876500Y0072500D03*
X0876500Y0077500D03*
X0940000Y0040000D02*
G75*
%LPD*%
D105*
X0963200Y0090000D03*
X0969800Y0090000D03*
X0969800Y0100000D03*
X0963200Y0100000D03*
X0963200Y0110000D03*
X0969800Y0110000D03*
X0969800Y0120000D03*
X0963200Y0120000D03*
X0963200Y0130000D03*
X0969800Y0130000D03*
X1003200Y0093750D03*
X1009800Y0093750D03*
X1048200Y0097500D03*
X1054800Y0097500D03*
D36*
X1058500Y0115000D03*
X1044500Y0115000D03*
D77*
X1026500Y0107500D03*
X1016500Y0107500D03*
X1006500Y0107500D03*
X0996500Y0107500D03*
X0996500Y0137500D03*
X1006500Y0137500D03*
X1016500Y0137500D03*
X1026500Y0137500D03*
D64*
X0996500Y0055000D03*
X0996500Y0060000D03*
X0996500Y0065000D03*
X0996500Y0070000D03*
X0996500Y0075000D03*
X0996500Y0080000D03*
X0996500Y0085000D03*
X1019000Y0085000D03*
X1019000Y0080000D03*
X1019000Y0075000D03*
X1019000Y0070000D03*
X1019000Y0065000D03*
X1019000Y0060000D03*
X1019000Y0055000D03*
D63*
X1025250Y0089200D03*
X1025250Y0095800D03*
X0986500Y0098300D03*
X0986500Y0091700D03*
X1090000Y0040000D02*
G75*
%LPD*%
D105*
X1113200Y0090000D03*
X1119800Y0090000D03*
X1119800Y0100000D03*
X1113200Y0100000D03*
X1113200Y0110000D03*
X1119800Y0110000D03*
X1119800Y0120000D03*
X1113200Y0120000D03*
X1113200Y0130000D03*
X1119800Y0130000D03*
X1153200Y0093750D03*
X1159800Y0093750D03*
X1198200Y0097500D03*
X1204800Y0097500D03*
D36*
X1208500Y0115000D03*
X1194500Y0115000D03*
D77*
X1176500Y0107500D03*
X1166500Y0107500D03*
X1156500Y0107500D03*
X1146500Y0107500D03*
X1146500Y0137500D03*
X1156500Y0137500D03*
X1166500Y0137500D03*
X1176500Y0137500D03*
D64*
X1146500Y0055000D03*
X1146500Y0060000D03*
X1146500Y0065000D03*
X1146500Y0070000D03*
X1146500Y0075000D03*
X1146500Y0080000D03*
X1146500Y0085000D03*
X1169000Y0085000D03*
X1169000Y0080000D03*
X1169000Y0075000D03*
X1169000Y0070000D03*
X1169000Y0065000D03*
X1169000Y0060000D03*
X1169000Y0055000D03*
D63*
X1175250Y0089200D03*
X1175250Y0095800D03*
X1136500Y0098300D03*
X1136500Y0091700D03*
X1240000Y0040000D02*
G75*
%LPD*%
D77*
X1296500Y0107500D03*
X1306500Y0107500D03*
X1316500Y0107500D03*
X1326500Y0107500D03*
X1326500Y0137500D03*
X1316500Y0137500D03*
X1306500Y0137500D03*
X1296500Y0137500D03*
D125*
X1348881Y0121240D03*
X1348881Y0113760D03*
X1359119Y0113760D03*
X1359119Y0117500D03*
X1359119Y0121240D03*
D43*
X1339000Y0119122D03*
X1339000Y0115878D03*
D18*
X1339000Y0117500D03*
X0040000Y0170000D02*
G75*
%LPD*%
D63*
X0410000Y0346700D03*
X0410000Y0353300D03*
X0420000Y0353300D03*
X0420000Y0346700D03*
D61*
X0305551Y0340000D03*
X0324449Y0340000D03*
D46*
X0281811Y0365709D03*
X0273937Y0365709D03*
X0266063Y0365709D03*
X0258189Y0365709D03*
X0216811Y0365709D03*
X0208937Y0365709D03*
X0201063Y0365709D03*
X0193189Y0365709D03*
X0151811Y0365709D03*
X0143937Y0365709D03*
X0136063Y0365709D03*
X0128189Y0365709D03*
D113*
X0118937Y0389724D03*
X0161063Y0389724D03*
X0183937Y0389724D03*
X0226063Y0389724D03*
X0248937Y0389724D03*
X0291063Y0389724D03*
D47*
X0395000Y0354528D03*
X0395000Y0345472D03*
X0435000Y0345472D03*
X0435000Y0354528D03*
X0490000Y0170000D02*
G75*
%LPD*%
D63*
X0860000Y0346700D03*
X0860000Y0353300D03*
X0870000Y0353300D03*
X0870000Y0346700D03*
D61*
X0755551Y0340000D03*
X0774449Y0340000D03*
D46*
X0731811Y0365709D03*
X0723937Y0365709D03*
X0716063Y0365709D03*
X0708189Y0365709D03*
X0666811Y0365709D03*
X0658937Y0365709D03*
X0651063Y0365709D03*
X0643189Y0365709D03*
X0601811Y0365709D03*
X0593937Y0365709D03*
X0586063Y0365709D03*
X0578189Y0365709D03*
D113*
X0568937Y0389724D03*
X0611063Y0389724D03*
X0633937Y0389724D03*
X0676063Y0389724D03*
X0698937Y0389724D03*
X0741063Y0389724D03*
D47*
X0845000Y0354528D03*
X0845000Y0345472D03*
X0885000Y0345472D03*
X0885000Y0354528D03*
X0940000Y0170000D02*
G75*
%LPD*%
D46*
X1033189Y0365709D03*
X1041063Y0365709D03*
X1048937Y0365709D03*
X1056811Y0365709D03*
X1093189Y0365709D03*
X1101063Y0365709D03*
X1108937Y0365709D03*
X1116811Y0365709D03*
X1153189Y0365709D03*
X1161063Y0365709D03*
X1168937Y0365709D03*
X1176811Y0365709D03*
D113*
X1186063Y0389724D03*
X1143937Y0389724D03*
X1126063Y0389724D03*
X1083937Y0389724D03*
X1066063Y0389724D03*
X1023937Y0389724D03*
D47*
X1140000Y0325472D03*
X1150000Y0325472D03*
X1150000Y0334528D03*
X1140000Y0334528D03*
D89*
X1138740Y0344881D03*
X1131260Y0344881D03*
X1131260Y0355119D03*
X1135000Y0355119D03*
X1138740Y0355119D03*
D63*
X1130000Y0333300D03*
X1130000Y0326700D03*
X0040000Y0420000D02*
G75*
%LPD*%
D105*
X0063200Y0502500D03*
X0069800Y0502500D03*
X0079450Y0502500D03*
X0086050Y0502500D03*
X0086050Y0515000D03*
X0079450Y0515000D03*
X0069800Y0515000D03*
X0063200Y0515000D03*
X0153825Y0510000D03*
X0160425Y0510000D03*
X0160425Y0502500D03*
X0153825Y0502500D03*
X0153825Y0495000D03*
X0160425Y0495000D03*
X0160425Y0487500D03*
X0153825Y0487500D03*
X0153825Y0480000D03*
X0160425Y0480000D03*
X0161675Y0448750D03*
X0155075Y0448750D03*
D125*
X0154869Y0464510D03*
X0154869Y0468250D03*
X0154869Y0471990D03*
X0144631Y0471990D03*
X0144631Y0464510D03*
D63*
X0114000Y0462950D03*
X0114000Y0469550D03*
X0101250Y0469550D03*
X0101250Y0462950D03*
X0087750Y0462950D03*
X0081500Y0462950D03*
X0081500Y0469550D03*
X0087750Y0469550D03*
X0067125Y0469550D03*
X0067125Y0462950D03*
X0066625Y0480450D03*
X0066625Y0487050D03*
D77*
X0096500Y0487500D03*
X0106500Y0487500D03*
X0116500Y0487500D03*
X0126500Y0487500D03*
X0126500Y0517500D03*
X0116500Y0517500D03*
X0106500Y0517500D03*
X0096500Y0517500D03*
D47*
X0060875Y0462347D03*
X0060875Y0471403D03*
X0060125Y0478597D03*
X0060125Y0487653D03*
X0074000Y0470778D03*
X0074000Y0461722D03*
X0094000Y0461722D03*
X0094000Y0470778D03*
X0107500Y0471028D03*
X0107500Y0461972D03*
X0120250Y0462222D03*
X0120250Y0471278D03*
X0190000Y0420000D02*
G75*
%LPD*%
D105*
X0213200Y0502500D03*
X0219800Y0502500D03*
X0229450Y0502500D03*
X0236050Y0502500D03*
X0236050Y0515000D03*
X0229450Y0515000D03*
X0219800Y0515000D03*
X0213200Y0515000D03*
X0303825Y0510000D03*
X0310425Y0510000D03*
X0310425Y0502500D03*
X0303825Y0502500D03*
X0303825Y0495000D03*
X0310425Y0495000D03*
X0310425Y0487500D03*
X0303825Y0487500D03*
X0303825Y0480000D03*
X0310425Y0480000D03*
X0311675Y0448750D03*
X0305075Y0448750D03*
D125*
X0304869Y0464510D03*
X0304869Y0468250D03*
X0304869Y0471990D03*
X0294631Y0471990D03*
X0294631Y0464510D03*
D63*
X0264000Y0462950D03*
X0264000Y0469550D03*
X0251250Y0469550D03*
X0251250Y0462950D03*
X0237750Y0462950D03*
X0231500Y0462950D03*
X0231500Y0469550D03*
X0237750Y0469550D03*
X0217125Y0469550D03*
X0217125Y0462950D03*
X0216625Y0480450D03*
X0216625Y0487050D03*
D77*
X0246500Y0487500D03*
X0256500Y0487500D03*
X0266500Y0487500D03*
X0276500Y0487500D03*
X0276500Y0517500D03*
X0266500Y0517500D03*
X0256500Y0517500D03*
X0246500Y0517500D03*
D47*
X0210875Y0462347D03*
X0210875Y0471403D03*
X0210125Y0478597D03*
X0210125Y0487653D03*
X0224000Y0470778D03*
X0224000Y0461722D03*
X0244000Y0461722D03*
X0244000Y0470778D03*
X0257500Y0471028D03*
X0257500Y0461972D03*
X0270250Y0462222D03*
X0270250Y0471278D03*
X0340000Y0420000D02*
G75*
%LPD*%
D105*
X0363200Y0502500D03*
X0369800Y0502500D03*
X0379450Y0502500D03*
X0386050Y0502500D03*
X0386050Y0515000D03*
X0379450Y0515000D03*
X0369800Y0515000D03*
X0363200Y0515000D03*
X0453825Y0510000D03*
X0460425Y0510000D03*
X0460425Y0502500D03*
X0453825Y0502500D03*
X0453825Y0495000D03*
X0460425Y0495000D03*
X0460425Y0487500D03*
X0453825Y0487500D03*
X0453825Y0480000D03*
X0460425Y0480000D03*
X0461675Y0448750D03*
X0455075Y0448750D03*
D125*
X0454869Y0464510D03*
X0454869Y0468250D03*
X0454869Y0471990D03*
X0444631Y0471990D03*
X0444631Y0464510D03*
D63*
X0414000Y0462950D03*
X0414000Y0469550D03*
X0401250Y0469550D03*
X0401250Y0462950D03*
X0387750Y0462950D03*
X0381500Y0462950D03*
X0381500Y0469550D03*
X0387750Y0469550D03*
X0367125Y0469550D03*
X0367125Y0462950D03*
X0366625Y0480450D03*
X0366625Y0487050D03*
D77*
X0396500Y0487500D03*
X0406500Y0487500D03*
X0416500Y0487500D03*
X0426500Y0487500D03*
X0426500Y0517500D03*
X0416500Y0517500D03*
X0406500Y0517500D03*
X0396500Y0517500D03*
D47*
X0360875Y0462347D03*
X0360875Y0471403D03*
X0360125Y0478597D03*
X0360125Y0487653D03*
X0374000Y0470778D03*
X0374000Y0461722D03*
X0394000Y0461722D03*
X0394000Y0470778D03*
X0407500Y0471028D03*
X0407500Y0461972D03*
X0420250Y0462222D03*
X0420250Y0471278D03*
X0490000Y0420000D02*
G75*
%LPD*%
D105*
X0513200Y0502500D03*
X0519800Y0502500D03*
X0529450Y0502500D03*
X0536050Y0502500D03*
X0536050Y0515000D03*
X0529450Y0515000D03*
X0519800Y0515000D03*
X0513200Y0515000D03*
X0603825Y0510000D03*
X0610425Y0510000D03*
X0610425Y0502500D03*
X0603825Y0502500D03*
X0603825Y0495000D03*
X0610425Y0495000D03*
X0610425Y0487500D03*
X0603825Y0487500D03*
X0603825Y0480000D03*
X0610425Y0480000D03*
X0611675Y0448750D03*
X0605075Y0448750D03*
D125*
X0604869Y0464510D03*
X0604869Y0468250D03*
X0604869Y0471990D03*
X0594631Y0471990D03*
X0594631Y0464510D03*
D63*
X0564000Y0462950D03*
X0564000Y0469550D03*
X0551250Y0469550D03*
X0551250Y0462950D03*
X0537750Y0462950D03*
X0531500Y0462950D03*
X0531500Y0469550D03*
X0537750Y0469550D03*
X0517125Y0469550D03*
X0517125Y0462950D03*
X0516625Y0480450D03*
X0516625Y0487050D03*
D77*
X0546500Y0487500D03*
X0556500Y0487500D03*
X0566500Y0487500D03*
X0576500Y0487500D03*
X0576500Y0517500D03*
X0566500Y0517500D03*
X0556500Y0517500D03*
X0546500Y0517500D03*
D47*
X0510875Y0462347D03*
X0510875Y0471403D03*
X0510125Y0478597D03*
X0510125Y0487653D03*
X0524000Y0470778D03*
X0524000Y0461722D03*
X0544000Y0461722D03*
X0544000Y0470778D03*
X0557500Y0471028D03*
X0557500Y0461972D03*
X0570250Y0462222D03*
X0570250Y0471278D03*
X0640000Y0420000D02*
G75*
%LPD*%
D105*
X0663200Y0502500D03*
X0669800Y0502500D03*
X0679450Y0502500D03*
X0686050Y0502500D03*
X0686050Y0515000D03*
X0679450Y0515000D03*
X0669800Y0515000D03*
X0663200Y0515000D03*
X0753825Y0510000D03*
X0760425Y0510000D03*
X0760425Y0502500D03*
X0753825Y0502500D03*
X0753825Y0495000D03*
X0760425Y0495000D03*
X0760425Y0487500D03*
X0753825Y0487500D03*
X0753825Y0480000D03*
X0760425Y0480000D03*
X0761675Y0448750D03*
X0755075Y0448750D03*
D125*
X0754869Y0464510D03*
X0754869Y0468250D03*
X0754869Y0471990D03*
X0744631Y0471990D03*
X0744631Y0464510D03*
D63*
X0714000Y0462950D03*
X0714000Y0469550D03*
X0701250Y0469550D03*
X0701250Y0462950D03*
X0687750Y0462950D03*
X0681500Y0462950D03*
X0681500Y0469550D03*
X0687750Y0469550D03*
X0667125Y0469550D03*
X0667125Y0462950D03*
X0666625Y0480450D03*
X0666625Y0487050D03*
D77*
X0696500Y0487500D03*
X0706500Y0487500D03*
X0716500Y0487500D03*
X0726500Y0487500D03*
X0726500Y0517500D03*
X0716500Y0517500D03*
X0706500Y0517500D03*
X0696500Y0517500D03*
D47*
X0660875Y0462347D03*
X0660875Y0471403D03*
X0660125Y0478597D03*
X0660125Y0487653D03*
X0674000Y0470778D03*
X0674000Y0461722D03*
X0694000Y0461722D03*
X0694000Y0470778D03*
X0707500Y0471028D03*
X0707500Y0461972D03*
X0720250Y0462222D03*
X0720250Y0471278D03*
X0790000Y0420000D02*
G75*
%LPD*%
D63*
X0824000Y0444200D03*
X0824000Y0450800D03*
X0824000Y0459200D03*
X0816500Y0459200D03*
X0816500Y0465800D03*
X0824000Y0465800D03*
X0824000Y0474200D03*
X0816500Y0474200D03*
X0816500Y0480800D03*
X0824000Y0480800D03*
X0811500Y0489200D03*
X0811500Y0495800D03*
X0834000Y0450800D03*
X0834000Y0444200D03*
X0887750Y0434550D03*
X0887750Y0427950D03*
D36*
X0826000Y0507500D03*
X0812000Y0507500D03*
D105*
X0843200Y0472500D03*
X0849800Y0472500D03*
X0858200Y0471250D03*
X0864800Y0471250D03*
X0847300Y0432500D03*
X0840700Y0432500D03*
D77*
X0846500Y0487500D03*
X0856500Y0487500D03*
X0866500Y0487500D03*
X0876500Y0487500D03*
X0876500Y0517500D03*
X0866500Y0517500D03*
X0856500Y0517500D03*
X0846500Y0517500D03*
D64*
X0854000Y0457500D03*
X0854000Y0452500D03*
X0854000Y0447500D03*
X0854000Y0442500D03*
X0854000Y0437500D03*
X0854000Y0432500D03*
X0854000Y0427500D03*
X0876500Y0427500D03*
X0876500Y0432500D03*
X0876500Y0437500D03*
X0876500Y0442500D03*
X0876500Y0447500D03*
X0876500Y0452500D03*
X0876500Y0457500D03*
X0940000Y0420000D02*
G75*
%LPD*%
D63*
X0974000Y0444200D03*
X0974000Y0450800D03*
X0974000Y0459200D03*
X0966500Y0459200D03*
X0966500Y0465800D03*
X0974000Y0465800D03*
X0974000Y0474200D03*
X0966500Y0474200D03*
X0966500Y0480800D03*
X0974000Y0480800D03*
X0961500Y0489200D03*
X0961500Y0495800D03*
X0984000Y0450800D03*
X0984000Y0444200D03*
X1037750Y0434550D03*
X1037750Y0427950D03*
D36*
X0976000Y0507500D03*
X0962000Y0507500D03*
D105*
X0993200Y0472500D03*
X0999800Y0472500D03*
X1008200Y0471250D03*
X1014800Y0471250D03*
X0997300Y0432500D03*
X0990700Y0432500D03*
D77*
X0996500Y0487500D03*
X1006500Y0487500D03*
X1016500Y0487500D03*
X1026500Y0487500D03*
X1026500Y0517500D03*
X1016500Y0517500D03*
X1006500Y0517500D03*
X0996500Y0517500D03*
D64*
X1004000Y0457500D03*
X1004000Y0452500D03*
X1004000Y0447500D03*
X1004000Y0442500D03*
X1004000Y0437500D03*
X1004000Y0432500D03*
X1004000Y0427500D03*
X1026500Y0427500D03*
X1026500Y0432500D03*
X1026500Y0437500D03*
X1026500Y0442500D03*
X1026500Y0447500D03*
X1026500Y0452500D03*
X1026500Y0457500D03*
X1090000Y0420000D02*
G75*
%LPD*%
D63*
X1124000Y0444200D03*
X1124000Y0450800D03*
X1124000Y0459200D03*
X1116500Y0459200D03*
X1116500Y0465800D03*
X1124000Y0465800D03*
X1124000Y0474200D03*
X1116500Y0474200D03*
X1116500Y0480800D03*
X1124000Y0480800D03*
X1111500Y0489200D03*
X1111500Y0495800D03*
X1134000Y0450800D03*
X1134000Y0444200D03*
X1187750Y0434550D03*
X1187750Y0427950D03*
D36*
X1126000Y0507500D03*
X1112000Y0507500D03*
D105*
X1143200Y0472500D03*
X1149800Y0472500D03*
X1158200Y0471250D03*
X1164800Y0471250D03*
X1147300Y0432500D03*
X1140700Y0432500D03*
D77*
X1146500Y0487500D03*
X1156500Y0487500D03*
X1166500Y0487500D03*
X1176500Y0487500D03*
X1176500Y0517500D03*
X1166500Y0517500D03*
X1156500Y0517500D03*
X1146500Y0517500D03*
D64*
X1154000Y0457500D03*
X1154000Y0452500D03*
X1154000Y0447500D03*
X1154000Y0442500D03*
X1154000Y0437500D03*
X1154000Y0432500D03*
X1154000Y0427500D03*
X1176500Y0427500D03*
X1176500Y0432500D03*
X1176500Y0437500D03*
X1176500Y0442500D03*
X1176500Y0447500D03*
X1176500Y0452500D03*
X1176500Y0457500D03*
X1240000Y0420000D02*
G75*
%LPD*%
D63*
X1274000Y0444200D03*
X1274000Y0450800D03*
X1274000Y0459200D03*
X1266500Y0459200D03*
X1266500Y0465800D03*
X1274000Y0465800D03*
X1274000Y0474200D03*
X1266500Y0474200D03*
X1266500Y0480800D03*
X1274000Y0480800D03*
X1261500Y0489200D03*
X1261500Y0495800D03*
X1284000Y0450800D03*
X1284000Y0444200D03*
X1337750Y0434550D03*
X1337750Y0427950D03*
D36*
X1276000Y0507500D03*
X1262000Y0507500D03*
D105*
X1293200Y0472500D03*
X1299800Y0472500D03*
X1308200Y0471250D03*
X1314800Y0471250D03*
X1297300Y0432500D03*
X1290700Y0432500D03*
D77*
X1296500Y0487500D03*
X1306500Y0487500D03*
X1316500Y0487500D03*
X1326500Y0487500D03*
X1326500Y0517500D03*
X1316500Y0517500D03*
X1306500Y0517500D03*
X1296500Y0517500D03*
D64*
X1304000Y0457500D03*
X1304000Y0452500D03*
X1304000Y0447500D03*
X1304000Y0442500D03*
X1304000Y0437500D03*
X1304000Y0432500D03*
X1304000Y0427500D03*
X1326500Y0427500D03*
X1326500Y0432500D03*
X1326500Y0437500D03*
X1326500Y0442500D03*
X1326500Y0447500D03*
X1326500Y0452500D03*
X1326500Y0457500D03*
X0040000Y0550000D02*
G75*
%LPD*%
D46*
X0133189Y0745709D03*
X0141063Y0745709D03*
X0148937Y0745709D03*
X0156811Y0745709D03*
X0193189Y0745709D03*
X0201063Y0745709D03*
X0208937Y0745709D03*
X0216811Y0745709D03*
X0253189Y0745709D03*
X0261063Y0745709D03*
X0268937Y0745709D03*
X0276811Y0745709D03*
D113*
X0286063Y0769724D03*
X0243937Y0769724D03*
X0226063Y0769724D03*
X0183937Y0769724D03*
X0166063Y0769724D03*
X0123937Y0769724D03*
D47*
X0240000Y0705472D03*
X0250000Y0705472D03*
X0250000Y0714528D03*
X0240000Y0714528D03*
D89*
X0238740Y0724881D03*
X0231260Y0724881D03*
X0231260Y0735119D03*
X0235000Y0735119D03*
X0238740Y0735119D03*
D63*
X0230000Y0713300D03*
X0230000Y0706700D03*
X0380000Y0550000D02*
G75*
%LPD*%
D46*
X0473189Y0745709D03*
X0481063Y0745709D03*
X0488937Y0745709D03*
X0496811Y0745709D03*
X0533189Y0745709D03*
X0541063Y0745709D03*
X0548937Y0745709D03*
X0556811Y0745709D03*
X0593189Y0745709D03*
X0601063Y0745709D03*
X0608937Y0745709D03*
X0616811Y0745709D03*
D113*
X0626063Y0769724D03*
X0583937Y0769724D03*
X0566063Y0769724D03*
X0523937Y0769724D03*
X0506063Y0769724D03*
X0463937Y0769724D03*
D47*
X0580000Y0705472D03*
X0590000Y0705472D03*
X0590000Y0714528D03*
X0580000Y0714528D03*
D89*
X0578740Y0724881D03*
X0571260Y0724881D03*
X0571260Y0735119D03*
X0575000Y0735119D03*
X0578740Y0735119D03*
D63*
X0570000Y0713300D03*
X0570000Y0706700D03*
X0720000Y0550000D02*
G75*
%LPD*%
D46*
X0813189Y0745709D03*
X0821063Y0745709D03*
X0828937Y0745709D03*
X0836811Y0745709D03*
X0873189Y0745709D03*
X0881063Y0745709D03*
X0888937Y0745709D03*
X0896811Y0745709D03*
X0933189Y0745709D03*
X0941063Y0745709D03*
X0948937Y0745709D03*
X0956811Y0745709D03*
D113*
X0966063Y0769724D03*
X0923937Y0769724D03*
X0906063Y0769724D03*
X0863937Y0769724D03*
X0846063Y0769724D03*
X0803937Y0769724D03*
D47*
X0920000Y0705472D03*
X0930000Y0705472D03*
X0930000Y0714528D03*
X0920000Y0714528D03*
D89*
X0918740Y0724881D03*
X0911260Y0724881D03*
X0911260Y0735119D03*
X0915000Y0735119D03*
X0918740Y0735119D03*
D63*
X0910000Y0713300D03*
X0910000Y0706700D03*
X1060000Y0550000D02*
G75*
%LPD*%
D46*
X1153189Y0745709D03*
X1161063Y0745709D03*
X1168937Y0745709D03*
X1176811Y0745709D03*
X1213189Y0745709D03*
X1221063Y0745709D03*
X1228937Y0745709D03*
X1236811Y0745709D03*
X1273189Y0745709D03*
X1281063Y0745709D03*
X1288937Y0745709D03*
X1296811Y0745709D03*
D113*
X1306063Y0769724D03*
X1263937Y0769724D03*
X1246063Y0769724D03*
X1203937Y0769724D03*
X1186063Y0769724D03*
X1143937Y0769724D03*
D47*
X1260000Y0705472D03*
X1270000Y0705472D03*
X1270000Y0714528D03*
X1260000Y0714528D03*
D89*
X1258740Y0724881D03*
X1251260Y0724881D03*
X1251260Y0735119D03*
X1255000Y0735119D03*
X1258740Y0735119D03*
D63*
X1250000Y0713300D03*
X1250000Y0706700D03*
X0040000Y0800000D02*
G75*
%LPD*%
D89*
X0075260Y0839881D03*
X0082740Y0839881D03*
X0082740Y0850119D03*
X0079000Y0850119D03*
X0075260Y0850119D03*
X0145260Y0848631D03*
X0149000Y0848631D03*
X0152740Y0848631D03*
X0152740Y0858869D03*
X0145260Y0858869D03*
D57*
X0128232Y0844774D03*
X0128232Y0841624D03*
X0128232Y0838474D03*
X0128232Y0835325D03*
X0128232Y0832175D03*
X0128232Y0829026D03*
X0128232Y0825876D03*
X0128232Y0822726D03*
X0094768Y0822726D03*
X0094768Y0825876D03*
X0094768Y0829026D03*
X0094768Y0832175D03*
X0094768Y0835325D03*
X0094768Y0838474D03*
X0094768Y0841624D03*
X0094768Y0844774D03*
D108*
X0100476Y0850482D03*
X0103626Y0850482D03*
X0106776Y0850482D03*
X0109925Y0850482D03*
X0113075Y0850482D03*
X0116224Y0850482D03*
X0119374Y0850482D03*
X0122524Y0850482D03*
X0122524Y0817018D03*
X0119374Y0817018D03*
X0116224Y0817018D03*
X0113075Y0817018D03*
X0109925Y0817018D03*
X0106776Y0817018D03*
X0103626Y0817018D03*
X0100476Y0817018D03*
D63*
X0149000Y0816700D03*
X0149000Y0823300D03*
X0149000Y0831700D03*
X0149000Y0838300D03*
X0136500Y0879200D03*
X0136500Y0885800D03*
X0086500Y0891700D03*
X0086500Y0898300D03*
X0084000Y0865800D03*
X0084000Y0859200D03*
X0074000Y0859200D03*
X0074000Y0865800D03*
D24*
X0064000Y0849437D03*
X0064000Y0840563D03*
D56*
X0064000Y0867500D03*
D49*
X0064000Y0858250D03*
D77*
X0096500Y0867500D03*
X0106500Y0867500D03*
X0116500Y0867500D03*
X0126500Y0867500D03*
X0126500Y0897500D03*
X0116500Y0897500D03*
X0106500Y0897500D03*
X0096500Y0897500D03*
D105*
X0075700Y0825000D03*
X0082300Y0825000D03*
X0082300Y0832500D03*
X0075700Y0832500D03*
X0079450Y0817500D03*
X0086050Y0817500D03*
X0134450Y0823750D03*
X0141050Y0823750D03*
X0145700Y0867500D03*
X0152300Y0867500D03*
X0082300Y0872500D03*
X0075700Y0872500D03*
X0075700Y0880000D03*
X0082300Y0880000D03*
X0190000Y0800000D02*
G75*
%LPD*%
D89*
X0225260Y0839881D03*
X0232740Y0839881D03*
X0232740Y0850119D03*
X0229000Y0850119D03*
X0225260Y0850119D03*
X0295260Y0848631D03*
X0299000Y0848631D03*
X0302740Y0848631D03*
X0302740Y0858869D03*
X0295260Y0858869D03*
D57*
X0278232Y0844774D03*
X0278232Y0841624D03*
X0278232Y0838474D03*
X0278232Y0835325D03*
X0278232Y0832175D03*
X0278232Y0829026D03*
X0278232Y0825876D03*
X0278232Y0822726D03*
X0244768Y0822726D03*
X0244768Y0825876D03*
X0244768Y0829026D03*
X0244768Y0832175D03*
X0244768Y0835325D03*
X0244768Y0838474D03*
X0244768Y0841624D03*
X0244768Y0844774D03*
D108*
X0250476Y0850482D03*
X0253626Y0850482D03*
X0256776Y0850482D03*
X0259925Y0850482D03*
X0263075Y0850482D03*
X0266224Y0850482D03*
X0269374Y0850482D03*
X0272524Y0850482D03*
X0272524Y0817018D03*
X0269374Y0817018D03*
X0266224Y0817018D03*
X0263075Y0817018D03*
X0259925Y0817018D03*
X0256776Y0817018D03*
X0253626Y0817018D03*
X0250476Y0817018D03*
D63*
X0299000Y0816700D03*
X0299000Y0823300D03*
X0299000Y0831700D03*
X0299000Y0838300D03*
X0286500Y0879200D03*
X0286500Y0885800D03*
X0236500Y0891700D03*
X0236500Y0898300D03*
X0234000Y0865800D03*
X0234000Y0859200D03*
X0224000Y0859200D03*
X0224000Y0865800D03*
D24*
X0214000Y0849437D03*
X0214000Y0840563D03*
D56*
X0214000Y0867500D03*
D49*
X0214000Y0858250D03*
D77*
X0246500Y0867500D03*
X0256500Y0867500D03*
X0266500Y0867500D03*
X0276500Y0867500D03*
X0276500Y0897500D03*
X0266500Y0897500D03*
X0256500Y0897500D03*
X0246500Y0897500D03*
D105*
X0225700Y0825000D03*
X0232300Y0825000D03*
X0232300Y0832500D03*
X0225700Y0832500D03*
X0229450Y0817500D03*
X0236050Y0817500D03*
X0284450Y0823750D03*
X0291050Y0823750D03*
X0295700Y0867500D03*
X0302300Y0867500D03*
X0232300Y0872500D03*
X0225700Y0872500D03*
X0225700Y0880000D03*
X0232300Y0880000D03*
X0340000Y0800000D02*
G75*
%LPD*%
D89*
X0375260Y0839881D03*
X0382740Y0839881D03*
X0382740Y0850119D03*
X0379000Y0850119D03*
X0375260Y0850119D03*
X0445260Y0848631D03*
X0449000Y0848631D03*
X0452740Y0848631D03*
X0452740Y0858869D03*
X0445260Y0858869D03*
D57*
X0428232Y0844774D03*
X0428232Y0841624D03*
X0428232Y0838474D03*
X0428232Y0835325D03*
X0428232Y0832175D03*
X0428232Y0829026D03*
X0428232Y0825876D03*
X0428232Y0822726D03*
X0394768Y0822726D03*
X0394768Y0825876D03*
X0394768Y0829026D03*
X0394768Y0832175D03*
X0394768Y0835325D03*
X0394768Y0838474D03*
X0394768Y0841624D03*
X0394768Y0844774D03*
D108*
X0400476Y0850482D03*
X0403626Y0850482D03*
X0406776Y0850482D03*
X0409925Y0850482D03*
X0413075Y0850482D03*
X0416224Y0850482D03*
X0419374Y0850482D03*
X0422524Y0850482D03*
X0422524Y0817018D03*
X0419374Y0817018D03*
X0416224Y0817018D03*
X0413075Y0817018D03*
X0409925Y0817018D03*
X0406776Y0817018D03*
X0403626Y0817018D03*
X0400476Y0817018D03*
D63*
X0449000Y0816700D03*
X0449000Y0823300D03*
X0449000Y0831700D03*
X0449000Y0838300D03*
X0436500Y0879200D03*
X0436500Y0885800D03*
X0386500Y0891700D03*
X0386500Y0898300D03*
X0384000Y0865800D03*
X0384000Y0859200D03*
X0374000Y0859200D03*
X0374000Y0865800D03*
D24*
X0364000Y0849437D03*
X0364000Y0840563D03*
D56*
X0364000Y0867500D03*
D49*
X0364000Y0858250D03*
D77*
X0396500Y0867500D03*
X0406500Y0867500D03*
X0416500Y0867500D03*
X0426500Y0867500D03*
X0426500Y0897500D03*
X0416500Y0897500D03*
X0406500Y0897500D03*
X0396500Y0897500D03*
D105*
X0375700Y0825000D03*
X0382300Y0825000D03*
X0382300Y0832500D03*
X0375700Y0832500D03*
X0379450Y0817500D03*
X0386050Y0817500D03*
X0434450Y0823750D03*
X0441050Y0823750D03*
X0445700Y0867500D03*
X0452300Y0867500D03*
X0382300Y0872500D03*
X0375700Y0872500D03*
X0375700Y0880000D03*
X0382300Y0880000D03*
X0490000Y0800000D02*
G75*
%LPD*%
D89*
X0525260Y0839881D03*
X0532740Y0839881D03*
X0532740Y0850119D03*
X0529000Y0850119D03*
X0525260Y0850119D03*
X0595260Y0848631D03*
X0599000Y0848631D03*
X0602740Y0848631D03*
X0602740Y0858869D03*
X0595260Y0858869D03*
D57*
X0578232Y0844774D03*
X0578232Y0841624D03*
X0578232Y0838474D03*
X0578232Y0835325D03*
X0578232Y0832175D03*
X0578232Y0829026D03*
X0578232Y0825876D03*
X0578232Y0822726D03*
X0544768Y0822726D03*
X0544768Y0825876D03*
X0544768Y0829026D03*
X0544768Y0832175D03*
X0544768Y0835325D03*
X0544768Y0838474D03*
X0544768Y0841624D03*
X0544768Y0844774D03*
D108*
X0550476Y0850482D03*
X0553626Y0850482D03*
X0556776Y0850482D03*
X0559925Y0850482D03*
X0563075Y0850482D03*
X0566224Y0850482D03*
X0569374Y0850482D03*
X0572524Y0850482D03*
X0572524Y0817018D03*
X0569374Y0817018D03*
X0566224Y0817018D03*
X0563075Y0817018D03*
X0559925Y0817018D03*
X0556776Y0817018D03*
X0553626Y0817018D03*
X0550476Y0817018D03*
D63*
X0599000Y0816700D03*
X0599000Y0823300D03*
X0599000Y0831700D03*
X0599000Y0838300D03*
X0586500Y0879200D03*
X0586500Y0885800D03*
X0536500Y0891700D03*
X0536500Y0898300D03*
X0534000Y0865800D03*
X0534000Y0859200D03*
X0524000Y0859200D03*
X0524000Y0865800D03*
D24*
X0514000Y0849437D03*
X0514000Y0840563D03*
D56*
X0514000Y0867500D03*
D49*
X0514000Y0858250D03*
D77*
X0546500Y0867500D03*
X0556500Y0867500D03*
X0566500Y0867500D03*
X0576500Y0867500D03*
X0576500Y0897500D03*
X0566500Y0897500D03*
X0556500Y0897500D03*
X0546500Y0897500D03*
D105*
X0525700Y0825000D03*
X0532300Y0825000D03*
X0532300Y0832500D03*
X0525700Y0832500D03*
X0529450Y0817500D03*
X0536050Y0817500D03*
X0584450Y0823750D03*
X0591050Y0823750D03*
X0595700Y0867500D03*
X0602300Y0867500D03*
X0532300Y0872500D03*
X0525700Y0872500D03*
X0525700Y0880000D03*
X0532300Y0880000D03*
X0640000Y0800000D02*
G75*
%LPD*%
D89*
X0675260Y0839881D03*
X0682740Y0839881D03*
X0682740Y0850119D03*
X0679000Y0850119D03*
X0675260Y0850119D03*
X0745260Y0848631D03*
X0749000Y0848631D03*
X0752740Y0848631D03*
X0752740Y0858869D03*
X0745260Y0858869D03*
D57*
X0728232Y0844774D03*
X0728232Y0841624D03*
X0728232Y0838474D03*
X0728232Y0835325D03*
X0728232Y0832175D03*
X0728232Y0829026D03*
X0728232Y0825876D03*
X0728232Y0822726D03*
X0694768Y0822726D03*
X0694768Y0825876D03*
X0694768Y0829026D03*
X0694768Y0832175D03*
X0694768Y0835325D03*
X0694768Y0838474D03*
X0694768Y0841624D03*
X0694768Y0844774D03*
D108*
X0700476Y0850482D03*
X0703626Y0850482D03*
X0706776Y0850482D03*
X0709925Y0850482D03*
X0713075Y0850482D03*
X0716224Y0850482D03*
X0719374Y0850482D03*
X0722524Y0850482D03*
X0722524Y0817018D03*
X0719374Y0817018D03*
X0716224Y0817018D03*
X0713075Y0817018D03*
X0709925Y0817018D03*
X0706776Y0817018D03*
X0703626Y0817018D03*
X0700476Y0817018D03*
D63*
X0749000Y0816700D03*
X0749000Y0823300D03*
X0749000Y0831700D03*
X0749000Y0838300D03*
X0736500Y0879200D03*
X0736500Y0885800D03*
X0686500Y0891700D03*
X0686500Y0898300D03*
X0684000Y0865800D03*
X0684000Y0859200D03*
X0674000Y0859200D03*
X0674000Y0865800D03*
D24*
X0664000Y0849437D03*
X0664000Y0840563D03*
D56*
X0664000Y0867500D03*
D49*
X0664000Y0858250D03*
D77*
X0696500Y0867500D03*
X0706500Y0867500D03*
X0716500Y0867500D03*
X0726500Y0867500D03*
X0726500Y0897500D03*
X0716500Y0897500D03*
X0706500Y0897500D03*
X0696500Y0897500D03*
D105*
X0675700Y0825000D03*
X0682300Y0825000D03*
X0682300Y0832500D03*
X0675700Y0832500D03*
X0679450Y0817500D03*
X0686050Y0817500D03*
X0734450Y0823750D03*
X0741050Y0823750D03*
X0745700Y0867500D03*
X0752300Y0867500D03*
X0682300Y0872500D03*
X0675700Y0872500D03*
X0675700Y0880000D03*
X0682300Y0880000D03*
X0790000Y0800000D02*
G75*
%LPD*%
D105*
X0906325Y0862500D03*
X0912925Y0862500D03*
X0863550Y0906875D03*
X0856950Y0906875D03*
X0845425Y0907500D03*
X0838825Y0907500D03*
D77*
X0846500Y0897500D03*
X0856500Y0897500D03*
X0866500Y0897500D03*
X0876500Y0897500D03*
X0876500Y0867500D03*
X0866500Y0867500D03*
X0856500Y0867500D03*
X0846500Y0867500D03*
D22*
X0832839Y0808750D03*
X0850161Y0808750D03*
X0875339Y0808750D03*
X0892661Y0808750D03*
D20*
X0889000Y0892500D03*
D81*
X0898250Y0892500D03*
D63*
X0809000Y0858300D03*
X0809000Y0851700D03*
X0940000Y0800000D02*
G75*
%LPD*%
D105*
X1056325Y0862500D03*
X1062925Y0862500D03*
X1013550Y0906875D03*
X1006950Y0906875D03*
X0995425Y0907500D03*
X0988825Y0907500D03*
D77*
X0996500Y0897500D03*
X1006500Y0897500D03*
X1016500Y0897500D03*
X1026500Y0897500D03*
X1026500Y0867500D03*
X1016500Y0867500D03*
X1006500Y0867500D03*
X0996500Y0867500D03*
D22*
X0982839Y0808750D03*
X1000161Y0808750D03*
X1025339Y0808750D03*
X1042661Y0808750D03*
D20*
X1039000Y0892500D03*
D81*
X1048250Y0892500D03*
D63*
X0959000Y0858300D03*
X0959000Y0851700D03*
X1090000Y0800000D02*
G75*
%LPD*%
D105*
X1206325Y0862500D03*
X1212925Y0862500D03*
X1163550Y0906875D03*
X1156950Y0906875D03*
X1145425Y0907500D03*
X1138825Y0907500D03*
D77*
X1146500Y0897500D03*
X1156500Y0897500D03*
X1166500Y0897500D03*
X1176500Y0897500D03*
X1176500Y0867500D03*
X1166500Y0867500D03*
X1156500Y0867500D03*
X1146500Y0867500D03*
D22*
X1132839Y0808750D03*
X1150161Y0808750D03*
X1175339Y0808750D03*
X1192661Y0808750D03*
D20*
X1189000Y0892500D03*
D81*
X1198250Y0892500D03*
D63*
X1109000Y0858300D03*
X1109000Y0851700D03*
X1240000Y0800000D02*
G75*
%LPD*%
D105*
X1356325Y0862500D03*
X1362925Y0862500D03*
X1313550Y0906875D03*
X1306950Y0906875D03*
X1295425Y0907500D03*
X1288825Y0907500D03*
D77*
X1296500Y0897500D03*
X1306500Y0897500D03*
X1316500Y0897500D03*
X1326500Y0897500D03*
X1326500Y0867500D03*
X1316500Y0867500D03*
X1306500Y0867500D03*
X1296500Y0867500D03*
D22*
X1282839Y0808750D03*
X1300161Y0808750D03*
X1325339Y0808750D03*
X1342661Y0808750D03*
D20*
X1339000Y0892500D03*
D81*
X1348250Y0892500D03*
D63*
X1259000Y0858300D03*
X1259000Y0851700D03*
X1280000Y0170000D02*
G75*
%LPD*%
D105*
X1330450Y0175000D03*
X1337050Y0175000D03*
X1339550Y0185000D03*
X1332950Y0185000D03*
X1332950Y0195000D03*
X1339550Y0195000D03*
X1339550Y0205000D03*
X1332950Y0205000D03*
X1332950Y0213750D03*
X1339550Y0213750D03*
X1356700Y0180000D03*
X1363300Y0180000D03*
X1280000Y0360000D02*
G75*
%LPD*%
D105*
X1330450Y0365000D03*
X1337050Y0365000D03*
X1339550Y0375000D03*
X1332950Y0375000D03*
X1332950Y0385000D03*
X1339550Y0385000D03*
X1339550Y0395000D03*
X1332950Y0395000D03*
X1332950Y0403750D03*
X1339550Y0403750D03*
X1356700Y0370000D03*
X1363300Y0370000D03*
M02*
