%
T01C0.015000
T02C0.024300
T03C0.032750
T04C0.039500
T05C0.046100
T06C0.050000
T07C0.060000
T08C0.080000
T09C0.087500
T10C0.169000
T11C0.020000
%
T01
X7400Y6750
X8650Y4500
X11650Y7000
X11400Y7500
X13150Y5500
X13900Y4500
X11400Y9750
X11900Y9875
X13025Y10000
X13275Y10500
X15025Y11750
X15900Y11000
X16400Y12500
X13650Y15250
X12150Y12000
X10650Y11750
X8650Y14250
X22400Y6750
X23650Y4500
X26650Y7000
X26400Y7500
X28150Y5500
X28900Y4500
X26400Y9750
X26900Y9875
X28025Y10000
X28275Y10500
X30025Y11750
X30900Y11000
X31400Y12500
X28650Y15250
X27150Y12000
X25650Y11750
X23650Y14250
X37400Y6750
X38650Y4500
X41650Y7000
X41400Y7500
X43150Y5500
X43900Y4500
X41400Y9750
X41900Y9875
X43025Y10000
X43275Y10500
X45025Y11750
X45900Y11000
X46400Y12500
X43650Y15250
X42150Y12000
X40650Y11750
X38650Y14250
X52400Y6750
X53650Y4500
X56650Y7000
X56400Y7500
X58150Y5500
X58900Y4500
X56400Y9750
X56900Y9875
X58025Y10000
X58275Y10500
X60025Y11750
X60900Y11000
X61400Y12500
X58650Y15250
X57150Y12000
X55650Y11750
X53650Y14250
X67400Y6750
X68650Y4500
X71650Y7000
X71400Y7500
X73150Y5500
X73900Y4500
X71400Y9750
X71900Y9875
X73025Y10000
X73275Y10500
X75025Y11750
X75900Y11000
X76400Y12500
X73650Y15250
X72150Y12000
X70650Y11750
X68650Y14250
X81775Y5375
X82400Y5000
X84275Y6500
X84650Y6000
X84275Y7375
X85400Y8750
X84650Y10000
X85650Y11500
X85650Y12125
X86650Y14750
X86900Y8750
X89150Y7000
X88275Y5500
X87025Y5625
X86900Y5000
X97150Y8000
X96275Y8125
X97525Y9000
X97900Y11000
X97650Y12000
X97650Y13000
X99150Y12750
X99150Y12000
X100150Y11625
X100650Y12000
X101650Y12750
X102650Y11750
X103650Y9250
X103525Y7000
X102400Y7000
X101275Y6500
X101275Y6000
X100275Y6375
X100275Y6875
X100275Y7375
X100275Y8000
X100150Y8500
X100650Y8500
X106525Y11500
X112150Y8000
X111275Y8125
X112525Y9000
X112900Y11000
X112650Y12000
X112650Y13000
X114150Y12750
X114150Y12000
X115150Y11625
X115650Y12000
X116650Y12750
X117650Y11750
X118650Y9250
X118525Y7000
X117400Y7000
X116275Y6500
X116275Y6000
X115275Y6375
X115275Y6875
X115275Y7375
X115275Y8000
X115150Y8500
X115650Y8500
X121525Y11500
X126150Y9750
X125775Y12000
X128900Y13625
X130775Y14625
X131275Y15000
X133650Y13750
X134775Y13750
X136275Y12750
X132150Y11750
X130150Y9750
X14500Y30750
X14500Y31500
X15250Y32000
X16000Y32000
X16500Y30750
X20000Y30750
X22000Y31500
X22750Y32000
X25000Y30750
X26500Y31500
X27250Y30750
X28250Y30750
X29000Y30750
X30000Y31000
X31000Y31500
X30000Y32000
X28250Y32000
X28000Y31500
X25500Y32000
X13000Y31500
X59500Y30750
X59500Y31500
X60250Y32000
X61000Y32000
X61500Y30750
X65000Y30750
X67000Y31500
X67750Y32000
X70000Y30750
X71500Y31500
X72250Y30750
X73250Y30750
X74000Y30750
X75000Y31000
X76000Y31500
X75000Y32000
X73250Y32000
X73000Y31500
X70500Y32000
X58000Y31500
X101500Y30500
X101000Y31000
X103000Y31750
X104000Y31000
X104750Y30500
X105000Y31000
X105500Y30500
X105000Y31750
X109000Y31000
X111750Y31750
X112500Y30500
X114000Y31750
X115000Y30500
X115500Y30500
X116500Y31000
X117250Y31750
X118250Y31000
X119250Y30500
X120500Y31000
X116500Y35000
X114500Y35000
X13275Y51688
X12525Y51000
X11650Y50625
X10900Y50875
X9150Y49750
X8588Y49688
X7900Y49750
X7400Y49750
X8650Y51000
X11463Y52875
X12650Y52750
X13275Y52750
X13650Y50125
X14900Y48750
X14150Y48500
X12650Y47750
X11525Y47375
X12088Y46688
X13713Y46375
X13775Y46750
X13650Y44938
X16025Y44000
X10150Y47375
X8775Y47375
X6963Y47375
X7588Y47750
X7650Y48188
X8150Y47375
X6400Y51000
X9025Y52000
X14400Y49250
X14931Y47656
X14963Y46125
X15213Y45500
X14400Y45000
X14650Y51250
X28275Y51688
X27525Y51000
X26650Y50625
X25900Y50875
X24150Y49750
X23588Y49688
X22900Y49750
X22400Y49750
X23650Y51000
X26463Y52875
X27650Y52750
X28275Y52750
X28650Y50125
X29900Y48750
X29150Y48500
X27650Y47750
X26525Y47375
X27088Y46688
X28713Y46375
X28775Y46750
X28650Y44938
X31025Y44000
X25150Y47375
X23775Y47375
X21963Y47375
X22588Y47750
X22650Y48188
X23150Y47375
X21400Y51000
X24025Y52000
X29400Y49250
X29931Y47656
X29963Y46125
X30213Y45500
X29400Y45000
X29650Y51250
X43275Y51688
X42525Y51000
X41650Y50625
X40900Y50875
X39150Y49750
X38588Y49688
X37900Y49750
X37400Y49750
X38650Y51000
X41463Y52875
X42650Y52750
X43275Y52750
X43650Y50125
X44900Y48750
X44150Y48500
X42650Y47750
X41525Y47375
X42088Y46688
X43713Y46375
X43775Y46750
X43650Y44938
X46025Y44000
X40150Y47375
X38775Y47375
X36963Y47375
X37588Y47750
X37650Y48188
X38150Y47375
X36400Y51000
X39025Y52000
X44400Y49250
X44931Y47656
X44963Y46125
X45213Y45500
X44400Y45000
X44650Y51250
X58275Y51688
X57525Y51000
X56650Y50625
X55900Y50875
X54150Y49750
X53588Y49688
X52900Y49750
X52400Y49750
X53650Y51000
X56463Y52875
X57650Y52750
X58275Y52750
X58650Y50125
X59900Y48750
X59150Y48500
X57650Y47750
X56525Y47375
X57088Y46688
X58713Y46375
X58775Y46750
X58650Y44938
X61025Y44000
X55150Y47375
X53775Y47375
X51963Y47375
X52588Y47750
X52650Y48188
X53150Y47375
X51400Y51000
X54025Y52000
X59400Y49250
X59931Y47656
X59963Y46125
X60213Y45500
X59400Y45000
X59650Y51250
X73275Y51688
X72525Y51000
X71650Y50625
X70900Y50875
X69150Y49750
X68588Y49688
X67900Y49750
X67400Y49750
X68650Y51000
X71463Y52875
X72650Y52750
X73275Y52750
X73650Y50125
X74900Y48750
X74150Y48500
X72650Y47750
X71525Y47375
X72088Y46688
X73713Y46375
X73775Y46750
X73650Y44938
X76025Y44000
X70150Y47375
X68775Y47375
X66963Y47375
X67588Y47750
X67650Y48188
X68150Y47375
X66400Y51000
X69025Y52000
X74400Y49250
X74931Y47656
X74963Y46125
X75213Y45500
X74400Y45000
X74650Y51250
X81775Y43375
X82400Y43000
X84275Y44500
X84650Y44000
X84275Y45375
X85400Y46750
X84650Y48000
X85650Y49500
X85650Y50125
X86650Y52750
X86900Y46750
X89150Y45000
X88275Y43500
X87025Y43625
X86900Y43000
X96775Y43375
X97400Y43000
X99275Y44500
X99650Y44000
X99275Y45375
X100400Y46750
X99650Y48000
X100650Y49500
X100650Y50125
X101650Y52750
X101900Y46750
X104150Y45000
X103275Y43500
X102025Y43625
X101900Y43000
X111775Y43375
X112400Y43000
X114275Y44500
X114650Y44000
X114275Y45375
X115400Y46750
X114650Y48000
X115650Y49500
X115650Y50125
X116650Y52750
X116900Y46750
X119150Y45000
X118275Y43500
X117025Y43625
X116900Y43000
X126775Y43375
X127400Y43000
X129275Y44500
X129650Y44000
X129275Y45375
X130400Y46750
X129650Y48000
X130650Y49500
X130650Y50125
X131650Y52750
X131900Y46750
X134150Y45000
X133275Y43500
X132025Y43625
X131900Y43000
X11500Y68500
X11000Y69000
X13000Y69750
X14000Y69000
X14750Y68500
X15000Y69000
X15500Y68500
X15000Y69750
X19000Y69000
X21750Y69750
X22500Y68500
X24000Y69750
X25000Y68500
X25500Y68500
X26500Y69000
X27250Y69750
X28250Y69000
X29250Y68500
X30500Y69000
X26500Y73000
X24500Y73000
X45500Y68500
X45000Y69000
X47000Y69750
X48000Y69000
X48750Y68500
X49000Y69000
X49500Y68500
X49000Y69750
X53000Y69000
X55750Y69750
X56500Y68500
X58000Y69750
X59000Y68500
X59500Y68500
X60500Y69000
X61250Y69750
X62250Y69000
X63250Y68500
X64500Y69000
X60500Y73000
X58500Y73000
X79500Y68500
X79000Y69000
X81000Y69750
X82000Y69000
X82750Y68500
X83000Y69000
X83500Y68500
X83000Y69750
X87000Y69000
X89750Y69750
X90500Y68500
X92000Y69750
X93000Y68500
X93500Y68500
X94500Y69000
X95250Y69750
X96250Y69000
X97250Y68500
X98500Y69000
X94500Y73000
X92500Y73000
X113500Y68500
X113000Y69000
X115000Y69750
X116000Y69000
X116750Y68500
X117000Y69000
X117500Y68500
X117000Y69750
X121000Y69000
X123750Y69750
X124500Y68500
X126000Y69750
X127000Y68500
X127500Y68500
X128500Y69000
X129250Y69750
X130250Y69000
X131250Y68500
X132500Y69000
X128500Y73000
X126500Y73000
X6775Y81500
X7400Y81750
X8775Y82250
X8900Y82625
X9025Y81750
X9650Y81750
X10400Y82875
X10150Y83250
X9900Y83750
X10650Y83750
X10900Y83375
X11150Y83000
X11525Y83000
X11525Y82625
X12025Y83000
X12275Y83375
X13275Y82875
X13650Y83500
X13775Y83875
X12775Y85000
X12650Y85375
X12400Y85750
X11900Y85875
X11525Y85875
X10650Y85500
X11900Y84500
X11525Y84250
X13150Y85500
X13400Y85125
X13900Y86750
X15150Y87250
X15650Y88000
X13150Y88375
X12650Y88500
X10650Y90500
X8400Y90750
X6275Y89000
X7400Y88500
X8650Y88500
X9150Y88500
X10150Y88500
X8900Y84625
X8900Y84250
X9025Y83875
X6775Y83375
X11275Y80750
X12025Y80750
X14150Y81875
X15400Y84000
X16525Y84000
X21775Y81500
X22400Y81750
X23775Y82250
X23900Y82625
X24025Y81750
X24650Y81750
X25400Y82875
X25150Y83250
X24900Y83750
X25650Y83750
X25900Y83375
X26150Y83000
X26525Y83000
X26525Y82625
X27025Y83000
X27275Y83375
X28275Y82875
X28650Y83500
X28775Y83875
X27775Y85000
X27650Y85375
X27400Y85750
X26900Y85875
X26525Y85875
X25650Y85500
X26900Y84500
X26525Y84250
X28150Y85500
X28400Y85125
X28900Y86750
X30150Y87250
X30650Y88000
X28150Y88375
X27650Y88500
X25650Y90500
X23400Y90750
X21275Y89000
X22400Y88500
X23650Y88500
X24150Y88500
X25150Y88500
X23900Y84625
X23900Y84250
X24025Y83875
X21775Y83375
X26275Y80750
X27025Y80750
X29150Y81875
X30400Y84000
X31525Y84000
X36775Y81500
X37400Y81750
X38775Y82250
X38900Y82625
X39025Y81750
X39650Y81750
X40400Y82875
X40150Y83250
X39900Y83750
X40650Y83750
X40900Y83375
X41150Y83000
X41525Y83000
X41525Y82625
X42025Y83000
X42275Y83375
X43275Y82875
X43650Y83500
X43775Y83875
X42775Y85000
X42650Y85375
X42400Y85750
X41900Y85875
X41525Y85875
X40650Y85500
X41900Y84500
X41525Y84250
X43150Y85500
X43400Y85125
X43900Y86750
X45150Y87250
X45650Y88000
X43150Y88375
X42650Y88500
X40650Y90500
X38400Y90750
X36275Y89000
X37400Y88500
X38650Y88500
X39150Y88500
X40150Y88500
X38900Y84625
X38900Y84250
X39025Y83875
X36775Y83375
X41275Y80750
X42025Y80750
X44150Y81875
X45400Y84000
X46525Y84000
X51775Y81500
X52400Y81750
X53775Y82250
X53900Y82625
X54025Y81750
X54650Y81750
X55400Y82875
X55150Y83250
X54900Y83750
X55650Y83750
X55900Y83375
X56150Y83000
X56525Y83000
X56525Y82625
X57025Y83000
X57275Y83375
X58275Y82875
X58650Y83500
X58775Y83875
X57775Y85000
X57650Y85375
X57400Y85750
X56900Y85875
X56525Y85875
X55650Y85500
X56900Y84500
X56525Y84250
X58150Y85500
X58400Y85125
X58900Y86750
X60150Y87250
X60650Y88000
X58150Y88375
X57650Y88500
X55650Y90500
X53400Y90750
X51275Y89000
X52400Y88500
X53650Y88500
X54150Y88500
X55150Y88500
X53900Y84625
X53900Y84250
X54025Y83875
X51775Y83375
X56275Y80750
X57025Y80750
X59150Y81875
X60400Y84000
X61525Y84000
X66775Y81500
X67400Y81750
X68775Y82250
X68900Y82625
X69025Y81750
X69650Y81750
X70400Y82875
X70150Y83250
X69900Y83750
X70650Y83750
X70900Y83375
X71150Y83000
X71525Y83000
X71525Y82625
X72025Y83000
X72275Y83375
X73275Y82875
X73650Y83500
X73775Y83875
X72775Y85000
X72650Y85375
X72400Y85750
X71900Y85875
X71525Y85875
X70650Y85500
X71900Y84500
X71525Y84250
X73150Y85500
X73400Y85125
X73900Y86750
X75150Y87250
X75650Y88000
X73150Y88375
X72650Y88500
X70650Y90500
X68400Y90750
X66275Y89000
X67400Y88500
X68650Y88500
X69150Y88500
X70150Y88500
X68900Y84625
X68900Y84250
X69025Y83875
X66775Y83375
X71275Y80750
X72025Y80750
X74150Y81875
X75400Y84000
X76525Y84000
X82525Y81438
X81963Y83250
X82150Y83750
X83150Y84125
X84150Y84500
X84150Y85000
X84650Y85000
X84650Y84500
X85213Y84000
X85150Y85500
X84650Y85500
X84150Y86000
X83900Y86813
X84150Y87500
X82900Y86750
X82150Y86250
X82775Y85813
X82400Y85500
X83150Y85250
X81400Y86000
X82150Y88125
X81900Y88500
X81650Y89000
X82025Y89500
X82338Y89250
X82650Y89000
X83400Y90188
X84650Y88750
X85650Y88875
X86463Y88250
X86463Y87625
X86025Y87563
X87275Y88375
X88650Y87000
X88650Y86500
X89150Y86500
X89650Y86500
X88650Y85000
X88150Y85000
X88150Y84500
X88150Y84000
X88650Y84000
X88650Y84500
X87650Y85000
X87650Y85500
X87150Y85500
X87150Y86000
X87650Y86000
X87463Y84063
X85150Y86000
X80713Y88438
X80775Y90375
X87088Y90750
X87650Y90750
X88525Y90313
X90400Y89250
X86150Y81688
X97525Y81438
X96963Y83250
X97150Y83750
X98150Y84125
X99150Y84500
X99150Y85000
X99650Y85000
X99650Y84500
X100213Y84000
X100150Y85500
X99650Y85500
X99150Y86000
X98900Y86813
X99150Y87500
X97900Y86750
X97150Y86250
X97775Y85813
X97400Y85500
X98150Y85250
X96400Y86000
X97150Y88125
X96900Y88500
X96650Y89000
X97025Y89500
X97338Y89250
X97650Y89000
X98400Y90188
X99650Y88750
X100650Y88875
X101463Y88250
X101463Y87625
X101025Y87563
X102275Y88375
X103650Y87000
X103650Y86500
X104150Y86500
X104650Y86500
X103650Y85000
X103150Y85000
X103150Y84500
X103150Y84000
X103650Y84000
X103650Y84500
X102650Y85000
X102650Y85500
X102150Y85500
X102150Y86000
X102650Y86000
X102463Y84063
X100150Y86000
X95713Y88438
X95775Y90375
X102088Y90750
X102650Y90750
X103525Y90313
X105400Y89250
X101150Y81688
X112525Y81438
X111963Y83250
X112150Y83750
X113150Y84125
X114150Y84500
X114150Y85000
X114650Y85000
X114650Y84500
X115213Y84000
X115150Y85500
X114650Y85500
X114150Y86000
X113900Y86813
X114150Y87500
X112900Y86750
X112150Y86250
X112775Y85813
X112400Y85500
X113150Y85250
X111400Y86000
X112150Y88125
X111900Y88500
X111650Y89000
X112025Y89500
X112338Y89250
X112650Y89000
X113400Y90188
X114650Y88750
X115650Y88875
X116463Y88250
X116463Y87625
X116025Y87563
X117275Y88375
X118650Y87000
X118650Y86500
X119150Y86500
X119650Y86500
X118650Y85000
X118150Y85000
X118150Y84500
X118150Y84000
X118650Y84000
X118650Y84500
X117650Y85000
X117650Y85500
X117150Y85500
X117150Y86000
X117650Y86000
X117463Y84063
X115150Y86000
X110713Y88438
X110775Y90375
X117088Y90750
X117650Y90750
X118525Y90313
X120400Y89250
X116150Y81688
X127525Y81438
X126963Y83250
X127150Y83750
X128150Y84125
X129150Y84500
X129150Y85000
X129650Y85000
X129650Y84500
X130213Y84000
X130150Y85500
X129650Y85500
X129150Y86000
X128900Y86813
X129150Y87500
X127900Y86750
X127150Y86250
X127775Y85813
X127400Y85500
X128150Y85250
X126400Y86000
X127150Y88125
X126900Y88500
X126650Y89000
X127025Y89500
X127338Y89250
X127650Y89000
X128400Y90188
X129650Y88750
X130650Y88875
X131463Y88250
X131463Y87625
X131025Y87563
X132275Y88375
X133650Y87000
X133650Y86500
X134150Y86500
X134650Y86500
X133650Y85000
X133150Y85000
X133150Y84500
X133150Y84000
X133650Y84000
X133650Y84500
X132650Y85000
X132650Y85500
X132150Y85500
X132150Y86000
X132650Y86000
X132463Y84063
X130150Y86000
X125713Y88438
X125775Y90375
X132088Y90750
X132650Y90750
X133525Y90313
X135400Y89250
X131150Y81688
X130500Y17625
X133625Y18000
X135375Y17375
X136125Y17375
X134000Y19000
X133875Y20000
X133250Y20000
X132500Y21375
X134750Y21375
X130500Y36625
X133625Y37000
X135375Y36375
X136125Y36375
X134000Y38000
X133875Y39000
X133250Y39000
X132500Y40375
X134750Y40375
T02
X7150Y13000
X9525Y6125
X22150Y13000
X24525Y6125
X37150Y13000
X39525Y6125
X52150Y13000
X54525Y6125
X67150Y13000
X69525Y6125
X87650Y12250
X87650Y50250
X102650Y50250
X117650Y50250
X132650Y50250
X135625Y21000
X135625Y20000
X135625Y40000
X135625Y39000
T03
X98150Y5000
X97150Y5000
X113150Y5000
X112150Y5000
X13291Y43663
X15259Y43663
X28291Y43663
X30259Y43663
X43291Y43663
X45259Y43663
X58291Y43663
X60259Y43663
X73291Y43663
X75259Y43663
T04
X5150Y11000
X5150Y12000
X5150Y13000
X5150Y14000
X5150Y15000
X17150Y15000
X17150Y14000
X17150Y13000
X17150Y12000
X17150Y11000
X20150Y11000
X20150Y12000
X20150Y13000
X20150Y14000
X20150Y15000
X32150Y15000
X32150Y14000
X32150Y13000
X32150Y12000
X32150Y11000
X35150Y11000
X35150Y12000
X35150Y13000
X35150Y14000
X35150Y15000
X47150Y15000
X47150Y14000
X47150Y13000
X47150Y12000
X47150Y11000
X50150Y11000
X50150Y12000
X50150Y13000
X50150Y14000
X50150Y15000
X62150Y15000
X62150Y14000
X62150Y13000
X62150Y12000
X62150Y11000
X65150Y11000
X65150Y12000
X65150Y13000
X65150Y14000
X65150Y15000
X77150Y15000
X77150Y14000
X77150Y13000
X77150Y12000
X77150Y11000
X92150Y12000
X92150Y11000
X92150Y13000
X92150Y14000
X92150Y15000
X80150Y15000
X80150Y14000
X80150Y13000
X80150Y12000
X80150Y11000
X105150Y8000
X104150Y8000
X103150Y8000
X103150Y5000
X104150Y5000
X105150Y5000
X95150Y11000
X95150Y12000
X95150Y13000
X95150Y14000
X95150Y15000
X107150Y15000
X107150Y14000
X107150Y13000
X107150Y12000
X107150Y11000
X120150Y8000
X119150Y8000
X118150Y8000
X118150Y5000
X119150Y5000
X120150Y5000
X110150Y11000
X110150Y12000
X110150Y13000
X110150Y14000
X110150Y15000
X122150Y15000
X122150Y14000
X122150Y13000
X122150Y12000
X122150Y11000
X135650Y9000
X134650Y9000
X133650Y9000
X132650Y9000
X131650Y9000
X130650Y9000
X129650Y9000
X128650Y9000
X127650Y9000
X126650Y9000
X126650Y8000
X127650Y8000
X128650Y8000
X129650Y8000
X130650Y8000
X131650Y8000
X132650Y8000
X133650Y8000
X134650Y8000
X135650Y8000
X135650Y7000
X134650Y7000
X133650Y7000
X132650Y7000
X131650Y7000
X130650Y7000
X129650Y7000
X128650Y7000
X127650Y7000
X126650Y7000
X126650Y6000
X127650Y6000
X128650Y6000
X129650Y6000
X130650Y6000
X131650Y6000
X132650Y6000
X133650Y6000
X134650Y6000
X135650Y6000
X135650Y5000
X134650Y5000
X133650Y5000
X132650Y5000
X131650Y5000
X130650Y5000
X129650Y5000
X128650Y5000
X127650Y5000
X126650Y5000
X125150Y11000
X125150Y12000
X125150Y13000
X125150Y14000
X125150Y15000
X137150Y15000
X137150Y14000
X137150Y13000
X137150Y12000
X137150Y11000
X13800Y29550
X12800Y29450
X11800Y29550
X11800Y28550
X12800Y28450
X13800Y28550
X14800Y28450
X14800Y29450
X26200Y29550
X27200Y29450
X28200Y29550
X29200Y29450
X29200Y28450
X28200Y28550
X27200Y28450
X26200Y28550
X36950Y28500
X37950Y28500
X37950Y27500
X36950Y27500
X36950Y26500
X37950Y26500
X37950Y25500
X36950Y25500
X36950Y24500
X37950Y24500
X37950Y23500
X36950Y23500
X36950Y22500
X37950Y22500
X37950Y21500
X36950Y21500
X44950Y21500
X45950Y21500
X45950Y22500
X44950Y22500
X44950Y23500
X45950Y23500
X45950Y24500
X44950Y24500
X44950Y25500
X45950Y25500
X45950Y26500
X44950Y26500
X44950Y27500
X45950Y27500
X45950Y28500
X44950Y28500
X44950Y29500
X45950Y29500
X46050Y30500
X45050Y30500
X44950Y31500
X45950Y31500
X46050Y32500
X45050Y32500
X44950Y33500
X45950Y33500
X46050Y34500
X45050Y34500
X44950Y35500
X45950Y35500
X46050Y36500
X45050Y36500
X44950Y37500
X45950Y37500
X46050Y38500
X45050Y38500
X38050Y38500
X37050Y38500
X36950Y37500
X37950Y37500
X38050Y36500
X37050Y36500
X36950Y35500
X37950Y35500
X38050Y34500
X37050Y34500
X36950Y33500
X37950Y33500
X38050Y32500
X37050Y32500
X36950Y31500
X37950Y31500
X38050Y30500
X37050Y30500
X36950Y29500
X37950Y29500
X58800Y29550
X57800Y29450
X56800Y29550
X56800Y28550
X57800Y28450
X58800Y28550
X59800Y28450
X59800Y29450
X71200Y29550
X72200Y29450
X73200Y29550
X74200Y29450
X74200Y28450
X73200Y28550
X72200Y28450
X71200Y28550
X81950Y28500
X82950Y28500
X82950Y27500
X81950Y27500
X81950Y26500
X82950Y26500
X82950Y25500
X81950Y25500
X81950Y24500
X82950Y24500
X82950Y23500
X81950Y23500
X81950Y22500
X82950Y22500
X82950Y21500
X81950Y21500
X89950Y21500
X90950Y21500
X90950Y22500
X89950Y22500
X89950Y23500
X90950Y23500
X90950Y24500
X89950Y24500
X89950Y25500
X90950Y25500
X90950Y26500
X89950Y26500
X89950Y27500
X90950Y27500
X90950Y28500
X89950Y28500
X89950Y29500
X90950Y29500
X91050Y30500
X90050Y30500
X89950Y31500
X90950Y31500
X91050Y32500
X90050Y32500
X89950Y33500
X90950Y33500
X91050Y34500
X90050Y34500
X89950Y35500
X90950Y35500
X91050Y36500
X90050Y36500
X89950Y37500
X90950Y37500
X91050Y38500
X90050Y38500
X83050Y38500
X82050Y38500
X81950Y37500
X82950Y37500
X83050Y36500
X82050Y36500
X81950Y35500
X82950Y35500
X83050Y34500
X82050Y34500
X81950Y33500
X82950Y33500
X83050Y32500
X82050Y32500
X81950Y31500
X82950Y31500
X83050Y30500
X82050Y30500
X81950Y29500
X82950Y29500
X116200Y29550
X117200Y29450
X118200Y29550
X119200Y29450
X119200Y28450
X118200Y28550
X117200Y28450
X116200Y28550
X104800Y28450
X103800Y28550
X102800Y28450
X101800Y28550
X101800Y29550
X102800Y29450
X103800Y29550
X104800Y29450
X7518Y49000
X8658Y49000
X8650Y45550
X7650Y45450
X6650Y45550
X6650Y44550
X7650Y44450
X8650Y44550
X9650Y44450
X10650Y44550
X11650Y44450
X10650Y43550
X9650Y43450
X8650Y43550
X7650Y43450
X6650Y43550
X9650Y45450
X10650Y45550
X11650Y45450
X11650Y43450
X17150Y49000
X17150Y50000
X17150Y51000
X17150Y52000
X17150Y53000
X5150Y53000
X5150Y52000
X5150Y51000
X5150Y50000
X5150Y49000
X22518Y49000
X23658Y49000
X23650Y45550
X22650Y45450
X21650Y45550
X21650Y44550
X22650Y44450
X23650Y44550
X24650Y44450
X25650Y44550
X26650Y44450
X25650Y43550
X24650Y43450
X23650Y43550
X22650Y43450
X21650Y43550
X24650Y45450
X25650Y45550
X26650Y45450
X26650Y43450
X32150Y49000
X32150Y50000
X32150Y51000
X32150Y52000
X32150Y53000
X20150Y53000
X20150Y52000
X20150Y51000
X20150Y50000
X20150Y49000
X37518Y49000
X38658Y49000
X38650Y45550
X37650Y45450
X36650Y45550
X36650Y44550
X37650Y44450
X38650Y44550
X39650Y44450
X40650Y44550
X41650Y44450
X40650Y43550
X39650Y43450
X38650Y43550
X37650Y43450
X36650Y43550
X39650Y45450
X40650Y45550
X41650Y45450
X41650Y43450
X47150Y49000
X47150Y50000
X47150Y51000
X47150Y52000
X47150Y53000
X35150Y53000
X35150Y52000
X35150Y51000
X35150Y50000
X35150Y49000
X52518Y49000
X53658Y49000
X53650Y45550
X52650Y45450
X51650Y45550
X51650Y44550
X52650Y44450
X53650Y44550
X54650Y44450
X55650Y44550
X56650Y44450
X55650Y43550
X54650Y43450
X53650Y43550
X52650Y43450
X51650Y43550
X54650Y45450
X55650Y45550
X56650Y45450
X56650Y43450
X62150Y49000
X62150Y50000
X62150Y51000
X62150Y52000
X62150Y53000
X50150Y53000
X50150Y52000
X50150Y51000
X50150Y50000
X50150Y49000
X67518Y49000
X68658Y49000
X68650Y45550
X67650Y45450
X66650Y45550
X66650Y44550
X67650Y44450
X68650Y44550
X69650Y44450
X70650Y44550
X71650Y44450
X70650Y43550
X69650Y43450
X68650Y43550
X67650Y43450
X66650Y43550
X69650Y45450
X70650Y45550
X71650Y45450
X71650Y43450
X77150Y49000
X77150Y50000
X77150Y51000
X77150Y52000
X77150Y53000
X65150Y53000
X65150Y52000
X65150Y51000
X65150Y50000
X65150Y49000
X92150Y50000
X92150Y49000
X92150Y51000
X92150Y52000
X92150Y53000
X80150Y53000
X80150Y52000
X80150Y51000
X80150Y50000
X80150Y49000
X107150Y50000
X107150Y49000
X107150Y51000
X107150Y52000
X107150Y53000
X95150Y53000
X95150Y52000
X95150Y51000
X95150Y50000
X95150Y49000
X122150Y50000
X122150Y49000
X122150Y51000
X122150Y52000
X122150Y53000
X110150Y53000
X110150Y52000
X110150Y51000
X110150Y50000
X110150Y49000
X137150Y50000
X137150Y49000
X137150Y51000
X137150Y52000
X137150Y53000
X125150Y53000
X125150Y52000
X125150Y51000
X125150Y50000
X125150Y49000
X26200Y67550
X27200Y67450
X28200Y67550
X29200Y67450
X29200Y66450
X28200Y66550
X27200Y66450
X26200Y66550
X14800Y66450
X13800Y66550
X12800Y66450
X11800Y66550
X11800Y67550
X12800Y67450
X13800Y67550
X14800Y67450
X60200Y67550
X61200Y67450
X62200Y67550
X63200Y67450
X63200Y66450
X62200Y66550
X61200Y66450
X60200Y66550
X48800Y66450
X47800Y66550
X46800Y66450
X45800Y66550
X45800Y67550
X46800Y67450
X47800Y67550
X48800Y67450
X94200Y67550
X95200Y67450
X96200Y67550
X97200Y67450
X97200Y66450
X96200Y66550
X95200Y66450
X94200Y66550
X82800Y66450
X81800Y66550
X80800Y66450
X79800Y66550
X79800Y67550
X80800Y67450
X81800Y67550
X82800Y67450
X128200Y67550
X129200Y67450
X130200Y67550
X131200Y67450
X131200Y66450
X130200Y66550
X129200Y66450
X128200Y66550
X116800Y66450
X115800Y66550
X114800Y66450
X113800Y66550
X113800Y67550
X114800Y67450
X115800Y67550
X116800Y67450
X8000Y88875
X14300Y88875
X17150Y87000
X17150Y88000
X17150Y89000
X17150Y90000
X17150Y91000
X5150Y91000
X5150Y90000
X5150Y89000
X5150Y88000
X5150Y87000
X23000Y88875
X29300Y88875
X32150Y87000
X32150Y88000
X32150Y89000
X32150Y90000
X32150Y91000
X20150Y91000
X20150Y90000
X20150Y89000
X20150Y88000
X20150Y87000
X38000Y88875
X44300Y88875
X47150Y87000
X47150Y88000
X47150Y89000
X47150Y90000
X47150Y91000
X35150Y91000
X35150Y90000
X35150Y89000
X35150Y88000
X35150Y87000
X53000Y88875
X59300Y88875
X62150Y87000
X62150Y88000
X62150Y89000
X62150Y90000
X62150Y91000
X50150Y91000
X50150Y90000
X50150Y89000
X50150Y88000
X50150Y87000
X68000Y88875
X74300Y88875
X77150Y87000
X77150Y88000
X77150Y89000
X77150Y90000
X77150Y91000
X65150Y91000
X65150Y90000
X65150Y89000
X65150Y88000
X65150Y87000
X91150Y87675
X90150Y87575
X89150Y87675
X80150Y87000
X80150Y88000
X80150Y89000
X80150Y90000
X80150Y91000
X92150Y91000
X92150Y90000
X92150Y89000
X92150Y88000
X92150Y87000
X106150Y87675
X105150Y87575
X104150Y87675
X95150Y87000
X95150Y88000
X95150Y89000
X95150Y90000
X95150Y91000
X107150Y91000
X107150Y90000
X107150Y89000
X107150Y88000
X107150Y87000
X121150Y87675
X120150Y87575
X119150Y87675
X110150Y87000
X110150Y88000
X110150Y89000
X110150Y90000
X110150Y91000
X122150Y91000
X122150Y90000
X122150Y89000
X122150Y88000
X122150Y87000
X136150Y87675
X135150Y87575
X134150Y87675
X125150Y87000
X125150Y88000
X125150Y89000
X125150Y90000
X125150Y91000
X137150Y91000
X137150Y90000
X137150Y89000
X137150Y88000
X137150Y87000
X131625Y19500
X130625Y19500
X129625Y19000
X130625Y18500
X129625Y18000
X131625Y18500
X129625Y20000
X130625Y20500
X129625Y21000
X131625Y20500
X131625Y38500
X130625Y38500
X129625Y38000
X130625Y37500
X129625Y37000
X131625Y37500
X129625Y39000
X130625Y39500
X129625Y40000
X131625Y39500
T05
X83394Y10787
X83394Y10000
X83394Y9213
X83394Y8425
X83394Y11575
X12897Y42600
X15653Y42600
X27897Y42600
X30653Y42600
X42897Y42600
X45653Y42600
X57897Y42600
X60653Y42600
X72897Y42600
X75653Y42600
X83394Y48787
X83394Y48000
X83394Y47213
X83394Y46425
X83394Y49575
X98394Y48787
X98394Y48000
X98394Y47213
X98394Y46425
X98394Y49575
X113394Y48787
X113394Y48000
X113394Y47213
X113394Y46425
X113394Y49575
X128394Y48787
X128394Y48000
X128394Y47213
X128394Y46425
X128394Y49575
X89602Y82500
X88224Y82500
X86846Y82500
X85468Y82500
X84090Y82500
X82713Y82500
X104602Y82500
X103224Y82500
X101846Y82500
X100468Y82500
X99090Y82500
X97713Y82500
X119602Y82500
X118224Y82500
X116846Y82500
X115468Y82500
X114090Y82500
X112713Y82500
X134602Y82500
X133224Y82500
X131846Y82500
X130468Y82500
X129090Y82500
X127713Y82500
T06
X89103Y10984
X89103Y10000
X89103Y9016
X89103Y48984
X89103Y48000
X89103Y47016
X104103Y48984
X104103Y48000
X104103Y47016
X119103Y48984
X119103Y48000
X119103Y47016
X134103Y48984
X134103Y48000
X134103Y47016
X136625Y20000
X136625Y21000
X136625Y39000
X136625Y40000
T07
X15150Y10500
X15150Y9500
X15150Y8500
X12150Y5500
X11150Y5500
X10150Y5500
X8150Y8250
X6150Y8250
X6150Y10750
X8150Y10750
X30150Y10500
X30150Y9500
X30150Y8500
X27150Y5500
X26150Y5500
X25150Y5500
X23150Y8250
X21150Y8250
X21150Y10750
X23150Y10750
X45150Y10500
X45150Y9500
X45150Y8500
X42150Y5500
X41150Y5500
X40150Y5500
X38150Y8250
X36150Y8250
X36150Y10750
X38150Y10750
X60150Y10500
X60150Y9500
X60150Y8500
X57150Y5500
X56150Y5500
X55150Y5500
X53150Y8250
X51150Y8250
X51150Y10750
X53150Y10750
X75150Y10500
X75150Y9500
X75150Y8500
X72150Y5500
X71150Y5500
X70150Y5500
X68150Y8250
X66150Y8250
X66150Y10750
X68150Y10750
X128625Y18000
X128625Y19000
X128625Y20000
X128625Y21000
X128625Y37000
X128625Y38000
X128625Y39000
X128625Y40000
T08
X8525Y12500
X13775Y12500
X13775Y6500
X8525Y6500
X23525Y12500
X28775Y12500
X28775Y6500
X23525Y6500
X38525Y12500
X43775Y12500
X43775Y6500
X38525Y6500
X53525Y12500
X58775Y12500
X58775Y6500
X53525Y6500
X68525Y12500
X73775Y12500
X73775Y6500
X68525Y6500
T09
X5150Y5000
X17150Y5000
X20150Y5000
X32150Y5000
X35150Y5000
X47150Y5000
X50150Y5000
X62150Y5000
X65150Y5000
X77150Y5000
X80150Y5000
X92150Y5000
X95150Y5000
X107150Y5000
X110150Y5000
X122150Y5000
X125150Y5000
X137150Y5000
X5000Y18000
X7000Y18000
X34000Y18000
X36000Y18000
X47000Y18000
X47000Y40000
X36000Y40000
X34000Y40000
X7000Y40000
X5000Y40000
X50000Y18000
X52000Y18000
X79000Y18000
X81000Y18000
X92000Y18000
X92000Y40000
X81000Y40000
X79000Y40000
X52000Y40000
X50000Y40000
X95000Y18000
X97000Y18000
X124000Y18000
X126000Y18000
X126000Y40000
X124000Y40000
X97000Y40000
X95000Y40000
X5150Y43000
X17150Y43000
X20150Y43000
X32150Y43000
X35150Y43000
X47150Y43000
X50150Y43000
X62150Y43000
X65150Y43000
X77150Y43000
X80150Y43000
X92150Y43000
X95150Y43000
X107150Y43000
X110150Y43000
X122150Y43000
X125150Y43000
X137150Y43000
X5000Y56000
X7000Y56000
X34000Y56000
X36000Y56000
X36000Y78000
X34000Y78000
X7000Y78000
X5000Y78000
X39000Y56000
X41000Y56000
X68000Y56000
X70000Y56000
X70000Y78000
X68000Y78000
X41000Y78000
X39000Y78000
X73000Y56000
X75000Y56000
X102000Y56000
X104000Y56000
X104000Y78000
X102000Y78000
X75000Y78000
X73000Y78000
X107000Y56000
X109000Y56000
X136000Y56000
X138000Y56000
X138000Y78000
X136000Y78000
X109000Y78000
X107000Y78000
X5150Y81000
X17150Y81000
X20150Y81000
X32150Y81000
X35150Y81000
X47150Y81000
X50150Y81000
X62150Y81000
X65150Y81000
X77150Y81000
X80150Y81000
X92150Y81000
X95150Y81000
X107150Y81000
X110150Y81000
X122150Y81000
X125150Y81000
X137150Y81000
T10
X6100Y33970
X20500Y33970
X34900Y33970
X34900Y24030
X20500Y24030
X6100Y24030
X51100Y33970
X65500Y33970
X79900Y33970
X79900Y24030
X65500Y24030
X51100Y24030
X96100Y33970
X96100Y24030
X110500Y24030
X110500Y33970
X124900Y33970
X124900Y24030
X6100Y71970
X6100Y62030
X20500Y62030
X20500Y71970
X34900Y71970
X34900Y62030
X40100Y71970
X40100Y62030
X54500Y62030
X54500Y71970
X68900Y71970
X68900Y62030
X74100Y71970
X74100Y62030
X88500Y62030
X88500Y71970
X102900Y71970
X102900Y62030
X108100Y71970
X108100Y62030
X122500Y62030
X122500Y71970
X136900Y71970
X136900Y62030
T11
X9820Y4100
X9500Y4100
X9180Y4100
X9180Y15650
X9500Y15650
X9820Y15650
X24820Y4100
X24500Y4100
X24179Y4100
X24180Y15650
X24500Y15650
X24819Y15650
X39820Y4100
X39500Y4100
X39180Y4100
X39180Y15650
X39500Y15650
X39820Y15650
X54819Y4100
X54499Y4100
X54179Y4100
X54179Y15650
X54499Y15650
X54819Y15650
X69820Y4100
X69500Y4100
X69179Y4100
X69180Y15650
X69500Y15650
X69820Y15650
X84820Y4100
X84500Y4100
X84180Y4100
X84180Y15650
X84500Y15650
X84820Y15650
X99820Y4100
X99500Y4100
X99180Y4100
X99179Y15650
X99500Y15650
X99820Y15650
X114820Y4100
X114500Y4100
X114179Y4100
X114180Y15650
X114500Y15650
X114820Y15650
X130820Y4100
X130500Y4100
X130180Y4100
X130180Y15650
X130500Y15650
X130820Y15650
X9820Y17100
X9500Y17100
X9180Y17100
X24820Y17100
X24500Y17100
X24179Y17100
X39820Y17100
X39500Y17100
X39180Y17100
X39180Y40900
X39500Y40900
X39820Y40900
X24180Y40900
X24500Y40900
X24819Y40900
X9180Y40900
X9500Y40900
X9820Y40900
X54819Y17100
X54499Y17100
X54179Y17100
X69820Y17100
X69500Y17100
X69179Y17100
X84820Y17100
X84500Y17100
X84180Y17100
X84180Y40900
X84500Y40900
X84820Y40900
X69180Y40900
X69500Y40900
X69820Y40900
X54179Y40900
X54499Y40900
X54819Y40900
X99820Y17100
X99500Y17100
X99180Y17100
X114820Y17100
X114500Y17100
X114179Y17100
X114180Y40900
X114500Y40900
X114820Y40900
X99179Y40900
X99500Y40900
X99820Y40900
X9820Y42100
X9500Y42100
X9180Y42100
X9180Y53650
X9500Y53650
X9820Y53650
X24820Y42100
X24500Y42100
X24179Y42100
X24180Y53650
X24500Y53650
X24819Y53650
X39820Y42100
X39500Y42100
X39180Y42100
X39180Y53650
X39500Y53650
X39820Y53650
X54819Y42100
X54499Y42100
X54179Y42100
X54179Y53650
X54499Y53650
X54819Y53650
X69820Y42100
X69500Y42100
X69179Y42100
X69180Y53650
X69500Y53650
X69820Y53650
X84820Y42100
X84500Y42100
X84180Y42100
X84180Y53650
X84500Y53650
X84820Y53650
X99820Y42100
X99500Y42100
X99180Y42100
X99179Y53650
X99500Y53650
X99820Y53650
X114820Y42100
X114500Y42100
X114179Y42100
X114180Y53650
X114500Y53650
X114820Y53650
X130820Y42100
X130500Y42100
X130180Y42100
X130180Y53650
X130500Y53650
X130820Y53650
X9820Y55100
X9500Y55100
X9180Y55100
X24820Y55100
X24500Y55100
X24179Y55100
X24180Y78900
X24500Y78900
X24819Y78900
X9180Y78900
X9500Y78900
X9820Y78900
X39820Y55100
X39500Y55100
X39180Y55100
X54819Y55100
X54499Y55100
X54179Y55100
X69820Y55100
X69500Y55100
X69179Y55100
X69180Y78900
X69500Y78900
X69820Y78900
X54179Y78900
X54499Y78900
X54819Y78900
X39180Y78900
X39500Y78900
X39820Y78900
X84820Y55100
X84500Y55100
X84180Y55100
X99820Y55100
X99500Y55100
X99180Y55100
X99179Y78900
X99500Y78900
X99820Y78900
X84180Y78900
X84500Y78900
X84820Y78900
X114820Y55100
X114500Y55100
X114179Y55100
X130820Y55100
X130500Y55100
X130180Y55100
X130180Y78900
X130500Y78900
X130820Y78900
X114180Y78900
X114500Y78900
X114820Y78900
X9820Y80100
X9500Y80100
X9180Y80100
X9180Y91650
X9500Y91650
X9820Y91650
X24820Y80100
X24500Y80100
X24179Y80100
X24180Y91650
X24500Y91650
X24819Y91650
X39820Y80100
X39500Y80100
X39180Y80100
X39180Y91650
X39500Y91650
X39820Y91650
X54819Y80100
X54499Y80100
X54179Y80100
X54179Y91650
X54499Y91650
X54819Y91650
X69820Y80100
X69500Y80100
X69179Y80100
X69180Y91650
X69500Y91650
X69820Y91650
X84820Y80100
X84500Y80100
X84180Y80100
X84180Y91650
X84500Y91650
X84820Y91650
X99820Y80100
X99500Y80100
X99180Y80100
X99179Y91650
X99500Y91650
X99820Y91650
X114820Y80100
X114500Y80100
X114179Y80100
X114180Y91650
X114500Y91650
X114820Y91650
X130820Y80100
X130500Y80100
X130180Y80100
X130180Y91650
X130500Y91650
X130820Y91650
X130820Y17100
X130500Y17100
X130180Y17100
X130180Y21900
X130500Y21900
X130820Y21900
X130820Y36100
X130500Y36100
X130180Y36100
X130180Y40900
X130500Y40900
X130820Y40900
X9820Y93099
X9500Y93099
X9180Y93099
X24820Y93099
X24500Y93099
X24179Y93099
X39820Y93099
X39500Y93099
X39180Y93099
X54819Y93099
X54499Y93099
X54179Y93099
X69820Y93099
X69500Y93099
X69179Y93099
X84820Y93099
X84500Y93099
X84180Y93099
X99820Y93099
X99500Y93099
X99180Y93099
X114820Y93099
X114500Y93099
X114179Y93099
X130820Y93099
X130500Y93099
X130180Y93099
X130180Y34900
X130500Y34900
X130820Y34900
X130820Y23100
X130500Y23100
X130180Y23100
X130180Y2900
X130500Y2900
X130820Y2900
X114180Y2900
X114500Y2900
X114820Y2900
X99179Y2900
X99500Y2900
X99820Y2900
X84180Y2900
X84500Y2900
X84820Y2900
X69180Y2900
X69500Y2900
X69820Y2900
X54179Y2900
X54499Y2900
X54819Y2900
X39180Y2900
X39500Y2900
X39820Y2900
X24180Y2900
X24500Y2900
X24819Y2900
X9180Y2900
X9500Y2900
X9820Y2900
M30
