G75*
G70*
%OFA0B0*%
%FSLAX25Y25*%
%IPPOS*%
%LPD*%
%AMOC8*
5,1,8,0,0,1.08239X$1,22.5*
%
%ADD10C,0.07350*%
%ADD11C,0.09600*%
%ADD110R,0.10600X0.11100*%
%ADD119C,0.08200*%
%ADD12C,0.05600*%
%ADD122R,0.09261X0.04600*%
%ADD124R,0.11100X0.10600*%
%ADD126R,0.03553X0.02372*%
%ADD130R,0.05324X0.02765*%
%ADD14R,0.08200X0.08200*%
%ADD140R,0.06600X0.10600*%
%ADD17R,0.04900X0.04500*%
%ADD21C,0.15600*%
%ADD23R,0.05600X0.03600*%
%ADD26C,0.12600*%
%ADD28R,0.12411X0.06112*%
%ADD29R,0.04500X0.04900*%
%ADD31R,0.04100X0.02600*%
%ADD33C,0.04537*%
%ADD35R,0.07687X0.11230*%
%ADD38C,0.06600*%
%ADD39R,0.02765X0.05324*%
%ADD41R,0.03868X0.03080*%
%ADD45C,0.07391*%
%ADD52R,0.02372X0.03553*%
%ADD55C,0.08000*%
%ADD60C,0.08600*%
%ADD67R,0.05600X0.03100*%
%ADD69R,0.08600X0.08600*%
%ADD72OC8,0.07600*%
%ADD73C,0.05620*%
%ADD74R,0.08000X0.08000*%
%ADD75OC8,0.08000*%
%ADD76R,0.03600X0.05600*%
%ADD78C,0.06450*%
%ADD82C,0.00500*%
%ADD84R,0.07687X0.26584*%
%ADD91R,0.07600X0.06600*%
%ADD92R,0.04537X0.12411*%
%ADD94R,0.03100X0.05600*%
%ADD98C,0.17500*%
%ADD99C,0.08100*%
X0040000Y0040000D02*
G75*
%LPD*%
D26*
X0085250Y0065000D03*
X0137750Y0065000D03*
X0137750Y0125000D03*
X0085250Y0125000D03*
D11*
X0081500Y0107500D03*
X0061500Y0107500D03*
X0061500Y0082500D03*
X0081500Y0082500D03*
X0101500Y0055000D03*
X0111500Y0055000D03*
X0121500Y0055000D03*
X0151500Y0085000D03*
X0151500Y0095000D03*
X0151500Y0105000D03*
D29*
X0151950Y0122500D03*
X0158550Y0122500D03*
X0139800Y0082500D03*
X0133200Y0082500D03*
D21*
X0051500Y0050000D03*
X0171500Y0050000D03*
D78*
X0171500Y0110000D03*
X0171500Y0120000D03*
X0171500Y0130000D03*
X0171500Y0140000D03*
X0171500Y0150000D03*
X0051500Y0150000D03*
X0051500Y0140000D03*
X0051500Y0130000D03*
X0051500Y0120000D03*
X0051500Y0110000D03*
D91*
X0148250Y0133750D03*
X0162250Y0133750D03*
D17*
X0137750Y0110800D03*
X0137750Y0104200D03*
X0091500Y0098300D03*
X0091500Y0091700D03*
D140*
X0096500Y0107500D03*
X0106500Y0107500D03*
X0116500Y0107500D03*
X0126500Y0107500D03*
X0126500Y0137500D03*
X0116500Y0137500D03*
X0106500Y0137500D03*
X0096500Y0137500D03*
D82*
X0132623Y0144316D02*
X0132800Y0143653D01*
X0133090Y0143031D01*
X0133484Y0142469D01*
X0133969Y0141984D01*
X0134531Y0141590D01*
X0135153Y0141300D01*
X0135816Y0141123D01*
X0136500Y0141063D01*
X0137184Y0141123D01*
X0137847Y0141300D01*
X0138469Y0141590D01*
X0139031Y0141984D01*
X0139516Y0142469D01*
X0139910Y0143031D01*
X0140200Y0143653D01*
X0140377Y0144316D01*
X0140437Y0145000D01*
X0140377Y0145684D01*
X0132623Y0145684D01*
X0132800Y0146347D01*
X0133090Y0146969D01*
X0133484Y0147531D01*
X0133969Y0148016D01*
X0134531Y0148410D01*
X0135153Y0148700D01*
X0135816Y0148877D01*
X0136500Y0148937D01*
X0137184Y0148877D01*
X0137847Y0148700D01*
X0138469Y0148410D01*
X0139031Y0148016D01*
X0139516Y0147531D01*
X0139910Y0146969D01*
X0140200Y0146347D01*
X0140377Y0145684D01*
X0140421Y0145186D02*
X0132579Y0145186D01*
X0132563Y0145000D02*
X0132623Y0145684D01*
X0132757Y0146183D02*
X0140243Y0146183D01*
X0140043Y0146681D02*
X0132957Y0146681D01*
X0133238Y0147180D02*
X0139761Y0147180D01*
X0139368Y0147678D02*
X0133632Y0147678D01*
X0134199Y0148177D02*
X0138801Y0148177D01*
X0137898Y0148675D02*
X0135102Y0148675D01*
X0132563Y0145000D02*
X0132623Y0144316D01*
X0132657Y0144189D02*
X0140343Y0144189D01*
X0140410Y0144687D02*
X0132590Y0144687D01*
X0132791Y0143690D02*
X0140209Y0143690D01*
X0139984Y0143192D02*
X0133016Y0143192D01*
X0133327Y0142693D02*
X0139673Y0142693D01*
X0139241Y0142195D02*
X0133759Y0142195D01*
X0134380Y0141696D02*
X0138620Y0141696D01*
X0137464Y0141198D02*
X0135536Y0141198D01*
X0064031Y0063016D02*
X0064516Y0062531D01*
X0064910Y0061969D01*
X0065200Y0061347D01*
X0065377Y0060684D01*
X0065437Y0060000D01*
X0065377Y0059316D01*
X0065200Y0058653D01*
X0064910Y0058031D01*
X0064516Y0057469D01*
X0064031Y0056984D01*
X0063469Y0056590D01*
X0062847Y0056300D01*
X0062184Y0056123D01*
X0061500Y0056063D01*
X0060816Y0056123D01*
X0060153Y0056300D01*
X0059531Y0056590D01*
X0058969Y0056984D01*
X0058484Y0057469D01*
X0058090Y0058031D01*
X0057800Y0058653D01*
X0057623Y0059316D01*
X0057563Y0060000D01*
X0057623Y0060684D01*
X0057800Y0061347D01*
X0058090Y0061969D01*
X0058484Y0062531D01*
X0058969Y0063016D01*
X0059531Y0063410D01*
X0060153Y0063700D01*
X0060816Y0063877D01*
X0061500Y0063937D01*
X0062184Y0063877D01*
X0062847Y0063700D01*
X0063469Y0063410D01*
X0064031Y0063016D01*
X0064115Y0062932D02*
X0058885Y0062932D01*
X0058416Y0062433D02*
X0064584Y0062433D01*
X0064925Y0061934D02*
X0058075Y0061934D01*
X0057842Y0061436D02*
X0065158Y0061436D01*
X0065309Y0060937D02*
X0057691Y0060937D01*
X0057601Y0060439D02*
X0065399Y0060439D01*
X0065432Y0059940D02*
X0057568Y0059940D01*
X0057612Y0059442D02*
X0065388Y0059442D01*
X0065277Y0058943D02*
X0057723Y0058943D01*
X0057898Y0058445D02*
X0065102Y0058445D01*
X0064850Y0057946D02*
X0058150Y0057946D01*
X0058506Y0057448D02*
X0064494Y0057448D01*
X0063981Y0056949D02*
X0059019Y0056949D01*
X0059831Y0056451D02*
X0063169Y0056451D01*
X0063425Y0063430D02*
X0059575Y0063430D01*
X0061403Y0063929D02*
X0061597Y0063929D01*
D31*
X0102750Y0067500D03*
X0102750Y0072500D03*
X0102750Y0077500D03*
X0102750Y0082500D03*
X0102750Y0087500D03*
X0102750Y0092500D03*
X0102750Y0097500D03*
X0125250Y0097500D03*
X0125250Y0092500D03*
X0125250Y0087500D03*
X0125250Y0082500D03*
X0125250Y0077500D03*
X0125250Y0072500D03*
X0125250Y0067500D03*
X0190000Y0040000D02*
G75*
%LPD*%
D26*
X0235250Y0065000D03*
X0287750Y0065000D03*
X0287750Y0125000D03*
X0235250Y0125000D03*
D11*
X0231500Y0107500D03*
X0211500Y0107500D03*
X0211500Y0082500D03*
X0231500Y0082500D03*
X0251500Y0055000D03*
X0261500Y0055000D03*
X0271500Y0055000D03*
X0301500Y0085000D03*
X0301500Y0095000D03*
X0301500Y0105000D03*
D29*
X0301950Y0122500D03*
X0308550Y0122500D03*
X0289800Y0082500D03*
X0283200Y0082500D03*
D21*
X0201500Y0050000D03*
X0321500Y0050000D03*
D78*
X0321500Y0110000D03*
X0321500Y0120000D03*
X0321500Y0130000D03*
X0321500Y0140000D03*
X0321500Y0150000D03*
X0201500Y0150000D03*
X0201500Y0140000D03*
X0201500Y0130000D03*
X0201500Y0120000D03*
X0201500Y0110000D03*
D91*
X0298250Y0133750D03*
X0312250Y0133750D03*
D17*
X0287750Y0110800D03*
X0287750Y0104200D03*
X0241500Y0098300D03*
X0241500Y0091700D03*
D140*
X0246500Y0107500D03*
X0256500Y0107500D03*
X0266500Y0107500D03*
X0276500Y0107500D03*
X0276500Y0137500D03*
X0266500Y0137500D03*
X0256500Y0137500D03*
X0246500Y0137500D03*
D82*
X0282623Y0144316D02*
X0282800Y0143653D01*
X0283090Y0143031D01*
X0283484Y0142469D01*
X0283969Y0141984D01*
X0284531Y0141590D01*
X0285153Y0141300D01*
X0285816Y0141123D01*
X0286500Y0141063D01*
X0287184Y0141123D01*
X0287847Y0141300D01*
X0288469Y0141590D01*
X0289031Y0141984D01*
X0289516Y0142469D01*
X0289910Y0143031D01*
X0290200Y0143653D01*
X0290377Y0144316D01*
X0290437Y0145000D01*
X0290377Y0145684D01*
X0282623Y0145684D01*
X0282800Y0146347D01*
X0283090Y0146969D01*
X0283484Y0147531D01*
X0283969Y0148016D01*
X0284531Y0148410D01*
X0285153Y0148700D01*
X0285816Y0148877D01*
X0286500Y0148937D01*
X0287184Y0148877D01*
X0287847Y0148700D01*
X0288469Y0148410D01*
X0289031Y0148016D01*
X0289516Y0147531D01*
X0289910Y0146969D01*
X0290200Y0146347D01*
X0290377Y0145684D01*
X0290421Y0145186D02*
X0282579Y0145186D01*
X0282563Y0145000D02*
X0282623Y0145684D01*
X0282757Y0146183D02*
X0290243Y0146183D01*
X0290043Y0146681D02*
X0282957Y0146681D01*
X0283238Y0147180D02*
X0289761Y0147180D01*
X0289368Y0147678D02*
X0283632Y0147678D01*
X0284199Y0148177D02*
X0288801Y0148177D01*
X0287898Y0148675D02*
X0285102Y0148675D01*
X0282563Y0145000D02*
X0282623Y0144316D01*
X0282657Y0144189D02*
X0290343Y0144189D01*
X0290410Y0144687D02*
X0282590Y0144687D01*
X0282791Y0143690D02*
X0290209Y0143690D01*
X0289984Y0143192D02*
X0283016Y0143192D01*
X0283327Y0142693D02*
X0289673Y0142693D01*
X0289241Y0142195D02*
X0283759Y0142195D01*
X0284380Y0141696D02*
X0288620Y0141696D01*
X0287464Y0141198D02*
X0285536Y0141198D01*
X0214031Y0063016D02*
X0214516Y0062531D01*
X0214910Y0061969D01*
X0215200Y0061347D01*
X0215377Y0060684D01*
X0215437Y0060000D01*
X0215377Y0059316D01*
X0215200Y0058653D01*
X0214910Y0058031D01*
X0214516Y0057469D01*
X0214031Y0056984D01*
X0213469Y0056590D01*
X0212847Y0056300D01*
X0212184Y0056123D01*
X0211500Y0056063D01*
X0210816Y0056123D01*
X0210153Y0056300D01*
X0209531Y0056590D01*
X0208969Y0056984D01*
X0208484Y0057469D01*
X0208090Y0058031D01*
X0207800Y0058653D01*
X0207623Y0059316D01*
X0207563Y0060000D01*
X0207623Y0060684D01*
X0207800Y0061347D01*
X0208090Y0061969D01*
X0208484Y0062531D01*
X0208969Y0063016D01*
X0209531Y0063410D01*
X0210153Y0063700D01*
X0210816Y0063877D01*
X0211500Y0063937D01*
X0212184Y0063877D01*
X0212847Y0063700D01*
X0213469Y0063410D01*
X0214031Y0063016D01*
X0214115Y0062932D02*
X0208885Y0062932D01*
X0208416Y0062433D02*
X0214584Y0062433D01*
X0214925Y0061934D02*
X0208075Y0061934D01*
X0207842Y0061436D02*
X0215158Y0061436D01*
X0215309Y0060937D02*
X0207691Y0060937D01*
X0207601Y0060439D02*
X0215399Y0060439D01*
X0215432Y0059940D02*
X0207568Y0059940D01*
X0207612Y0059442D02*
X0215388Y0059442D01*
X0215277Y0058943D02*
X0207723Y0058943D01*
X0207898Y0058445D02*
X0215102Y0058445D01*
X0214850Y0057946D02*
X0208150Y0057946D01*
X0208506Y0057448D02*
X0214494Y0057448D01*
X0213981Y0056949D02*
X0209019Y0056949D01*
X0209831Y0056451D02*
X0213169Y0056451D01*
X0213425Y0063430D02*
X0209575Y0063430D01*
X0211403Y0063929D02*
X0211597Y0063929D01*
D31*
X0252750Y0067500D03*
X0252750Y0072500D03*
X0252750Y0077500D03*
X0252750Y0082500D03*
X0252750Y0087500D03*
X0252750Y0092500D03*
X0252750Y0097500D03*
X0275250Y0097500D03*
X0275250Y0092500D03*
X0275250Y0087500D03*
X0275250Y0082500D03*
X0275250Y0077500D03*
X0275250Y0072500D03*
X0275250Y0067500D03*
X0340000Y0040000D02*
G75*
%LPD*%
D26*
X0385250Y0065000D03*
X0437750Y0065000D03*
X0437750Y0125000D03*
X0385250Y0125000D03*
D11*
X0381500Y0107500D03*
X0361500Y0107500D03*
X0361500Y0082500D03*
X0381500Y0082500D03*
X0401500Y0055000D03*
X0411500Y0055000D03*
X0421500Y0055000D03*
X0451500Y0085000D03*
X0451500Y0095000D03*
X0451500Y0105000D03*
D29*
X0451950Y0122500D03*
X0458550Y0122500D03*
X0439800Y0082500D03*
X0433200Y0082500D03*
D21*
X0351500Y0050000D03*
X0471500Y0050000D03*
D78*
X0471500Y0110000D03*
X0471500Y0120000D03*
X0471500Y0130000D03*
X0471500Y0140000D03*
X0471500Y0150000D03*
X0351500Y0150000D03*
X0351500Y0140000D03*
X0351500Y0130000D03*
X0351500Y0120000D03*
X0351500Y0110000D03*
D91*
X0448250Y0133750D03*
X0462250Y0133750D03*
D17*
X0437750Y0110800D03*
X0437750Y0104200D03*
X0391500Y0098300D03*
X0391500Y0091700D03*
D140*
X0396500Y0107500D03*
X0406500Y0107500D03*
X0416500Y0107500D03*
X0426500Y0107500D03*
X0426500Y0137500D03*
X0416500Y0137500D03*
X0406500Y0137500D03*
X0396500Y0137500D03*
D82*
X0432623Y0144316D02*
X0432800Y0143653D01*
X0433090Y0143031D01*
X0433484Y0142469D01*
X0433969Y0141984D01*
X0434531Y0141590D01*
X0435153Y0141300D01*
X0435816Y0141123D01*
X0436500Y0141063D01*
X0437184Y0141123D01*
X0437847Y0141300D01*
X0438469Y0141590D01*
X0439031Y0141984D01*
X0439516Y0142469D01*
X0439910Y0143031D01*
X0440200Y0143653D01*
X0440377Y0144316D01*
X0440437Y0145000D01*
X0440377Y0145684D01*
X0432623Y0145684D01*
X0432800Y0146347D01*
X0433090Y0146969D01*
X0433484Y0147531D01*
X0433969Y0148016D01*
X0434531Y0148410D01*
X0435153Y0148700D01*
X0435816Y0148877D01*
X0436500Y0148937D01*
X0437184Y0148877D01*
X0437847Y0148700D01*
X0438469Y0148410D01*
X0439031Y0148016D01*
X0439516Y0147531D01*
X0439910Y0146969D01*
X0440200Y0146347D01*
X0440377Y0145684D01*
X0440421Y0145186D02*
X0432579Y0145186D01*
X0432563Y0145000D02*
X0432623Y0145684D01*
X0432757Y0146183D02*
X0440243Y0146183D01*
X0440043Y0146681D02*
X0432957Y0146681D01*
X0433238Y0147180D02*
X0439761Y0147180D01*
X0439368Y0147678D02*
X0433632Y0147678D01*
X0434199Y0148177D02*
X0438801Y0148177D01*
X0437898Y0148675D02*
X0435102Y0148675D01*
X0432563Y0145000D02*
X0432623Y0144316D01*
X0432657Y0144189D02*
X0440343Y0144189D01*
X0440410Y0144687D02*
X0432590Y0144687D01*
X0432791Y0143690D02*
X0440209Y0143690D01*
X0439984Y0143192D02*
X0433016Y0143192D01*
X0433327Y0142693D02*
X0439673Y0142693D01*
X0439241Y0142195D02*
X0433759Y0142195D01*
X0434380Y0141696D02*
X0438620Y0141696D01*
X0437464Y0141198D02*
X0435536Y0141198D01*
X0364031Y0063016D02*
X0364516Y0062531D01*
X0364910Y0061969D01*
X0365200Y0061347D01*
X0365377Y0060684D01*
X0365437Y0060000D01*
X0365377Y0059316D01*
X0365200Y0058653D01*
X0364910Y0058031D01*
X0364516Y0057469D01*
X0364031Y0056984D01*
X0363469Y0056590D01*
X0362847Y0056300D01*
X0362184Y0056123D01*
X0361500Y0056063D01*
X0360816Y0056123D01*
X0360153Y0056300D01*
X0359531Y0056590D01*
X0358969Y0056984D01*
X0358484Y0057469D01*
X0358090Y0058031D01*
X0357800Y0058653D01*
X0357623Y0059316D01*
X0357563Y0060000D01*
X0357623Y0060684D01*
X0357800Y0061347D01*
X0358090Y0061969D01*
X0358484Y0062531D01*
X0358969Y0063016D01*
X0359531Y0063410D01*
X0360153Y0063700D01*
X0360816Y0063877D01*
X0361500Y0063937D01*
X0362184Y0063877D01*
X0362847Y0063700D01*
X0363469Y0063410D01*
X0364031Y0063016D01*
X0364115Y0062932D02*
X0358885Y0062932D01*
X0358416Y0062433D02*
X0364584Y0062433D01*
X0364925Y0061934D02*
X0358075Y0061934D01*
X0357842Y0061436D02*
X0365158Y0061436D01*
X0365309Y0060937D02*
X0357691Y0060937D01*
X0357601Y0060439D02*
X0365399Y0060439D01*
X0365432Y0059940D02*
X0357568Y0059940D01*
X0357612Y0059442D02*
X0365388Y0059442D01*
X0365277Y0058943D02*
X0357723Y0058943D01*
X0357898Y0058445D02*
X0365102Y0058445D01*
X0364850Y0057946D02*
X0358150Y0057946D01*
X0358506Y0057448D02*
X0364494Y0057448D01*
X0363981Y0056949D02*
X0359019Y0056949D01*
X0359831Y0056451D02*
X0363169Y0056451D01*
X0363425Y0063430D02*
X0359575Y0063430D01*
X0361403Y0063929D02*
X0361597Y0063929D01*
D31*
X0402750Y0067500D03*
X0402750Y0072500D03*
X0402750Y0077500D03*
X0402750Y0082500D03*
X0402750Y0087500D03*
X0402750Y0092500D03*
X0402750Y0097500D03*
X0425250Y0097500D03*
X0425250Y0092500D03*
X0425250Y0087500D03*
X0425250Y0082500D03*
X0425250Y0077500D03*
X0425250Y0072500D03*
X0425250Y0067500D03*
X0490000Y0040000D02*
G75*
%LPD*%
D26*
X0535250Y0065000D03*
X0587750Y0065000D03*
X0587750Y0125000D03*
X0535250Y0125000D03*
D11*
X0531500Y0107500D03*
X0511500Y0107500D03*
X0511500Y0082500D03*
X0531500Y0082500D03*
X0551500Y0055000D03*
X0561500Y0055000D03*
X0571500Y0055000D03*
X0601500Y0085000D03*
X0601500Y0095000D03*
X0601500Y0105000D03*
D29*
X0601950Y0122500D03*
X0608550Y0122500D03*
X0589800Y0082500D03*
X0583200Y0082500D03*
D21*
X0501500Y0050000D03*
X0621500Y0050000D03*
D78*
X0621500Y0110000D03*
X0621500Y0120000D03*
X0621500Y0130000D03*
X0621500Y0140000D03*
X0621500Y0150000D03*
X0501500Y0150000D03*
X0501500Y0140000D03*
X0501500Y0130000D03*
X0501500Y0120000D03*
X0501500Y0110000D03*
D91*
X0598250Y0133750D03*
X0612250Y0133750D03*
D17*
X0587750Y0110800D03*
X0587750Y0104200D03*
X0541500Y0098300D03*
X0541500Y0091700D03*
D140*
X0546500Y0107500D03*
X0556500Y0107500D03*
X0566500Y0107500D03*
X0576500Y0107500D03*
X0576500Y0137500D03*
X0566500Y0137500D03*
X0556500Y0137500D03*
X0546500Y0137500D03*
D82*
X0582623Y0144316D02*
X0582800Y0143653D01*
X0583090Y0143031D01*
X0583484Y0142469D01*
X0583969Y0141984D01*
X0584531Y0141590D01*
X0585153Y0141300D01*
X0585816Y0141123D01*
X0586500Y0141063D01*
X0587184Y0141123D01*
X0587847Y0141300D01*
X0588469Y0141590D01*
X0589031Y0141984D01*
X0589516Y0142469D01*
X0589910Y0143031D01*
X0590200Y0143653D01*
X0590377Y0144316D01*
X0590437Y0145000D01*
X0590377Y0145684D01*
X0582623Y0145684D01*
X0582800Y0146347D01*
X0583090Y0146969D01*
X0583484Y0147531D01*
X0583969Y0148016D01*
X0584531Y0148410D01*
X0585153Y0148700D01*
X0585816Y0148877D01*
X0586500Y0148937D01*
X0587184Y0148877D01*
X0587847Y0148700D01*
X0588469Y0148410D01*
X0589031Y0148016D01*
X0589516Y0147531D01*
X0589910Y0146969D01*
X0590200Y0146347D01*
X0590377Y0145684D01*
X0590421Y0145186D02*
X0582579Y0145186D01*
X0582563Y0145000D02*
X0582623Y0145684D01*
X0582757Y0146183D02*
X0590243Y0146183D01*
X0590043Y0146681D02*
X0582957Y0146681D01*
X0583238Y0147180D02*
X0589761Y0147180D01*
X0589368Y0147678D02*
X0583632Y0147678D01*
X0584199Y0148177D02*
X0588801Y0148177D01*
X0587898Y0148675D02*
X0585102Y0148675D01*
X0582563Y0145000D02*
X0582623Y0144316D01*
X0582657Y0144189D02*
X0590343Y0144189D01*
X0590410Y0144687D02*
X0582590Y0144687D01*
X0582791Y0143690D02*
X0590209Y0143690D01*
X0589984Y0143192D02*
X0583016Y0143192D01*
X0583327Y0142693D02*
X0589673Y0142693D01*
X0589241Y0142195D02*
X0583759Y0142195D01*
X0584380Y0141696D02*
X0588620Y0141696D01*
X0587464Y0141198D02*
X0585536Y0141198D01*
X0514031Y0063016D02*
X0514516Y0062531D01*
X0514910Y0061969D01*
X0515200Y0061347D01*
X0515377Y0060684D01*
X0515437Y0060000D01*
X0515377Y0059316D01*
X0515200Y0058653D01*
X0514910Y0058031D01*
X0514516Y0057469D01*
X0514031Y0056984D01*
X0513469Y0056590D01*
X0512847Y0056300D01*
X0512184Y0056123D01*
X0511500Y0056063D01*
X0510816Y0056123D01*
X0510153Y0056300D01*
X0509531Y0056590D01*
X0508969Y0056984D01*
X0508484Y0057469D01*
X0508090Y0058031D01*
X0507800Y0058653D01*
X0507623Y0059316D01*
X0507563Y0060000D01*
X0507623Y0060684D01*
X0507800Y0061347D01*
X0508090Y0061969D01*
X0508484Y0062531D01*
X0508969Y0063016D01*
X0509531Y0063410D01*
X0510153Y0063700D01*
X0510816Y0063877D01*
X0511500Y0063937D01*
X0512184Y0063877D01*
X0512847Y0063700D01*
X0513469Y0063410D01*
X0514031Y0063016D01*
X0514115Y0062932D02*
X0508885Y0062932D01*
X0508416Y0062433D02*
X0514584Y0062433D01*
X0514925Y0061934D02*
X0508075Y0061934D01*
X0507842Y0061436D02*
X0515158Y0061436D01*
X0515309Y0060937D02*
X0507691Y0060937D01*
X0507601Y0060439D02*
X0515399Y0060439D01*
X0515432Y0059940D02*
X0507568Y0059940D01*
X0507612Y0059442D02*
X0515388Y0059442D01*
X0515277Y0058943D02*
X0507723Y0058943D01*
X0507898Y0058445D02*
X0515102Y0058445D01*
X0514850Y0057946D02*
X0508150Y0057946D01*
X0508506Y0057448D02*
X0514494Y0057448D01*
X0513981Y0056949D02*
X0509019Y0056949D01*
X0509831Y0056451D02*
X0513169Y0056451D01*
X0513425Y0063430D02*
X0509575Y0063430D01*
X0511403Y0063929D02*
X0511597Y0063929D01*
D31*
X0552750Y0067500D03*
X0552750Y0072500D03*
X0552750Y0077500D03*
X0552750Y0082500D03*
X0552750Y0087500D03*
X0552750Y0092500D03*
X0552750Y0097500D03*
X0575250Y0097500D03*
X0575250Y0092500D03*
X0575250Y0087500D03*
X0575250Y0082500D03*
X0575250Y0077500D03*
X0575250Y0072500D03*
X0575250Y0067500D03*
X0640000Y0040000D02*
G75*
%LPD*%
D26*
X0685250Y0065000D03*
X0737750Y0065000D03*
X0737750Y0125000D03*
X0685250Y0125000D03*
D11*
X0681500Y0107500D03*
X0661500Y0107500D03*
X0661500Y0082500D03*
X0681500Y0082500D03*
X0701500Y0055000D03*
X0711500Y0055000D03*
X0721500Y0055000D03*
X0751500Y0085000D03*
X0751500Y0095000D03*
X0751500Y0105000D03*
D29*
X0751950Y0122500D03*
X0758550Y0122500D03*
X0739800Y0082500D03*
X0733200Y0082500D03*
D21*
X0651500Y0050000D03*
X0771500Y0050000D03*
D78*
X0771500Y0110000D03*
X0771500Y0120000D03*
X0771500Y0130000D03*
X0771500Y0140000D03*
X0771500Y0150000D03*
X0651500Y0150000D03*
X0651500Y0140000D03*
X0651500Y0130000D03*
X0651500Y0120000D03*
X0651500Y0110000D03*
D91*
X0748250Y0133750D03*
X0762250Y0133750D03*
D17*
X0737750Y0110800D03*
X0737750Y0104200D03*
X0691500Y0098300D03*
X0691500Y0091700D03*
D140*
X0696500Y0107500D03*
X0706500Y0107500D03*
X0716500Y0107500D03*
X0726500Y0107500D03*
X0726500Y0137500D03*
X0716500Y0137500D03*
X0706500Y0137500D03*
X0696500Y0137500D03*
D82*
X0732623Y0144316D02*
X0732800Y0143653D01*
X0733090Y0143031D01*
X0733484Y0142469D01*
X0733969Y0141984D01*
X0734531Y0141590D01*
X0735153Y0141300D01*
X0735816Y0141123D01*
X0736500Y0141063D01*
X0737184Y0141123D01*
X0737847Y0141300D01*
X0738469Y0141590D01*
X0739031Y0141984D01*
X0739516Y0142469D01*
X0739910Y0143031D01*
X0740200Y0143653D01*
X0740377Y0144316D01*
X0740437Y0145000D01*
X0740377Y0145684D01*
X0732623Y0145684D01*
X0732800Y0146347D01*
X0733090Y0146969D01*
X0733484Y0147531D01*
X0733969Y0148016D01*
X0734531Y0148410D01*
X0735153Y0148700D01*
X0735816Y0148877D01*
X0736500Y0148937D01*
X0737184Y0148877D01*
X0737847Y0148700D01*
X0738469Y0148410D01*
X0739031Y0148016D01*
X0739516Y0147531D01*
X0739910Y0146969D01*
X0740200Y0146347D01*
X0740377Y0145684D01*
X0740421Y0145186D02*
X0732579Y0145186D01*
X0732563Y0145000D02*
X0732623Y0145684D01*
X0732757Y0146183D02*
X0740243Y0146183D01*
X0740043Y0146681D02*
X0732957Y0146681D01*
X0733238Y0147180D02*
X0739761Y0147180D01*
X0739368Y0147678D02*
X0733632Y0147678D01*
X0734199Y0148177D02*
X0738801Y0148177D01*
X0737898Y0148675D02*
X0735102Y0148675D01*
X0732563Y0145000D02*
X0732623Y0144316D01*
X0732657Y0144189D02*
X0740343Y0144189D01*
X0740410Y0144687D02*
X0732590Y0144687D01*
X0732791Y0143690D02*
X0740209Y0143690D01*
X0739984Y0143192D02*
X0733016Y0143192D01*
X0733327Y0142693D02*
X0739673Y0142693D01*
X0739241Y0142195D02*
X0733759Y0142195D01*
X0734380Y0141696D02*
X0738620Y0141696D01*
X0737464Y0141198D02*
X0735536Y0141198D01*
X0664031Y0063016D02*
X0664516Y0062531D01*
X0664910Y0061969D01*
X0665200Y0061347D01*
X0665377Y0060684D01*
X0665437Y0060000D01*
X0665377Y0059316D01*
X0665200Y0058653D01*
X0664910Y0058031D01*
X0664516Y0057469D01*
X0664031Y0056984D01*
X0663469Y0056590D01*
X0662847Y0056300D01*
X0662184Y0056123D01*
X0661500Y0056063D01*
X0660816Y0056123D01*
X0660153Y0056300D01*
X0659531Y0056590D01*
X0658969Y0056984D01*
X0658484Y0057469D01*
X0658090Y0058031D01*
X0657800Y0058653D01*
X0657623Y0059316D01*
X0657563Y0060000D01*
X0657623Y0060684D01*
X0657800Y0061347D01*
X0658090Y0061969D01*
X0658484Y0062531D01*
X0658969Y0063016D01*
X0659531Y0063410D01*
X0660153Y0063700D01*
X0660816Y0063877D01*
X0661500Y0063937D01*
X0662184Y0063877D01*
X0662847Y0063700D01*
X0663469Y0063410D01*
X0664031Y0063016D01*
X0664115Y0062932D02*
X0658885Y0062932D01*
X0658416Y0062433D02*
X0664584Y0062433D01*
X0664925Y0061934D02*
X0658075Y0061934D01*
X0657842Y0061436D02*
X0665158Y0061436D01*
X0665309Y0060937D02*
X0657691Y0060937D01*
X0657601Y0060439D02*
X0665399Y0060439D01*
X0665432Y0059940D02*
X0657568Y0059940D01*
X0657612Y0059442D02*
X0665388Y0059442D01*
X0665277Y0058943D02*
X0657723Y0058943D01*
X0657898Y0058445D02*
X0665102Y0058445D01*
X0664850Y0057946D02*
X0658150Y0057946D01*
X0658506Y0057448D02*
X0664494Y0057448D01*
X0663981Y0056949D02*
X0659019Y0056949D01*
X0659831Y0056451D02*
X0663169Y0056451D01*
X0663425Y0063430D02*
X0659575Y0063430D01*
X0661403Y0063929D02*
X0661597Y0063929D01*
D31*
X0702750Y0067500D03*
X0702750Y0072500D03*
X0702750Y0077500D03*
X0702750Y0082500D03*
X0702750Y0087500D03*
X0702750Y0092500D03*
X0702750Y0097500D03*
X0725250Y0097500D03*
X0725250Y0092500D03*
X0725250Y0087500D03*
X0725250Y0082500D03*
X0725250Y0077500D03*
X0725250Y0072500D03*
X0725250Y0067500D03*
X0790000Y0040000D02*
G75*
%LPD*%
D17*
X0824000Y0064200D03*
X0824000Y0070800D03*
X0824000Y0079200D03*
X0816500Y0079200D03*
X0816500Y0085800D03*
X0824000Y0085800D03*
X0824000Y0094200D03*
X0816500Y0094200D03*
X0816500Y0100800D03*
X0824000Y0100800D03*
X0811500Y0109200D03*
X0811500Y0115800D03*
X0834000Y0070800D03*
X0834000Y0064200D03*
X0887750Y0054550D03*
X0887750Y0047950D03*
D21*
X0801500Y0050000D03*
X0921500Y0050000D03*
D78*
X0921500Y0110000D03*
X0921500Y0120000D03*
X0921500Y0130000D03*
X0921500Y0140000D03*
X0921500Y0150000D03*
X0801500Y0150000D03*
X0801500Y0140000D03*
X0801500Y0130000D03*
X0801500Y0120000D03*
X0801500Y0110000D03*
D91*
X0812000Y0127500D03*
X0826000Y0127500D03*
D99*
X0891028Y0109843D03*
X0891028Y0100000D03*
X0891028Y0090157D03*
D10*
X0833941Y0092126D03*
X0833941Y0100000D03*
X0833941Y0107874D03*
X0833941Y0115748D03*
X0833941Y0084252D03*
D29*
X0843200Y0092500D03*
X0849800Y0092500D03*
X0858200Y0091250D03*
X0864800Y0091250D03*
X0847300Y0052500D03*
X0840700Y0052500D03*
D140*
X0846500Y0107500D03*
X0856500Y0107500D03*
X0866500Y0107500D03*
X0876500Y0107500D03*
X0876500Y0137500D03*
X0866500Y0137500D03*
X0856500Y0137500D03*
X0846500Y0137500D03*
D82*
X0836727Y0147180D02*
X0831273Y0147180D01*
X0831469Y0146984D02*
X0830984Y0147469D01*
X0830590Y0148031D01*
X0830300Y0148653D01*
X0830123Y0149316D01*
X0830063Y0150000D01*
X0830123Y0150684D01*
X0830300Y0151347D01*
X0830590Y0151969D01*
X0830984Y0152531D01*
X0831469Y0153016D01*
X0832031Y0153410D01*
X0832653Y0153700D01*
X0833316Y0153877D01*
X0834000Y0153937D01*
X0834684Y0153877D01*
X0835347Y0153700D01*
X0835969Y0153410D01*
X0836531Y0153016D01*
X0837016Y0152531D01*
X0837410Y0151969D01*
X0837700Y0151347D01*
X0837877Y0150684D01*
X0837937Y0150000D01*
X0837877Y0149316D01*
X0837700Y0148653D01*
X0837410Y0148031D01*
X0837016Y0147469D01*
X0836531Y0146984D01*
X0835969Y0146590D01*
X0835347Y0146300D01*
X0834684Y0146123D01*
X0834000Y0146063D01*
X0833316Y0146123D01*
X0832653Y0146300D01*
X0832031Y0146590D01*
X0831469Y0146984D01*
X0831902Y0146681D02*
X0836098Y0146681D01*
X0834908Y0146183D02*
X0833092Y0146183D01*
X0830838Y0147678D02*
X0837162Y0147678D01*
X0837477Y0148177D02*
X0830523Y0148177D01*
X0830295Y0148675D02*
X0837705Y0148675D01*
X0837839Y0149174D02*
X0830161Y0149174D01*
X0830092Y0149672D02*
X0837908Y0149672D01*
X0837922Y0150171D02*
X0830078Y0150171D01*
X0830122Y0150670D02*
X0837878Y0150670D01*
X0837747Y0151168D02*
X0830253Y0151168D01*
X0830450Y0151667D02*
X0837550Y0151667D01*
X0837272Y0152165D02*
X0830728Y0152165D01*
X0831117Y0152664D02*
X0836883Y0152664D01*
X0836322Y0153162D02*
X0831678Y0153162D01*
X0832570Y0153661D02*
X0835430Y0153661D01*
X0910219Y0080516D02*
X0910781Y0080910D01*
X0911403Y0081200D01*
X0912066Y0081377D01*
X0912750Y0081437D01*
X0913434Y0081377D01*
X0914097Y0081200D01*
X0914719Y0080910D01*
X0915281Y0080516D01*
X0915766Y0080031D01*
X0916160Y0079469D01*
X0916450Y0078847D01*
X0916627Y0078184D01*
X0916687Y0077500D01*
X0916627Y0076816D01*
X0916450Y0076153D01*
X0916160Y0075531D01*
X0915766Y0074969D01*
X0915281Y0074484D01*
X0914719Y0074090D01*
X0914097Y0073800D01*
X0913434Y0073623D01*
X0912750Y0073563D01*
X0912066Y0073623D01*
X0911403Y0073800D01*
X0910781Y0074090D01*
X0910219Y0074484D01*
X0909734Y0074969D01*
X0909340Y0075531D01*
X0909050Y0076153D01*
X0908873Y0076816D01*
X0908813Y0077500D01*
X0908873Y0078184D01*
X0909050Y0078847D01*
X0909340Y0079469D01*
X0909734Y0080031D01*
X0910219Y0080516D01*
X0910083Y0080379D02*
X0915417Y0080379D01*
X0915871Y0079881D02*
X0909629Y0079881D01*
X0909300Y0079382D02*
X0916200Y0079382D01*
X0916432Y0078884D02*
X0909068Y0078884D01*
X0908927Y0078385D02*
X0916573Y0078385D01*
X0916653Y0077887D02*
X0908847Y0077887D01*
X0908823Y0077388D02*
X0916677Y0077388D01*
X0916634Y0076890D02*
X0908866Y0076890D01*
X0908987Y0076391D02*
X0916513Y0076391D01*
X0916328Y0075893D02*
X0909172Y0075893D01*
X0909437Y0075394D02*
X0916063Y0075394D01*
X0915692Y0074896D02*
X0909808Y0074896D01*
X0910343Y0074397D02*
X0915157Y0074397D01*
X0914307Y0073899D02*
X0911193Y0073899D01*
X0910736Y0080878D02*
X0914764Y0080878D01*
X0913436Y0081376D02*
X0912064Y0081376D01*
D31*
X0876500Y0077500D03*
X0876500Y0072500D03*
X0876500Y0067500D03*
X0876500Y0062500D03*
X0876500Y0057500D03*
X0876500Y0052500D03*
X0876500Y0047500D03*
X0854000Y0047500D03*
X0854000Y0052500D03*
X0854000Y0057500D03*
X0854000Y0062500D03*
X0854000Y0067500D03*
X0854000Y0072500D03*
X0854000Y0077500D03*
X0940000Y0040000D02*
G75*
%LPD*%
D14*
X1031500Y0050000D03*
D119*
X1041500Y0050000D03*
X1051500Y0050000D03*
D55*
X1051500Y0080000D03*
X1041500Y0080000D03*
X1031500Y0080000D03*
X0981500Y0050000D03*
X0971500Y0050000D03*
D29*
X0969800Y0090000D03*
X0963200Y0090000D03*
X0963200Y0100000D03*
X0969800Y0100000D03*
X0969800Y0110000D03*
X0963200Y0110000D03*
X0963200Y0120000D03*
X0969800Y0120000D03*
X0969800Y0130000D03*
X0963200Y0130000D03*
X1003200Y0093750D03*
X1009800Y0093750D03*
X1048200Y0097500D03*
X1054800Y0097500D03*
D21*
X0951500Y0050000D03*
X1071500Y0050000D03*
D78*
X1071500Y0110000D03*
X1071500Y0120000D03*
X1071500Y0130000D03*
X1071500Y0140000D03*
X1071500Y0150000D03*
X0951500Y0150000D03*
X0951500Y0140000D03*
X0951500Y0130000D03*
X0951500Y0120000D03*
X0951500Y0110000D03*
D91*
X1044500Y0115000D03*
X1058500Y0115000D03*
D140*
X1026500Y0107500D03*
X1016500Y0107500D03*
X1006500Y0107500D03*
X0996500Y0107500D03*
X0996500Y0137500D03*
X1006500Y0137500D03*
X1016500Y0137500D03*
X1026500Y0137500D03*
D82*
X1033484Y0132531D02*
X1033090Y0131969D01*
X1032800Y0131347D01*
X1032623Y0130684D01*
X1032563Y0130000D01*
X1032623Y0129316D01*
X1032800Y0128653D01*
X1033090Y0128031D01*
X1033484Y0127469D01*
X1033969Y0126984D01*
X1034531Y0126590D01*
X1035153Y0126300D01*
X1035816Y0126123D01*
X1036500Y0126063D01*
X1037184Y0126123D01*
X1037847Y0126300D01*
X1038469Y0126590D01*
X1039031Y0126984D01*
X1039516Y0127469D01*
X1039910Y0128031D01*
X1040200Y0128653D01*
X1040377Y0129316D01*
X1040437Y0130000D01*
X1040377Y0130684D01*
X1040200Y0131347D01*
X1039910Y0131969D01*
X1039516Y0132531D01*
X1039031Y0133016D01*
X1038469Y0133410D01*
X1037847Y0133700D01*
X1037184Y0133877D01*
X1036500Y0133937D01*
X1035816Y0133877D01*
X1035153Y0133700D01*
X1034531Y0133410D01*
X1033969Y0133016D01*
X1033484Y0132531D01*
X1033677Y0132723D02*
X1039323Y0132723D01*
X1039730Y0132225D02*
X1033270Y0132225D01*
X1032977Y0131726D02*
X1040023Y0131726D01*
X1040231Y0131228D02*
X1032769Y0131228D01*
X1032635Y0130729D02*
X1040365Y0130729D01*
X1040417Y0130231D02*
X1032583Y0130231D01*
X1032586Y0129732D02*
X1040414Y0129732D01*
X1040355Y0129234D02*
X1032645Y0129234D01*
X1032779Y0128735D02*
X1040221Y0128735D01*
X1040005Y0128237D02*
X1032995Y0128237D01*
X1033296Y0127738D02*
X1039704Y0127738D01*
X1039286Y0127239D02*
X1033714Y0127239D01*
X1034317Y0126741D02*
X1038683Y0126741D01*
X1037630Y0126242D02*
X1035370Y0126242D01*
X1034263Y0133222D02*
X1038737Y0133222D01*
X1037770Y0133720D02*
X1035230Y0133720D01*
X0967016Y0067531D02*
X0966531Y0068016D01*
X0965969Y0068410D01*
X0965347Y0068700D01*
X0964684Y0068877D01*
X0964000Y0068937D01*
X0963316Y0068877D01*
X0962653Y0068700D01*
X0962031Y0068410D01*
X0961469Y0068016D01*
X0960984Y0067531D01*
X0960590Y0066969D01*
X0960300Y0066347D01*
X0960123Y0065684D01*
X0960063Y0065000D01*
X0960123Y0064316D01*
X0960300Y0063653D01*
X0960590Y0063031D01*
X0960984Y0062469D01*
X0961469Y0061984D01*
X0962031Y0061590D01*
X0962653Y0061300D01*
X0963316Y0061123D01*
X0964000Y0061063D01*
X0964684Y0061123D01*
X0965347Y0061300D01*
X0965969Y0061590D01*
X0966531Y0061984D01*
X0967016Y0062469D01*
X0967410Y0063031D01*
X0967700Y0063653D01*
X0967877Y0064316D01*
X0967937Y0065000D01*
X0967877Y0065684D01*
X0967700Y0066347D01*
X0967410Y0066969D01*
X0967016Y0067531D01*
X0967095Y0067418D02*
X0960905Y0067418D01*
X0960568Y0066920D02*
X0967432Y0066920D01*
X0967665Y0066421D02*
X0960335Y0066421D01*
X0960187Y0065923D02*
X0967813Y0065923D01*
X0967900Y0065424D02*
X0960100Y0065424D01*
X0960070Y0064926D02*
X0967930Y0064926D01*
X0967887Y0064427D02*
X0960113Y0064427D01*
X0960227Y0063929D02*
X0967773Y0063929D01*
X0967595Y0063430D02*
X0960405Y0063430D01*
X0960660Y0062932D02*
X0967340Y0062932D01*
X0966980Y0062433D02*
X0961020Y0062433D01*
X0961540Y0061934D02*
X0966460Y0061934D01*
X0965637Y0061436D02*
X0962363Y0061436D01*
X0961370Y0067917D02*
X0966630Y0067917D01*
X0965956Y0068415D02*
X0962043Y0068415D01*
X0963733Y0068914D02*
X0964267Y0068914D01*
D31*
X0996500Y0070000D03*
X0996500Y0065000D03*
X0996500Y0060000D03*
X0996500Y0055000D03*
X1019000Y0055000D03*
X1019000Y0060000D03*
X1019000Y0065000D03*
X1019000Y0070000D03*
X1019000Y0075000D03*
X1019000Y0080000D03*
X1019000Y0085000D03*
X0996500Y0085000D03*
X0996500Y0080000D03*
X0996500Y0075000D03*
D17*
X0986500Y0091700D03*
X0986500Y0098300D03*
X1025250Y0095800D03*
X1025250Y0089200D03*
X1090000Y0040000D02*
G75*
%LPD*%
D14*
X1181500Y0050000D03*
D119*
X1191500Y0050000D03*
X1201500Y0050000D03*
D55*
X1201500Y0080000D03*
X1191500Y0080000D03*
X1181500Y0080000D03*
X1131500Y0050000D03*
X1121500Y0050000D03*
D29*
X1119800Y0090000D03*
X1113200Y0090000D03*
X1113200Y0100000D03*
X1119800Y0100000D03*
X1119800Y0110000D03*
X1113200Y0110000D03*
X1113200Y0120000D03*
X1119800Y0120000D03*
X1119800Y0130000D03*
X1113200Y0130000D03*
X1153200Y0093750D03*
X1159800Y0093750D03*
X1198200Y0097500D03*
X1204800Y0097500D03*
D21*
X1101500Y0050000D03*
X1221500Y0050000D03*
D78*
X1221500Y0110000D03*
X1221500Y0120000D03*
X1221500Y0130000D03*
X1221500Y0140000D03*
X1221500Y0150000D03*
X1101500Y0150000D03*
X1101500Y0140000D03*
X1101500Y0130000D03*
X1101500Y0120000D03*
X1101500Y0110000D03*
D91*
X1194500Y0115000D03*
X1208500Y0115000D03*
D140*
X1176500Y0107500D03*
X1166500Y0107500D03*
X1156500Y0107500D03*
X1146500Y0107500D03*
X1146500Y0137500D03*
X1156500Y0137500D03*
X1166500Y0137500D03*
X1176500Y0137500D03*
D82*
X1183484Y0132531D02*
X1183090Y0131969D01*
X1182800Y0131347D01*
X1182623Y0130684D01*
X1182563Y0130000D01*
X1182623Y0129316D01*
X1182800Y0128653D01*
X1183090Y0128031D01*
X1183484Y0127469D01*
X1183969Y0126984D01*
X1184531Y0126590D01*
X1185153Y0126300D01*
X1185816Y0126123D01*
X1186500Y0126063D01*
X1187184Y0126123D01*
X1187847Y0126300D01*
X1188469Y0126590D01*
X1189031Y0126984D01*
X1189516Y0127469D01*
X1189910Y0128031D01*
X1190200Y0128653D01*
X1190377Y0129316D01*
X1190437Y0130000D01*
X1190377Y0130684D01*
X1190200Y0131347D01*
X1189910Y0131969D01*
X1189516Y0132531D01*
X1189031Y0133016D01*
X1188469Y0133410D01*
X1187847Y0133700D01*
X1187184Y0133877D01*
X1186500Y0133937D01*
X1185816Y0133877D01*
X1185153Y0133700D01*
X1184531Y0133410D01*
X1183969Y0133016D01*
X1183484Y0132531D01*
X1183677Y0132723D02*
X1189323Y0132723D01*
X1189730Y0132225D02*
X1183270Y0132225D01*
X1182977Y0131726D02*
X1190023Y0131726D01*
X1190231Y0131228D02*
X1182769Y0131228D01*
X1182635Y0130729D02*
X1190365Y0130729D01*
X1190417Y0130231D02*
X1182583Y0130231D01*
X1182586Y0129732D02*
X1190414Y0129732D01*
X1190355Y0129234D02*
X1182645Y0129234D01*
X1182779Y0128735D02*
X1190221Y0128735D01*
X1190005Y0128237D02*
X1182995Y0128237D01*
X1183296Y0127738D02*
X1189704Y0127738D01*
X1189286Y0127239D02*
X1183714Y0127239D01*
X1184317Y0126741D02*
X1188683Y0126741D01*
X1187630Y0126242D02*
X1185370Y0126242D01*
X1184263Y0133222D02*
X1188737Y0133222D01*
X1187770Y0133720D02*
X1185230Y0133720D01*
X1117016Y0067531D02*
X1116531Y0068016D01*
X1115969Y0068410D01*
X1115347Y0068700D01*
X1114684Y0068877D01*
X1114000Y0068937D01*
X1113316Y0068877D01*
X1112653Y0068700D01*
X1112031Y0068410D01*
X1111469Y0068016D01*
X1110984Y0067531D01*
X1110590Y0066969D01*
X1110300Y0066347D01*
X1110123Y0065684D01*
X1110063Y0065000D01*
X1110123Y0064316D01*
X1110300Y0063653D01*
X1110590Y0063031D01*
X1110984Y0062469D01*
X1111469Y0061984D01*
X1112031Y0061590D01*
X1112653Y0061300D01*
X1113316Y0061123D01*
X1114000Y0061063D01*
X1114684Y0061123D01*
X1115347Y0061300D01*
X1115969Y0061590D01*
X1116531Y0061984D01*
X1117016Y0062469D01*
X1117410Y0063031D01*
X1117700Y0063653D01*
X1117877Y0064316D01*
X1117937Y0065000D01*
X1117877Y0065684D01*
X1117700Y0066347D01*
X1117410Y0066969D01*
X1117016Y0067531D01*
X1117095Y0067418D02*
X1110905Y0067418D01*
X1110568Y0066920D02*
X1117432Y0066920D01*
X1117665Y0066421D02*
X1110335Y0066421D01*
X1110187Y0065923D02*
X1117813Y0065923D01*
X1117900Y0065424D02*
X1110100Y0065424D01*
X1110070Y0064926D02*
X1117930Y0064926D01*
X1117887Y0064427D02*
X1110113Y0064427D01*
X1110227Y0063929D02*
X1117773Y0063929D01*
X1117595Y0063430D02*
X1110405Y0063430D01*
X1110660Y0062932D02*
X1117340Y0062932D01*
X1116980Y0062433D02*
X1111020Y0062433D01*
X1111540Y0061934D02*
X1116460Y0061934D01*
X1115637Y0061436D02*
X1112363Y0061436D01*
X1111370Y0067917D02*
X1116630Y0067917D01*
X1115956Y0068415D02*
X1112043Y0068415D01*
X1113733Y0068914D02*
X1114267Y0068914D01*
D31*
X1146500Y0070000D03*
X1146500Y0065000D03*
X1146500Y0060000D03*
X1146500Y0055000D03*
X1169000Y0055000D03*
X1169000Y0060000D03*
X1169000Y0065000D03*
X1169000Y0070000D03*
X1169000Y0075000D03*
X1169000Y0080000D03*
X1169000Y0085000D03*
X1146500Y0085000D03*
X1146500Y0080000D03*
X1146500Y0075000D03*
D17*
X1136500Y0091700D03*
X1136500Y0098300D03*
X1175250Y0095800D03*
X1175250Y0089200D03*
X1240000Y0040000D02*
G75*
%LPD*%
D21*
X1251500Y0050000D03*
X1371500Y0050000D03*
D78*
X1371500Y0110000D03*
X1371500Y0120000D03*
X1371500Y0130000D03*
X1371500Y0140000D03*
X1371500Y0150000D03*
X1251500Y0150000D03*
X1251500Y0140000D03*
X1251500Y0130000D03*
X1251500Y0120000D03*
X1251500Y0110000D03*
D55*
X1266500Y0090000D03*
X1276500Y0090000D03*
X1286500Y0090000D03*
X1296500Y0090000D03*
X1306500Y0090000D03*
X1316500Y0090000D03*
X1326500Y0090000D03*
X1336500Y0090000D03*
X1346500Y0090000D03*
X1356500Y0090000D03*
X1356500Y0080000D03*
X1346500Y0080000D03*
X1336500Y0080000D03*
X1326500Y0080000D03*
X1316500Y0080000D03*
X1306500Y0080000D03*
X1296500Y0080000D03*
X1286500Y0080000D03*
X1276500Y0080000D03*
X1266500Y0080000D03*
X1266500Y0070000D03*
X1276500Y0070000D03*
X1286500Y0070000D03*
X1296500Y0070000D03*
X1306500Y0070000D03*
X1316500Y0070000D03*
X1326500Y0070000D03*
X1336500Y0070000D03*
X1346500Y0070000D03*
X1356500Y0070000D03*
X1356500Y0060000D03*
X1346500Y0060000D03*
X1336500Y0060000D03*
X1326500Y0060000D03*
X1316500Y0060000D03*
X1306500Y0060000D03*
X1296500Y0060000D03*
X1286500Y0060000D03*
X1276500Y0060000D03*
X1266500Y0060000D03*
X1266500Y0050000D03*
X1276500Y0050000D03*
X1286500Y0050000D03*
X1296500Y0050000D03*
X1306500Y0050000D03*
X1316500Y0050000D03*
X1326500Y0050000D03*
X1336500Y0050000D03*
X1346500Y0050000D03*
X1356500Y0050000D03*
D140*
X1326500Y0107500D03*
X1316500Y0107500D03*
X1306500Y0107500D03*
X1296500Y0107500D03*
X1296500Y0137500D03*
X1306500Y0137500D03*
X1316500Y0137500D03*
X1326500Y0137500D03*
D82*
X1333969Y0144484D02*
X1333484Y0144969D01*
X1333090Y0145531D01*
X1332800Y0146153D01*
X1332623Y0146816D01*
X1332563Y0147500D01*
X1332623Y0148184D01*
X1332800Y0148847D01*
X1333090Y0149469D01*
X1333484Y0150031D01*
X1333969Y0150516D01*
X1334531Y0150910D01*
X1335153Y0151200D01*
X1335816Y0151377D01*
X1336500Y0151437D01*
X1337184Y0151377D01*
X1337847Y0151200D01*
X1338469Y0150910D01*
X1339031Y0150516D01*
X1339516Y0150031D01*
X1339910Y0149469D01*
X1340200Y0148847D01*
X1340377Y0148184D01*
X1340437Y0147500D01*
X1340377Y0146816D01*
X1340200Y0146153D01*
X1339910Y0145531D01*
X1339516Y0144969D01*
X1339031Y0144484D01*
X1338469Y0144090D01*
X1337847Y0143800D01*
X1337184Y0143623D01*
X1336500Y0143563D01*
X1335816Y0143623D01*
X1335153Y0143800D01*
X1334531Y0144090D01*
X1333969Y0144484D01*
X1333766Y0144687D02*
X1339234Y0144687D01*
X1339668Y0145186D02*
X1333332Y0145186D01*
X1333019Y0145684D02*
X1339981Y0145684D01*
X1340207Y0146183D02*
X1332793Y0146183D01*
X1332659Y0146681D02*
X1340341Y0146681D01*
X1340409Y0147180D02*
X1332591Y0147180D01*
X1332579Y0147678D02*
X1340421Y0147678D01*
X1340378Y0148177D02*
X1332622Y0148177D01*
X1332755Y0148675D02*
X1340245Y0148675D01*
X1340047Y0149174D02*
X1332953Y0149174D01*
X1333233Y0149672D02*
X1339767Y0149672D01*
X1339376Y0150171D02*
X1333624Y0150171D01*
X1334189Y0150670D02*
X1338811Y0150670D01*
X1337914Y0151168D02*
X1335086Y0151168D01*
X1334391Y0144189D02*
X1338609Y0144189D01*
X1337436Y0143690D02*
X1335564Y0143690D01*
X1262016Y0087531D02*
X1262410Y0086969D01*
X1262700Y0086347D01*
X1262877Y0085684D01*
X1262937Y0085000D01*
X1262877Y0084316D01*
X1262700Y0083653D01*
X1262410Y0083031D01*
X1262016Y0082469D01*
X1261531Y0081984D01*
X1260969Y0081590D01*
X1260347Y0081300D01*
X1259684Y0081123D01*
X1259000Y0081063D01*
X1258316Y0081123D01*
X1257653Y0081300D01*
X1257031Y0081590D01*
X1256469Y0081984D01*
X1255984Y0082469D01*
X1255590Y0083031D01*
X1255300Y0083653D01*
X1255123Y0084316D01*
X1255063Y0085000D01*
X1255123Y0085684D01*
X1255300Y0086347D01*
X1255590Y0086969D01*
X1255984Y0087531D01*
X1256469Y0088016D01*
X1257031Y0088410D01*
X1257653Y0088700D01*
X1258316Y0088877D01*
X1259000Y0088937D01*
X1259684Y0088877D01*
X1260347Y0088700D01*
X1260969Y0088410D01*
X1261531Y0088016D01*
X1262016Y0087531D01*
X1262136Y0087359D02*
X1255864Y0087359D01*
X1255540Y0086860D02*
X1262460Y0086860D01*
X1262693Y0086362D02*
X1255307Y0086362D01*
X1255171Y0085863D02*
X1262829Y0085863D01*
X1262905Y0085365D02*
X1255095Y0085365D01*
X1255075Y0084866D02*
X1262925Y0084866D01*
X1262882Y0084368D02*
X1255118Y0084368D01*
X1255243Y0083869D02*
X1262757Y0083869D01*
X1262568Y0083370D02*
X1255432Y0083370D01*
X1255702Y0082872D02*
X1262298Y0082872D01*
X1261920Y0082373D02*
X1256080Y0082373D01*
X1256625Y0081875D02*
X1261375Y0081875D01*
X1260510Y0081376D02*
X1257490Y0081376D01*
X1256311Y0087857D02*
X1261689Y0087857D01*
X1261046Y0088356D02*
X1256954Y0088356D01*
X1258230Y0088854D02*
X1259770Y0088854D01*
D130*
X1348881Y0113760D03*
X1348881Y0121240D03*
X1359119Y0121240D03*
X1359119Y0117500D03*
X1359119Y0113760D03*
D67*
X1339000Y0115878D03*
X1339000Y0119122D03*
X0040000Y0170000D02*
G75*
%LPD*%
D74*
X0148000Y0284500D03*
X0118000Y0295500D03*
X0262000Y0295500D03*
X0292000Y0284500D03*
D55*
X0282000Y0285500D03*
X0272000Y0284500D03*
X0262000Y0285500D03*
X0272000Y0294500D03*
X0282000Y0295500D03*
X0292000Y0294500D03*
X0148000Y0294500D03*
X0138000Y0295500D03*
X0128000Y0294500D03*
X0128000Y0284500D03*
X0138000Y0285500D03*
X0118000Y0285500D03*
D21*
X0050000Y0180000D03*
X0070000Y0180000D03*
X0340000Y0180000D03*
X0360000Y0180000D03*
X0470000Y0180000D03*
X0470000Y0400000D03*
X0360000Y0400000D03*
X0340000Y0400000D03*
X0070000Y0400000D03*
X0050000Y0400000D03*
D82*
X0091123Y0395684D02*
X0091063Y0395000D01*
X0091123Y0394316D01*
X0091300Y0393653D01*
X0091590Y0393031D01*
X0091984Y0392469D01*
X0092469Y0391984D01*
X0093031Y0391590D01*
X0093653Y0391300D01*
X0094316Y0391123D01*
X0095000Y0391063D01*
X0095684Y0391123D01*
X0096347Y0391300D01*
X0096969Y0391590D01*
X0097531Y0391984D01*
X0098016Y0392469D01*
X0098410Y0393031D01*
X0098700Y0393653D01*
X0098877Y0394316D01*
X0098937Y0395000D01*
X0098877Y0395684D01*
X0098700Y0396347D01*
X0098410Y0396969D01*
X0098016Y0397531D01*
X0097531Y0398016D01*
X0096969Y0398410D01*
X0096347Y0398700D01*
X0095684Y0398877D01*
X0095000Y0398937D01*
X0094316Y0398877D01*
X0093653Y0398700D01*
X0093031Y0398410D01*
X0092469Y0398016D01*
X0091984Y0397531D01*
X0091590Y0396969D01*
X0091300Y0396347D01*
X0091123Y0395684D01*
X0091161Y0395826D02*
X0098839Y0395826D01*
X0098908Y0395327D02*
X0091092Y0395327D01*
X0091078Y0394829D02*
X0098922Y0394829D01*
X0098878Y0394330D02*
X0091122Y0394330D01*
X0091253Y0393832D02*
X0098747Y0393832D01*
X0098550Y0393333D02*
X0091450Y0393333D01*
X0091728Y0392835D02*
X0098272Y0392835D01*
X0097883Y0392336D02*
X0092117Y0392336D01*
X0092679Y0391838D02*
X0097321Y0391838D01*
X0096429Y0391339D02*
X0093571Y0391339D01*
X0091294Y0396324D02*
X0098706Y0396324D01*
X0098478Y0396823D02*
X0091522Y0396823D01*
X0091837Y0397321D02*
X0098163Y0397321D01*
X0097727Y0397820D02*
X0092273Y0397820D01*
X0092901Y0398318D02*
X0097099Y0398318D01*
X0095909Y0398817D02*
X0094091Y0398817D01*
X0428563Y0395000D02*
X0428623Y0395684D01*
X0428800Y0396347D01*
X0429090Y0396969D01*
X0429484Y0397531D01*
X0429969Y0398016D01*
X0430531Y0398410D01*
X0431153Y0398700D01*
X0431816Y0398877D01*
X0432500Y0398937D01*
X0433184Y0398877D01*
X0433847Y0398700D01*
X0434469Y0398410D01*
X0435031Y0398016D01*
X0435516Y0397531D01*
X0435910Y0396969D01*
X0436200Y0396347D01*
X0436377Y0395684D01*
X0436437Y0395000D01*
X0436377Y0394316D01*
X0436200Y0393653D01*
X0435910Y0393031D01*
X0435516Y0392469D01*
X0435031Y0391984D01*
X0434469Y0391590D01*
X0433847Y0391300D01*
X0433184Y0391123D01*
X0432500Y0391063D01*
X0431816Y0391123D01*
X0431153Y0391300D01*
X0430531Y0391590D01*
X0429969Y0391984D01*
X0429484Y0392469D01*
X0429090Y0393031D01*
X0428800Y0393653D01*
X0428623Y0394316D01*
X0428563Y0395000D01*
X0428578Y0394829D02*
X0436422Y0394829D01*
X0436408Y0395327D02*
X0428592Y0395327D01*
X0428661Y0395826D02*
X0436339Y0395826D01*
X0436206Y0396324D02*
X0428794Y0396324D01*
X0429022Y0396823D02*
X0435978Y0396823D01*
X0435663Y0397321D02*
X0429337Y0397321D01*
X0429773Y0397820D02*
X0435227Y0397820D01*
X0434599Y0398318D02*
X0430401Y0398318D01*
X0431591Y0398817D02*
X0433409Y0398817D01*
X0436378Y0394330D02*
X0428622Y0394330D01*
X0428753Y0393832D02*
X0436247Y0393832D01*
X0436050Y0393333D02*
X0428950Y0393333D01*
X0429228Y0392835D02*
X0435772Y0392835D01*
X0435383Y0392336D02*
X0429617Y0392336D01*
X0430179Y0391838D02*
X0434821Y0391838D01*
X0433929Y0391339D02*
X0431071Y0391339D01*
X0447500Y0188937D02*
X0448184Y0188877D01*
X0448847Y0188700D01*
X0449469Y0188410D01*
X0450031Y0188016D01*
X0450516Y0187531D01*
X0450910Y0186969D01*
X0451200Y0186347D01*
X0451377Y0185684D01*
X0451437Y0185000D01*
X0451377Y0184316D01*
X0451200Y0183653D01*
X0450910Y0183031D01*
X0450516Y0182469D01*
X0450031Y0181984D01*
X0449469Y0181590D01*
X0448847Y0181300D01*
X0448184Y0181123D01*
X0447500Y0181063D01*
X0446816Y0181123D01*
X0446153Y0181300D01*
X0445531Y0181590D01*
X0444969Y0181984D01*
X0444484Y0182469D01*
X0444090Y0183031D01*
X0443800Y0183653D01*
X0443623Y0184316D01*
X0443563Y0185000D01*
X0443623Y0185684D01*
X0443800Y0186347D01*
X0444090Y0186969D01*
X0444484Y0187531D01*
X0444969Y0188016D01*
X0445531Y0188410D01*
X0446153Y0188700D01*
X0446816Y0188877D01*
X0447500Y0188937D01*
X0445607Y0188445D02*
X0449393Y0188445D01*
X0450100Y0187946D02*
X0444900Y0187946D01*
X0444426Y0187448D02*
X0450574Y0187448D01*
X0450918Y0186949D02*
X0444082Y0186949D01*
X0443849Y0186451D02*
X0451151Y0186451D01*
X0451305Y0185952D02*
X0443695Y0185952D01*
X0443603Y0185454D02*
X0451397Y0185454D01*
X0451433Y0184955D02*
X0443567Y0184955D01*
X0443611Y0184457D02*
X0451389Y0184457D01*
X0451281Y0183958D02*
X0443719Y0183958D01*
X0443891Y0183460D02*
X0451109Y0183460D01*
X0450860Y0182961D02*
X0444140Y0182961D01*
X0444491Y0182463D02*
X0450509Y0182463D01*
X0450002Y0181964D02*
X0444998Y0181964D01*
X0445799Y0181466D02*
X0449201Y0181466D01*
X0098937Y0185000D02*
X0098877Y0185684D01*
X0098700Y0186347D01*
X0098410Y0186969D01*
X0098016Y0187531D01*
X0097531Y0188016D01*
X0096969Y0188410D01*
X0096347Y0188700D01*
X0095684Y0188877D01*
X0095000Y0188937D01*
X0094316Y0188877D01*
X0093653Y0188700D01*
X0093031Y0188410D01*
X0092469Y0188016D01*
X0091984Y0187531D01*
X0091590Y0186969D01*
X0091300Y0186347D01*
X0091123Y0185684D01*
X0091063Y0185000D01*
X0091123Y0184316D01*
X0091300Y0183653D01*
X0091590Y0183031D01*
X0091984Y0182469D01*
X0092469Y0181984D01*
X0093031Y0181590D01*
X0093653Y0181300D01*
X0094316Y0181123D01*
X0095000Y0181063D01*
X0095684Y0181123D01*
X0096347Y0181300D01*
X0096969Y0181590D01*
X0097531Y0181984D01*
X0098016Y0182469D01*
X0098410Y0183031D01*
X0098700Y0183653D01*
X0098877Y0184316D01*
X0098937Y0185000D01*
X0098933Y0184955D02*
X0091067Y0184955D01*
X0091111Y0184457D02*
X0098889Y0184457D01*
X0098781Y0183958D02*
X0091219Y0183958D01*
X0091391Y0183460D02*
X0098609Y0183460D01*
X0098360Y0182961D02*
X0091640Y0182961D01*
X0091991Y0182463D02*
X0098009Y0182463D01*
X0097502Y0181964D02*
X0092498Y0181964D01*
X0093299Y0181466D02*
X0096701Y0181466D01*
X0098897Y0185454D02*
X0091103Y0185454D01*
X0091195Y0185952D02*
X0098805Y0185952D01*
X0098651Y0186451D02*
X0091349Y0186451D01*
X0091582Y0186949D02*
X0098418Y0186949D01*
X0098074Y0187448D02*
X0091926Y0187448D01*
X0092400Y0187946D02*
X0097600Y0187946D01*
X0096893Y0188445D02*
X0093107Y0188445D01*
D98*
X0061000Y0240300D03*
X0205000Y0240300D03*
X0349000Y0240300D03*
X0349000Y0339700D03*
X0205000Y0339700D03*
X0061000Y0339700D03*
D17*
X0410000Y0346700D03*
X0410000Y0353300D03*
X0420000Y0353300D03*
X0420000Y0346700D03*
D28*
X0324449Y0340000D03*
X0305551Y0340000D03*
D75*
X0369500Y0335000D03*
X0379500Y0335000D03*
X0380500Y0325000D03*
X0370500Y0325000D03*
X0369500Y0315000D03*
X0379500Y0315000D03*
X0380500Y0305000D03*
X0370500Y0305000D03*
X0369500Y0295000D03*
X0379500Y0295000D03*
X0379500Y0285000D03*
X0369500Y0285000D03*
X0369500Y0275000D03*
X0379500Y0275000D03*
X0379500Y0265000D03*
X0369500Y0265000D03*
X0369500Y0255000D03*
X0379500Y0255000D03*
X0379500Y0245000D03*
X0369500Y0245000D03*
X0369500Y0235000D03*
X0379500Y0235000D03*
X0379500Y0225000D03*
X0369500Y0225000D03*
X0369500Y0215000D03*
X0379500Y0215000D03*
X0449500Y0215000D03*
X0459500Y0215000D03*
X0459500Y0225000D03*
X0449500Y0225000D03*
X0449500Y0235000D03*
X0459500Y0235000D03*
X0459500Y0245000D03*
X0449500Y0245000D03*
X0449500Y0255000D03*
X0459500Y0255000D03*
X0459500Y0265000D03*
X0449500Y0265000D03*
X0449500Y0275000D03*
X0459500Y0275000D03*
X0459500Y0285000D03*
X0449500Y0285000D03*
X0449500Y0295000D03*
X0459500Y0295000D03*
X0460500Y0305000D03*
X0450500Y0305000D03*
X0449500Y0315000D03*
X0459500Y0315000D03*
X0460500Y0325000D03*
X0450500Y0325000D03*
X0449500Y0335000D03*
X0459500Y0335000D03*
X0460500Y0345000D03*
X0450500Y0345000D03*
X0449500Y0355000D03*
X0459500Y0355000D03*
X0460500Y0365000D03*
X0450500Y0365000D03*
X0449500Y0375000D03*
X0459500Y0375000D03*
X0460500Y0385000D03*
X0450500Y0385000D03*
X0380500Y0385000D03*
X0370500Y0385000D03*
X0369500Y0375000D03*
X0379500Y0375000D03*
X0380500Y0365000D03*
X0370500Y0365000D03*
X0369500Y0355000D03*
X0379500Y0355000D03*
X0380500Y0345000D03*
X0370500Y0345000D03*
D92*
X0281811Y0365709D03*
X0273937Y0365709D03*
X0266063Y0365709D03*
X0258189Y0365709D03*
X0216811Y0365709D03*
X0208937Y0365709D03*
X0201063Y0365709D03*
X0193189Y0365709D03*
X0151811Y0365709D03*
X0143937Y0365709D03*
X0136063Y0365709D03*
X0128189Y0365709D03*
D84*
X0118937Y0389724D03*
X0161063Y0389724D03*
X0183937Y0389724D03*
X0226063Y0389724D03*
X0248937Y0389724D03*
X0291063Y0389724D03*
D41*
X0395000Y0354528D03*
X0395000Y0345472D03*
X0435000Y0345472D03*
X0435000Y0354528D03*
X0490000Y0170000D02*
G75*
%LPD*%
D74*
X0598000Y0284500D03*
X0568000Y0295500D03*
X0712000Y0295500D03*
X0742000Y0284500D03*
D55*
X0732000Y0285500D03*
X0722000Y0284500D03*
X0712000Y0285500D03*
X0722000Y0294500D03*
X0732000Y0295500D03*
X0742000Y0294500D03*
X0598000Y0294500D03*
X0588000Y0295500D03*
X0578000Y0294500D03*
X0578000Y0284500D03*
X0588000Y0285500D03*
X0568000Y0285500D03*
D21*
X0500000Y0180000D03*
X0520000Y0180000D03*
X0790000Y0180000D03*
X0810000Y0180000D03*
X0920000Y0180000D03*
X0920000Y0400000D03*
X0810000Y0400000D03*
X0790000Y0400000D03*
X0520000Y0400000D03*
X0500000Y0400000D03*
D82*
X0541123Y0395684D02*
X0541063Y0395000D01*
X0541123Y0394316D01*
X0541300Y0393653D01*
X0541590Y0393031D01*
X0541984Y0392469D01*
X0542469Y0391984D01*
X0543031Y0391590D01*
X0543653Y0391300D01*
X0544316Y0391123D01*
X0545000Y0391063D01*
X0545684Y0391123D01*
X0546347Y0391300D01*
X0546969Y0391590D01*
X0547531Y0391984D01*
X0548016Y0392469D01*
X0548410Y0393031D01*
X0548700Y0393653D01*
X0548877Y0394316D01*
X0548937Y0395000D01*
X0548877Y0395684D01*
X0548700Y0396347D01*
X0548410Y0396969D01*
X0548016Y0397531D01*
X0547531Y0398016D01*
X0546969Y0398410D01*
X0546347Y0398700D01*
X0545684Y0398877D01*
X0545000Y0398937D01*
X0544316Y0398877D01*
X0543653Y0398700D01*
X0543031Y0398410D01*
X0542469Y0398016D01*
X0541984Y0397531D01*
X0541590Y0396969D01*
X0541300Y0396347D01*
X0541123Y0395684D01*
X0541161Y0395826D02*
X0548839Y0395826D01*
X0548908Y0395327D02*
X0541092Y0395327D01*
X0541078Y0394829D02*
X0548922Y0394829D01*
X0548878Y0394330D02*
X0541122Y0394330D01*
X0541253Y0393832D02*
X0548747Y0393832D01*
X0548550Y0393333D02*
X0541450Y0393333D01*
X0541728Y0392835D02*
X0548272Y0392835D01*
X0547883Y0392336D02*
X0542117Y0392336D01*
X0542679Y0391838D02*
X0547321Y0391838D01*
X0546429Y0391339D02*
X0543571Y0391339D01*
X0541294Y0396324D02*
X0548706Y0396324D01*
X0548478Y0396823D02*
X0541522Y0396823D01*
X0541837Y0397321D02*
X0548163Y0397321D01*
X0547727Y0397820D02*
X0542273Y0397820D01*
X0542901Y0398318D02*
X0547099Y0398318D01*
X0545909Y0398817D02*
X0544091Y0398817D01*
X0878563Y0395000D02*
X0878623Y0395684D01*
X0878800Y0396347D01*
X0879090Y0396969D01*
X0879484Y0397531D01*
X0879969Y0398016D01*
X0880531Y0398410D01*
X0881153Y0398700D01*
X0881816Y0398877D01*
X0882500Y0398937D01*
X0883184Y0398877D01*
X0883847Y0398700D01*
X0884469Y0398410D01*
X0885031Y0398016D01*
X0885516Y0397531D01*
X0885910Y0396969D01*
X0886200Y0396347D01*
X0886377Y0395684D01*
X0886437Y0395000D01*
X0886377Y0394316D01*
X0886200Y0393653D01*
X0885910Y0393031D01*
X0885516Y0392469D01*
X0885031Y0391984D01*
X0884469Y0391590D01*
X0883847Y0391300D01*
X0883184Y0391123D01*
X0882500Y0391063D01*
X0881816Y0391123D01*
X0881153Y0391300D01*
X0880531Y0391590D01*
X0879969Y0391984D01*
X0879484Y0392469D01*
X0879090Y0393031D01*
X0878800Y0393653D01*
X0878623Y0394316D01*
X0878563Y0395000D01*
X0878578Y0394829D02*
X0886422Y0394829D01*
X0886408Y0395327D02*
X0878592Y0395327D01*
X0878661Y0395826D02*
X0886339Y0395826D01*
X0886206Y0396324D02*
X0878794Y0396324D01*
X0879022Y0396823D02*
X0885978Y0396823D01*
X0885663Y0397321D02*
X0879337Y0397321D01*
X0879773Y0397820D02*
X0885227Y0397820D01*
X0884599Y0398318D02*
X0880401Y0398318D01*
X0881591Y0398817D02*
X0883409Y0398817D01*
X0886378Y0394330D02*
X0878622Y0394330D01*
X0878753Y0393832D02*
X0886247Y0393832D01*
X0886050Y0393333D02*
X0878950Y0393333D01*
X0879228Y0392835D02*
X0885772Y0392835D01*
X0885383Y0392336D02*
X0879617Y0392336D01*
X0880179Y0391838D02*
X0884821Y0391838D01*
X0883929Y0391339D02*
X0881071Y0391339D01*
X0897500Y0188937D02*
X0898184Y0188877D01*
X0898847Y0188700D01*
X0899469Y0188410D01*
X0900031Y0188016D01*
X0900516Y0187531D01*
X0900910Y0186969D01*
X0901200Y0186347D01*
X0901377Y0185684D01*
X0901437Y0185000D01*
X0901377Y0184316D01*
X0901200Y0183653D01*
X0900910Y0183031D01*
X0900516Y0182469D01*
X0900031Y0181984D01*
X0899469Y0181590D01*
X0898847Y0181300D01*
X0898184Y0181123D01*
X0897500Y0181063D01*
X0896816Y0181123D01*
X0896153Y0181300D01*
X0895531Y0181590D01*
X0894969Y0181984D01*
X0894484Y0182469D01*
X0894090Y0183031D01*
X0893800Y0183653D01*
X0893623Y0184316D01*
X0893563Y0185000D01*
X0893623Y0185684D01*
X0893800Y0186347D01*
X0894090Y0186969D01*
X0894484Y0187531D01*
X0894969Y0188016D01*
X0895531Y0188410D01*
X0896153Y0188700D01*
X0896816Y0188877D01*
X0897500Y0188937D01*
X0895607Y0188445D02*
X0899393Y0188445D01*
X0900100Y0187946D02*
X0894900Y0187946D01*
X0894426Y0187448D02*
X0900574Y0187448D01*
X0900918Y0186949D02*
X0894082Y0186949D01*
X0893849Y0186451D02*
X0901151Y0186451D01*
X0901305Y0185952D02*
X0893695Y0185952D01*
X0893603Y0185454D02*
X0901397Y0185454D01*
X0901433Y0184955D02*
X0893567Y0184955D01*
X0893611Y0184457D02*
X0901389Y0184457D01*
X0901281Y0183958D02*
X0893719Y0183958D01*
X0893891Y0183460D02*
X0901109Y0183460D01*
X0900860Y0182961D02*
X0894140Y0182961D01*
X0894491Y0182463D02*
X0900509Y0182463D01*
X0900002Y0181964D02*
X0894998Y0181964D01*
X0895799Y0181466D02*
X0899201Y0181466D01*
X0548937Y0185000D02*
X0548877Y0185684D01*
X0548700Y0186347D01*
X0548410Y0186969D01*
X0548016Y0187531D01*
X0547531Y0188016D01*
X0546969Y0188410D01*
X0546347Y0188700D01*
X0545684Y0188877D01*
X0545000Y0188937D01*
X0544316Y0188877D01*
X0543653Y0188700D01*
X0543031Y0188410D01*
X0542469Y0188016D01*
X0541984Y0187531D01*
X0541590Y0186969D01*
X0541300Y0186347D01*
X0541123Y0185684D01*
X0541063Y0185000D01*
X0541123Y0184316D01*
X0541300Y0183653D01*
X0541590Y0183031D01*
X0541984Y0182469D01*
X0542469Y0181984D01*
X0543031Y0181590D01*
X0543653Y0181300D01*
X0544316Y0181123D01*
X0545000Y0181063D01*
X0545684Y0181123D01*
X0546347Y0181300D01*
X0546969Y0181590D01*
X0547531Y0181984D01*
X0548016Y0182469D01*
X0548410Y0183031D01*
X0548700Y0183653D01*
X0548877Y0184316D01*
X0548937Y0185000D01*
X0548933Y0184955D02*
X0541067Y0184955D01*
X0541111Y0184457D02*
X0548889Y0184457D01*
X0548781Y0183958D02*
X0541219Y0183958D01*
X0541391Y0183460D02*
X0548609Y0183460D01*
X0548360Y0182961D02*
X0541640Y0182961D01*
X0541991Y0182463D02*
X0548009Y0182463D01*
X0547502Y0181964D02*
X0542498Y0181964D01*
X0543299Y0181466D02*
X0546701Y0181466D01*
X0548897Y0185454D02*
X0541103Y0185454D01*
X0541195Y0185952D02*
X0548805Y0185952D01*
X0548651Y0186451D02*
X0541349Y0186451D01*
X0541582Y0186949D02*
X0548418Y0186949D01*
X0548074Y0187448D02*
X0541926Y0187448D01*
X0542400Y0187946D02*
X0547600Y0187946D01*
X0546893Y0188445D02*
X0543107Y0188445D01*
D98*
X0511000Y0240300D03*
X0655000Y0240300D03*
X0799000Y0240300D03*
X0799000Y0339700D03*
X0655000Y0339700D03*
X0511000Y0339700D03*
D17*
X0860000Y0346700D03*
X0860000Y0353300D03*
X0870000Y0353300D03*
X0870000Y0346700D03*
D28*
X0774449Y0340000D03*
X0755551Y0340000D03*
D75*
X0819500Y0335000D03*
X0829500Y0335000D03*
X0830500Y0325000D03*
X0820500Y0325000D03*
X0819500Y0315000D03*
X0829500Y0315000D03*
X0830500Y0305000D03*
X0820500Y0305000D03*
X0819500Y0295000D03*
X0829500Y0295000D03*
X0829500Y0285000D03*
X0819500Y0285000D03*
X0819500Y0275000D03*
X0829500Y0275000D03*
X0829500Y0265000D03*
X0819500Y0265000D03*
X0819500Y0255000D03*
X0829500Y0255000D03*
X0829500Y0245000D03*
X0819500Y0245000D03*
X0819500Y0235000D03*
X0829500Y0235000D03*
X0829500Y0225000D03*
X0819500Y0225000D03*
X0819500Y0215000D03*
X0829500Y0215000D03*
X0899500Y0215000D03*
X0909500Y0215000D03*
X0909500Y0225000D03*
X0899500Y0225000D03*
X0899500Y0235000D03*
X0909500Y0235000D03*
X0909500Y0245000D03*
X0899500Y0245000D03*
X0899500Y0255000D03*
X0909500Y0255000D03*
X0909500Y0265000D03*
X0899500Y0265000D03*
X0899500Y0275000D03*
X0909500Y0275000D03*
X0909500Y0285000D03*
X0899500Y0285000D03*
X0899500Y0295000D03*
X0909500Y0295000D03*
X0910500Y0305000D03*
X0900500Y0305000D03*
X0899500Y0315000D03*
X0909500Y0315000D03*
X0910500Y0325000D03*
X0900500Y0325000D03*
X0899500Y0335000D03*
X0909500Y0335000D03*
X0910500Y0345000D03*
X0900500Y0345000D03*
X0899500Y0355000D03*
X0909500Y0355000D03*
X0910500Y0365000D03*
X0900500Y0365000D03*
X0899500Y0375000D03*
X0909500Y0375000D03*
X0910500Y0385000D03*
X0900500Y0385000D03*
X0830500Y0385000D03*
X0820500Y0385000D03*
X0819500Y0375000D03*
X0829500Y0375000D03*
X0830500Y0365000D03*
X0820500Y0365000D03*
X0819500Y0355000D03*
X0829500Y0355000D03*
X0830500Y0345000D03*
X0820500Y0345000D03*
D92*
X0731811Y0365709D03*
X0723937Y0365709D03*
X0716063Y0365709D03*
X0708189Y0365709D03*
X0666811Y0365709D03*
X0658937Y0365709D03*
X0651063Y0365709D03*
X0643189Y0365709D03*
X0601811Y0365709D03*
X0593937Y0365709D03*
X0586063Y0365709D03*
X0578189Y0365709D03*
D84*
X0568937Y0389724D03*
X0611063Y0389724D03*
X0633937Y0389724D03*
X0676063Y0389724D03*
X0698937Y0389724D03*
X0741063Y0389724D03*
D41*
X0845000Y0354528D03*
X0845000Y0345472D03*
X0885000Y0345472D03*
X0885000Y0354528D03*
X0940000Y0170000D02*
G75*
%LPD*%
D74*
X1048000Y0284500D03*
X1018000Y0295500D03*
X1162000Y0295500D03*
X1192000Y0284500D03*
D55*
X1182000Y0285500D03*
X1172000Y0284500D03*
X1162000Y0285500D03*
X1172000Y0294500D03*
X1182000Y0295500D03*
X1192000Y0294500D03*
X1048000Y0294500D03*
X1038000Y0295500D03*
X1028000Y0294500D03*
X1028000Y0284500D03*
X1018000Y0285500D03*
X1038000Y0285500D03*
D21*
X0950000Y0180000D03*
X0970000Y0180000D03*
X1240000Y0180000D03*
X1260000Y0180000D03*
X1260000Y0400000D03*
X1240000Y0400000D03*
X0970000Y0400000D03*
X0950000Y0400000D03*
D82*
X0960000Y0203937D02*
X0960684Y0203877D01*
X0961347Y0203700D01*
X0961969Y0203410D01*
X0962531Y0203016D01*
X0963016Y0202531D01*
X0963410Y0201969D01*
X0963700Y0201347D01*
X0963877Y0200684D01*
X0963937Y0200000D01*
X0963877Y0199316D01*
X0963700Y0198653D01*
X0963410Y0198031D01*
X0963016Y0197469D01*
X0962531Y0196984D01*
X0961969Y0196590D01*
X0961347Y0196300D01*
X0960684Y0196123D01*
X0960000Y0196063D01*
X0959316Y0196123D01*
X0958653Y0196300D01*
X0958031Y0196590D01*
X0957469Y0196984D01*
X0956984Y0197469D01*
X0956590Y0198031D01*
X0956300Y0198653D01*
X0956123Y0199316D01*
X0956063Y0200000D01*
X0956123Y0200684D01*
X0956300Y0201347D01*
X0956590Y0201969D01*
X0956984Y0202531D01*
X0957469Y0203016D01*
X0958031Y0203410D01*
X0958653Y0203700D01*
X0959316Y0203877D01*
X0960000Y0203937D01*
X0959563Y0203899D02*
X0960437Y0203899D01*
X0961982Y0203400D02*
X0958018Y0203400D01*
X0957355Y0202902D02*
X0962645Y0202902D01*
X0963105Y0202403D02*
X0956895Y0202403D01*
X0956561Y0201905D02*
X0963439Y0201905D01*
X0963672Y0201406D02*
X0956328Y0201406D01*
X0956183Y0200908D02*
X0963817Y0200908D01*
X0963901Y0200409D02*
X0956099Y0200409D01*
X0956071Y0199911D02*
X0963929Y0199911D01*
X0963886Y0199412D02*
X0956114Y0199412D01*
X0956231Y0198914D02*
X0963769Y0198914D01*
X0963588Y0198415D02*
X0956412Y0198415D01*
X0956671Y0197917D02*
X0963329Y0197917D01*
X0962965Y0197418D02*
X0957035Y0197418D01*
X0957561Y0196920D02*
X0962439Y0196920D01*
X0961605Y0196421D02*
X0958395Y0196421D01*
X1246590Y0378031D02*
X1246984Y0377469D01*
X1247469Y0376984D01*
X1248031Y0376590D01*
X1248653Y0376300D01*
X1249316Y0376123D01*
X1250000Y0376063D01*
X1250684Y0376123D01*
X1251347Y0376300D01*
X1251969Y0376590D01*
X1252531Y0376984D01*
X1253016Y0377469D01*
X1253410Y0378031D01*
X1253700Y0378653D01*
X1253877Y0379316D01*
X1253937Y0380000D01*
X1253877Y0380684D01*
X1253700Y0381347D01*
X1253410Y0381969D01*
X1253016Y0382531D01*
X1252531Y0383016D01*
X1251969Y0383410D01*
X1251347Y0383700D01*
X1250684Y0383877D01*
X1250000Y0383937D01*
X1249316Y0383877D01*
X1248653Y0383700D01*
X1248031Y0383410D01*
X1247469Y0383016D01*
X1246984Y0382531D01*
X1246590Y0381969D01*
X1246300Y0381347D01*
X1246123Y0380684D01*
X1246063Y0380000D01*
X1246123Y0379316D01*
X1246300Y0378653D01*
X1246590Y0378031D01*
X1246697Y0377879D02*
X1253303Y0377879D01*
X1253571Y0378378D02*
X1246429Y0378378D01*
X1246241Y0378876D02*
X1253759Y0378876D01*
X1253882Y0379375D02*
X1246118Y0379375D01*
X1246074Y0379873D02*
X1253926Y0379873D01*
X1253904Y0380372D02*
X1246096Y0380372D01*
X1246173Y0380870D02*
X1253827Y0380870D01*
X1253689Y0381369D02*
X1246311Y0381369D01*
X1246543Y0381867D02*
X1253457Y0381867D01*
X1253131Y0382366D02*
X1246869Y0382366D01*
X1247318Y0382864D02*
X1252682Y0382864D01*
X1252035Y0383363D02*
X1247965Y0383363D01*
X1249257Y0383861D02*
X1250743Y0383861D01*
X1252927Y0377381D02*
X1247073Y0377381D01*
X1247615Y0376882D02*
X1252385Y0376882D01*
X1251525Y0376384D02*
X1248475Y0376384D01*
D98*
X1249000Y0339700D03*
X1249000Y0240300D03*
X1105000Y0240300D03*
X1105000Y0339700D03*
X0961000Y0339700D03*
X0961000Y0240300D03*
D92*
X1033189Y0365709D03*
X1041063Y0365709D03*
X1048937Y0365709D03*
X1056811Y0365709D03*
X1093189Y0365709D03*
X1101063Y0365709D03*
X1108937Y0365709D03*
X1116811Y0365709D03*
X1153189Y0365709D03*
X1161063Y0365709D03*
X1168937Y0365709D03*
X1176811Y0365709D03*
D84*
X1186063Y0389724D03*
X1143937Y0389724D03*
X1126063Y0389724D03*
X1083937Y0389724D03*
X1066063Y0389724D03*
X1023937Y0389724D03*
D41*
X1140000Y0334528D03*
X1150000Y0334528D03*
X1150000Y0325472D03*
X1140000Y0325472D03*
D39*
X1138740Y0344881D03*
X1131260Y0344881D03*
X1131260Y0355119D03*
X1135000Y0355119D03*
X1138740Y0355119D03*
D17*
X1130000Y0333300D03*
X1130000Y0326700D03*
X0040000Y0420000D02*
G75*
%LPD*%
D21*
X0051500Y0430000D03*
X0171500Y0430000D03*
D78*
X0171500Y0490000D03*
X0171500Y0500000D03*
X0171500Y0510000D03*
X0171500Y0520000D03*
X0171500Y0530000D03*
X0051500Y0530000D03*
X0051500Y0520000D03*
X0051500Y0510000D03*
X0051500Y0500000D03*
X0051500Y0490000D03*
D45*
X0128970Y0426000D03*
X0156530Y0426000D03*
D73*
X0152593Y0436630D03*
X0132907Y0436630D03*
D29*
X0155075Y0448750D03*
X0161675Y0448750D03*
X0160425Y0480000D03*
X0153825Y0480000D03*
X0153825Y0487500D03*
X0160425Y0487500D03*
X0160425Y0495000D03*
X0153825Y0495000D03*
X0153825Y0502500D03*
X0160425Y0502500D03*
X0160425Y0510000D03*
X0153825Y0510000D03*
X0086050Y0515000D03*
X0079450Y0515000D03*
X0069800Y0515000D03*
X0063200Y0515000D03*
X0063200Y0502500D03*
X0069800Y0502500D03*
X0079450Y0502500D03*
X0086050Y0502500D03*
D130*
X0144631Y0471990D03*
X0144631Y0464510D03*
X0154869Y0464510D03*
X0154869Y0468250D03*
X0154869Y0471990D03*
D72*
X0116500Y0454500D03*
X0106500Y0455500D03*
X0096500Y0454500D03*
X0086500Y0455500D03*
X0076500Y0454500D03*
X0066500Y0455500D03*
X0066500Y0445500D03*
X0076500Y0444500D03*
X0086500Y0445500D03*
X0096500Y0444500D03*
X0106500Y0445500D03*
X0116500Y0444500D03*
X0106500Y0435500D03*
X0096500Y0434500D03*
X0086500Y0435500D03*
X0076500Y0434500D03*
X0066500Y0435500D03*
X0116500Y0434500D03*
D17*
X0114000Y0462950D03*
X0114000Y0469550D03*
X0101250Y0469550D03*
X0101250Y0462950D03*
X0087750Y0462950D03*
X0081500Y0462950D03*
X0081500Y0469550D03*
X0087750Y0469550D03*
X0067125Y0469550D03*
X0067125Y0462950D03*
X0066625Y0480450D03*
X0066625Y0487050D03*
D140*
X0096500Y0487500D03*
X0106500Y0487500D03*
X0116500Y0487500D03*
X0126500Y0487500D03*
X0126500Y0517500D03*
X0116500Y0517500D03*
X0106500Y0517500D03*
X0096500Y0517500D03*
D41*
X0060125Y0487653D03*
X0060125Y0478597D03*
X0060875Y0471403D03*
X0060875Y0462347D03*
X0074000Y0461722D03*
X0074000Y0470778D03*
X0094000Y0470778D03*
X0094000Y0461722D03*
X0107500Y0461972D03*
X0107500Y0471028D03*
X0120250Y0471278D03*
X0120250Y0462222D03*
D82*
X0142653Y0433700D02*
X0143316Y0433877D01*
X0144000Y0433937D01*
X0144684Y0433877D01*
X0145347Y0433700D01*
X0145969Y0433410D01*
X0146531Y0433016D01*
X0147016Y0432531D01*
X0147410Y0431969D01*
X0147700Y0431347D01*
X0147877Y0430684D01*
X0147937Y0430000D01*
X0147877Y0429316D01*
X0147700Y0428653D01*
X0147410Y0428031D01*
X0147016Y0427469D01*
X0146531Y0426984D01*
X0145969Y0426590D01*
X0145347Y0426300D01*
X0144684Y0426123D01*
X0144000Y0426063D01*
X0143316Y0426123D01*
X0142653Y0426300D01*
X0142031Y0426590D01*
X0141469Y0426984D01*
X0140984Y0427469D01*
X0140590Y0428031D01*
X0140300Y0428653D01*
X0140123Y0429316D01*
X0140063Y0430000D01*
X0140123Y0430684D01*
X0140300Y0431347D01*
X0140590Y0431969D01*
X0140984Y0432531D01*
X0141469Y0433016D01*
X0142031Y0433410D01*
X0142653Y0433700D01*
X0142139Y0433460D02*
X0145861Y0433460D01*
X0146585Y0432961D02*
X0141415Y0432961D01*
X0140937Y0432463D02*
X0147063Y0432463D01*
X0147412Y0431964D02*
X0140588Y0431964D01*
X0140356Y0431466D02*
X0147644Y0431466D01*
X0147801Y0430967D02*
X0140199Y0430967D01*
X0140104Y0430469D02*
X0147896Y0430469D01*
X0147934Y0429970D02*
X0140066Y0429970D01*
X0140109Y0429472D02*
X0147891Y0429472D01*
X0147785Y0428973D02*
X0140215Y0428973D01*
X0140384Y0428475D02*
X0147616Y0428475D01*
X0147371Y0427976D02*
X0140629Y0427976D01*
X0140978Y0427478D02*
X0147022Y0427478D01*
X0146524Y0426979D02*
X0141476Y0426979D01*
X0142267Y0426481D02*
X0145733Y0426481D01*
X0085969Y0526590D02*
X0085347Y0526300D01*
X0084684Y0526123D01*
X0084000Y0526063D01*
X0083316Y0526123D01*
X0082653Y0526300D01*
X0082031Y0526590D01*
X0081469Y0526984D01*
X0080984Y0527469D01*
X0080590Y0528031D01*
X0080300Y0528653D01*
X0080123Y0529316D01*
X0080063Y0530000D01*
X0080123Y0530684D01*
X0080300Y0531347D01*
X0080590Y0531969D01*
X0080984Y0532531D01*
X0081469Y0533016D01*
X0082031Y0533410D01*
X0082653Y0533700D01*
X0083316Y0533877D01*
X0084000Y0533937D01*
X0084684Y0533877D01*
X0085347Y0533700D01*
X0085969Y0533410D01*
X0086531Y0533016D01*
X0087016Y0532531D01*
X0087410Y0531969D01*
X0087700Y0531347D01*
X0087877Y0530684D01*
X0087937Y0530000D01*
X0087877Y0529316D01*
X0087700Y0528653D01*
X0087410Y0528031D01*
X0087016Y0527469D01*
X0086531Y0526984D01*
X0085969Y0526590D01*
X0086098Y0526681D02*
X0081902Y0526681D01*
X0081273Y0527180D02*
X0086727Y0527180D01*
X0087162Y0527678D02*
X0080838Y0527678D01*
X0080523Y0528177D02*
X0087477Y0528177D01*
X0087705Y0528675D02*
X0080295Y0528675D01*
X0080161Y0529174D02*
X0087839Y0529174D01*
X0087908Y0529672D02*
X0080092Y0529672D01*
X0080078Y0530171D02*
X0087922Y0530171D01*
X0087878Y0530670D02*
X0080122Y0530670D01*
X0080253Y0531168D02*
X0087747Y0531168D01*
X0087550Y0531667D02*
X0080450Y0531667D01*
X0080728Y0532165D02*
X0087272Y0532165D01*
X0086883Y0532664D02*
X0081117Y0532664D01*
X0081678Y0533162D02*
X0086322Y0533162D01*
X0085430Y0533661D02*
X0082570Y0533661D01*
X0083092Y0526183D02*
X0084908Y0526183D01*
D55*
X0086575Y0490000D03*
X0075175Y0490000D03*
X0190000Y0420000D02*
G75*
%LPD*%
D21*
X0201500Y0430000D03*
X0321500Y0430000D03*
D78*
X0321500Y0490000D03*
X0321500Y0500000D03*
X0321500Y0510000D03*
X0321500Y0520000D03*
X0321500Y0530000D03*
X0201500Y0530000D03*
X0201500Y0520000D03*
X0201500Y0510000D03*
X0201500Y0500000D03*
X0201500Y0490000D03*
D45*
X0278970Y0426000D03*
X0306530Y0426000D03*
D73*
X0302593Y0436630D03*
X0282907Y0436630D03*
D29*
X0305075Y0448750D03*
X0311675Y0448750D03*
X0310425Y0480000D03*
X0303825Y0480000D03*
X0303825Y0487500D03*
X0310425Y0487500D03*
X0310425Y0495000D03*
X0303825Y0495000D03*
X0303825Y0502500D03*
X0310425Y0502500D03*
X0310425Y0510000D03*
X0303825Y0510000D03*
X0236050Y0515000D03*
X0229450Y0515000D03*
X0219800Y0515000D03*
X0213200Y0515000D03*
X0213200Y0502500D03*
X0219800Y0502500D03*
X0229450Y0502500D03*
X0236050Y0502500D03*
D130*
X0294631Y0471990D03*
X0294631Y0464510D03*
X0304869Y0464510D03*
X0304869Y0468250D03*
X0304869Y0471990D03*
D72*
X0266500Y0454500D03*
X0256500Y0455500D03*
X0246500Y0454500D03*
X0236500Y0455500D03*
X0226500Y0454500D03*
X0216500Y0455500D03*
X0216500Y0445500D03*
X0226500Y0444500D03*
X0236500Y0445500D03*
X0246500Y0444500D03*
X0256500Y0445500D03*
X0266500Y0444500D03*
X0256500Y0435500D03*
X0246500Y0434500D03*
X0236500Y0435500D03*
X0226500Y0434500D03*
X0216500Y0435500D03*
X0266500Y0434500D03*
D17*
X0264000Y0462950D03*
X0264000Y0469550D03*
X0251250Y0469550D03*
X0251250Y0462950D03*
X0237750Y0462950D03*
X0231500Y0462950D03*
X0231500Y0469550D03*
X0237750Y0469550D03*
X0217125Y0469550D03*
X0217125Y0462950D03*
X0216625Y0480450D03*
X0216625Y0487050D03*
D140*
X0246500Y0487500D03*
X0256500Y0487500D03*
X0266500Y0487500D03*
X0276500Y0487500D03*
X0276500Y0517500D03*
X0266500Y0517500D03*
X0256500Y0517500D03*
X0246500Y0517500D03*
D41*
X0210125Y0487653D03*
X0210125Y0478597D03*
X0210875Y0471403D03*
X0210875Y0462347D03*
X0224000Y0461722D03*
X0224000Y0470778D03*
X0244000Y0470778D03*
X0244000Y0461722D03*
X0257500Y0461972D03*
X0257500Y0471028D03*
X0270250Y0471278D03*
X0270250Y0462222D03*
D82*
X0292653Y0433700D02*
X0293316Y0433877D01*
X0294000Y0433937D01*
X0294684Y0433877D01*
X0295347Y0433700D01*
X0295969Y0433410D01*
X0296531Y0433016D01*
X0297016Y0432531D01*
X0297410Y0431969D01*
X0297700Y0431347D01*
X0297877Y0430684D01*
X0297937Y0430000D01*
X0297877Y0429316D01*
X0297700Y0428653D01*
X0297410Y0428031D01*
X0297016Y0427469D01*
X0296531Y0426984D01*
X0295969Y0426590D01*
X0295347Y0426300D01*
X0294684Y0426123D01*
X0294000Y0426063D01*
X0293316Y0426123D01*
X0292653Y0426300D01*
X0292031Y0426590D01*
X0291469Y0426984D01*
X0290984Y0427469D01*
X0290590Y0428031D01*
X0290300Y0428653D01*
X0290123Y0429316D01*
X0290063Y0430000D01*
X0290123Y0430684D01*
X0290300Y0431347D01*
X0290590Y0431969D01*
X0290984Y0432531D01*
X0291469Y0433016D01*
X0292031Y0433410D01*
X0292653Y0433700D01*
X0292139Y0433460D02*
X0295861Y0433460D01*
X0296585Y0432961D02*
X0291415Y0432961D01*
X0290937Y0432463D02*
X0297063Y0432463D01*
X0297412Y0431964D02*
X0290588Y0431964D01*
X0290356Y0431466D02*
X0297644Y0431466D01*
X0297801Y0430967D02*
X0290199Y0430967D01*
X0290104Y0430469D02*
X0297896Y0430469D01*
X0297934Y0429970D02*
X0290066Y0429970D01*
X0290109Y0429472D02*
X0297891Y0429472D01*
X0297785Y0428973D02*
X0290215Y0428973D01*
X0290384Y0428475D02*
X0297616Y0428475D01*
X0297371Y0427976D02*
X0290629Y0427976D01*
X0290978Y0427478D02*
X0297022Y0427478D01*
X0296524Y0426979D02*
X0291476Y0426979D01*
X0292267Y0426481D02*
X0295733Y0426481D01*
X0235969Y0526590D02*
X0235347Y0526300D01*
X0234684Y0526123D01*
X0234000Y0526063D01*
X0233316Y0526123D01*
X0232653Y0526300D01*
X0232031Y0526590D01*
X0231469Y0526984D01*
X0230984Y0527469D01*
X0230590Y0528031D01*
X0230300Y0528653D01*
X0230123Y0529316D01*
X0230063Y0530000D01*
X0230123Y0530684D01*
X0230300Y0531347D01*
X0230590Y0531969D01*
X0230984Y0532531D01*
X0231469Y0533016D01*
X0232031Y0533410D01*
X0232653Y0533700D01*
X0233316Y0533877D01*
X0234000Y0533937D01*
X0234684Y0533877D01*
X0235347Y0533700D01*
X0235969Y0533410D01*
X0236531Y0533016D01*
X0237016Y0532531D01*
X0237410Y0531969D01*
X0237700Y0531347D01*
X0237877Y0530684D01*
X0237937Y0530000D01*
X0237877Y0529316D01*
X0237700Y0528653D01*
X0237410Y0528031D01*
X0237016Y0527469D01*
X0236531Y0526984D01*
X0235969Y0526590D01*
X0236098Y0526681D02*
X0231902Y0526681D01*
X0231273Y0527180D02*
X0236727Y0527180D01*
X0237162Y0527678D02*
X0230838Y0527678D01*
X0230523Y0528177D02*
X0237477Y0528177D01*
X0237705Y0528675D02*
X0230295Y0528675D01*
X0230161Y0529174D02*
X0237839Y0529174D01*
X0237908Y0529672D02*
X0230092Y0529672D01*
X0230078Y0530171D02*
X0237922Y0530171D01*
X0237878Y0530670D02*
X0230122Y0530670D01*
X0230253Y0531168D02*
X0237747Y0531168D01*
X0237550Y0531667D02*
X0230450Y0531667D01*
X0230728Y0532165D02*
X0237272Y0532165D01*
X0236883Y0532664D02*
X0231117Y0532664D01*
X0231678Y0533162D02*
X0236322Y0533162D01*
X0235430Y0533661D02*
X0232570Y0533661D01*
X0233092Y0526183D02*
X0234908Y0526183D01*
D55*
X0236575Y0490000D03*
X0225175Y0490000D03*
X0340000Y0420000D02*
G75*
%LPD*%
D21*
X0351500Y0430000D03*
X0471500Y0430000D03*
D78*
X0471500Y0490000D03*
X0471500Y0500000D03*
X0471500Y0510000D03*
X0471500Y0520000D03*
X0471500Y0530000D03*
X0351500Y0530000D03*
X0351500Y0520000D03*
X0351500Y0510000D03*
X0351500Y0500000D03*
X0351500Y0490000D03*
D45*
X0428970Y0426000D03*
X0456530Y0426000D03*
D73*
X0452593Y0436630D03*
X0432907Y0436630D03*
D29*
X0455075Y0448750D03*
X0461675Y0448750D03*
X0460425Y0480000D03*
X0453825Y0480000D03*
X0453825Y0487500D03*
X0460425Y0487500D03*
X0460425Y0495000D03*
X0453825Y0495000D03*
X0453825Y0502500D03*
X0460425Y0502500D03*
X0460425Y0510000D03*
X0453825Y0510000D03*
X0386050Y0515000D03*
X0379450Y0515000D03*
X0369800Y0515000D03*
X0363200Y0515000D03*
X0363200Y0502500D03*
X0369800Y0502500D03*
X0379450Y0502500D03*
X0386050Y0502500D03*
D130*
X0444631Y0471990D03*
X0444631Y0464510D03*
X0454869Y0464510D03*
X0454869Y0468250D03*
X0454869Y0471990D03*
D72*
X0416500Y0454500D03*
X0406500Y0455500D03*
X0396500Y0454500D03*
X0386500Y0455500D03*
X0376500Y0454500D03*
X0366500Y0455500D03*
X0366500Y0445500D03*
X0376500Y0444500D03*
X0386500Y0445500D03*
X0396500Y0444500D03*
X0406500Y0445500D03*
X0416500Y0444500D03*
X0406500Y0435500D03*
X0396500Y0434500D03*
X0386500Y0435500D03*
X0376500Y0434500D03*
X0366500Y0435500D03*
X0416500Y0434500D03*
D17*
X0414000Y0462950D03*
X0414000Y0469550D03*
X0401250Y0469550D03*
X0401250Y0462950D03*
X0387750Y0462950D03*
X0381500Y0462950D03*
X0381500Y0469550D03*
X0387750Y0469550D03*
X0367125Y0469550D03*
X0367125Y0462950D03*
X0366625Y0480450D03*
X0366625Y0487050D03*
D140*
X0396500Y0487500D03*
X0406500Y0487500D03*
X0416500Y0487500D03*
X0426500Y0487500D03*
X0426500Y0517500D03*
X0416500Y0517500D03*
X0406500Y0517500D03*
X0396500Y0517500D03*
D41*
X0360125Y0487653D03*
X0360125Y0478597D03*
X0360875Y0471403D03*
X0360875Y0462347D03*
X0374000Y0461722D03*
X0374000Y0470778D03*
X0394000Y0470778D03*
X0394000Y0461722D03*
X0407500Y0461972D03*
X0407500Y0471028D03*
X0420250Y0471278D03*
X0420250Y0462222D03*
D82*
X0442653Y0433700D02*
X0443316Y0433877D01*
X0444000Y0433937D01*
X0444684Y0433877D01*
X0445347Y0433700D01*
X0445969Y0433410D01*
X0446531Y0433016D01*
X0447016Y0432531D01*
X0447410Y0431969D01*
X0447700Y0431347D01*
X0447877Y0430684D01*
X0447937Y0430000D01*
X0447877Y0429316D01*
X0447700Y0428653D01*
X0447410Y0428031D01*
X0447016Y0427469D01*
X0446531Y0426984D01*
X0445969Y0426590D01*
X0445347Y0426300D01*
X0444684Y0426123D01*
X0444000Y0426063D01*
X0443316Y0426123D01*
X0442653Y0426300D01*
X0442031Y0426590D01*
X0441469Y0426984D01*
X0440984Y0427469D01*
X0440590Y0428031D01*
X0440300Y0428653D01*
X0440123Y0429316D01*
X0440063Y0430000D01*
X0440123Y0430684D01*
X0440300Y0431347D01*
X0440590Y0431969D01*
X0440984Y0432531D01*
X0441469Y0433016D01*
X0442031Y0433410D01*
X0442653Y0433700D01*
X0442139Y0433460D02*
X0445861Y0433460D01*
X0446585Y0432961D02*
X0441415Y0432961D01*
X0440937Y0432463D02*
X0447063Y0432463D01*
X0447412Y0431964D02*
X0440588Y0431964D01*
X0440356Y0431466D02*
X0447644Y0431466D01*
X0447801Y0430967D02*
X0440199Y0430967D01*
X0440104Y0430469D02*
X0447896Y0430469D01*
X0447934Y0429970D02*
X0440066Y0429970D01*
X0440109Y0429472D02*
X0447891Y0429472D01*
X0447785Y0428973D02*
X0440215Y0428973D01*
X0440384Y0428475D02*
X0447616Y0428475D01*
X0447371Y0427976D02*
X0440629Y0427976D01*
X0440978Y0427478D02*
X0447022Y0427478D01*
X0446524Y0426979D02*
X0441476Y0426979D01*
X0442267Y0426481D02*
X0445733Y0426481D01*
X0385969Y0526590D02*
X0385347Y0526300D01*
X0384684Y0526123D01*
X0384000Y0526063D01*
X0383316Y0526123D01*
X0382653Y0526300D01*
X0382031Y0526590D01*
X0381469Y0526984D01*
X0380984Y0527469D01*
X0380590Y0528031D01*
X0380300Y0528653D01*
X0380123Y0529316D01*
X0380063Y0530000D01*
X0380123Y0530684D01*
X0380300Y0531347D01*
X0380590Y0531969D01*
X0380984Y0532531D01*
X0381469Y0533016D01*
X0382031Y0533410D01*
X0382653Y0533700D01*
X0383316Y0533877D01*
X0384000Y0533937D01*
X0384684Y0533877D01*
X0385347Y0533700D01*
X0385969Y0533410D01*
X0386531Y0533016D01*
X0387016Y0532531D01*
X0387410Y0531969D01*
X0387700Y0531347D01*
X0387877Y0530684D01*
X0387937Y0530000D01*
X0387877Y0529316D01*
X0387700Y0528653D01*
X0387410Y0528031D01*
X0387016Y0527469D01*
X0386531Y0526984D01*
X0385969Y0526590D01*
X0386098Y0526681D02*
X0381902Y0526681D01*
X0381273Y0527180D02*
X0386727Y0527180D01*
X0387162Y0527678D02*
X0380838Y0527678D01*
X0380523Y0528177D02*
X0387477Y0528177D01*
X0387705Y0528675D02*
X0380295Y0528675D01*
X0380161Y0529174D02*
X0387839Y0529174D01*
X0387908Y0529672D02*
X0380092Y0529672D01*
X0380078Y0530171D02*
X0387922Y0530171D01*
X0387878Y0530670D02*
X0380122Y0530670D01*
X0380253Y0531168D02*
X0387747Y0531168D01*
X0387550Y0531667D02*
X0380450Y0531667D01*
X0380728Y0532165D02*
X0387272Y0532165D01*
X0386883Y0532664D02*
X0381117Y0532664D01*
X0381678Y0533162D02*
X0386322Y0533162D01*
X0385430Y0533661D02*
X0382570Y0533661D01*
X0383092Y0526183D02*
X0384908Y0526183D01*
D55*
X0386575Y0490000D03*
X0375175Y0490000D03*
X0490000Y0420000D02*
G75*
%LPD*%
D21*
X0501500Y0430000D03*
X0621500Y0430000D03*
D78*
X0621500Y0490000D03*
X0621500Y0500000D03*
X0621500Y0510000D03*
X0621500Y0520000D03*
X0621500Y0530000D03*
X0501500Y0530000D03*
X0501500Y0520000D03*
X0501500Y0510000D03*
X0501500Y0500000D03*
X0501500Y0490000D03*
D45*
X0578970Y0426000D03*
X0606530Y0426000D03*
D73*
X0602593Y0436630D03*
X0582907Y0436630D03*
D29*
X0605075Y0448750D03*
X0611675Y0448750D03*
X0610425Y0480000D03*
X0603825Y0480000D03*
X0603825Y0487500D03*
X0610425Y0487500D03*
X0610425Y0495000D03*
X0603825Y0495000D03*
X0603825Y0502500D03*
X0610425Y0502500D03*
X0610425Y0510000D03*
X0603825Y0510000D03*
X0536050Y0515000D03*
X0529450Y0515000D03*
X0519800Y0515000D03*
X0513200Y0515000D03*
X0513200Y0502500D03*
X0519800Y0502500D03*
X0529450Y0502500D03*
X0536050Y0502500D03*
D130*
X0594631Y0471990D03*
X0594631Y0464510D03*
X0604869Y0464510D03*
X0604869Y0468250D03*
X0604869Y0471990D03*
D72*
X0566500Y0454500D03*
X0556500Y0455500D03*
X0546500Y0454500D03*
X0536500Y0455500D03*
X0526500Y0454500D03*
X0516500Y0455500D03*
X0516500Y0445500D03*
X0526500Y0444500D03*
X0536500Y0445500D03*
X0546500Y0444500D03*
X0556500Y0445500D03*
X0566500Y0444500D03*
X0556500Y0435500D03*
X0546500Y0434500D03*
X0536500Y0435500D03*
X0526500Y0434500D03*
X0516500Y0435500D03*
X0566500Y0434500D03*
D17*
X0564000Y0462950D03*
X0564000Y0469550D03*
X0551250Y0469550D03*
X0551250Y0462950D03*
X0537750Y0462950D03*
X0531500Y0462950D03*
X0531500Y0469550D03*
X0537750Y0469550D03*
X0517125Y0469550D03*
X0517125Y0462950D03*
X0516625Y0480450D03*
X0516625Y0487050D03*
D140*
X0546500Y0487500D03*
X0556500Y0487500D03*
X0566500Y0487500D03*
X0576500Y0487500D03*
X0576500Y0517500D03*
X0566500Y0517500D03*
X0556500Y0517500D03*
X0546500Y0517500D03*
D41*
X0510125Y0487653D03*
X0510125Y0478597D03*
X0510875Y0471403D03*
X0510875Y0462347D03*
X0524000Y0461722D03*
X0524000Y0470778D03*
X0544000Y0470778D03*
X0544000Y0461722D03*
X0557500Y0461972D03*
X0557500Y0471028D03*
X0570250Y0471278D03*
X0570250Y0462222D03*
D82*
X0592653Y0433700D02*
X0593316Y0433877D01*
X0594000Y0433937D01*
X0594684Y0433877D01*
X0595347Y0433700D01*
X0595969Y0433410D01*
X0596531Y0433016D01*
X0597016Y0432531D01*
X0597410Y0431969D01*
X0597700Y0431347D01*
X0597877Y0430684D01*
X0597937Y0430000D01*
X0597877Y0429316D01*
X0597700Y0428653D01*
X0597410Y0428031D01*
X0597016Y0427469D01*
X0596531Y0426984D01*
X0595969Y0426590D01*
X0595347Y0426300D01*
X0594684Y0426123D01*
X0594000Y0426063D01*
X0593316Y0426123D01*
X0592653Y0426300D01*
X0592031Y0426590D01*
X0591469Y0426984D01*
X0590984Y0427469D01*
X0590590Y0428031D01*
X0590300Y0428653D01*
X0590123Y0429316D01*
X0590063Y0430000D01*
X0590123Y0430684D01*
X0590300Y0431347D01*
X0590590Y0431969D01*
X0590984Y0432531D01*
X0591469Y0433016D01*
X0592031Y0433410D01*
X0592653Y0433700D01*
X0592139Y0433460D02*
X0595861Y0433460D01*
X0596585Y0432961D02*
X0591415Y0432961D01*
X0590937Y0432463D02*
X0597063Y0432463D01*
X0597412Y0431964D02*
X0590588Y0431964D01*
X0590356Y0431466D02*
X0597644Y0431466D01*
X0597801Y0430967D02*
X0590199Y0430967D01*
X0590104Y0430469D02*
X0597896Y0430469D01*
X0597934Y0429970D02*
X0590066Y0429970D01*
X0590109Y0429472D02*
X0597891Y0429472D01*
X0597785Y0428973D02*
X0590215Y0428973D01*
X0590384Y0428475D02*
X0597616Y0428475D01*
X0597371Y0427976D02*
X0590629Y0427976D01*
X0590978Y0427478D02*
X0597022Y0427478D01*
X0596524Y0426979D02*
X0591476Y0426979D01*
X0592267Y0426481D02*
X0595733Y0426481D01*
X0535969Y0526590D02*
X0535347Y0526300D01*
X0534684Y0526123D01*
X0534000Y0526063D01*
X0533316Y0526123D01*
X0532653Y0526300D01*
X0532031Y0526590D01*
X0531469Y0526984D01*
X0530984Y0527469D01*
X0530590Y0528031D01*
X0530300Y0528653D01*
X0530123Y0529316D01*
X0530063Y0530000D01*
X0530123Y0530684D01*
X0530300Y0531347D01*
X0530590Y0531969D01*
X0530984Y0532531D01*
X0531469Y0533016D01*
X0532031Y0533410D01*
X0532653Y0533700D01*
X0533316Y0533877D01*
X0534000Y0533937D01*
X0534684Y0533877D01*
X0535347Y0533700D01*
X0535969Y0533410D01*
X0536531Y0533016D01*
X0537016Y0532531D01*
X0537410Y0531969D01*
X0537700Y0531347D01*
X0537877Y0530684D01*
X0537937Y0530000D01*
X0537877Y0529316D01*
X0537700Y0528653D01*
X0537410Y0528031D01*
X0537016Y0527469D01*
X0536531Y0526984D01*
X0535969Y0526590D01*
X0536098Y0526681D02*
X0531902Y0526681D01*
X0531273Y0527180D02*
X0536727Y0527180D01*
X0537162Y0527678D02*
X0530838Y0527678D01*
X0530523Y0528177D02*
X0537477Y0528177D01*
X0537705Y0528675D02*
X0530295Y0528675D01*
X0530161Y0529174D02*
X0537839Y0529174D01*
X0537908Y0529672D02*
X0530092Y0529672D01*
X0530078Y0530171D02*
X0537922Y0530171D01*
X0537878Y0530670D02*
X0530122Y0530670D01*
X0530253Y0531168D02*
X0537747Y0531168D01*
X0537550Y0531667D02*
X0530450Y0531667D01*
X0530728Y0532165D02*
X0537272Y0532165D01*
X0536883Y0532664D02*
X0531117Y0532664D01*
X0531678Y0533162D02*
X0536322Y0533162D01*
X0535430Y0533661D02*
X0532570Y0533661D01*
X0533092Y0526183D02*
X0534908Y0526183D01*
D55*
X0536575Y0490000D03*
X0525175Y0490000D03*
X0640000Y0420000D02*
G75*
%LPD*%
D21*
X0651500Y0430000D03*
X0771500Y0430000D03*
D78*
X0771500Y0490000D03*
X0771500Y0500000D03*
X0771500Y0510000D03*
X0771500Y0520000D03*
X0771500Y0530000D03*
X0651500Y0530000D03*
X0651500Y0520000D03*
X0651500Y0510000D03*
X0651500Y0500000D03*
X0651500Y0490000D03*
D45*
X0728970Y0426000D03*
X0756530Y0426000D03*
D73*
X0752593Y0436630D03*
X0732907Y0436630D03*
D29*
X0755075Y0448750D03*
X0761675Y0448750D03*
X0760425Y0480000D03*
X0753825Y0480000D03*
X0753825Y0487500D03*
X0760425Y0487500D03*
X0760425Y0495000D03*
X0753825Y0495000D03*
X0753825Y0502500D03*
X0760425Y0502500D03*
X0760425Y0510000D03*
X0753825Y0510000D03*
X0686050Y0515000D03*
X0679450Y0515000D03*
X0669800Y0515000D03*
X0663200Y0515000D03*
X0663200Y0502500D03*
X0669800Y0502500D03*
X0679450Y0502500D03*
X0686050Y0502500D03*
D130*
X0744631Y0471990D03*
X0744631Y0464510D03*
X0754869Y0464510D03*
X0754869Y0468250D03*
X0754869Y0471990D03*
D72*
X0716500Y0454500D03*
X0706500Y0455500D03*
X0696500Y0454500D03*
X0686500Y0455500D03*
X0676500Y0454500D03*
X0666500Y0455500D03*
X0666500Y0445500D03*
X0676500Y0444500D03*
X0686500Y0445500D03*
X0696500Y0444500D03*
X0706500Y0445500D03*
X0716500Y0444500D03*
X0706500Y0435500D03*
X0696500Y0434500D03*
X0686500Y0435500D03*
X0676500Y0434500D03*
X0666500Y0435500D03*
X0716500Y0434500D03*
D17*
X0714000Y0462950D03*
X0714000Y0469550D03*
X0701250Y0469550D03*
X0701250Y0462950D03*
X0687750Y0462950D03*
X0681500Y0462950D03*
X0681500Y0469550D03*
X0687750Y0469550D03*
X0667125Y0469550D03*
X0667125Y0462950D03*
X0666625Y0480450D03*
X0666625Y0487050D03*
D140*
X0696500Y0487500D03*
X0706500Y0487500D03*
X0716500Y0487500D03*
X0726500Y0487500D03*
X0726500Y0517500D03*
X0716500Y0517500D03*
X0706500Y0517500D03*
X0696500Y0517500D03*
D41*
X0660125Y0487653D03*
X0660125Y0478597D03*
X0660875Y0471403D03*
X0660875Y0462347D03*
X0674000Y0461722D03*
X0674000Y0470778D03*
X0694000Y0470778D03*
X0694000Y0461722D03*
X0707500Y0461972D03*
X0707500Y0471028D03*
X0720250Y0471278D03*
X0720250Y0462222D03*
D82*
X0742653Y0433700D02*
X0743316Y0433877D01*
X0744000Y0433937D01*
X0744684Y0433877D01*
X0745347Y0433700D01*
X0745969Y0433410D01*
X0746531Y0433016D01*
X0747016Y0432531D01*
X0747410Y0431969D01*
X0747700Y0431347D01*
X0747877Y0430684D01*
X0747937Y0430000D01*
X0747877Y0429316D01*
X0747700Y0428653D01*
X0747410Y0428031D01*
X0747016Y0427469D01*
X0746531Y0426984D01*
X0745969Y0426590D01*
X0745347Y0426300D01*
X0744684Y0426123D01*
X0744000Y0426063D01*
X0743316Y0426123D01*
X0742653Y0426300D01*
X0742031Y0426590D01*
X0741469Y0426984D01*
X0740984Y0427469D01*
X0740590Y0428031D01*
X0740300Y0428653D01*
X0740123Y0429316D01*
X0740063Y0430000D01*
X0740123Y0430684D01*
X0740300Y0431347D01*
X0740590Y0431969D01*
X0740984Y0432531D01*
X0741469Y0433016D01*
X0742031Y0433410D01*
X0742653Y0433700D01*
X0742139Y0433460D02*
X0745861Y0433460D01*
X0746585Y0432961D02*
X0741415Y0432961D01*
X0740937Y0432463D02*
X0747063Y0432463D01*
X0747412Y0431964D02*
X0740588Y0431964D01*
X0740356Y0431466D02*
X0747644Y0431466D01*
X0747801Y0430967D02*
X0740199Y0430967D01*
X0740104Y0430469D02*
X0747896Y0430469D01*
X0747934Y0429970D02*
X0740066Y0429970D01*
X0740109Y0429472D02*
X0747891Y0429472D01*
X0747785Y0428973D02*
X0740215Y0428973D01*
X0740384Y0428475D02*
X0747616Y0428475D01*
X0747371Y0427976D02*
X0740629Y0427976D01*
X0740978Y0427478D02*
X0747022Y0427478D01*
X0746524Y0426979D02*
X0741476Y0426979D01*
X0742267Y0426481D02*
X0745733Y0426481D01*
X0685969Y0526590D02*
X0685347Y0526300D01*
X0684684Y0526123D01*
X0684000Y0526063D01*
X0683316Y0526123D01*
X0682653Y0526300D01*
X0682031Y0526590D01*
X0681469Y0526984D01*
X0680984Y0527469D01*
X0680590Y0528031D01*
X0680300Y0528653D01*
X0680123Y0529316D01*
X0680063Y0530000D01*
X0680123Y0530684D01*
X0680300Y0531347D01*
X0680590Y0531969D01*
X0680984Y0532531D01*
X0681469Y0533016D01*
X0682031Y0533410D01*
X0682653Y0533700D01*
X0683316Y0533877D01*
X0684000Y0533937D01*
X0684684Y0533877D01*
X0685347Y0533700D01*
X0685969Y0533410D01*
X0686531Y0533016D01*
X0687016Y0532531D01*
X0687410Y0531969D01*
X0687700Y0531347D01*
X0687877Y0530684D01*
X0687937Y0530000D01*
X0687877Y0529316D01*
X0687700Y0528653D01*
X0687410Y0528031D01*
X0687016Y0527469D01*
X0686531Y0526984D01*
X0685969Y0526590D01*
X0686098Y0526681D02*
X0681902Y0526681D01*
X0681273Y0527180D02*
X0686727Y0527180D01*
X0687162Y0527678D02*
X0680838Y0527678D01*
X0680523Y0528177D02*
X0687477Y0528177D01*
X0687705Y0528675D02*
X0680295Y0528675D01*
X0680161Y0529174D02*
X0687839Y0529174D01*
X0687908Y0529672D02*
X0680092Y0529672D01*
X0680078Y0530171D02*
X0687922Y0530171D01*
X0687878Y0530670D02*
X0680122Y0530670D01*
X0680253Y0531168D02*
X0687747Y0531168D01*
X0687550Y0531667D02*
X0680450Y0531667D01*
X0680728Y0532165D02*
X0687272Y0532165D01*
X0686883Y0532664D02*
X0681117Y0532664D01*
X0681678Y0533162D02*
X0686322Y0533162D01*
X0685430Y0533661D02*
X0682570Y0533661D01*
X0683092Y0526183D02*
X0684908Y0526183D01*
D55*
X0686575Y0490000D03*
X0675175Y0490000D03*
X0790000Y0420000D02*
G75*
%LPD*%
D17*
X0824000Y0444200D03*
X0824000Y0450800D03*
X0824000Y0459200D03*
X0816500Y0459200D03*
X0816500Y0465800D03*
X0824000Y0465800D03*
X0824000Y0474200D03*
X0816500Y0474200D03*
X0816500Y0480800D03*
X0824000Y0480800D03*
X0811500Y0489200D03*
X0811500Y0495800D03*
X0834000Y0450800D03*
X0834000Y0444200D03*
X0887750Y0434550D03*
X0887750Y0427950D03*
D21*
X0801500Y0430000D03*
X0921500Y0430000D03*
D78*
X0921500Y0490000D03*
X0921500Y0500000D03*
X0921500Y0510000D03*
X0921500Y0520000D03*
X0921500Y0530000D03*
X0801500Y0530000D03*
X0801500Y0520000D03*
X0801500Y0510000D03*
X0801500Y0500000D03*
X0801500Y0490000D03*
D91*
X0812000Y0507500D03*
X0826000Y0507500D03*
D99*
X0891028Y0489843D03*
X0891028Y0480000D03*
X0891028Y0470157D03*
D10*
X0833941Y0472126D03*
X0833941Y0480000D03*
X0833941Y0487874D03*
X0833941Y0495748D03*
X0833941Y0464252D03*
D29*
X0843200Y0472500D03*
X0849800Y0472500D03*
X0858200Y0471250D03*
X0864800Y0471250D03*
X0847300Y0432500D03*
X0840700Y0432500D03*
D140*
X0846500Y0487500D03*
X0856500Y0487500D03*
X0866500Y0487500D03*
X0876500Y0487500D03*
X0876500Y0517500D03*
X0866500Y0517500D03*
X0856500Y0517500D03*
X0846500Y0517500D03*
D82*
X0836727Y0527180D02*
X0831273Y0527180D01*
X0831469Y0526984D02*
X0830984Y0527469D01*
X0830590Y0528031D01*
X0830300Y0528653D01*
X0830123Y0529316D01*
X0830063Y0530000D01*
X0830123Y0530684D01*
X0830300Y0531347D01*
X0830590Y0531969D01*
X0830984Y0532531D01*
X0831469Y0533016D01*
X0832031Y0533410D01*
X0832653Y0533700D01*
X0833316Y0533877D01*
X0834000Y0533937D01*
X0834684Y0533877D01*
X0835347Y0533700D01*
X0835969Y0533410D01*
X0836531Y0533016D01*
X0837016Y0532531D01*
X0837410Y0531969D01*
X0837700Y0531347D01*
X0837877Y0530684D01*
X0837937Y0530000D01*
X0837877Y0529316D01*
X0837700Y0528653D01*
X0837410Y0528031D01*
X0837016Y0527469D01*
X0836531Y0526984D01*
X0835969Y0526590D01*
X0835347Y0526300D01*
X0834684Y0526123D01*
X0834000Y0526063D01*
X0833316Y0526123D01*
X0832653Y0526300D01*
X0832031Y0526590D01*
X0831469Y0526984D01*
X0831902Y0526681D02*
X0836098Y0526681D01*
X0834908Y0526183D02*
X0833092Y0526183D01*
X0830838Y0527678D02*
X0837162Y0527678D01*
X0837477Y0528177D02*
X0830523Y0528177D01*
X0830295Y0528675D02*
X0837705Y0528675D01*
X0837839Y0529174D02*
X0830161Y0529174D01*
X0830092Y0529672D02*
X0837908Y0529672D01*
X0837922Y0530171D02*
X0830078Y0530171D01*
X0830122Y0530670D02*
X0837878Y0530670D01*
X0837747Y0531168D02*
X0830253Y0531168D01*
X0830450Y0531667D02*
X0837550Y0531667D01*
X0837272Y0532165D02*
X0830728Y0532165D01*
X0831117Y0532664D02*
X0836883Y0532664D01*
X0836322Y0533162D02*
X0831678Y0533162D01*
X0832570Y0533661D02*
X0835430Y0533661D01*
X0910219Y0460516D02*
X0910781Y0460910D01*
X0911403Y0461200D01*
X0912066Y0461377D01*
X0912750Y0461437D01*
X0913434Y0461377D01*
X0914097Y0461200D01*
X0914719Y0460910D01*
X0915281Y0460516D01*
X0915766Y0460031D01*
X0916160Y0459469D01*
X0916450Y0458847D01*
X0916627Y0458184D01*
X0916687Y0457500D01*
X0916627Y0456816D01*
X0916450Y0456153D01*
X0916160Y0455531D01*
X0915766Y0454969D01*
X0915281Y0454484D01*
X0914719Y0454090D01*
X0914097Y0453800D01*
X0913434Y0453623D01*
X0912750Y0453563D01*
X0912066Y0453623D01*
X0911403Y0453800D01*
X0910781Y0454090D01*
X0910219Y0454484D01*
X0909734Y0454969D01*
X0909340Y0455531D01*
X0909050Y0456153D01*
X0908873Y0456816D01*
X0908813Y0457500D01*
X0908873Y0458184D01*
X0909050Y0458847D01*
X0909340Y0459469D01*
X0909734Y0460031D01*
X0910219Y0460516D01*
X0910083Y0460379D02*
X0915417Y0460379D01*
X0915871Y0459881D02*
X0909629Y0459881D01*
X0909300Y0459382D02*
X0916200Y0459382D01*
X0916432Y0458884D02*
X0909068Y0458884D01*
X0908927Y0458385D02*
X0916573Y0458385D01*
X0916653Y0457887D02*
X0908847Y0457887D01*
X0908823Y0457388D02*
X0916677Y0457388D01*
X0916634Y0456890D02*
X0908866Y0456890D01*
X0908987Y0456391D02*
X0916513Y0456391D01*
X0916328Y0455893D02*
X0909172Y0455893D01*
X0909437Y0455394D02*
X0916063Y0455394D01*
X0915692Y0454896D02*
X0909808Y0454896D01*
X0910343Y0454397D02*
X0915157Y0454397D01*
X0914307Y0453899D02*
X0911193Y0453899D01*
X0910736Y0460878D02*
X0914764Y0460878D01*
X0913436Y0461376D02*
X0912064Y0461376D01*
D31*
X0876500Y0457500D03*
X0876500Y0452500D03*
X0876500Y0447500D03*
X0876500Y0442500D03*
X0876500Y0437500D03*
X0876500Y0432500D03*
X0876500Y0427500D03*
X0854000Y0427500D03*
X0854000Y0432500D03*
X0854000Y0437500D03*
X0854000Y0442500D03*
X0854000Y0447500D03*
X0854000Y0452500D03*
X0854000Y0457500D03*
X0940000Y0420000D02*
G75*
%LPD*%
D17*
X0974000Y0444200D03*
X0974000Y0450800D03*
X0974000Y0459200D03*
X0966500Y0459200D03*
X0966500Y0465800D03*
X0974000Y0465800D03*
X0974000Y0474200D03*
X0966500Y0474200D03*
X0966500Y0480800D03*
X0974000Y0480800D03*
X0961500Y0489200D03*
X0961500Y0495800D03*
X0984000Y0450800D03*
X0984000Y0444200D03*
X1037750Y0434550D03*
X1037750Y0427950D03*
D21*
X0951500Y0430000D03*
X1071500Y0430000D03*
D78*
X1071500Y0490000D03*
X1071500Y0500000D03*
X1071500Y0510000D03*
X1071500Y0520000D03*
X1071500Y0530000D03*
X0951500Y0530000D03*
X0951500Y0520000D03*
X0951500Y0510000D03*
X0951500Y0500000D03*
X0951500Y0490000D03*
D91*
X0962000Y0507500D03*
X0976000Y0507500D03*
D99*
X1041028Y0489843D03*
X1041028Y0480000D03*
X1041028Y0470157D03*
D10*
X0983941Y0472126D03*
X0983941Y0480000D03*
X0983941Y0487874D03*
X0983941Y0495748D03*
X0983941Y0464252D03*
D29*
X0993200Y0472500D03*
X0999800Y0472500D03*
X1008200Y0471250D03*
X1014800Y0471250D03*
X0997300Y0432500D03*
X0990700Y0432500D03*
D140*
X0996500Y0487500D03*
X1006500Y0487500D03*
X1016500Y0487500D03*
X1026500Y0487500D03*
X1026500Y0517500D03*
X1016500Y0517500D03*
X1006500Y0517500D03*
X0996500Y0517500D03*
D82*
X0986727Y0527180D02*
X0981273Y0527180D01*
X0981469Y0526984D02*
X0980984Y0527469D01*
X0980590Y0528031D01*
X0980300Y0528653D01*
X0980123Y0529316D01*
X0980063Y0530000D01*
X0980123Y0530684D01*
X0980300Y0531347D01*
X0980590Y0531969D01*
X0980984Y0532531D01*
X0981469Y0533016D01*
X0982031Y0533410D01*
X0982653Y0533700D01*
X0983316Y0533877D01*
X0984000Y0533937D01*
X0984684Y0533877D01*
X0985347Y0533700D01*
X0985969Y0533410D01*
X0986531Y0533016D01*
X0987016Y0532531D01*
X0987410Y0531969D01*
X0987700Y0531347D01*
X0987877Y0530684D01*
X0987937Y0530000D01*
X0987877Y0529316D01*
X0987700Y0528653D01*
X0987410Y0528031D01*
X0987016Y0527469D01*
X0986531Y0526984D01*
X0985969Y0526590D01*
X0985347Y0526300D01*
X0984684Y0526123D01*
X0984000Y0526063D01*
X0983316Y0526123D01*
X0982653Y0526300D01*
X0982031Y0526590D01*
X0981469Y0526984D01*
X0981902Y0526681D02*
X0986098Y0526681D01*
X0984908Y0526183D02*
X0983092Y0526183D01*
X0980838Y0527678D02*
X0987162Y0527678D01*
X0987477Y0528177D02*
X0980523Y0528177D01*
X0980295Y0528675D02*
X0987705Y0528675D01*
X0987839Y0529174D02*
X0980161Y0529174D01*
X0980092Y0529672D02*
X0987908Y0529672D01*
X0987922Y0530171D02*
X0980078Y0530171D01*
X0980122Y0530670D02*
X0987878Y0530670D01*
X0987747Y0531168D02*
X0980253Y0531168D01*
X0980450Y0531667D02*
X0987550Y0531667D01*
X0987272Y0532165D02*
X0980728Y0532165D01*
X0981117Y0532664D02*
X0986883Y0532664D01*
X0986322Y0533162D02*
X0981678Y0533162D01*
X0982570Y0533661D02*
X0985430Y0533661D01*
X1060219Y0460516D02*
X1060781Y0460910D01*
X1061403Y0461200D01*
X1062066Y0461377D01*
X1062750Y0461437D01*
X1063434Y0461377D01*
X1064097Y0461200D01*
X1064719Y0460910D01*
X1065281Y0460516D01*
X1065766Y0460031D01*
X1066160Y0459469D01*
X1066450Y0458847D01*
X1066627Y0458184D01*
X1066687Y0457500D01*
X1066627Y0456816D01*
X1066450Y0456153D01*
X1066160Y0455531D01*
X1065766Y0454969D01*
X1065281Y0454484D01*
X1064719Y0454090D01*
X1064097Y0453800D01*
X1063434Y0453623D01*
X1062750Y0453563D01*
X1062066Y0453623D01*
X1061403Y0453800D01*
X1060781Y0454090D01*
X1060219Y0454484D01*
X1059734Y0454969D01*
X1059340Y0455531D01*
X1059050Y0456153D01*
X1058873Y0456816D01*
X1058813Y0457500D01*
X1058873Y0458184D01*
X1059050Y0458847D01*
X1059340Y0459469D01*
X1059734Y0460031D01*
X1060219Y0460516D01*
X1060083Y0460379D02*
X1065417Y0460379D01*
X1065871Y0459881D02*
X1059629Y0459881D01*
X1059300Y0459382D02*
X1066200Y0459382D01*
X1066432Y0458884D02*
X1059068Y0458884D01*
X1058927Y0458385D02*
X1066573Y0458385D01*
X1066653Y0457887D02*
X1058847Y0457887D01*
X1058823Y0457388D02*
X1066677Y0457388D01*
X1066634Y0456890D02*
X1058866Y0456890D01*
X1058987Y0456391D02*
X1066513Y0456391D01*
X1066328Y0455893D02*
X1059172Y0455893D01*
X1059437Y0455394D02*
X1066063Y0455394D01*
X1065692Y0454896D02*
X1059808Y0454896D01*
X1060343Y0454397D02*
X1065157Y0454397D01*
X1064307Y0453899D02*
X1061193Y0453899D01*
X1060736Y0460878D02*
X1064764Y0460878D01*
X1063436Y0461376D02*
X1062064Y0461376D01*
D31*
X1026500Y0457500D03*
X1026500Y0452500D03*
X1026500Y0447500D03*
X1026500Y0442500D03*
X1026500Y0437500D03*
X1026500Y0432500D03*
X1026500Y0427500D03*
X1004000Y0427500D03*
X1004000Y0432500D03*
X1004000Y0437500D03*
X1004000Y0442500D03*
X1004000Y0447500D03*
X1004000Y0452500D03*
X1004000Y0457500D03*
X1090000Y0420000D02*
G75*
%LPD*%
D17*
X1124000Y0444200D03*
X1124000Y0450800D03*
X1124000Y0459200D03*
X1116500Y0459200D03*
X1116500Y0465800D03*
X1124000Y0465800D03*
X1124000Y0474200D03*
X1116500Y0474200D03*
X1116500Y0480800D03*
X1124000Y0480800D03*
X1111500Y0489200D03*
X1111500Y0495800D03*
X1134000Y0450800D03*
X1134000Y0444200D03*
X1187750Y0434550D03*
X1187750Y0427950D03*
D21*
X1101500Y0430000D03*
X1221500Y0430000D03*
D78*
X1221500Y0490000D03*
X1221500Y0500000D03*
X1221500Y0510000D03*
X1221500Y0520000D03*
X1221500Y0530000D03*
X1101500Y0530000D03*
X1101500Y0520000D03*
X1101500Y0510000D03*
X1101500Y0500000D03*
X1101500Y0490000D03*
D91*
X1112000Y0507500D03*
X1126000Y0507500D03*
D99*
X1191028Y0489843D03*
X1191028Y0480000D03*
X1191028Y0470157D03*
D10*
X1133941Y0472126D03*
X1133941Y0480000D03*
X1133941Y0487874D03*
X1133941Y0495748D03*
X1133941Y0464252D03*
D29*
X1143200Y0472500D03*
X1149800Y0472500D03*
X1158200Y0471250D03*
X1164800Y0471250D03*
X1147300Y0432500D03*
X1140700Y0432500D03*
D140*
X1146500Y0487500D03*
X1156500Y0487500D03*
X1166500Y0487500D03*
X1176500Y0487500D03*
X1176500Y0517500D03*
X1166500Y0517500D03*
X1156500Y0517500D03*
X1146500Y0517500D03*
D82*
X1136727Y0527180D02*
X1131273Y0527180D01*
X1131469Y0526984D02*
X1130984Y0527469D01*
X1130590Y0528031D01*
X1130300Y0528653D01*
X1130123Y0529316D01*
X1130063Y0530000D01*
X1130123Y0530684D01*
X1130300Y0531347D01*
X1130590Y0531969D01*
X1130984Y0532531D01*
X1131469Y0533016D01*
X1132031Y0533410D01*
X1132653Y0533700D01*
X1133316Y0533877D01*
X1134000Y0533937D01*
X1134684Y0533877D01*
X1135347Y0533700D01*
X1135969Y0533410D01*
X1136531Y0533016D01*
X1137016Y0532531D01*
X1137410Y0531969D01*
X1137700Y0531347D01*
X1137877Y0530684D01*
X1137937Y0530000D01*
X1137877Y0529316D01*
X1137700Y0528653D01*
X1137410Y0528031D01*
X1137016Y0527469D01*
X1136531Y0526984D01*
X1135969Y0526590D01*
X1135347Y0526300D01*
X1134684Y0526123D01*
X1134000Y0526063D01*
X1133316Y0526123D01*
X1132653Y0526300D01*
X1132031Y0526590D01*
X1131469Y0526984D01*
X1131902Y0526681D02*
X1136098Y0526681D01*
X1134908Y0526183D02*
X1133092Y0526183D01*
X1130838Y0527678D02*
X1137162Y0527678D01*
X1137477Y0528177D02*
X1130523Y0528177D01*
X1130295Y0528675D02*
X1137705Y0528675D01*
X1137839Y0529174D02*
X1130161Y0529174D01*
X1130092Y0529672D02*
X1137908Y0529672D01*
X1137922Y0530171D02*
X1130078Y0530171D01*
X1130122Y0530670D02*
X1137878Y0530670D01*
X1137747Y0531168D02*
X1130253Y0531168D01*
X1130450Y0531667D02*
X1137550Y0531667D01*
X1137272Y0532165D02*
X1130728Y0532165D01*
X1131117Y0532664D02*
X1136883Y0532664D01*
X1136322Y0533162D02*
X1131678Y0533162D01*
X1132570Y0533661D02*
X1135430Y0533661D01*
X1210219Y0460516D02*
X1210781Y0460910D01*
X1211403Y0461200D01*
X1212066Y0461377D01*
X1212750Y0461437D01*
X1213434Y0461377D01*
X1214097Y0461200D01*
X1214719Y0460910D01*
X1215281Y0460516D01*
X1215766Y0460031D01*
X1216160Y0459469D01*
X1216450Y0458847D01*
X1216627Y0458184D01*
X1216687Y0457500D01*
X1216627Y0456816D01*
X1216450Y0456153D01*
X1216160Y0455531D01*
X1215766Y0454969D01*
X1215281Y0454484D01*
X1214719Y0454090D01*
X1214097Y0453800D01*
X1213434Y0453623D01*
X1212750Y0453563D01*
X1212066Y0453623D01*
X1211403Y0453800D01*
X1210781Y0454090D01*
X1210219Y0454484D01*
X1209734Y0454969D01*
X1209340Y0455531D01*
X1209050Y0456153D01*
X1208873Y0456816D01*
X1208813Y0457500D01*
X1208873Y0458184D01*
X1209050Y0458847D01*
X1209340Y0459469D01*
X1209734Y0460031D01*
X1210219Y0460516D01*
X1210083Y0460379D02*
X1215417Y0460379D01*
X1215871Y0459881D02*
X1209629Y0459881D01*
X1209300Y0459382D02*
X1216200Y0459382D01*
X1216432Y0458884D02*
X1209068Y0458884D01*
X1208927Y0458385D02*
X1216573Y0458385D01*
X1216653Y0457887D02*
X1208847Y0457887D01*
X1208823Y0457388D02*
X1216677Y0457388D01*
X1216634Y0456890D02*
X1208866Y0456890D01*
X1208987Y0456391D02*
X1216513Y0456391D01*
X1216328Y0455893D02*
X1209172Y0455893D01*
X1209437Y0455394D02*
X1216063Y0455394D01*
X1215692Y0454896D02*
X1209808Y0454896D01*
X1210343Y0454397D02*
X1215157Y0454397D01*
X1214307Y0453899D02*
X1211193Y0453899D01*
X1210736Y0460878D02*
X1214764Y0460878D01*
X1213436Y0461376D02*
X1212064Y0461376D01*
D31*
X1176500Y0457500D03*
X1176500Y0452500D03*
X1176500Y0447500D03*
X1176500Y0442500D03*
X1176500Y0437500D03*
X1176500Y0432500D03*
X1176500Y0427500D03*
X1154000Y0427500D03*
X1154000Y0432500D03*
X1154000Y0437500D03*
X1154000Y0442500D03*
X1154000Y0447500D03*
X1154000Y0452500D03*
X1154000Y0457500D03*
X1240000Y0420000D02*
G75*
%LPD*%
D17*
X1274000Y0444200D03*
X1274000Y0450800D03*
X1274000Y0459200D03*
X1266500Y0459200D03*
X1266500Y0465800D03*
X1274000Y0465800D03*
X1274000Y0474200D03*
X1266500Y0474200D03*
X1266500Y0480800D03*
X1274000Y0480800D03*
X1261500Y0489200D03*
X1261500Y0495800D03*
X1284000Y0450800D03*
X1284000Y0444200D03*
X1337750Y0434550D03*
X1337750Y0427950D03*
D21*
X1251500Y0430000D03*
X1371500Y0430000D03*
D78*
X1371500Y0490000D03*
X1371500Y0500000D03*
X1371500Y0510000D03*
X1371500Y0520000D03*
X1371500Y0530000D03*
X1251500Y0530000D03*
X1251500Y0520000D03*
X1251500Y0510000D03*
X1251500Y0500000D03*
X1251500Y0490000D03*
D91*
X1262000Y0507500D03*
X1276000Y0507500D03*
D99*
X1341028Y0489843D03*
X1341028Y0480000D03*
X1341028Y0470157D03*
D10*
X1283941Y0472126D03*
X1283941Y0480000D03*
X1283941Y0487874D03*
X1283941Y0495748D03*
X1283941Y0464252D03*
D29*
X1293200Y0472500D03*
X1299800Y0472500D03*
X1308200Y0471250D03*
X1314800Y0471250D03*
X1297300Y0432500D03*
X1290700Y0432500D03*
D140*
X1296500Y0487500D03*
X1306500Y0487500D03*
X1316500Y0487500D03*
X1326500Y0487500D03*
X1326500Y0517500D03*
X1316500Y0517500D03*
X1306500Y0517500D03*
X1296500Y0517500D03*
D82*
X1286727Y0527180D02*
X1281273Y0527180D01*
X1281469Y0526984D02*
X1280984Y0527469D01*
X1280590Y0528031D01*
X1280300Y0528653D01*
X1280123Y0529316D01*
X1280063Y0530000D01*
X1280123Y0530684D01*
X1280300Y0531347D01*
X1280590Y0531969D01*
X1280984Y0532531D01*
X1281469Y0533016D01*
X1282031Y0533410D01*
X1282653Y0533700D01*
X1283316Y0533877D01*
X1284000Y0533937D01*
X1284684Y0533877D01*
X1285347Y0533700D01*
X1285969Y0533410D01*
X1286531Y0533016D01*
X1287016Y0532531D01*
X1287410Y0531969D01*
X1287700Y0531347D01*
X1287877Y0530684D01*
X1287937Y0530000D01*
X1287877Y0529316D01*
X1287700Y0528653D01*
X1287410Y0528031D01*
X1287016Y0527469D01*
X1286531Y0526984D01*
X1285969Y0526590D01*
X1285347Y0526300D01*
X1284684Y0526123D01*
X1284000Y0526063D01*
X1283316Y0526123D01*
X1282653Y0526300D01*
X1282031Y0526590D01*
X1281469Y0526984D01*
X1281902Y0526681D02*
X1286098Y0526681D01*
X1284908Y0526183D02*
X1283092Y0526183D01*
X1280838Y0527678D02*
X1287162Y0527678D01*
X1287477Y0528177D02*
X1280523Y0528177D01*
X1280295Y0528675D02*
X1287705Y0528675D01*
X1287839Y0529174D02*
X1280161Y0529174D01*
X1280092Y0529672D02*
X1287908Y0529672D01*
X1287922Y0530171D02*
X1280078Y0530171D01*
X1280122Y0530670D02*
X1287878Y0530670D01*
X1287747Y0531168D02*
X1280253Y0531168D01*
X1280450Y0531667D02*
X1287550Y0531667D01*
X1287272Y0532165D02*
X1280728Y0532165D01*
X1281117Y0532664D02*
X1286883Y0532664D01*
X1286322Y0533162D02*
X1281678Y0533162D01*
X1282570Y0533661D02*
X1285430Y0533661D01*
X1360219Y0460516D02*
X1360781Y0460910D01*
X1361403Y0461200D01*
X1362066Y0461377D01*
X1362750Y0461437D01*
X1363434Y0461377D01*
X1364097Y0461200D01*
X1364719Y0460910D01*
X1365281Y0460516D01*
X1365766Y0460031D01*
X1366160Y0459469D01*
X1366450Y0458847D01*
X1366627Y0458184D01*
X1366687Y0457500D01*
X1366627Y0456816D01*
X1366450Y0456153D01*
X1366160Y0455531D01*
X1365766Y0454969D01*
X1365281Y0454484D01*
X1364719Y0454090D01*
X1364097Y0453800D01*
X1363434Y0453623D01*
X1362750Y0453563D01*
X1362066Y0453623D01*
X1361403Y0453800D01*
X1360781Y0454090D01*
X1360219Y0454484D01*
X1359734Y0454969D01*
X1359340Y0455531D01*
X1359050Y0456153D01*
X1358873Y0456816D01*
X1358813Y0457500D01*
X1358873Y0458184D01*
X1359050Y0458847D01*
X1359340Y0459469D01*
X1359734Y0460031D01*
X1360219Y0460516D01*
X1360083Y0460379D02*
X1365417Y0460379D01*
X1365871Y0459881D02*
X1359629Y0459881D01*
X1359300Y0459382D02*
X1366200Y0459382D01*
X1366432Y0458884D02*
X1359068Y0458884D01*
X1358927Y0458385D02*
X1366573Y0458385D01*
X1366653Y0457887D02*
X1358847Y0457887D01*
X1358823Y0457388D02*
X1366677Y0457388D01*
X1366634Y0456890D02*
X1358866Y0456890D01*
X1358987Y0456391D02*
X1366513Y0456391D01*
X1366328Y0455893D02*
X1359172Y0455893D01*
X1359437Y0455394D02*
X1366063Y0455394D01*
X1365692Y0454896D02*
X1359808Y0454896D01*
X1360343Y0454397D02*
X1365157Y0454397D01*
X1364307Y0453899D02*
X1361193Y0453899D01*
X1360736Y0460878D02*
X1364764Y0460878D01*
X1363436Y0461376D02*
X1362064Y0461376D01*
D31*
X1326500Y0457500D03*
X1326500Y0452500D03*
X1326500Y0447500D03*
X1326500Y0442500D03*
X1326500Y0437500D03*
X1326500Y0432500D03*
X1326500Y0427500D03*
X1304000Y0427500D03*
X1304000Y0432500D03*
X1304000Y0437500D03*
X1304000Y0442500D03*
X1304000Y0447500D03*
X1304000Y0452500D03*
X1304000Y0457500D03*
X0040000Y0550000D02*
G75*
%LPD*%
D74*
X0148000Y0664500D03*
X0118000Y0675500D03*
X0262000Y0675500D03*
X0292000Y0664500D03*
D55*
X0282000Y0665500D03*
X0272000Y0664500D03*
X0262000Y0665500D03*
X0272000Y0674500D03*
X0282000Y0675500D03*
X0292000Y0674500D03*
X0148000Y0674500D03*
X0138000Y0675500D03*
X0128000Y0674500D03*
X0128000Y0664500D03*
X0118000Y0665500D03*
X0138000Y0665500D03*
D21*
X0050000Y0560000D03*
X0070000Y0560000D03*
X0340000Y0560000D03*
X0360000Y0560000D03*
X0360000Y0780000D03*
X0340000Y0780000D03*
X0070000Y0780000D03*
X0050000Y0780000D03*
D82*
X0060000Y0583937D02*
X0060684Y0583877D01*
X0061347Y0583700D01*
X0061969Y0583410D01*
X0062531Y0583016D01*
X0063016Y0582531D01*
X0063410Y0581969D01*
X0063700Y0581347D01*
X0063877Y0580684D01*
X0063937Y0580000D01*
X0063877Y0579316D01*
X0063700Y0578653D01*
X0063410Y0578031D01*
X0063016Y0577469D01*
X0062531Y0576984D01*
X0061969Y0576590D01*
X0061347Y0576300D01*
X0060684Y0576123D01*
X0060000Y0576063D01*
X0059316Y0576123D01*
X0058653Y0576300D01*
X0058031Y0576590D01*
X0057469Y0576984D01*
X0056984Y0577469D01*
X0056590Y0578031D01*
X0056300Y0578653D01*
X0056123Y0579316D01*
X0056063Y0580000D01*
X0056123Y0580684D01*
X0056300Y0581347D01*
X0056590Y0581969D01*
X0056984Y0582531D01*
X0057469Y0583016D01*
X0058031Y0583410D01*
X0058653Y0583700D01*
X0059316Y0583877D01*
X0060000Y0583937D01*
X0059563Y0583899D02*
X0060437Y0583899D01*
X0061982Y0583400D02*
X0058018Y0583400D01*
X0057355Y0582902D02*
X0062645Y0582902D01*
X0063105Y0582403D02*
X0056895Y0582403D01*
X0056561Y0581905D02*
X0063439Y0581905D01*
X0063672Y0581406D02*
X0056328Y0581406D01*
X0056183Y0580908D02*
X0063817Y0580908D01*
X0063901Y0580409D02*
X0056099Y0580409D01*
X0056071Y0579911D02*
X0063929Y0579911D01*
X0063886Y0579412D02*
X0056114Y0579412D01*
X0056231Y0578914D02*
X0063769Y0578914D01*
X0063588Y0578415D02*
X0056412Y0578415D01*
X0056671Y0577917D02*
X0063329Y0577917D01*
X0062965Y0577418D02*
X0057035Y0577418D01*
X0057561Y0576920D02*
X0062439Y0576920D01*
X0061605Y0576421D02*
X0058395Y0576421D01*
X0346590Y0758031D02*
X0346984Y0757469D01*
X0347469Y0756984D01*
X0348031Y0756590D01*
X0348653Y0756300D01*
X0349316Y0756123D01*
X0350000Y0756063D01*
X0350684Y0756123D01*
X0351347Y0756300D01*
X0351969Y0756590D01*
X0352531Y0756984D01*
X0353016Y0757469D01*
X0353410Y0758031D01*
X0353700Y0758653D01*
X0353877Y0759316D01*
X0353937Y0760000D01*
X0353877Y0760684D01*
X0353700Y0761347D01*
X0353410Y0761969D01*
X0353016Y0762531D01*
X0352531Y0763016D01*
X0351969Y0763410D01*
X0351347Y0763700D01*
X0350684Y0763877D01*
X0350000Y0763937D01*
X0349316Y0763877D01*
X0348653Y0763700D01*
X0348031Y0763410D01*
X0347469Y0763016D01*
X0346984Y0762531D01*
X0346590Y0761969D01*
X0346300Y0761347D01*
X0346123Y0760684D01*
X0346063Y0760000D01*
X0346123Y0759316D01*
X0346300Y0758653D01*
X0346590Y0758031D01*
X0346697Y0757879D02*
X0353303Y0757879D01*
X0353571Y0758378D02*
X0346429Y0758378D01*
X0346241Y0758876D02*
X0353759Y0758876D01*
X0353882Y0759375D02*
X0346118Y0759375D01*
X0346074Y0759873D02*
X0353926Y0759873D01*
X0353904Y0760372D02*
X0346096Y0760372D01*
X0346173Y0760870D02*
X0353827Y0760870D01*
X0353689Y0761369D02*
X0346311Y0761369D01*
X0346543Y0761867D02*
X0353457Y0761867D01*
X0353131Y0762366D02*
X0346869Y0762366D01*
X0347318Y0762864D02*
X0352682Y0762864D01*
X0352035Y0763363D02*
X0347965Y0763363D01*
X0349257Y0763861D02*
X0350743Y0763861D01*
X0352927Y0757381D02*
X0347073Y0757381D01*
X0347615Y0756882D02*
X0352385Y0756882D01*
X0351525Y0756384D02*
X0348475Y0756384D01*
D98*
X0349000Y0719700D03*
X0349000Y0620300D03*
X0205000Y0620300D03*
X0205000Y0719700D03*
X0061000Y0719700D03*
X0061000Y0620300D03*
D92*
X0133189Y0745709D03*
X0141063Y0745709D03*
X0148937Y0745709D03*
X0156811Y0745709D03*
X0193189Y0745709D03*
X0201063Y0745709D03*
X0208937Y0745709D03*
X0216811Y0745709D03*
X0253189Y0745709D03*
X0261063Y0745709D03*
X0268937Y0745709D03*
X0276811Y0745709D03*
D84*
X0286063Y0769724D03*
X0243937Y0769724D03*
X0226063Y0769724D03*
X0183937Y0769724D03*
X0166063Y0769724D03*
X0123937Y0769724D03*
D41*
X0240000Y0714528D03*
X0250000Y0714528D03*
X0250000Y0705472D03*
X0240000Y0705472D03*
D39*
X0238740Y0724881D03*
X0231260Y0724881D03*
X0231260Y0735119D03*
X0235000Y0735119D03*
X0238740Y0735119D03*
D17*
X0230000Y0713300D03*
X0230000Y0706700D03*
X0380000Y0550000D02*
G75*
%LPD*%
D74*
X0488000Y0664500D03*
X0458000Y0675500D03*
X0602000Y0675500D03*
X0632000Y0664500D03*
D55*
X0622000Y0665500D03*
X0612000Y0664500D03*
X0602000Y0665500D03*
X0612000Y0674500D03*
X0622000Y0675500D03*
X0632000Y0674500D03*
X0488000Y0674500D03*
X0478000Y0675500D03*
X0468000Y0674500D03*
X0468000Y0664500D03*
X0458000Y0665500D03*
X0478000Y0665500D03*
D21*
X0390000Y0560000D03*
X0410000Y0560000D03*
X0680000Y0560000D03*
X0700000Y0560000D03*
X0700000Y0780000D03*
X0680000Y0780000D03*
X0410000Y0780000D03*
X0390000Y0780000D03*
D82*
X0400000Y0583937D02*
X0400684Y0583877D01*
X0401347Y0583700D01*
X0401969Y0583410D01*
X0402531Y0583016D01*
X0403016Y0582531D01*
X0403410Y0581969D01*
X0403700Y0581347D01*
X0403877Y0580684D01*
X0403937Y0580000D01*
X0403877Y0579316D01*
X0403700Y0578653D01*
X0403410Y0578031D01*
X0403016Y0577469D01*
X0402531Y0576984D01*
X0401969Y0576590D01*
X0401347Y0576300D01*
X0400684Y0576123D01*
X0400000Y0576063D01*
X0399316Y0576123D01*
X0398653Y0576300D01*
X0398031Y0576590D01*
X0397469Y0576984D01*
X0396984Y0577469D01*
X0396590Y0578031D01*
X0396300Y0578653D01*
X0396123Y0579316D01*
X0396063Y0580000D01*
X0396123Y0580684D01*
X0396300Y0581347D01*
X0396590Y0581969D01*
X0396984Y0582531D01*
X0397469Y0583016D01*
X0398031Y0583410D01*
X0398653Y0583700D01*
X0399316Y0583877D01*
X0400000Y0583937D01*
X0399563Y0583899D02*
X0400437Y0583899D01*
X0401982Y0583400D02*
X0398018Y0583400D01*
X0397355Y0582902D02*
X0402645Y0582902D01*
X0403105Y0582403D02*
X0396895Y0582403D01*
X0396561Y0581905D02*
X0403439Y0581905D01*
X0403672Y0581406D02*
X0396328Y0581406D01*
X0396183Y0580908D02*
X0403817Y0580908D01*
X0403901Y0580409D02*
X0396099Y0580409D01*
X0396071Y0579911D02*
X0403929Y0579911D01*
X0403886Y0579412D02*
X0396114Y0579412D01*
X0396231Y0578914D02*
X0403769Y0578914D01*
X0403588Y0578415D02*
X0396412Y0578415D01*
X0396671Y0577917D02*
X0403329Y0577917D01*
X0402965Y0577418D02*
X0397035Y0577418D01*
X0397561Y0576920D02*
X0402439Y0576920D01*
X0401605Y0576421D02*
X0398395Y0576421D01*
X0686590Y0758031D02*
X0686984Y0757469D01*
X0687469Y0756984D01*
X0688031Y0756590D01*
X0688653Y0756300D01*
X0689316Y0756123D01*
X0690000Y0756063D01*
X0690684Y0756123D01*
X0691347Y0756300D01*
X0691969Y0756590D01*
X0692531Y0756984D01*
X0693016Y0757469D01*
X0693410Y0758031D01*
X0693700Y0758653D01*
X0693877Y0759316D01*
X0693937Y0760000D01*
X0693877Y0760684D01*
X0693700Y0761347D01*
X0693410Y0761969D01*
X0693016Y0762531D01*
X0692531Y0763016D01*
X0691969Y0763410D01*
X0691347Y0763700D01*
X0690684Y0763877D01*
X0690000Y0763937D01*
X0689316Y0763877D01*
X0688653Y0763700D01*
X0688031Y0763410D01*
X0687469Y0763016D01*
X0686984Y0762531D01*
X0686590Y0761969D01*
X0686300Y0761347D01*
X0686123Y0760684D01*
X0686063Y0760000D01*
X0686123Y0759316D01*
X0686300Y0758653D01*
X0686590Y0758031D01*
X0686697Y0757879D02*
X0693303Y0757879D01*
X0693571Y0758378D02*
X0686429Y0758378D01*
X0686241Y0758876D02*
X0693759Y0758876D01*
X0693882Y0759375D02*
X0686118Y0759375D01*
X0686074Y0759873D02*
X0693926Y0759873D01*
X0693904Y0760372D02*
X0686096Y0760372D01*
X0686173Y0760870D02*
X0693827Y0760870D01*
X0693689Y0761369D02*
X0686311Y0761369D01*
X0686543Y0761867D02*
X0693457Y0761867D01*
X0693131Y0762366D02*
X0686869Y0762366D01*
X0687318Y0762864D02*
X0692682Y0762864D01*
X0692035Y0763363D02*
X0687965Y0763363D01*
X0689257Y0763861D02*
X0690743Y0763861D01*
X0692927Y0757381D02*
X0687073Y0757381D01*
X0687615Y0756882D02*
X0692385Y0756882D01*
X0691525Y0756384D02*
X0688475Y0756384D01*
D98*
X0689000Y0719700D03*
X0689000Y0620300D03*
X0545000Y0620300D03*
X0545000Y0719700D03*
X0401000Y0719700D03*
X0401000Y0620300D03*
D92*
X0473189Y0745709D03*
X0481063Y0745709D03*
X0488937Y0745709D03*
X0496811Y0745709D03*
X0533189Y0745709D03*
X0541063Y0745709D03*
X0548937Y0745709D03*
X0556811Y0745709D03*
X0593189Y0745709D03*
X0601063Y0745709D03*
X0608937Y0745709D03*
X0616811Y0745709D03*
D84*
X0626063Y0769724D03*
X0583937Y0769724D03*
X0566063Y0769724D03*
X0523937Y0769724D03*
X0506063Y0769724D03*
X0463937Y0769724D03*
D41*
X0580000Y0714528D03*
X0590000Y0714528D03*
X0590000Y0705472D03*
X0580000Y0705472D03*
D39*
X0578740Y0724881D03*
X0571260Y0724881D03*
X0571260Y0735119D03*
X0575000Y0735119D03*
X0578740Y0735119D03*
D17*
X0570000Y0713300D03*
X0570000Y0706700D03*
X0720000Y0550000D02*
G75*
%LPD*%
D74*
X0828000Y0664500D03*
X0798000Y0675500D03*
X0942000Y0675500D03*
X0972000Y0664500D03*
D55*
X0962000Y0665500D03*
X0952000Y0664500D03*
X0942000Y0665500D03*
X0952000Y0674500D03*
X0962000Y0675500D03*
X0972000Y0674500D03*
X0828000Y0674500D03*
X0818000Y0675500D03*
X0808000Y0674500D03*
X0808000Y0664500D03*
X0798000Y0665500D03*
X0818000Y0665500D03*
D21*
X0730000Y0560000D03*
X0750000Y0560000D03*
X1020000Y0560000D03*
X1040000Y0560000D03*
X1040000Y0780000D03*
X1020000Y0780000D03*
X0750000Y0780000D03*
X0730000Y0780000D03*
D82*
X0740000Y0583937D02*
X0740684Y0583877D01*
X0741347Y0583700D01*
X0741969Y0583410D01*
X0742531Y0583016D01*
X0743016Y0582531D01*
X0743410Y0581969D01*
X0743700Y0581347D01*
X0743877Y0580684D01*
X0743937Y0580000D01*
X0743877Y0579316D01*
X0743700Y0578653D01*
X0743410Y0578031D01*
X0743016Y0577469D01*
X0742531Y0576984D01*
X0741969Y0576590D01*
X0741347Y0576300D01*
X0740684Y0576123D01*
X0740000Y0576063D01*
X0739316Y0576123D01*
X0738653Y0576300D01*
X0738031Y0576590D01*
X0737469Y0576984D01*
X0736984Y0577469D01*
X0736590Y0578031D01*
X0736300Y0578653D01*
X0736123Y0579316D01*
X0736063Y0580000D01*
X0736123Y0580684D01*
X0736300Y0581347D01*
X0736590Y0581969D01*
X0736984Y0582531D01*
X0737469Y0583016D01*
X0738031Y0583410D01*
X0738653Y0583700D01*
X0739316Y0583877D01*
X0740000Y0583937D01*
X0739563Y0583899D02*
X0740437Y0583899D01*
X0741982Y0583400D02*
X0738018Y0583400D01*
X0737355Y0582902D02*
X0742645Y0582902D01*
X0743105Y0582403D02*
X0736895Y0582403D01*
X0736561Y0581905D02*
X0743439Y0581905D01*
X0743672Y0581406D02*
X0736328Y0581406D01*
X0736183Y0580908D02*
X0743817Y0580908D01*
X0743901Y0580409D02*
X0736099Y0580409D01*
X0736071Y0579911D02*
X0743929Y0579911D01*
X0743886Y0579412D02*
X0736114Y0579412D01*
X0736231Y0578914D02*
X0743769Y0578914D01*
X0743588Y0578415D02*
X0736412Y0578415D01*
X0736671Y0577917D02*
X0743329Y0577917D01*
X0742965Y0577418D02*
X0737035Y0577418D01*
X0737561Y0576920D02*
X0742439Y0576920D01*
X0741605Y0576421D02*
X0738395Y0576421D01*
X1026590Y0758031D02*
X1026984Y0757469D01*
X1027469Y0756984D01*
X1028031Y0756590D01*
X1028653Y0756300D01*
X1029316Y0756123D01*
X1030000Y0756063D01*
X1030684Y0756123D01*
X1031347Y0756300D01*
X1031969Y0756590D01*
X1032531Y0756984D01*
X1033016Y0757469D01*
X1033410Y0758031D01*
X1033700Y0758653D01*
X1033877Y0759316D01*
X1033937Y0760000D01*
X1033877Y0760684D01*
X1033700Y0761347D01*
X1033410Y0761969D01*
X1033016Y0762531D01*
X1032531Y0763016D01*
X1031969Y0763410D01*
X1031347Y0763700D01*
X1030684Y0763877D01*
X1030000Y0763937D01*
X1029316Y0763877D01*
X1028653Y0763700D01*
X1028031Y0763410D01*
X1027469Y0763016D01*
X1026984Y0762531D01*
X1026590Y0761969D01*
X1026300Y0761347D01*
X1026123Y0760684D01*
X1026063Y0760000D01*
X1026123Y0759316D01*
X1026300Y0758653D01*
X1026590Y0758031D01*
X1026697Y0757879D02*
X1033303Y0757879D01*
X1033571Y0758378D02*
X1026429Y0758378D01*
X1026241Y0758876D02*
X1033759Y0758876D01*
X1033882Y0759375D02*
X1026118Y0759375D01*
X1026074Y0759873D02*
X1033926Y0759873D01*
X1033904Y0760372D02*
X1026096Y0760372D01*
X1026173Y0760870D02*
X1033827Y0760870D01*
X1033689Y0761369D02*
X1026311Y0761369D01*
X1026543Y0761867D02*
X1033457Y0761867D01*
X1033131Y0762366D02*
X1026869Y0762366D01*
X1027318Y0762864D02*
X1032682Y0762864D01*
X1032035Y0763363D02*
X1027965Y0763363D01*
X1029257Y0763861D02*
X1030743Y0763861D01*
X1032927Y0757381D02*
X1027073Y0757381D01*
X1027615Y0756882D02*
X1032385Y0756882D01*
X1031525Y0756384D02*
X1028475Y0756384D01*
D98*
X1029000Y0719700D03*
X1029000Y0620300D03*
X0885000Y0620300D03*
X0885000Y0719700D03*
X0741000Y0719700D03*
X0741000Y0620300D03*
D92*
X0813189Y0745709D03*
X0821063Y0745709D03*
X0828937Y0745709D03*
X0836811Y0745709D03*
X0873189Y0745709D03*
X0881063Y0745709D03*
X0888937Y0745709D03*
X0896811Y0745709D03*
X0933189Y0745709D03*
X0941063Y0745709D03*
X0948937Y0745709D03*
X0956811Y0745709D03*
D84*
X0966063Y0769724D03*
X0923937Y0769724D03*
X0906063Y0769724D03*
X0863937Y0769724D03*
X0846063Y0769724D03*
X0803937Y0769724D03*
D41*
X0920000Y0714528D03*
X0930000Y0714528D03*
X0930000Y0705472D03*
X0920000Y0705472D03*
D39*
X0918740Y0724881D03*
X0911260Y0724881D03*
X0911260Y0735119D03*
X0915000Y0735119D03*
X0918740Y0735119D03*
D17*
X0910000Y0713300D03*
X0910000Y0706700D03*
X1060000Y0550000D02*
G75*
%LPD*%
D74*
X1168000Y0664500D03*
X1138000Y0675500D03*
X1282000Y0675500D03*
X1312000Y0664500D03*
D55*
X1302000Y0665500D03*
X1292000Y0664500D03*
X1282000Y0665500D03*
X1292000Y0674500D03*
X1302000Y0675500D03*
X1312000Y0674500D03*
X1168000Y0674500D03*
X1158000Y0675500D03*
X1148000Y0674500D03*
X1148000Y0664500D03*
X1138000Y0665500D03*
X1158000Y0665500D03*
D21*
X1070000Y0560000D03*
X1090000Y0560000D03*
X1360000Y0560000D03*
X1380000Y0560000D03*
X1380000Y0780000D03*
X1360000Y0780000D03*
X1090000Y0780000D03*
X1070000Y0780000D03*
D82*
X1080000Y0583937D02*
X1080684Y0583877D01*
X1081347Y0583700D01*
X1081969Y0583410D01*
X1082531Y0583016D01*
X1083016Y0582531D01*
X1083410Y0581969D01*
X1083700Y0581347D01*
X1083877Y0580684D01*
X1083937Y0580000D01*
X1083877Y0579316D01*
X1083700Y0578653D01*
X1083410Y0578031D01*
X1083016Y0577469D01*
X1082531Y0576984D01*
X1081969Y0576590D01*
X1081347Y0576300D01*
X1080684Y0576123D01*
X1080000Y0576063D01*
X1079316Y0576123D01*
X1078653Y0576300D01*
X1078031Y0576590D01*
X1077469Y0576984D01*
X1076984Y0577469D01*
X1076590Y0578031D01*
X1076300Y0578653D01*
X1076123Y0579316D01*
X1076063Y0580000D01*
X1076123Y0580684D01*
X1076300Y0581347D01*
X1076590Y0581969D01*
X1076984Y0582531D01*
X1077469Y0583016D01*
X1078031Y0583410D01*
X1078653Y0583700D01*
X1079316Y0583877D01*
X1080000Y0583937D01*
X1079563Y0583899D02*
X1080437Y0583899D01*
X1081982Y0583400D02*
X1078018Y0583400D01*
X1077355Y0582902D02*
X1082645Y0582902D01*
X1083105Y0582403D02*
X1076895Y0582403D01*
X1076561Y0581905D02*
X1083439Y0581905D01*
X1083672Y0581406D02*
X1076328Y0581406D01*
X1076183Y0580908D02*
X1083817Y0580908D01*
X1083901Y0580409D02*
X1076099Y0580409D01*
X1076071Y0579911D02*
X1083929Y0579911D01*
X1083886Y0579412D02*
X1076114Y0579412D01*
X1076231Y0578914D02*
X1083769Y0578914D01*
X1083588Y0578415D02*
X1076412Y0578415D01*
X1076671Y0577917D02*
X1083329Y0577917D01*
X1082965Y0577418D02*
X1077035Y0577418D01*
X1077561Y0576920D02*
X1082439Y0576920D01*
X1081605Y0576421D02*
X1078395Y0576421D01*
X1366590Y0758031D02*
X1366984Y0757469D01*
X1367469Y0756984D01*
X1368031Y0756590D01*
X1368653Y0756300D01*
X1369316Y0756123D01*
X1370000Y0756063D01*
X1370684Y0756123D01*
X1371347Y0756300D01*
X1371969Y0756590D01*
X1372531Y0756984D01*
X1373016Y0757469D01*
X1373410Y0758031D01*
X1373700Y0758653D01*
X1373877Y0759316D01*
X1373937Y0760000D01*
X1373877Y0760684D01*
X1373700Y0761347D01*
X1373410Y0761969D01*
X1373016Y0762531D01*
X1372531Y0763016D01*
X1371969Y0763410D01*
X1371347Y0763700D01*
X1370684Y0763877D01*
X1370000Y0763937D01*
X1369316Y0763877D01*
X1368653Y0763700D01*
X1368031Y0763410D01*
X1367469Y0763016D01*
X1366984Y0762531D01*
X1366590Y0761969D01*
X1366300Y0761347D01*
X1366123Y0760684D01*
X1366063Y0760000D01*
X1366123Y0759316D01*
X1366300Y0758653D01*
X1366590Y0758031D01*
X1366697Y0757879D02*
X1373303Y0757879D01*
X1373571Y0758378D02*
X1366429Y0758378D01*
X1366241Y0758876D02*
X1373759Y0758876D01*
X1373882Y0759375D02*
X1366118Y0759375D01*
X1366074Y0759873D02*
X1373926Y0759873D01*
X1373904Y0760372D02*
X1366096Y0760372D01*
X1366173Y0760870D02*
X1373827Y0760870D01*
X1373689Y0761369D02*
X1366311Y0761369D01*
X1366543Y0761867D02*
X1373457Y0761867D01*
X1373131Y0762366D02*
X1366869Y0762366D01*
X1367318Y0762864D02*
X1372682Y0762864D01*
X1372035Y0763363D02*
X1367965Y0763363D01*
X1369257Y0763861D02*
X1370743Y0763861D01*
X1372927Y0757381D02*
X1367073Y0757381D01*
X1367615Y0756882D02*
X1372385Y0756882D01*
X1371525Y0756384D02*
X1368475Y0756384D01*
D98*
X1369000Y0719700D03*
X1369000Y0620300D03*
X1225000Y0620300D03*
X1225000Y0719700D03*
X1081000Y0719700D03*
X1081000Y0620300D03*
D92*
X1153189Y0745709D03*
X1161063Y0745709D03*
X1168937Y0745709D03*
X1176811Y0745709D03*
X1213189Y0745709D03*
X1221063Y0745709D03*
X1228937Y0745709D03*
X1236811Y0745709D03*
X1273189Y0745709D03*
X1281063Y0745709D03*
X1288937Y0745709D03*
X1296811Y0745709D03*
D84*
X1306063Y0769724D03*
X1263937Y0769724D03*
X1246063Y0769724D03*
X1203937Y0769724D03*
X1186063Y0769724D03*
X1143937Y0769724D03*
D41*
X1260000Y0714528D03*
X1270000Y0714528D03*
X1270000Y0705472D03*
X1260000Y0705472D03*
D39*
X1258740Y0724881D03*
X1251260Y0724881D03*
X1251260Y0735119D03*
X1255000Y0735119D03*
X1258740Y0735119D03*
D17*
X1250000Y0713300D03*
X1250000Y0706700D03*
X0040000Y0800000D02*
G75*
%LPD*%
D39*
X0075260Y0839881D03*
X0082740Y0839881D03*
X0082740Y0850119D03*
X0079000Y0850119D03*
X0075260Y0850119D03*
X0145260Y0848631D03*
X0149000Y0848631D03*
X0152740Y0848631D03*
X0152740Y0858869D03*
X0145260Y0858869D03*
D21*
X0051500Y0810000D03*
X0171500Y0810000D03*
D78*
X0171500Y0870000D03*
X0171500Y0880000D03*
X0171500Y0890000D03*
X0171500Y0900000D03*
X0171500Y0910000D03*
X0051500Y0910000D03*
X0051500Y0900000D03*
X0051500Y0890000D03*
X0051500Y0880000D03*
X0051500Y0870000D03*
D126*
X0094768Y0844774D03*
X0094768Y0841624D03*
X0094768Y0838474D03*
X0094768Y0835325D03*
X0094768Y0832175D03*
X0094768Y0829026D03*
X0094768Y0825876D03*
X0094768Y0822726D03*
X0128232Y0822726D03*
X0128232Y0825876D03*
X0128232Y0829026D03*
X0128232Y0832175D03*
X0128232Y0835325D03*
X0128232Y0838474D03*
X0128232Y0841624D03*
X0128232Y0844774D03*
D52*
X0122524Y0850482D03*
X0119374Y0850482D03*
X0116224Y0850482D03*
X0113075Y0850482D03*
X0109925Y0850482D03*
X0106776Y0850482D03*
X0103626Y0850482D03*
X0100476Y0850482D03*
X0100476Y0817018D03*
X0103626Y0817018D03*
X0106776Y0817018D03*
X0109925Y0817018D03*
X0113075Y0817018D03*
X0116224Y0817018D03*
X0119374Y0817018D03*
X0122524Y0817018D03*
D33*
X0143000Y0888748D03*
X0080004Y0888748D03*
D17*
X0086500Y0891700D03*
X0086500Y0898300D03*
X0084000Y0865800D03*
X0084000Y0859200D03*
X0074000Y0859200D03*
X0074000Y0865800D03*
X0136500Y0879200D03*
X0136500Y0885800D03*
X0149000Y0838300D03*
X0149000Y0831700D03*
X0149000Y0823300D03*
X0149000Y0816700D03*
D122*
X0064000Y0840563D03*
X0064000Y0849437D03*
D110*
X0064000Y0867500D03*
D23*
X0064000Y0858250D03*
D140*
X0096500Y0867500D03*
X0106500Y0867500D03*
X0116500Y0867500D03*
X0126500Y0867500D03*
X0126500Y0897500D03*
X0116500Y0897500D03*
X0106500Y0897500D03*
X0096500Y0897500D03*
D29*
X0082300Y0880000D03*
X0075700Y0880000D03*
X0075700Y0872500D03*
X0082300Y0872500D03*
X0082300Y0832500D03*
X0075700Y0832500D03*
X0075700Y0825000D03*
X0082300Y0825000D03*
X0079450Y0817500D03*
X0086050Y0817500D03*
X0134450Y0823750D03*
X0141050Y0823750D03*
X0145700Y0867500D03*
X0152300Y0867500D03*
D67*
X0064000Y0828500D03*
X0064000Y0825000D03*
X0064000Y0821500D03*
D82*
X0070153Y0811200D02*
X0070816Y0811377D01*
X0071500Y0811437D01*
X0072184Y0811377D01*
X0072847Y0811200D01*
X0073469Y0810910D01*
X0074031Y0810516D01*
X0074516Y0810031D01*
X0074910Y0809469D01*
X0075200Y0808847D01*
X0075377Y0808184D01*
X0075437Y0807500D01*
X0075377Y0806816D01*
X0075200Y0806153D01*
X0074910Y0805531D01*
X0074516Y0804969D01*
X0074031Y0804484D01*
X0073469Y0804090D01*
X0072847Y0803800D01*
X0072184Y0803623D01*
X0071500Y0803563D01*
X0070816Y0803623D01*
X0070153Y0803800D01*
X0069531Y0804090D01*
X0068969Y0804484D01*
X0068484Y0804969D01*
X0068090Y0805531D01*
X0067800Y0806153D01*
X0067623Y0806816D01*
X0067563Y0807500D01*
X0067623Y0808184D01*
X0067800Y0808847D01*
X0068090Y0809469D01*
X0068484Y0810031D01*
X0068969Y0810516D01*
X0069531Y0810910D01*
X0070153Y0811200D01*
X0069655Y0810967D02*
X0073345Y0810967D01*
X0074078Y0810469D02*
X0068922Y0810469D01*
X0068442Y0809970D02*
X0074558Y0809970D01*
X0074907Y0809472D02*
X0068093Y0809472D01*
X0067859Y0808973D02*
X0075141Y0808973D01*
X0075299Y0808475D02*
X0067701Y0808475D01*
X0067605Y0807976D02*
X0075395Y0807976D01*
X0075435Y0807478D02*
X0067565Y0807478D01*
X0067609Y0806979D02*
X0075391Y0806979D01*
X0075287Y0806481D02*
X0067713Y0806481D01*
X0067880Y0805982D02*
X0075120Y0805982D01*
X0074876Y0805484D02*
X0068124Y0805484D01*
X0068473Y0804985D02*
X0074527Y0804985D01*
X0074033Y0804487D02*
X0068967Y0804487D01*
X0069751Y0803988D02*
X0073249Y0803988D01*
X0134531Y0901590D02*
X0135153Y0901300D01*
X0135816Y0901123D01*
X0136500Y0901063D01*
X0137184Y0901123D01*
X0137847Y0901300D01*
X0138469Y0901590D01*
X0139031Y0901984D01*
X0139516Y0902469D01*
X0139910Y0903031D01*
X0140200Y0903653D01*
X0140377Y0904316D01*
X0140437Y0905000D01*
X0140377Y0905684D01*
X0132623Y0905684D01*
X0132800Y0906347D01*
X0133090Y0906969D01*
X0133484Y0907531D01*
X0133969Y0908016D01*
X0134531Y0908410D01*
X0135153Y0908700D01*
X0135816Y0908877D01*
X0136500Y0908937D01*
X0137184Y0908877D01*
X0137847Y0908700D01*
X0138469Y0908410D01*
X0139031Y0908016D01*
X0139516Y0907531D01*
X0139910Y0906969D01*
X0140200Y0906347D01*
X0140377Y0905684D01*
X0140421Y0905186D02*
X0132579Y0905186D01*
X0132563Y0905000D02*
X0132623Y0905684D01*
X0132757Y0906183D02*
X0140243Y0906183D01*
X0140043Y0906681D02*
X0132957Y0906681D01*
X0133238Y0907180D02*
X0139761Y0907180D01*
X0139368Y0907678D02*
X0133632Y0907678D01*
X0134199Y0908177D02*
X0138801Y0908177D01*
X0137898Y0908675D02*
X0135102Y0908675D01*
X0132563Y0905000D02*
X0132623Y0904316D01*
X0132800Y0903653D01*
X0133090Y0903031D01*
X0133484Y0902469D01*
X0133969Y0901984D01*
X0134531Y0901590D01*
X0134380Y0901696D02*
X0138620Y0901696D01*
X0139241Y0902195D02*
X0133759Y0902195D01*
X0133327Y0902693D02*
X0139673Y0902693D01*
X0139984Y0903192D02*
X0133016Y0903192D01*
X0132791Y0903690D02*
X0140209Y0903690D01*
X0140343Y0904189D02*
X0132657Y0904189D01*
X0132590Y0904687D02*
X0140410Y0904687D01*
X0137464Y0901198D02*
X0135536Y0901198D01*
X0190000Y0800000D02*
G75*
%LPD*%
D39*
X0225260Y0839881D03*
X0232740Y0839881D03*
X0232740Y0850119D03*
X0229000Y0850119D03*
X0225260Y0850119D03*
X0295260Y0848631D03*
X0299000Y0848631D03*
X0302740Y0848631D03*
X0302740Y0858869D03*
X0295260Y0858869D03*
D21*
X0201500Y0810000D03*
X0321500Y0810000D03*
D78*
X0321500Y0870000D03*
X0321500Y0880000D03*
X0321500Y0890000D03*
X0321500Y0900000D03*
X0321500Y0910000D03*
X0201500Y0910000D03*
X0201500Y0900000D03*
X0201500Y0890000D03*
X0201500Y0880000D03*
X0201500Y0870000D03*
D126*
X0244768Y0844774D03*
X0244768Y0841624D03*
X0244768Y0838474D03*
X0244768Y0835325D03*
X0244768Y0832175D03*
X0244768Y0829026D03*
X0244768Y0825876D03*
X0244768Y0822726D03*
X0278232Y0822726D03*
X0278232Y0825876D03*
X0278232Y0829026D03*
X0278232Y0832175D03*
X0278232Y0835325D03*
X0278232Y0838474D03*
X0278232Y0841624D03*
X0278232Y0844774D03*
D52*
X0272524Y0850482D03*
X0269374Y0850482D03*
X0266224Y0850482D03*
X0263075Y0850482D03*
X0259925Y0850482D03*
X0256776Y0850482D03*
X0253626Y0850482D03*
X0250476Y0850482D03*
X0250476Y0817018D03*
X0253626Y0817018D03*
X0256776Y0817018D03*
X0259925Y0817018D03*
X0263075Y0817018D03*
X0266224Y0817018D03*
X0269374Y0817018D03*
X0272524Y0817018D03*
D33*
X0293000Y0888748D03*
X0230004Y0888748D03*
D17*
X0236500Y0891700D03*
X0236500Y0898300D03*
X0234000Y0865800D03*
X0234000Y0859200D03*
X0224000Y0859200D03*
X0224000Y0865800D03*
X0286500Y0879200D03*
X0286500Y0885800D03*
X0299000Y0838300D03*
X0299000Y0831700D03*
X0299000Y0823300D03*
X0299000Y0816700D03*
D122*
X0214000Y0840563D03*
X0214000Y0849437D03*
D110*
X0214000Y0867500D03*
D23*
X0214000Y0858250D03*
D140*
X0246500Y0867500D03*
X0256500Y0867500D03*
X0266500Y0867500D03*
X0276500Y0867500D03*
X0276500Y0897500D03*
X0266500Y0897500D03*
X0256500Y0897500D03*
X0246500Y0897500D03*
D29*
X0232300Y0880000D03*
X0225700Y0880000D03*
X0225700Y0872500D03*
X0232300Y0872500D03*
X0232300Y0832500D03*
X0225700Y0832500D03*
X0225700Y0825000D03*
X0232300Y0825000D03*
X0229450Y0817500D03*
X0236050Y0817500D03*
X0284450Y0823750D03*
X0291050Y0823750D03*
X0295700Y0867500D03*
X0302300Y0867500D03*
D67*
X0214000Y0828500D03*
X0214000Y0825000D03*
X0214000Y0821500D03*
D82*
X0220153Y0811200D02*
X0220816Y0811377D01*
X0221500Y0811437D01*
X0222184Y0811377D01*
X0222847Y0811200D01*
X0223469Y0810910D01*
X0224031Y0810516D01*
X0224516Y0810031D01*
X0224910Y0809469D01*
X0225200Y0808847D01*
X0225377Y0808184D01*
X0225437Y0807500D01*
X0225377Y0806816D01*
X0225200Y0806153D01*
X0224910Y0805531D01*
X0224516Y0804969D01*
X0224031Y0804484D01*
X0223469Y0804090D01*
X0222847Y0803800D01*
X0222184Y0803623D01*
X0221500Y0803563D01*
X0220816Y0803623D01*
X0220153Y0803800D01*
X0219531Y0804090D01*
X0218969Y0804484D01*
X0218484Y0804969D01*
X0218090Y0805531D01*
X0217800Y0806153D01*
X0217623Y0806816D01*
X0217563Y0807500D01*
X0217623Y0808184D01*
X0217800Y0808847D01*
X0218090Y0809469D01*
X0218484Y0810031D01*
X0218969Y0810516D01*
X0219531Y0810910D01*
X0220153Y0811200D01*
X0219655Y0810967D02*
X0223345Y0810967D01*
X0224078Y0810469D02*
X0218922Y0810469D01*
X0218442Y0809970D02*
X0224558Y0809970D01*
X0224907Y0809472D02*
X0218093Y0809472D01*
X0217859Y0808973D02*
X0225141Y0808973D01*
X0225299Y0808475D02*
X0217701Y0808475D01*
X0217605Y0807976D02*
X0225395Y0807976D01*
X0225435Y0807478D02*
X0217565Y0807478D01*
X0217609Y0806979D02*
X0225391Y0806979D01*
X0225287Y0806481D02*
X0217713Y0806481D01*
X0217880Y0805982D02*
X0225120Y0805982D01*
X0224876Y0805484D02*
X0218124Y0805484D01*
X0218473Y0804985D02*
X0224527Y0804985D01*
X0224033Y0804487D02*
X0218967Y0804487D01*
X0219751Y0803988D02*
X0223249Y0803988D01*
X0284531Y0901590D02*
X0285153Y0901300D01*
X0285816Y0901123D01*
X0286500Y0901063D01*
X0287184Y0901123D01*
X0287847Y0901300D01*
X0288469Y0901590D01*
X0289031Y0901984D01*
X0289516Y0902469D01*
X0289910Y0903031D01*
X0290200Y0903653D01*
X0290377Y0904316D01*
X0290437Y0905000D01*
X0290377Y0905684D01*
X0282623Y0905684D01*
X0282800Y0906347D01*
X0283090Y0906969D01*
X0283484Y0907531D01*
X0283969Y0908016D01*
X0284531Y0908410D01*
X0285153Y0908700D01*
X0285816Y0908877D01*
X0286500Y0908937D01*
X0287184Y0908877D01*
X0287847Y0908700D01*
X0288469Y0908410D01*
X0289031Y0908016D01*
X0289516Y0907531D01*
X0289910Y0906969D01*
X0290200Y0906347D01*
X0290377Y0905684D01*
X0290421Y0905186D02*
X0282579Y0905186D01*
X0282563Y0905000D02*
X0282623Y0905684D01*
X0282757Y0906183D02*
X0290243Y0906183D01*
X0290043Y0906681D02*
X0282957Y0906681D01*
X0283238Y0907180D02*
X0289761Y0907180D01*
X0289368Y0907678D02*
X0283632Y0907678D01*
X0284199Y0908177D02*
X0288801Y0908177D01*
X0287898Y0908675D02*
X0285102Y0908675D01*
X0282563Y0905000D02*
X0282623Y0904316D01*
X0282800Y0903653D01*
X0283090Y0903031D01*
X0283484Y0902469D01*
X0283969Y0901984D01*
X0284531Y0901590D01*
X0284380Y0901696D02*
X0288620Y0901696D01*
X0289241Y0902195D02*
X0283759Y0902195D01*
X0283327Y0902693D02*
X0289673Y0902693D01*
X0289984Y0903192D02*
X0283016Y0903192D01*
X0282791Y0903690D02*
X0290209Y0903690D01*
X0290343Y0904189D02*
X0282657Y0904189D01*
X0282590Y0904687D02*
X0290410Y0904687D01*
X0287464Y0901198D02*
X0285536Y0901198D01*
X0340000Y0800000D02*
G75*
%LPD*%
D39*
X0375260Y0839881D03*
X0382740Y0839881D03*
X0382740Y0850119D03*
X0379000Y0850119D03*
X0375260Y0850119D03*
X0445260Y0848631D03*
X0449000Y0848631D03*
X0452740Y0848631D03*
X0452740Y0858869D03*
X0445260Y0858869D03*
D21*
X0351500Y0810000D03*
X0471500Y0810000D03*
D78*
X0471500Y0870000D03*
X0471500Y0880000D03*
X0471500Y0890000D03*
X0471500Y0900000D03*
X0471500Y0910000D03*
X0351500Y0910000D03*
X0351500Y0900000D03*
X0351500Y0890000D03*
X0351500Y0880000D03*
X0351500Y0870000D03*
D126*
X0394768Y0844774D03*
X0394768Y0841624D03*
X0394768Y0838474D03*
X0394768Y0835325D03*
X0394768Y0832175D03*
X0394768Y0829026D03*
X0394768Y0825876D03*
X0394768Y0822726D03*
X0428232Y0822726D03*
X0428232Y0825876D03*
X0428232Y0829026D03*
X0428232Y0832175D03*
X0428232Y0835325D03*
X0428232Y0838474D03*
X0428232Y0841624D03*
X0428232Y0844774D03*
D52*
X0422524Y0850482D03*
X0419374Y0850482D03*
X0416224Y0850482D03*
X0413075Y0850482D03*
X0409925Y0850482D03*
X0406776Y0850482D03*
X0403626Y0850482D03*
X0400476Y0850482D03*
X0400476Y0817018D03*
X0403626Y0817018D03*
X0406776Y0817018D03*
X0409925Y0817018D03*
X0413075Y0817018D03*
X0416224Y0817018D03*
X0419374Y0817018D03*
X0422524Y0817018D03*
D33*
X0443000Y0888748D03*
X0380004Y0888748D03*
D17*
X0386500Y0891700D03*
X0386500Y0898300D03*
X0384000Y0865800D03*
X0384000Y0859200D03*
X0374000Y0859200D03*
X0374000Y0865800D03*
X0436500Y0879200D03*
X0436500Y0885800D03*
X0449000Y0838300D03*
X0449000Y0831700D03*
X0449000Y0823300D03*
X0449000Y0816700D03*
D122*
X0364000Y0840563D03*
X0364000Y0849437D03*
D110*
X0364000Y0867500D03*
D23*
X0364000Y0858250D03*
D140*
X0396500Y0867500D03*
X0406500Y0867500D03*
X0416500Y0867500D03*
X0426500Y0867500D03*
X0426500Y0897500D03*
X0416500Y0897500D03*
X0406500Y0897500D03*
X0396500Y0897500D03*
D29*
X0382300Y0880000D03*
X0375700Y0880000D03*
X0375700Y0872500D03*
X0382300Y0872500D03*
X0382300Y0832500D03*
X0375700Y0832500D03*
X0375700Y0825000D03*
X0382300Y0825000D03*
X0379450Y0817500D03*
X0386050Y0817500D03*
X0434450Y0823750D03*
X0441050Y0823750D03*
X0445700Y0867500D03*
X0452300Y0867500D03*
D67*
X0364000Y0828500D03*
X0364000Y0825000D03*
X0364000Y0821500D03*
D82*
X0370153Y0811200D02*
X0370816Y0811377D01*
X0371500Y0811437D01*
X0372184Y0811377D01*
X0372847Y0811200D01*
X0373469Y0810910D01*
X0374031Y0810516D01*
X0374516Y0810031D01*
X0374910Y0809469D01*
X0375200Y0808847D01*
X0375377Y0808184D01*
X0375437Y0807500D01*
X0375377Y0806816D01*
X0375200Y0806153D01*
X0374910Y0805531D01*
X0374516Y0804969D01*
X0374031Y0804484D01*
X0373469Y0804090D01*
X0372847Y0803800D01*
X0372184Y0803623D01*
X0371500Y0803563D01*
X0370816Y0803623D01*
X0370153Y0803800D01*
X0369531Y0804090D01*
X0368969Y0804484D01*
X0368484Y0804969D01*
X0368090Y0805531D01*
X0367800Y0806153D01*
X0367623Y0806816D01*
X0367563Y0807500D01*
X0367623Y0808184D01*
X0367800Y0808847D01*
X0368090Y0809469D01*
X0368484Y0810031D01*
X0368969Y0810516D01*
X0369531Y0810910D01*
X0370153Y0811200D01*
X0369655Y0810967D02*
X0373345Y0810967D01*
X0374078Y0810469D02*
X0368922Y0810469D01*
X0368442Y0809970D02*
X0374558Y0809970D01*
X0374907Y0809472D02*
X0368093Y0809472D01*
X0367859Y0808973D02*
X0375141Y0808973D01*
X0375299Y0808475D02*
X0367701Y0808475D01*
X0367605Y0807976D02*
X0375395Y0807976D01*
X0375435Y0807478D02*
X0367565Y0807478D01*
X0367609Y0806979D02*
X0375391Y0806979D01*
X0375287Y0806481D02*
X0367713Y0806481D01*
X0367880Y0805982D02*
X0375120Y0805982D01*
X0374876Y0805484D02*
X0368124Y0805484D01*
X0368473Y0804985D02*
X0374527Y0804985D01*
X0374033Y0804487D02*
X0368967Y0804487D01*
X0369751Y0803988D02*
X0373249Y0803988D01*
X0434531Y0901590D02*
X0435153Y0901300D01*
X0435816Y0901123D01*
X0436500Y0901063D01*
X0437184Y0901123D01*
X0437847Y0901300D01*
X0438469Y0901590D01*
X0439031Y0901984D01*
X0439516Y0902469D01*
X0439910Y0903031D01*
X0440200Y0903653D01*
X0440377Y0904316D01*
X0440437Y0905000D01*
X0440377Y0905684D01*
X0432623Y0905684D01*
X0432800Y0906347D01*
X0433090Y0906969D01*
X0433484Y0907531D01*
X0433969Y0908016D01*
X0434531Y0908410D01*
X0435153Y0908700D01*
X0435816Y0908877D01*
X0436500Y0908937D01*
X0437184Y0908877D01*
X0437847Y0908700D01*
X0438469Y0908410D01*
X0439031Y0908016D01*
X0439516Y0907531D01*
X0439910Y0906969D01*
X0440200Y0906347D01*
X0440377Y0905684D01*
X0440421Y0905186D02*
X0432579Y0905186D01*
X0432563Y0905000D02*
X0432623Y0905684D01*
X0432757Y0906183D02*
X0440243Y0906183D01*
X0440043Y0906681D02*
X0432957Y0906681D01*
X0433238Y0907180D02*
X0439761Y0907180D01*
X0439368Y0907678D02*
X0433632Y0907678D01*
X0434199Y0908177D02*
X0438801Y0908177D01*
X0437898Y0908675D02*
X0435102Y0908675D01*
X0432563Y0905000D02*
X0432623Y0904316D01*
X0432800Y0903653D01*
X0433090Y0903031D01*
X0433484Y0902469D01*
X0433969Y0901984D01*
X0434531Y0901590D01*
X0434380Y0901696D02*
X0438620Y0901696D01*
X0439241Y0902195D02*
X0433759Y0902195D01*
X0433327Y0902693D02*
X0439673Y0902693D01*
X0439984Y0903192D02*
X0433016Y0903192D01*
X0432791Y0903690D02*
X0440209Y0903690D01*
X0440343Y0904189D02*
X0432657Y0904189D01*
X0432590Y0904687D02*
X0440410Y0904687D01*
X0437464Y0901198D02*
X0435536Y0901198D01*
X0490000Y0800000D02*
G75*
%LPD*%
D39*
X0525260Y0839881D03*
X0532740Y0839881D03*
X0532740Y0850119D03*
X0529000Y0850119D03*
X0525260Y0850119D03*
X0595260Y0848631D03*
X0599000Y0848631D03*
X0602740Y0848631D03*
X0602740Y0858869D03*
X0595260Y0858869D03*
D21*
X0501500Y0810000D03*
X0621500Y0810000D03*
D78*
X0621500Y0870000D03*
X0621500Y0880000D03*
X0621500Y0890000D03*
X0621500Y0900000D03*
X0621500Y0910000D03*
X0501500Y0910000D03*
X0501500Y0900000D03*
X0501500Y0890000D03*
X0501500Y0880000D03*
X0501500Y0870000D03*
D126*
X0544768Y0844774D03*
X0544768Y0841624D03*
X0544768Y0838474D03*
X0544768Y0835325D03*
X0544768Y0832175D03*
X0544768Y0829026D03*
X0544768Y0825876D03*
X0544768Y0822726D03*
X0578232Y0822726D03*
X0578232Y0825876D03*
X0578232Y0829026D03*
X0578232Y0832175D03*
X0578232Y0835325D03*
X0578232Y0838474D03*
X0578232Y0841624D03*
X0578232Y0844774D03*
D52*
X0572524Y0850482D03*
X0569374Y0850482D03*
X0566224Y0850482D03*
X0563075Y0850482D03*
X0559925Y0850482D03*
X0556776Y0850482D03*
X0553626Y0850482D03*
X0550476Y0850482D03*
X0550476Y0817018D03*
X0553626Y0817018D03*
X0556776Y0817018D03*
X0559925Y0817018D03*
X0563075Y0817018D03*
X0566224Y0817018D03*
X0569374Y0817018D03*
X0572524Y0817018D03*
D33*
X0593000Y0888748D03*
X0530004Y0888748D03*
D17*
X0536500Y0891700D03*
X0536500Y0898300D03*
X0534000Y0865800D03*
X0534000Y0859200D03*
X0524000Y0859200D03*
X0524000Y0865800D03*
X0586500Y0879200D03*
X0586500Y0885800D03*
X0599000Y0838300D03*
X0599000Y0831700D03*
X0599000Y0823300D03*
X0599000Y0816700D03*
D122*
X0514000Y0840563D03*
X0514000Y0849437D03*
D110*
X0514000Y0867500D03*
D23*
X0514000Y0858250D03*
D140*
X0546500Y0867500D03*
X0556500Y0867500D03*
X0566500Y0867500D03*
X0576500Y0867500D03*
X0576500Y0897500D03*
X0566500Y0897500D03*
X0556500Y0897500D03*
X0546500Y0897500D03*
D29*
X0532300Y0880000D03*
X0525700Y0880000D03*
X0525700Y0872500D03*
X0532300Y0872500D03*
X0532300Y0832500D03*
X0525700Y0832500D03*
X0525700Y0825000D03*
X0532300Y0825000D03*
X0529450Y0817500D03*
X0536050Y0817500D03*
X0584450Y0823750D03*
X0591050Y0823750D03*
X0595700Y0867500D03*
X0602300Y0867500D03*
D67*
X0514000Y0828500D03*
X0514000Y0825000D03*
X0514000Y0821500D03*
D82*
X0520153Y0811200D02*
X0520816Y0811377D01*
X0521500Y0811437D01*
X0522184Y0811377D01*
X0522847Y0811200D01*
X0523469Y0810910D01*
X0524031Y0810516D01*
X0524516Y0810031D01*
X0524910Y0809469D01*
X0525200Y0808847D01*
X0525377Y0808184D01*
X0525437Y0807500D01*
X0525377Y0806816D01*
X0525200Y0806153D01*
X0524910Y0805531D01*
X0524516Y0804969D01*
X0524031Y0804484D01*
X0523469Y0804090D01*
X0522847Y0803800D01*
X0522184Y0803623D01*
X0521500Y0803563D01*
X0520816Y0803623D01*
X0520153Y0803800D01*
X0519531Y0804090D01*
X0518969Y0804484D01*
X0518484Y0804969D01*
X0518090Y0805531D01*
X0517800Y0806153D01*
X0517623Y0806816D01*
X0517563Y0807500D01*
X0517623Y0808184D01*
X0517800Y0808847D01*
X0518090Y0809469D01*
X0518484Y0810031D01*
X0518969Y0810516D01*
X0519531Y0810910D01*
X0520153Y0811200D01*
X0519655Y0810967D02*
X0523345Y0810967D01*
X0524078Y0810469D02*
X0518922Y0810469D01*
X0518442Y0809970D02*
X0524558Y0809970D01*
X0524907Y0809472D02*
X0518093Y0809472D01*
X0517859Y0808973D02*
X0525141Y0808973D01*
X0525299Y0808475D02*
X0517701Y0808475D01*
X0517605Y0807976D02*
X0525395Y0807976D01*
X0525435Y0807478D02*
X0517565Y0807478D01*
X0517609Y0806979D02*
X0525391Y0806979D01*
X0525287Y0806481D02*
X0517713Y0806481D01*
X0517880Y0805982D02*
X0525120Y0805982D01*
X0524876Y0805484D02*
X0518124Y0805484D01*
X0518473Y0804985D02*
X0524527Y0804985D01*
X0524033Y0804487D02*
X0518967Y0804487D01*
X0519751Y0803988D02*
X0523249Y0803988D01*
X0584531Y0901590D02*
X0585153Y0901300D01*
X0585816Y0901123D01*
X0586500Y0901063D01*
X0587184Y0901123D01*
X0587847Y0901300D01*
X0588469Y0901590D01*
X0589031Y0901984D01*
X0589516Y0902469D01*
X0589910Y0903031D01*
X0590200Y0903653D01*
X0590377Y0904316D01*
X0590437Y0905000D01*
X0590377Y0905684D01*
X0582623Y0905684D01*
X0582800Y0906347D01*
X0583090Y0906969D01*
X0583484Y0907531D01*
X0583969Y0908016D01*
X0584531Y0908410D01*
X0585153Y0908700D01*
X0585816Y0908877D01*
X0586500Y0908937D01*
X0587184Y0908877D01*
X0587847Y0908700D01*
X0588469Y0908410D01*
X0589031Y0908016D01*
X0589516Y0907531D01*
X0589910Y0906969D01*
X0590200Y0906347D01*
X0590377Y0905684D01*
X0590421Y0905186D02*
X0582579Y0905186D01*
X0582563Y0905000D02*
X0582623Y0905684D01*
X0582757Y0906183D02*
X0590243Y0906183D01*
X0590043Y0906681D02*
X0582957Y0906681D01*
X0583238Y0907180D02*
X0589761Y0907180D01*
X0589368Y0907678D02*
X0583632Y0907678D01*
X0584199Y0908177D02*
X0588801Y0908177D01*
X0587898Y0908675D02*
X0585102Y0908675D01*
X0582563Y0905000D02*
X0582623Y0904316D01*
X0582800Y0903653D01*
X0583090Y0903031D01*
X0583484Y0902469D01*
X0583969Y0901984D01*
X0584531Y0901590D01*
X0584380Y0901696D02*
X0588620Y0901696D01*
X0589241Y0902195D02*
X0583759Y0902195D01*
X0583327Y0902693D02*
X0589673Y0902693D01*
X0589984Y0903192D02*
X0583016Y0903192D01*
X0582791Y0903690D02*
X0590209Y0903690D01*
X0590343Y0904189D02*
X0582657Y0904189D01*
X0582590Y0904687D02*
X0590410Y0904687D01*
X0587464Y0901198D02*
X0585536Y0901198D01*
X0640000Y0800000D02*
G75*
%LPD*%
D39*
X0675260Y0839881D03*
X0682740Y0839881D03*
X0682740Y0850119D03*
X0679000Y0850119D03*
X0675260Y0850119D03*
X0745260Y0848631D03*
X0749000Y0848631D03*
X0752740Y0848631D03*
X0752740Y0858869D03*
X0745260Y0858869D03*
D21*
X0651500Y0810000D03*
X0771500Y0810000D03*
D78*
X0771500Y0870000D03*
X0771500Y0880000D03*
X0771500Y0890000D03*
X0771500Y0900000D03*
X0771500Y0910000D03*
X0651500Y0910000D03*
X0651500Y0900000D03*
X0651500Y0890000D03*
X0651500Y0880000D03*
X0651500Y0870000D03*
D126*
X0694768Y0844774D03*
X0694768Y0841624D03*
X0694768Y0838474D03*
X0694768Y0835325D03*
X0694768Y0832175D03*
X0694768Y0829026D03*
X0694768Y0825876D03*
X0694768Y0822726D03*
X0728232Y0822726D03*
X0728232Y0825876D03*
X0728232Y0829026D03*
X0728232Y0832175D03*
X0728232Y0835325D03*
X0728232Y0838474D03*
X0728232Y0841624D03*
X0728232Y0844774D03*
D52*
X0722524Y0850482D03*
X0719374Y0850482D03*
X0716224Y0850482D03*
X0713075Y0850482D03*
X0709925Y0850482D03*
X0706776Y0850482D03*
X0703626Y0850482D03*
X0700476Y0850482D03*
X0700476Y0817018D03*
X0703626Y0817018D03*
X0706776Y0817018D03*
X0709925Y0817018D03*
X0713075Y0817018D03*
X0716224Y0817018D03*
X0719374Y0817018D03*
X0722524Y0817018D03*
D33*
X0743000Y0888748D03*
X0680004Y0888748D03*
D17*
X0686500Y0891700D03*
X0686500Y0898300D03*
X0684000Y0865800D03*
X0684000Y0859200D03*
X0674000Y0859200D03*
X0674000Y0865800D03*
X0736500Y0879200D03*
X0736500Y0885800D03*
X0749000Y0838300D03*
X0749000Y0831700D03*
X0749000Y0823300D03*
X0749000Y0816700D03*
D122*
X0664000Y0840563D03*
X0664000Y0849437D03*
D110*
X0664000Y0867500D03*
D23*
X0664000Y0858250D03*
D140*
X0696500Y0867500D03*
X0706500Y0867500D03*
X0716500Y0867500D03*
X0726500Y0867500D03*
X0726500Y0897500D03*
X0716500Y0897500D03*
X0706500Y0897500D03*
X0696500Y0897500D03*
D29*
X0682300Y0880000D03*
X0675700Y0880000D03*
X0675700Y0872500D03*
X0682300Y0872500D03*
X0682300Y0832500D03*
X0675700Y0832500D03*
X0675700Y0825000D03*
X0682300Y0825000D03*
X0679450Y0817500D03*
X0686050Y0817500D03*
X0734450Y0823750D03*
X0741050Y0823750D03*
X0745700Y0867500D03*
X0752300Y0867500D03*
D67*
X0664000Y0828500D03*
X0664000Y0825000D03*
X0664000Y0821500D03*
D82*
X0670153Y0811200D02*
X0670816Y0811377D01*
X0671500Y0811437D01*
X0672184Y0811377D01*
X0672847Y0811200D01*
X0673469Y0810910D01*
X0674031Y0810516D01*
X0674516Y0810031D01*
X0674910Y0809469D01*
X0675200Y0808847D01*
X0675377Y0808184D01*
X0675437Y0807500D01*
X0675377Y0806816D01*
X0675200Y0806153D01*
X0674910Y0805531D01*
X0674516Y0804969D01*
X0674031Y0804484D01*
X0673469Y0804090D01*
X0672847Y0803800D01*
X0672184Y0803623D01*
X0671500Y0803563D01*
X0670816Y0803623D01*
X0670153Y0803800D01*
X0669531Y0804090D01*
X0668969Y0804484D01*
X0668484Y0804969D01*
X0668090Y0805531D01*
X0667800Y0806153D01*
X0667623Y0806816D01*
X0667563Y0807500D01*
X0667623Y0808184D01*
X0667800Y0808847D01*
X0668090Y0809469D01*
X0668484Y0810031D01*
X0668969Y0810516D01*
X0669531Y0810910D01*
X0670153Y0811200D01*
X0669655Y0810967D02*
X0673345Y0810967D01*
X0674078Y0810469D02*
X0668922Y0810469D01*
X0668442Y0809970D02*
X0674558Y0809970D01*
X0674907Y0809472D02*
X0668093Y0809472D01*
X0667859Y0808973D02*
X0675141Y0808973D01*
X0675299Y0808475D02*
X0667701Y0808475D01*
X0667605Y0807976D02*
X0675395Y0807976D01*
X0675435Y0807478D02*
X0667565Y0807478D01*
X0667609Y0806979D02*
X0675391Y0806979D01*
X0675287Y0806481D02*
X0667713Y0806481D01*
X0667880Y0805982D02*
X0675120Y0805982D01*
X0674876Y0805484D02*
X0668124Y0805484D01*
X0668473Y0804985D02*
X0674527Y0804985D01*
X0674033Y0804487D02*
X0668967Y0804487D01*
X0669751Y0803988D02*
X0673249Y0803988D01*
X0734531Y0901590D02*
X0735153Y0901300D01*
X0735816Y0901123D01*
X0736500Y0901063D01*
X0737184Y0901123D01*
X0737847Y0901300D01*
X0738469Y0901590D01*
X0739031Y0901984D01*
X0739516Y0902469D01*
X0739910Y0903031D01*
X0740200Y0903653D01*
X0740377Y0904316D01*
X0740437Y0905000D01*
X0740377Y0905684D01*
X0732623Y0905684D01*
X0732800Y0906347D01*
X0733090Y0906969D01*
X0733484Y0907531D01*
X0733969Y0908016D01*
X0734531Y0908410D01*
X0735153Y0908700D01*
X0735816Y0908877D01*
X0736500Y0908937D01*
X0737184Y0908877D01*
X0737847Y0908700D01*
X0738469Y0908410D01*
X0739031Y0908016D01*
X0739516Y0907531D01*
X0739910Y0906969D01*
X0740200Y0906347D01*
X0740377Y0905684D01*
X0740421Y0905186D02*
X0732579Y0905186D01*
X0732563Y0905000D02*
X0732623Y0905684D01*
X0732757Y0906183D02*
X0740243Y0906183D01*
X0740043Y0906681D02*
X0732957Y0906681D01*
X0733238Y0907180D02*
X0739761Y0907180D01*
X0739368Y0907678D02*
X0733632Y0907678D01*
X0734199Y0908177D02*
X0738801Y0908177D01*
X0737898Y0908675D02*
X0735102Y0908675D01*
X0732563Y0905000D02*
X0732623Y0904316D01*
X0732800Y0903653D01*
X0733090Y0903031D01*
X0733484Y0902469D01*
X0733969Y0901984D01*
X0734531Y0901590D01*
X0734380Y0901696D02*
X0738620Y0901696D01*
X0739241Y0902195D02*
X0733759Y0902195D01*
X0733327Y0902693D02*
X0739673Y0902693D01*
X0739984Y0903192D02*
X0733016Y0903192D01*
X0732791Y0903690D02*
X0740209Y0903690D01*
X0740343Y0904189D02*
X0732657Y0904189D01*
X0732590Y0904687D02*
X0740410Y0904687D01*
X0737464Y0901198D02*
X0735536Y0901198D01*
X0790000Y0800000D02*
G75*
%LPD*%
D21*
X0801500Y0810000D03*
X0921500Y0810000D03*
D78*
X0921500Y0870000D03*
X0921500Y0880000D03*
X0921500Y0890000D03*
X0921500Y0900000D03*
X0921500Y0910000D03*
X0801500Y0910000D03*
X0801500Y0900000D03*
X0801500Y0890000D03*
X0801500Y0880000D03*
X0801500Y0870000D03*
D29*
X0838825Y0907500D03*
X0845425Y0907500D03*
X0856950Y0906875D03*
X0863550Y0906875D03*
X0906325Y0862500D03*
X0912925Y0862500D03*
D140*
X0876500Y0867500D03*
X0866500Y0867500D03*
X0856500Y0867500D03*
X0846500Y0867500D03*
X0846500Y0897500D03*
X0856500Y0897500D03*
X0866500Y0897500D03*
X0876500Y0897500D03*
D69*
X0827125Y0825000D03*
D60*
X0840905Y0825000D03*
X0854684Y0825000D03*
X0868464Y0825000D03*
X0882243Y0825000D03*
X0896023Y0825000D03*
D35*
X0892661Y0808750D03*
X0875339Y0808750D03*
X0850161Y0808750D03*
X0832839Y0808750D03*
D82*
X0814516Y0826844D02*
X0814031Y0826359D01*
X0813469Y0825965D01*
X0812847Y0825675D01*
X0812184Y0825498D01*
X0811500Y0825438D01*
X0810816Y0825498D01*
X0810153Y0825675D01*
X0809531Y0825965D01*
X0808969Y0826359D01*
X0808484Y0826844D01*
X0808090Y0827406D01*
X0807800Y0828028D01*
X0807623Y0828691D01*
X0807563Y0829375D01*
X0807623Y0830059D01*
X0807800Y0830722D01*
X0808090Y0831344D01*
X0808484Y0831906D01*
X0808969Y0832391D01*
X0809531Y0832785D01*
X0810153Y0833075D01*
X0810816Y0833252D01*
X0811500Y0833312D01*
X0812184Y0833252D01*
X0812847Y0833075D01*
X0813469Y0832785D01*
X0814031Y0832391D01*
X0814516Y0831906D01*
X0814910Y0831344D01*
X0815200Y0830722D01*
X0815377Y0830059D01*
X0815437Y0829375D01*
X0815377Y0828691D01*
X0815200Y0828028D01*
X0814910Y0827406D01*
X0814516Y0826844D01*
X0814569Y0826920D02*
X0808431Y0826920D01*
X0808085Y0827418D02*
X0814915Y0827418D01*
X0815147Y0827917D02*
X0807853Y0827917D01*
X0807697Y0828415D02*
X0815303Y0828415D01*
X0815397Y0828914D02*
X0807603Y0828914D01*
X0807566Y0829412D02*
X0815434Y0829412D01*
X0815390Y0829911D02*
X0807610Y0829911D01*
X0807717Y0830409D02*
X0815283Y0830409D01*
X0815113Y0830908D02*
X0807887Y0830908D01*
X0808134Y0831406D02*
X0814866Y0831406D01*
X0814517Y0831905D02*
X0808483Y0831905D01*
X0808987Y0832403D02*
X0814013Y0832403D01*
X0813217Y0832902D02*
X0809783Y0832902D01*
X0808907Y0826421D02*
X0814093Y0826421D01*
X0813377Y0825923D02*
X0809623Y0825923D01*
X0883969Y0906984D02*
X0883484Y0907469D01*
X0883090Y0908031D01*
X0882800Y0908653D01*
X0882623Y0909316D01*
X0882563Y0910000D01*
X0882623Y0910684D01*
X0882800Y0911347D01*
X0883090Y0911969D01*
X0883484Y0912531D01*
X0883969Y0913016D01*
X0884531Y0913410D01*
X0885153Y0913700D01*
X0885816Y0913877D01*
X0886500Y0913937D01*
X0887184Y0913877D01*
X0887847Y0913700D01*
X0888469Y0913410D01*
X0889031Y0913016D01*
X0889516Y0912531D01*
X0889910Y0911969D01*
X0890200Y0911347D01*
X0890377Y0910684D01*
X0890437Y0910000D01*
X0890377Y0909316D01*
X0890200Y0908653D01*
X0889910Y0908031D01*
X0889516Y0907469D01*
X0889031Y0906984D01*
X0888469Y0906590D01*
X0887847Y0906300D01*
X0887184Y0906123D01*
X0886500Y0906063D01*
X0885816Y0906123D01*
X0885153Y0906300D01*
X0884531Y0906590D01*
X0883969Y0906984D01*
X0883773Y0907180D02*
X0889227Y0907180D01*
X0889662Y0907678D02*
X0883338Y0907678D01*
X0883023Y0908177D02*
X0889977Y0908177D01*
X0890205Y0908675D02*
X0882795Y0908675D01*
X0882661Y0909174D02*
X0890339Y0909174D01*
X0890408Y0909672D02*
X0882592Y0909672D01*
X0882578Y0910171D02*
X0890422Y0910171D01*
X0890378Y0910670D02*
X0882622Y0910670D01*
X0882753Y0911168D02*
X0890247Y0911168D01*
X0890050Y0911667D02*
X0882950Y0911667D01*
X0883228Y0912165D02*
X0889772Y0912165D01*
X0889383Y0912664D02*
X0883617Y0912664D01*
X0884178Y0913162D02*
X0888822Y0913162D01*
X0887930Y0913661D02*
X0885070Y0913661D01*
X0884402Y0906681D02*
X0888598Y0906681D01*
X0887408Y0906183D02*
X0885592Y0906183D01*
D55*
X0891500Y0876750D03*
X0901500Y0875750D03*
X0911500Y0876750D03*
D124*
X0889000Y0892500D03*
D76*
X0898250Y0892500D03*
D17*
X0809000Y0858300D03*
X0809000Y0851700D03*
D94*
X0819728Y0807500D03*
X0823272Y0807500D03*
X0864728Y0808750D03*
X0868272Y0808750D03*
X0940000Y0800000D02*
G75*
%LPD*%
D21*
X0951500Y0810000D03*
X1071500Y0810000D03*
D78*
X1071500Y0870000D03*
X1071500Y0880000D03*
X1071500Y0890000D03*
X1071500Y0900000D03*
X1071500Y0910000D03*
X0951500Y0910000D03*
X0951500Y0900000D03*
X0951500Y0890000D03*
X0951500Y0880000D03*
X0951500Y0870000D03*
D29*
X0988825Y0907500D03*
X0995425Y0907500D03*
X1006950Y0906875D03*
X1013550Y0906875D03*
X1056325Y0862500D03*
X1062925Y0862500D03*
D140*
X1026500Y0867500D03*
X1016500Y0867500D03*
X1006500Y0867500D03*
X0996500Y0867500D03*
X0996500Y0897500D03*
X1006500Y0897500D03*
X1016500Y0897500D03*
X1026500Y0897500D03*
D69*
X0977125Y0825000D03*
D60*
X0990905Y0825000D03*
X1004684Y0825000D03*
X1018464Y0825000D03*
X1032243Y0825000D03*
X1046023Y0825000D03*
D35*
X1042661Y0808750D03*
X1025339Y0808750D03*
X1000161Y0808750D03*
X0982839Y0808750D03*
D82*
X0964516Y0826844D02*
X0964031Y0826359D01*
X0963469Y0825965D01*
X0962847Y0825675D01*
X0962184Y0825498D01*
X0961500Y0825438D01*
X0960816Y0825498D01*
X0960153Y0825675D01*
X0959531Y0825965D01*
X0958969Y0826359D01*
X0958484Y0826844D01*
X0958090Y0827406D01*
X0957800Y0828028D01*
X0957623Y0828691D01*
X0957563Y0829375D01*
X0957623Y0830059D01*
X0957800Y0830722D01*
X0958090Y0831344D01*
X0958484Y0831906D01*
X0958969Y0832391D01*
X0959531Y0832785D01*
X0960153Y0833075D01*
X0960816Y0833252D01*
X0961500Y0833312D01*
X0962184Y0833252D01*
X0962847Y0833075D01*
X0963469Y0832785D01*
X0964031Y0832391D01*
X0964516Y0831906D01*
X0964910Y0831344D01*
X0965200Y0830722D01*
X0965377Y0830059D01*
X0965437Y0829375D01*
X0965377Y0828691D01*
X0965200Y0828028D01*
X0964910Y0827406D01*
X0964516Y0826844D01*
X0964569Y0826920D02*
X0958431Y0826920D01*
X0958085Y0827418D02*
X0964915Y0827418D01*
X0965147Y0827917D02*
X0957853Y0827917D01*
X0957697Y0828415D02*
X0965303Y0828415D01*
X0965397Y0828914D02*
X0957603Y0828914D01*
X0957566Y0829412D02*
X0965434Y0829412D01*
X0965390Y0829911D02*
X0957610Y0829911D01*
X0957717Y0830409D02*
X0965283Y0830409D01*
X0965113Y0830908D02*
X0957887Y0830908D01*
X0958134Y0831406D02*
X0964866Y0831406D01*
X0964517Y0831905D02*
X0958483Y0831905D01*
X0958987Y0832403D02*
X0964013Y0832403D01*
X0963217Y0832902D02*
X0959783Y0832902D01*
X0958907Y0826421D02*
X0964093Y0826421D01*
X0963377Y0825923D02*
X0959623Y0825923D01*
X1033969Y0906984D02*
X1033484Y0907469D01*
X1033090Y0908031D01*
X1032800Y0908653D01*
X1032623Y0909316D01*
X1032563Y0910000D01*
X1032623Y0910684D01*
X1032800Y0911347D01*
X1033090Y0911969D01*
X1033484Y0912531D01*
X1033969Y0913016D01*
X1034531Y0913410D01*
X1035153Y0913700D01*
X1035816Y0913877D01*
X1036500Y0913937D01*
X1037184Y0913877D01*
X1037847Y0913700D01*
X1038469Y0913410D01*
X1039031Y0913016D01*
X1039516Y0912531D01*
X1039910Y0911969D01*
X1040200Y0911347D01*
X1040377Y0910684D01*
X1040437Y0910000D01*
X1040377Y0909316D01*
X1040200Y0908653D01*
X1039910Y0908031D01*
X1039516Y0907469D01*
X1039031Y0906984D01*
X1038469Y0906590D01*
X1037847Y0906300D01*
X1037184Y0906123D01*
X1036500Y0906063D01*
X1035816Y0906123D01*
X1035153Y0906300D01*
X1034531Y0906590D01*
X1033969Y0906984D01*
X1033773Y0907180D02*
X1039227Y0907180D01*
X1039662Y0907678D02*
X1033338Y0907678D01*
X1033023Y0908177D02*
X1039977Y0908177D01*
X1040205Y0908675D02*
X1032795Y0908675D01*
X1032661Y0909174D02*
X1040339Y0909174D01*
X1040408Y0909672D02*
X1032592Y0909672D01*
X1032578Y0910171D02*
X1040422Y0910171D01*
X1040378Y0910670D02*
X1032622Y0910670D01*
X1032753Y0911168D02*
X1040247Y0911168D01*
X1040050Y0911667D02*
X1032950Y0911667D01*
X1033228Y0912165D02*
X1039772Y0912165D01*
X1039383Y0912664D02*
X1033617Y0912664D01*
X1034178Y0913162D02*
X1038822Y0913162D01*
X1037930Y0913661D02*
X1035070Y0913661D01*
X1034402Y0906681D02*
X1038598Y0906681D01*
X1037408Y0906183D02*
X1035592Y0906183D01*
D55*
X1041500Y0876750D03*
X1051500Y0875750D03*
X1061500Y0876750D03*
D124*
X1039000Y0892500D03*
D76*
X1048250Y0892500D03*
D17*
X0959000Y0858300D03*
X0959000Y0851700D03*
D94*
X0969728Y0807500D03*
X0973272Y0807500D03*
X1014728Y0808750D03*
X1018272Y0808750D03*
X1090000Y0800000D02*
G75*
%LPD*%
D21*
X1101500Y0810000D03*
X1221500Y0810000D03*
D78*
X1221500Y0870000D03*
X1221500Y0880000D03*
X1221500Y0890000D03*
X1221500Y0900000D03*
X1221500Y0910000D03*
X1101500Y0910000D03*
X1101500Y0900000D03*
X1101500Y0890000D03*
X1101500Y0880000D03*
X1101500Y0870000D03*
D29*
X1138825Y0907500D03*
X1145425Y0907500D03*
X1156950Y0906875D03*
X1163550Y0906875D03*
X1206325Y0862500D03*
X1212925Y0862500D03*
D140*
X1176500Y0867500D03*
X1166500Y0867500D03*
X1156500Y0867500D03*
X1146500Y0867500D03*
X1146500Y0897500D03*
X1156500Y0897500D03*
X1166500Y0897500D03*
X1176500Y0897500D03*
D69*
X1127125Y0825000D03*
D60*
X1140905Y0825000D03*
X1154684Y0825000D03*
X1168464Y0825000D03*
X1182243Y0825000D03*
X1196023Y0825000D03*
D35*
X1192661Y0808750D03*
X1175339Y0808750D03*
X1150161Y0808750D03*
X1132839Y0808750D03*
D82*
X1114516Y0826844D02*
X1114031Y0826359D01*
X1113469Y0825965D01*
X1112847Y0825675D01*
X1112184Y0825498D01*
X1111500Y0825438D01*
X1110816Y0825498D01*
X1110153Y0825675D01*
X1109531Y0825965D01*
X1108969Y0826359D01*
X1108484Y0826844D01*
X1108090Y0827406D01*
X1107800Y0828028D01*
X1107623Y0828691D01*
X1107563Y0829375D01*
X1107623Y0830059D01*
X1107800Y0830722D01*
X1108090Y0831344D01*
X1108484Y0831906D01*
X1108969Y0832391D01*
X1109531Y0832785D01*
X1110153Y0833075D01*
X1110816Y0833252D01*
X1111500Y0833312D01*
X1112184Y0833252D01*
X1112847Y0833075D01*
X1113469Y0832785D01*
X1114031Y0832391D01*
X1114516Y0831906D01*
X1114910Y0831344D01*
X1115200Y0830722D01*
X1115377Y0830059D01*
X1115437Y0829375D01*
X1115377Y0828691D01*
X1115200Y0828028D01*
X1114910Y0827406D01*
X1114516Y0826844D01*
X1114569Y0826920D02*
X1108431Y0826920D01*
X1108085Y0827418D02*
X1114915Y0827418D01*
X1115147Y0827917D02*
X1107853Y0827917D01*
X1107697Y0828415D02*
X1115303Y0828415D01*
X1115397Y0828914D02*
X1107603Y0828914D01*
X1107566Y0829412D02*
X1115434Y0829412D01*
X1115390Y0829911D02*
X1107610Y0829911D01*
X1107717Y0830409D02*
X1115283Y0830409D01*
X1115113Y0830908D02*
X1107887Y0830908D01*
X1108134Y0831406D02*
X1114866Y0831406D01*
X1114517Y0831905D02*
X1108483Y0831905D01*
X1108987Y0832403D02*
X1114013Y0832403D01*
X1113217Y0832902D02*
X1109783Y0832902D01*
X1108907Y0826421D02*
X1114093Y0826421D01*
X1113377Y0825923D02*
X1109623Y0825923D01*
X1183969Y0906984D02*
X1183484Y0907469D01*
X1183090Y0908031D01*
X1182800Y0908653D01*
X1182623Y0909316D01*
X1182563Y0910000D01*
X1182623Y0910684D01*
X1182800Y0911347D01*
X1183090Y0911969D01*
X1183484Y0912531D01*
X1183969Y0913016D01*
X1184531Y0913410D01*
X1185153Y0913700D01*
X1185816Y0913877D01*
X1186500Y0913937D01*
X1187184Y0913877D01*
X1187847Y0913700D01*
X1188469Y0913410D01*
X1189031Y0913016D01*
X1189516Y0912531D01*
X1189910Y0911969D01*
X1190200Y0911347D01*
X1190377Y0910684D01*
X1190437Y0910000D01*
X1190377Y0909316D01*
X1190200Y0908653D01*
X1189910Y0908031D01*
X1189516Y0907469D01*
X1189031Y0906984D01*
X1188469Y0906590D01*
X1187847Y0906300D01*
X1187184Y0906123D01*
X1186500Y0906063D01*
X1185816Y0906123D01*
X1185153Y0906300D01*
X1184531Y0906590D01*
X1183969Y0906984D01*
X1183773Y0907180D02*
X1189227Y0907180D01*
X1189662Y0907678D02*
X1183338Y0907678D01*
X1183023Y0908177D02*
X1189977Y0908177D01*
X1190205Y0908675D02*
X1182795Y0908675D01*
X1182661Y0909174D02*
X1190339Y0909174D01*
X1190408Y0909672D02*
X1182592Y0909672D01*
X1182578Y0910171D02*
X1190422Y0910171D01*
X1190378Y0910670D02*
X1182622Y0910670D01*
X1182753Y0911168D02*
X1190247Y0911168D01*
X1190050Y0911667D02*
X1182950Y0911667D01*
X1183228Y0912165D02*
X1189772Y0912165D01*
X1189383Y0912664D02*
X1183617Y0912664D01*
X1184178Y0913162D02*
X1188822Y0913162D01*
X1187930Y0913661D02*
X1185070Y0913661D01*
X1184402Y0906681D02*
X1188598Y0906681D01*
X1187408Y0906183D02*
X1185592Y0906183D01*
D55*
X1191500Y0876750D03*
X1201500Y0875750D03*
X1211500Y0876750D03*
D124*
X1189000Y0892500D03*
D76*
X1198250Y0892500D03*
D17*
X1109000Y0858300D03*
X1109000Y0851700D03*
D94*
X1119728Y0807500D03*
X1123272Y0807500D03*
X1164728Y0808750D03*
X1168272Y0808750D03*
X1240000Y0800000D02*
G75*
%LPD*%
D21*
X1251500Y0810000D03*
X1371500Y0810000D03*
D78*
X1371500Y0870000D03*
X1371500Y0880000D03*
X1371500Y0890000D03*
X1371500Y0900000D03*
X1371500Y0910000D03*
X1251500Y0910000D03*
X1251500Y0900000D03*
X1251500Y0890000D03*
X1251500Y0880000D03*
X1251500Y0870000D03*
D29*
X1288825Y0907500D03*
X1295425Y0907500D03*
X1306950Y0906875D03*
X1313550Y0906875D03*
X1356325Y0862500D03*
X1362925Y0862500D03*
D140*
X1326500Y0867500D03*
X1316500Y0867500D03*
X1306500Y0867500D03*
X1296500Y0867500D03*
X1296500Y0897500D03*
X1306500Y0897500D03*
X1316500Y0897500D03*
X1326500Y0897500D03*
D69*
X1277125Y0825000D03*
D60*
X1290905Y0825000D03*
X1304684Y0825000D03*
X1318464Y0825000D03*
X1332243Y0825000D03*
X1346023Y0825000D03*
D35*
X1342661Y0808750D03*
X1325339Y0808750D03*
X1300161Y0808750D03*
X1282839Y0808750D03*
D82*
X1264516Y0826844D02*
X1264031Y0826359D01*
X1263469Y0825965D01*
X1262847Y0825675D01*
X1262184Y0825498D01*
X1261500Y0825438D01*
X1260816Y0825498D01*
X1260153Y0825675D01*
X1259531Y0825965D01*
X1258969Y0826359D01*
X1258484Y0826844D01*
X1258090Y0827406D01*
X1257800Y0828028D01*
X1257623Y0828691D01*
X1257563Y0829375D01*
X1257623Y0830059D01*
X1257800Y0830722D01*
X1258090Y0831344D01*
X1258484Y0831906D01*
X1258969Y0832391D01*
X1259531Y0832785D01*
X1260153Y0833075D01*
X1260816Y0833252D01*
X1261500Y0833312D01*
X1262184Y0833252D01*
X1262847Y0833075D01*
X1263469Y0832785D01*
X1264031Y0832391D01*
X1264516Y0831906D01*
X1264910Y0831344D01*
X1265200Y0830722D01*
X1265377Y0830059D01*
X1265437Y0829375D01*
X1265377Y0828691D01*
X1265200Y0828028D01*
X1264910Y0827406D01*
X1264516Y0826844D01*
X1264569Y0826920D02*
X1258431Y0826920D01*
X1258085Y0827418D02*
X1264915Y0827418D01*
X1265147Y0827917D02*
X1257853Y0827917D01*
X1257697Y0828415D02*
X1265303Y0828415D01*
X1265397Y0828914D02*
X1257603Y0828914D01*
X1257566Y0829412D02*
X1265434Y0829412D01*
X1265390Y0829911D02*
X1257610Y0829911D01*
X1257717Y0830409D02*
X1265283Y0830409D01*
X1265113Y0830908D02*
X1257887Y0830908D01*
X1258134Y0831406D02*
X1264866Y0831406D01*
X1264517Y0831905D02*
X1258483Y0831905D01*
X1258987Y0832403D02*
X1264013Y0832403D01*
X1263217Y0832902D02*
X1259783Y0832902D01*
X1258907Y0826421D02*
X1264093Y0826421D01*
X1263377Y0825923D02*
X1259623Y0825923D01*
X1333969Y0906984D02*
X1333484Y0907469D01*
X1333090Y0908031D01*
X1332800Y0908653D01*
X1332623Y0909316D01*
X1332563Y0910000D01*
X1332623Y0910684D01*
X1332800Y0911347D01*
X1333090Y0911969D01*
X1333484Y0912531D01*
X1333969Y0913016D01*
X1334531Y0913410D01*
X1335153Y0913700D01*
X1335816Y0913877D01*
X1336500Y0913937D01*
X1337184Y0913877D01*
X1337847Y0913700D01*
X1338469Y0913410D01*
X1339031Y0913016D01*
X1339516Y0912531D01*
X1339910Y0911969D01*
X1340200Y0911347D01*
X1340377Y0910684D01*
X1340437Y0910000D01*
X1340377Y0909316D01*
X1340200Y0908653D01*
X1339910Y0908031D01*
X1339516Y0907469D01*
X1339031Y0906984D01*
X1338469Y0906590D01*
X1337847Y0906300D01*
X1337184Y0906123D01*
X1336500Y0906063D01*
X1335816Y0906123D01*
X1335153Y0906300D01*
X1334531Y0906590D01*
X1333969Y0906984D01*
X1333773Y0907180D02*
X1339227Y0907180D01*
X1339662Y0907678D02*
X1333338Y0907678D01*
X1333023Y0908177D02*
X1339977Y0908177D01*
X1340205Y0908675D02*
X1332795Y0908675D01*
X1332661Y0909174D02*
X1340339Y0909174D01*
X1340408Y0909672D02*
X1332592Y0909672D01*
X1332578Y0910171D02*
X1340422Y0910171D01*
X1340378Y0910670D02*
X1332622Y0910670D01*
X1332753Y0911168D02*
X1340247Y0911168D01*
X1340050Y0911667D02*
X1332950Y0911667D01*
X1333228Y0912165D02*
X1339772Y0912165D01*
X1339383Y0912664D02*
X1333617Y0912664D01*
X1334178Y0913162D02*
X1338822Y0913162D01*
X1337930Y0913661D02*
X1335070Y0913661D01*
X1334402Y0906681D02*
X1338598Y0906681D01*
X1337408Y0906183D02*
X1335592Y0906183D01*
D55*
X1341500Y0876750D03*
X1351500Y0875750D03*
X1361500Y0876750D03*
D124*
X1339000Y0892500D03*
D76*
X1348250Y0892500D03*
D17*
X1259000Y0858300D03*
X1259000Y0851700D03*
D94*
X1269728Y0807500D03*
X1273272Y0807500D03*
X1314728Y0808750D03*
X1318272Y0808750D03*
X1280000Y0170000D02*
G75*
%LPD*%
D38*
X1286250Y0180000D03*
X1286250Y0190000D03*
X1286250Y0200000D03*
X1286250Y0210000D03*
X1356250Y0210000D03*
X1356250Y0200000D03*
D29*
X1339550Y0195000D03*
X1332950Y0195000D03*
X1332950Y0185000D03*
X1339550Y0185000D03*
X1356700Y0180000D03*
X1363300Y0180000D03*
X1337050Y0175000D03*
X1330450Y0175000D03*
X1332950Y0205000D03*
X1339550Y0205000D03*
X1339550Y0213750D03*
X1332950Y0213750D03*
D82*
X1310187Y0215000D02*
X1310127Y0214316D01*
X1309950Y0213653D01*
X1309660Y0213031D01*
X1309266Y0212469D01*
X1308781Y0211984D01*
X1308219Y0211590D01*
X1307597Y0211300D01*
X1306934Y0211123D01*
X1306250Y0211063D01*
X1305566Y0211123D01*
X1304903Y0211300D01*
X1304281Y0211590D01*
X1303719Y0211984D01*
X1303234Y0212469D01*
X1302840Y0213031D01*
X1302550Y0213653D01*
X1302373Y0214316D01*
X1302313Y0215000D01*
X1302373Y0215684D01*
X1302550Y0216347D01*
X1309950Y0216347D01*
X1310127Y0215684D01*
X1310187Y0215000D01*
X1310174Y0214851D02*
X1302326Y0214851D01*
X1302344Y0215350D02*
X1310156Y0215350D01*
X1310083Y0215848D02*
X1302417Y0215848D01*
X1302550Y0216347D02*
X1302840Y0216969D01*
X1303234Y0217531D01*
X1303719Y0218016D01*
X1304281Y0218410D01*
X1304903Y0218700D01*
X1305566Y0218877D01*
X1306250Y0218937D01*
X1306934Y0218877D01*
X1307597Y0218700D01*
X1308219Y0218410D01*
X1308781Y0218016D01*
X1309266Y0217531D01*
X1309660Y0216969D01*
X1309950Y0216347D01*
X1309717Y0216845D02*
X1302783Y0216845D01*
X1303103Y0217344D02*
X1309397Y0217344D01*
X1308954Y0217842D02*
X1303546Y0217842D01*
X1304183Y0218341D02*
X1308317Y0218341D01*
X1307075Y0218839D02*
X1305425Y0218839D01*
X1302370Y0214353D02*
X1310130Y0214353D01*
X1310003Y0213854D02*
X1302497Y0213854D01*
X1302689Y0213356D02*
X1309811Y0213356D01*
X1309537Y0212857D02*
X1302963Y0212857D01*
X1303345Y0212359D02*
X1309155Y0212359D01*
X1308604Y0211860D02*
X1303896Y0211860D01*
X1304772Y0211362D02*
X1307728Y0211362D01*
X1362550Y0191347D02*
X1362373Y0190684D01*
X1362313Y0190000D01*
X1362373Y0189316D01*
X1362550Y0188653D01*
X1362840Y0188031D01*
X1363234Y0187469D01*
X1363719Y0186984D01*
X1364281Y0186590D01*
X1364903Y0186300D01*
X1365566Y0186123D01*
X1366250Y0186063D01*
X1366934Y0186123D01*
X1367597Y0186300D01*
X1368219Y0186590D01*
X1368781Y0186984D01*
X1369266Y0187469D01*
X1369660Y0188031D01*
X1369950Y0188653D01*
X1370127Y0189316D01*
X1370187Y0190000D01*
X1370127Y0190684D01*
X1369950Y0191347D01*
X1369660Y0191969D01*
X1369266Y0192531D01*
X1368781Y0193016D01*
X1368219Y0193410D01*
X1367597Y0193700D01*
X1366934Y0193877D01*
X1366250Y0193937D01*
X1365566Y0193877D01*
X1364903Y0193700D01*
X1364281Y0193410D01*
X1363719Y0193016D01*
X1363234Y0192531D01*
X1362840Y0191969D01*
X1362550Y0191347D01*
X1362585Y0191421D02*
X1369915Y0191421D01*
X1370063Y0190923D02*
X1362437Y0190923D01*
X1362350Y0190424D02*
X1370150Y0190424D01*
X1370180Y0189926D02*
X1362320Y0189926D01*
X1362363Y0189427D02*
X1370137Y0189427D01*
X1370023Y0188929D02*
X1362477Y0188929D01*
X1362655Y0188430D02*
X1369845Y0188430D01*
X1369590Y0187932D02*
X1362910Y0187932D01*
X1363270Y0187433D02*
X1369230Y0187433D01*
X1368710Y0186934D02*
X1363790Y0186934D01*
X1364613Y0186436D02*
X1367887Y0186436D01*
X1369682Y0191920D02*
X1362818Y0191920D01*
X1363155Y0192418D02*
X1369345Y0192418D01*
X1368880Y0192917D02*
X1363620Y0192917D01*
X1364293Y0193415D02*
X1368206Y0193415D01*
X1366517Y0193914D02*
X1365983Y0193914D01*
D12*
X1366250Y0200000D03*
X1366250Y0210000D03*
D75*
X1316250Y0205000D03*
X1306250Y0205000D03*
X1306250Y0195000D03*
X1316250Y0195000D03*
X1316250Y0185000D03*
X1306250Y0185000D03*
D74*
X1296250Y0210000D03*
D55*
X1296250Y0200000D03*
X1296250Y0190000D03*
X1296250Y0180000D03*
X1280000Y0360000D02*
G75*
%LPD*%
D38*
X1286250Y0370000D03*
X1286250Y0380000D03*
X1286250Y0390000D03*
X1286250Y0400000D03*
X1356250Y0400000D03*
X1356250Y0390000D03*
D29*
X1339550Y0385000D03*
X1332950Y0385000D03*
X1332950Y0375000D03*
X1339550Y0375000D03*
X1356700Y0370000D03*
X1363300Y0370000D03*
X1337050Y0365000D03*
X1330450Y0365000D03*
X1332950Y0395000D03*
X1339550Y0395000D03*
X1339550Y0403750D03*
X1332950Y0403750D03*
D82*
X1310187Y0405000D02*
X1310127Y0404316D01*
X1309950Y0403653D01*
X1309660Y0403031D01*
X1309266Y0402469D01*
X1308781Y0401984D01*
X1308219Y0401590D01*
X1307597Y0401300D01*
X1306934Y0401123D01*
X1306250Y0401063D01*
X1305566Y0401123D01*
X1304903Y0401300D01*
X1304281Y0401590D01*
X1303719Y0401984D01*
X1303234Y0402469D01*
X1302840Y0403031D01*
X1302550Y0403653D01*
X1302373Y0404316D01*
X1302313Y0405000D01*
X1302373Y0405684D01*
X1302550Y0406347D01*
X1309950Y0406347D01*
X1310127Y0405684D01*
X1310187Y0405000D01*
X1310174Y0404851D02*
X1302326Y0404851D01*
X1302344Y0405350D02*
X1310156Y0405350D01*
X1310083Y0405848D02*
X1302417Y0405848D01*
X1302550Y0406347D02*
X1302840Y0406969D01*
X1303234Y0407531D01*
X1303719Y0408016D01*
X1304281Y0408410D01*
X1304903Y0408700D01*
X1305566Y0408877D01*
X1306250Y0408937D01*
X1306934Y0408877D01*
X1307597Y0408700D01*
X1308219Y0408410D01*
X1308781Y0408016D01*
X1309266Y0407531D01*
X1309660Y0406969D01*
X1309950Y0406347D01*
X1309717Y0406845D02*
X1302783Y0406845D01*
X1303103Y0407344D02*
X1309397Y0407344D01*
X1308954Y0407842D02*
X1303546Y0407842D01*
X1304183Y0408341D02*
X1308317Y0408341D01*
X1307075Y0408839D02*
X1305425Y0408839D01*
X1302370Y0404353D02*
X1310130Y0404353D01*
X1310003Y0403854D02*
X1302497Y0403854D01*
X1302689Y0403356D02*
X1309811Y0403356D01*
X1309537Y0402857D02*
X1302963Y0402857D01*
X1303345Y0402359D02*
X1309155Y0402359D01*
X1308604Y0401860D02*
X1303896Y0401860D01*
X1304772Y0401362D02*
X1307728Y0401362D01*
X1362550Y0381347D02*
X1362373Y0380684D01*
X1362313Y0380000D01*
X1362373Y0379316D01*
X1362550Y0378653D01*
X1362840Y0378031D01*
X1363234Y0377469D01*
X1363719Y0376984D01*
X1364281Y0376590D01*
X1364903Y0376300D01*
X1365566Y0376123D01*
X1366250Y0376063D01*
X1366934Y0376123D01*
X1367597Y0376300D01*
X1368219Y0376590D01*
X1368781Y0376984D01*
X1369266Y0377469D01*
X1369660Y0378031D01*
X1369950Y0378653D01*
X1370127Y0379316D01*
X1370187Y0380000D01*
X1370127Y0380684D01*
X1369950Y0381347D01*
X1369660Y0381969D01*
X1369266Y0382531D01*
X1368781Y0383016D01*
X1368219Y0383410D01*
X1367597Y0383700D01*
X1366934Y0383877D01*
X1366250Y0383937D01*
X1365566Y0383877D01*
X1364903Y0383700D01*
X1364281Y0383410D01*
X1363719Y0383016D01*
X1363234Y0382531D01*
X1362840Y0381969D01*
X1362550Y0381347D01*
X1362585Y0381421D02*
X1369915Y0381421D01*
X1370063Y0380923D02*
X1362437Y0380923D01*
X1362350Y0380424D02*
X1370150Y0380424D01*
X1370180Y0379926D02*
X1362320Y0379926D01*
X1362363Y0379427D02*
X1370137Y0379427D01*
X1370023Y0378929D02*
X1362477Y0378929D01*
X1362655Y0378430D02*
X1369845Y0378430D01*
X1369590Y0377932D02*
X1362910Y0377932D01*
X1363270Y0377433D02*
X1369230Y0377433D01*
X1368710Y0376934D02*
X1363790Y0376934D01*
X1364613Y0376436D02*
X1367887Y0376436D01*
X1369682Y0381920D02*
X1362818Y0381920D01*
X1363155Y0382418D02*
X1369345Y0382418D01*
X1368880Y0382917D02*
X1363620Y0382917D01*
X1364293Y0383415D02*
X1368206Y0383415D01*
X1366517Y0383914D02*
X1365983Y0383914D01*
D12*
X1366250Y0390000D03*
X1366250Y0400000D03*
D75*
X1316250Y0395000D03*
X1306250Y0395000D03*
X1306250Y0385000D03*
X1316250Y0385000D03*
X1316250Y0375000D03*
X1306250Y0375000D03*
D74*
X1296250Y0400000D03*
D55*
X1296250Y0390000D03*
X1296250Y0380000D03*
X1296250Y0370000D03*
M02*
